<?xml version="1.0" encoding="utf-8" standalone="no"?>
<!DOCTYPE svg PUBLIC "-//W3C//DTD SVG 1.1//EN"
  "http://www.w3.org/Graphics/SVG/1.1/DTD/svg11.dtd">
<svg xmlns:xlink="http://www.w3.org/1999/xlink" width="288pt" height="216pt" viewBox="0 0 288 216" xmlns="http://www.w3.org/2000/svg" version="1.1">
 <metadata>
  <rdf:RDF xmlns:dc="http://purl.org/dc/elements/1.1/" xmlns:cc="http://creativecommons.org/ns#" xmlns:rdf="http://www.w3.org/1999/02/22-rdf-syntax-ns#">
   <cc:Work>
    <dc:type rdf:resource="http://purl.org/dc/dcmitype/StillImage"/>
    <dc:date>2024-05-21T22:18:10.664961</dc:date>
    <dc:format>image/svg+xml</dc:format>
    <dc:creator>
     <cc:Agent>
      <dc:title>Matplotlib v3.5.0, https://matplotlib.org/</dc:title>
     </cc:Agent>
    </dc:creator>
   </cc:Work>
  </rdf:RDF>
 </metadata>
 <defs>
  <style type="text/css">*{stroke-linejoin: round; stroke-linecap: butt}</style>
 </defs>
 <g id="figure_1">
  <g id="patch_1">
   <path d="M 0 216 
L 288 216 
L 288 0 
L 0 0 
z
" style="fill: #ffffff"/>
  </g>
  <g id="axes_1">
   <g id="patch_2">
    <path d="M 54.72 168.48 
L 259.2 168.48 
L 259.2 21.6 
L 54.72 21.6 
z
" style="fill: #ffffff"/>
   </g>
   <g id="matplotlib.axis_1">
    <g id="xtick_1">
     <g id="line2d_1">
      <defs>
       <path id="m04be9b292d" d="M 0 0 
L 0 3.5 
" style="stroke: #000000; stroke-width: 0.8"/>
      </defs>
      <g>
       <use xlink:href="#m04be9b292d" x="64.014545" y="168.48" style="stroke: #000000; stroke-width: 0.8"/>
      </g>
     </g>
     <g id="text_1">
      <!-- 0 -->
      <g transform="translate(59.514545 187.97875)scale(0.18 -0.18)">
       <defs>
        <path id="TimesNewRomanPSMT-30" d="M 231 2094 
Q 231 2819 450 3342 
Q 669 3866 1031 4122 
Q 1313 4325 1613 4325 
Q 2100 4325 2488 3828 
Q 2972 3213 2972 2159 
Q 2972 1422 2759 906 
Q 2547 391 2217 158 
Q 1888 -75 1581 -75 
Q 975 -75 572 641 
Q 231 1244 231 2094 
z
M 844 2016 
Q 844 1141 1059 588 
Q 1238 122 1591 122 
Q 1759 122 1940 273 
Q 2122 425 2216 781 
Q 2359 1319 2359 2297 
Q 2359 3022 2209 3506 
Q 2097 3866 1919 4016 
Q 1791 4119 1609 4119 
Q 1397 4119 1231 3928 
Q 1006 3669 925 3112 
Q 844 2556 844 2016 
z
" transform="scale(0.015625)"/>
       </defs>
       <use xlink:href="#TimesNewRomanPSMT-30"/>
      </g>
     </g>
    </g>
    <g id="xtick_2">
     <g id="line2d_2">
      <g>
       <use xlink:href="#m04be9b292d" x="157.053038" y="168.48" style="stroke: #000000; stroke-width: 0.8"/>
      </g>
     </g>
     <g id="text_2">
      <!-- 500 -->
      <g transform="translate(143.553038 187.97875)scale(0.18 -0.18)">
       <defs>
        <path id="TimesNewRomanPSMT-35" d="M 2778 4238 
L 2534 3706 
L 1259 3706 
L 981 3138 
Q 1809 3016 2294 2522 
Q 2709 2097 2709 1522 
Q 2709 1188 2573 903 
Q 2438 619 2231 419 
Q 2025 219 1772 97 
Q 1413 -75 1034 -75 
Q 653 -75 479 54 
Q 306 184 306 341 
Q 306 428 378 495 
Q 450 563 559 563 
Q 641 563 702 538 
Q 763 513 909 409 
Q 1144 247 1384 247 
Q 1750 247 2026 523 
Q 2303 800 2303 1197 
Q 2303 1581 2056 1914 
Q 1809 2247 1375 2428 
Q 1034 2569 447 2591 
L 1259 4238 
L 2778 4238 
z
" transform="scale(0.015625)"/>
       </defs>
       <use xlink:href="#TimesNewRomanPSMT-35"/>
       <use xlink:href="#TimesNewRomanPSMT-30" x="50"/>
       <use xlink:href="#TimesNewRomanPSMT-30" x="100"/>
      </g>
     </g>
    </g>
    <g id="xtick_3">
     <g id="line2d_3">
      <g>
       <use xlink:href="#m04be9b292d" x="250.091532" y="168.48" style="stroke: #000000; stroke-width: 0.8"/>
      </g>
     </g>
     <g id="text_3">
      <!-- 1000 -->
      <g transform="translate(232.091532 187.97875)scale(0.18 -0.18)">
       <defs>
        <path id="TimesNewRomanPSMT-31" d="M 750 3822 
L 1781 4325 
L 1884 4325 
L 1884 747 
Q 1884 391 1914 303 
Q 1944 216 2037 169 
Q 2131 122 2419 116 
L 2419 0 
L 825 0 
L 825 116 
Q 1125 122 1212 167 
Q 1300 213 1334 289 
Q 1369 366 1369 747 
L 1369 3034 
Q 1369 3497 1338 3628 
Q 1316 3728 1258 3775 
Q 1200 3822 1119 3822 
Q 1003 3822 797 3725 
L 750 3822 
z
" transform="scale(0.015625)"/>
       </defs>
       <use xlink:href="#TimesNewRomanPSMT-31"/>
       <use xlink:href="#TimesNewRomanPSMT-30" x="50"/>
       <use xlink:href="#TimesNewRomanPSMT-30" x="100"/>
       <use xlink:href="#TimesNewRomanPSMT-30" x="150"/>
      </g>
     </g>
    </g>
    <g id="text_4">
     <!-- Epoch -->
     <g transform="translate(133.967812 208.327812)scale(0.18 -0.18)">
      <defs>
       <path id="TimesNewRomanPSMT-45" d="M 1338 4006 
L 1338 2331 
L 2269 2331 
Q 2631 2331 2753 2441 
Q 2916 2584 2934 2947 
L 3050 2947 
L 3050 1472 
L 2934 1472 
Q 2891 1781 2847 1869 
Q 2791 1978 2662 2040 
Q 2534 2103 2269 2103 
L 1338 2103 
L 1338 706 
Q 1338 425 1363 364 
Q 1388 303 1450 267 
Q 1513 231 1688 231 
L 2406 231 
Q 2766 231 2928 281 
Q 3091 331 3241 478 
Q 3434 672 3638 1063 
L 3763 1063 
L 3397 0 
L 131 0 
L 131 116 
L 281 116 
Q 431 116 566 188 
Q 666 238 702 338 
Q 738 438 738 747 
L 738 3500 
Q 738 3903 656 3997 
Q 544 4122 281 4122 
L 131 4122 
L 131 4238 
L 3397 4238 
L 3444 3309 
L 3322 3309 
Q 3256 3644 3176 3769 
Q 3097 3894 2941 3959 
Q 2816 4006 2500 4006 
L 1338 4006 
z
" transform="scale(0.015625)"/>
       <path id="TimesNewRomanPSMT-70" d="M -6 2578 
L 875 2934 
L 994 2934 
L 994 2266 
Q 1216 2644 1439 2795 
Q 1663 2947 1909 2947 
Q 2341 2947 2628 2609 
Q 2981 2197 2981 1534 
Q 2981 794 2556 309 
Q 2206 -88 1675 -88 
Q 1444 -88 1275 -22 
Q 1150 25 994 166 
L 994 -706 
Q 994 -1000 1030 -1079 
Q 1066 -1159 1155 -1206 
Q 1244 -1253 1478 -1253 
L 1478 -1369 
L -22 -1369 
L -22 -1253 
L 56 -1253 
Q 228 -1256 350 -1188 
Q 409 -1153 442 -1076 
Q 475 -1000 475 -688 
L 475 2019 
Q 475 2297 450 2372 
Q 425 2447 370 2484 
Q 316 2522 222 2522 
Q 147 2522 31 2478 
L -6 2578 
z
M 994 2081 
L 994 1013 
Q 994 666 1022 556 
Q 1066 375 1236 237 
Q 1406 100 1666 100 
Q 1978 100 2172 344 
Q 2425 663 2425 1241 
Q 2425 1897 2138 2250 
Q 1938 2494 1663 2494 
Q 1513 2494 1366 2419 
Q 1253 2363 994 2081 
z
" transform="scale(0.015625)"/>
       <path id="TimesNewRomanPSMT-6f" d="M 1600 2947 
Q 2250 2947 2644 2453 
Q 2978 2031 2978 1484 
Q 2978 1100 2793 706 
Q 2609 313 2286 112 
Q 1963 -88 1566 -88 
Q 919 -88 538 428 
Q 216 863 216 1403 
Q 216 1797 411 2186 
Q 606 2575 925 2761 
Q 1244 2947 1600 2947 
z
M 1503 2744 
Q 1338 2744 1170 2645 
Q 1003 2547 900 2300 
Q 797 2053 797 1666 
Q 797 1041 1045 587 
Q 1294 134 1700 134 
Q 2003 134 2200 384 
Q 2397 634 2397 1244 
Q 2397 2006 2069 2444 
Q 1847 2744 1503 2744 
z
" transform="scale(0.015625)"/>
       <path id="TimesNewRomanPSMT-63" d="M 2631 1088 
Q 2516 522 2178 217 
Q 1841 -88 1431 -88 
Q 944 -88 581 321 
Q 219 731 219 1428 
Q 219 2103 620 2525 
Q 1022 2947 1584 2947 
Q 2006 2947 2278 2723 
Q 2550 2500 2550 2259 
Q 2550 2141 2473 2067 
Q 2397 1994 2259 1994 
Q 2075 1994 1981 2113 
Q 1928 2178 1911 2362 
Q 1894 2547 1784 2644 
Q 1675 2738 1481 2738 
Q 1169 2738 978 2506 
Q 725 2200 725 1697 
Q 725 1184 976 792 
Q 1228 400 1656 400 
Q 1963 400 2206 609 
Q 2378 753 2541 1131 
L 2631 1088 
z
" transform="scale(0.015625)"/>
       <path id="TimesNewRomanPSMT-68" d="M 1041 4444 
L 1041 2350 
Q 1388 2731 1591 2839 
Q 1794 2947 1997 2947 
Q 2241 2947 2416 2812 
Q 2591 2678 2675 2391 
Q 2734 2191 2734 1659 
L 2734 647 
Q 2734 375 2778 275 
Q 2809 200 2884 156 
Q 2959 113 3159 113 
L 3159 0 
L 1753 0 
L 1753 113 
L 1819 113 
Q 2019 113 2097 173 
Q 2175 234 2206 353 
Q 2216 403 2216 647 
L 2216 1659 
Q 2216 2128 2167 2275 
Q 2119 2422 2012 2495 
Q 1906 2569 1756 2569 
Q 1603 2569 1437 2487 
Q 1272 2406 1041 2159 
L 1041 647 
Q 1041 353 1073 281 
Q 1106 209 1195 161 
Q 1284 113 1503 113 
L 1503 0 
L 84 0 
L 84 113 
Q 275 113 384 172 
Q 447 203 484 290 
Q 522 378 522 647 
L 522 3238 
Q 522 3728 498 3840 
Q 475 3953 426 3993 
Q 378 4034 297 4034 
Q 231 4034 84 3984 
L 41 4094 
L 897 4444 
L 1041 4444 
z
" transform="scale(0.015625)"/>
      </defs>
      <use xlink:href="#TimesNewRomanPSMT-45"/>
      <use xlink:href="#TimesNewRomanPSMT-70" x="61.083984"/>
      <use xlink:href="#TimesNewRomanPSMT-6f" x="111.083984"/>
      <use xlink:href="#TimesNewRomanPSMT-63" x="161.083984"/>
      <use xlink:href="#TimesNewRomanPSMT-68" x="205.46875"/>
     </g>
    </g>
   </g>
   <g id="matplotlib.axis_2">
    <g id="ytick_1">
     <g id="line2d_4">
      <defs>
       <path id="mc20e6de084" d="M 0 0 
L -3.5 0 
" style="stroke: #000000; stroke-width: 0.8"/>
      </defs>
      <g>
       <use xlink:href="#mc20e6de084" x="54.72" y="161.96479" style="stroke: #000000; stroke-width: 0.8"/>
      </g>
     </g>
     <g id="text_5">
      <!-- 0.0 -->
      <g transform="translate(25.22 168.214165)scale(0.18 -0.18)">
       <defs>
        <path id="TimesNewRomanPSMT-2e" d="M 800 606 
Q 947 606 1047 504 
Q 1147 403 1147 259 
Q 1147 116 1045 14 
Q 944 -88 800 -88 
Q 656 -88 554 14 
Q 453 116 453 259 
Q 453 406 554 506 
Q 656 606 800 606 
z
" transform="scale(0.015625)"/>
       </defs>
       <use xlink:href="#TimesNewRomanPSMT-30"/>
       <use xlink:href="#TimesNewRomanPSMT-2e" x="50"/>
       <use xlink:href="#TimesNewRomanPSMT-30" x="75"/>
      </g>
     </g>
    </g>
    <g id="ytick_2">
     <g id="line2d_5">
      <g>
       <use xlink:href="#mc20e6de084" x="54.72" y="137.855847" style="stroke: #000000; stroke-width: 0.8"/>
      </g>
     </g>
     <g id="text_6">
      <!-- 0.5 -->
      <g transform="translate(25.22 144.105222)scale(0.18 -0.18)">
       <use xlink:href="#TimesNewRomanPSMT-30"/>
       <use xlink:href="#TimesNewRomanPSMT-2e" x="50"/>
       <use xlink:href="#TimesNewRomanPSMT-35" x="75"/>
      </g>
     </g>
    </g>
    <g id="ytick_3">
     <g id="line2d_6">
      <g>
       <use xlink:href="#mc20e6de084" x="54.72" y="113.746903" style="stroke: #000000; stroke-width: 0.8"/>
      </g>
     </g>
     <g id="text_7">
      <!-- 1.0 -->
      <g transform="translate(25.22 119.996278)scale(0.18 -0.18)">
       <use xlink:href="#TimesNewRomanPSMT-31"/>
       <use xlink:href="#TimesNewRomanPSMT-2e" x="50"/>
       <use xlink:href="#TimesNewRomanPSMT-30" x="75"/>
      </g>
     </g>
    </g>
    <g id="ytick_4">
     <g id="line2d_7">
      <g>
       <use xlink:href="#mc20e6de084" x="54.72" y="89.63796" style="stroke: #000000; stroke-width: 0.8"/>
      </g>
     </g>
     <g id="text_8">
      <!-- 1.5 -->
      <g transform="translate(25.22 95.887335)scale(0.18 -0.18)">
       <use xlink:href="#TimesNewRomanPSMT-31"/>
       <use xlink:href="#TimesNewRomanPSMT-2e" x="50"/>
       <use xlink:href="#TimesNewRomanPSMT-35" x="75"/>
      </g>
     </g>
    </g>
    <g id="ytick_5">
     <g id="line2d_8">
      <g>
       <use xlink:href="#mc20e6de084" x="54.72" y="65.529017" style="stroke: #000000; stroke-width: 0.8"/>
      </g>
     </g>
     <g id="text_9">
      <!-- 2.0 -->
      <g transform="translate(25.22 71.778392)scale(0.18 -0.18)">
       <defs>
        <path id="TimesNewRomanPSMT-32" d="M 2934 816 
L 2638 0 
L 138 0 
L 138 116 
Q 1241 1122 1691 1759 
Q 2141 2397 2141 2925 
Q 2141 3328 1894 3587 
Q 1647 3847 1303 3847 
Q 991 3847 742 3664 
Q 494 3481 375 3128 
L 259 3128 
Q 338 3706 661 4015 
Q 984 4325 1469 4325 
Q 1984 4325 2329 3994 
Q 2675 3663 2675 3213 
Q 2675 2891 2525 2569 
Q 2294 2063 1775 1497 
Q 997 647 803 472 
L 1909 472 
Q 2247 472 2383 497 
Q 2519 522 2628 598 
Q 2738 675 2819 816 
L 2934 816 
z
" transform="scale(0.015625)"/>
       </defs>
       <use xlink:href="#TimesNewRomanPSMT-32"/>
       <use xlink:href="#TimesNewRomanPSMT-2e" x="50"/>
       <use xlink:href="#TimesNewRomanPSMT-30" x="75"/>
      </g>
     </g>
    </g>
    <g id="ytick_6">
     <g id="line2d_9">
      <g>
       <use xlink:href="#mc20e6de084" x="54.72" y="41.420074" style="stroke: #000000; stroke-width: 0.8"/>
      </g>
     </g>
     <g id="text_10">
      <!-- 2.5 -->
      <g transform="translate(25.22 47.669449)scale(0.18 -0.18)">
       <use xlink:href="#TimesNewRomanPSMT-32"/>
       <use xlink:href="#TimesNewRomanPSMT-2e" x="50"/>
       <use xlink:href="#TimesNewRomanPSMT-35" x="75"/>
      </g>
     </g>
    </g>
    <g id="text_11">
     <!-- Loss -->
     <g transform="translate(17.369687 112.042969)rotate(-90)scale(0.18 -0.18)">
      <defs>
       <path id="TimesNewRomanPSMT-4c" d="M 3669 1172 
L 3772 1150 
L 3409 0 
L 128 0 
L 128 116 
L 288 116 
Q 556 116 672 291 
Q 738 391 738 753 
L 738 3488 
Q 738 3884 650 3984 
Q 528 4122 288 4122 
L 128 4122 
L 128 4238 
L 2047 4238 
L 2047 4122 
Q 1709 4125 1573 4059 
Q 1438 3994 1388 3894 
Q 1338 3794 1338 3416 
L 1338 753 
Q 1338 494 1388 397 
Q 1425 331 1503 300 
Q 1581 269 1991 269 
L 2300 269 
Q 2788 269 2984 341 
Q 3181 413 3343 595 
Q 3506 778 3669 1172 
z
" transform="scale(0.015625)"/>
       <path id="TimesNewRomanPSMT-73" d="M 2050 2947 
L 2050 1972 
L 1947 1972 
Q 1828 2431 1642 2597 
Q 1456 2763 1169 2763 
Q 950 2763 815 2647 
Q 681 2531 681 2391 
Q 681 2216 781 2091 
Q 878 1963 1175 1819 
L 1631 1597 
Q 2266 1288 2266 781 
Q 2266 391 1970 151 
Q 1675 -88 1309 -88 
Q 1047 -88 709 6 
Q 606 38 541 38 
Q 469 38 428 -44 
L 325 -44 
L 325 978 
L 428 978 
Q 516 541 762 319 
Q 1009 97 1316 97 
Q 1531 97 1667 223 
Q 1803 350 1803 528 
Q 1803 744 1651 891 
Q 1500 1038 1047 1263 
Q 594 1488 453 1669 
Q 313 1847 313 2119 
Q 313 2472 555 2709 
Q 797 2947 1181 2947 
Q 1350 2947 1591 2875 
Q 1750 2828 1803 2828 
Q 1853 2828 1881 2850 
Q 1909 2872 1947 2947 
L 2050 2947 
z
" transform="scale(0.015625)"/>
      </defs>
      <use xlink:href="#TimesNewRomanPSMT-4c"/>
      <use xlink:href="#TimesNewRomanPSMT-6f" x="61.083984"/>
      <use xlink:href="#TimesNewRomanPSMT-73" x="111.083984"/>
      <use xlink:href="#TimesNewRomanPSMT-73" x="150"/>
     </g>
    </g>
   </g>
   <g id="line2d_10">
    <path d="M 64.014545 28.276364 
L 64.758853 28.319991 
L 65.131007 28.55259 
L 65.689238 29.099308 
L 65.875315 29.150821 
L 66.061392 29.072234 
L 67.363931 29.42975 
L 68.108239 29.690859 
L 68.480393 30.014415 
L 69.038624 30.22577 
L 69.410778 30.551085 
L 69.596855 30.557937 
L 70.155086 31.065889 
L 70.341163 31.154501 
L 71.085471 32.130744 
L 72.015856 33.845298 
L 72.574087 35.205809 
L 73.876626 37.719981 
L 74.062703 38.311763 
L 74.24878 38.435391 
L 74.620934 39.221318 
L 74.807011 39.383447 
L 75.179165 40.104398 
L 75.923473 41.109336 
L 76.481704 41.666319 
L 76.853857 42.509749 
L 77.412088 43.236252 
L 78.52855 44.574277 
L 79.272858 46.206208 
L 79.458935 46.348989 
L 79.645012 47.050098 
L 79.831089 46.976972 
L 82.994398 55.101407 
L 83.366552 56.749077 
L 83.552629 56.742352 
L 83.738706 58.121049 
L 83.924783 58.595755 
L 84.11086 58.629427 
L 85.413399 63.429438 
L 86.529861 68.245008 
L 86.715938 68.578531 
L 86.902015 68.603765 
L 87.088092 70.606611 
L 87.274169 71.248452 
L 87.460246 71.085524 
L 88.018477 73.736833 
L 88.576708 76.612585 
L 88.762785 77.754866 
L 88.948862 77.828095 
L 89.879247 82.75439 
L 90.065324 83.014252 
L 90.437477 84.567626 
L 90.809631 86.833513 
L 90.995708 86.833455 
L 91.367862 88.65033 
L 91.553939 90.28056 
L 91.740016 90.156518 
L 91.926093 90.751311 
L 92.11217 90.72848 
L 92.670401 93.529617 
L 92.856478 93.957948 
L 93.042555 96.195778 
L 93.228632 95.849828 
L 93.600786 98.580293 
L 93.786863 98.362931 
L 94.159017 100.472236 
L 94.345094 100.580127 
L 94.717248 102.673216 
L 95.647633 106.210054 
L 95.83371 106.413148 
L 96.205864 108.242548 
L 96.391941 108.190275 
L 96.764095 110.264483 
L 96.950172 110.591217 
L 97.508403 113.343731 
L 97.69448 113.423152 
L 97.880557 114.644152 
L 98.066634 114.974491 
L 98.438788 116.465355 
L 98.624865 116.908421 
L 98.810942 116.621106 
L 99.55525 119.354672 
L 99.741327 119.994035 
L 99.927404 120.102207 
L 100.485635 122.082728 
L 100.857789 123.638677 
L 101.043866 123.179513 
L 101.229943 124.500673 
L 101.41602 124.800826 
L 102.160328 127.347917 
L 102.346405 127.340402 
L 102.532482 128.165668 
L 102.718559 128.214698 
L 103.090713 129.043646 
L 103.27679 128.981527 
L 104.021097 130.760767 
L 104.207174 130.751785 
L 104.393251 131.188687 
L 104.579328 132.072129 
L 104.765405 131.711291 
L 104.951482 132.620539 
L 105.137559 132.562392 
L 105.69579 134.72728 
L 105.881867 134.908817 
L 106.440098 136.66411 
L 106.812252 137.313302 
L 106.998329 137.311791 
L 107.370483 138.542626 
L 107.55656 138.193217 
L 107.742637 138.632608 
L 108.114791 138.761236 
L 108.859099 140.457069 
L 109.045176 140.429359 
L 109.231253 140.846507 
L 109.41733 140.637109 
L 109.603407 141.50627 
L 109.975561 141.972525 
L 110.533792 142.161828 
L 110.719869 142.367787 
L 111.092023 143.390144 
L 111.2781 142.881582 
L 111.464177 143.850123 
L 111.650254 143.608511 
L 112.208485 144.287292 
L 112.394562 144.164557 
L 112.580639 144.973151 
L 113.511024 146.27566 
L 113.697101 146.17227 
L 113.883178 146.500811 
L 114.069255 146.560047 
L 114.627486 147.047461 
L 114.813563 147.65289 
L 114.99964 147.865131 
L 115.185717 148.419224 
L 115.371794 148.148832 
L 115.557871 148.299516 
L 115.743948 148.686405 
L 115.930025 148.543211 
L 116.116102 149.38768 
L 116.302179 149.536466 
L 116.488256 149.310298 
L 116.674333 149.836101 
L 116.86041 149.203236 
L 117.046486 150.079672 
L 117.41864 149.32684 
L 117.790794 150.233043 
L 117.976871 149.87707 
L 118.162948 150.210811 
L 118.349025 150.806317 
L 118.721179 150.617398 
L 118.907256 150.787012 
L 119.093333 150.520762 
L 119.465487 151.533885 
L 119.651564 151.123551 
L 120.023718 151.66753 
L 120.209795 151.580591 
L 120.395872 151.624112 
L 120.581949 152.194738 
L 120.954103 152.416282 
L 121.14018 152.835987 
L 121.326257 152.826489 
L 121.512334 153.052247 
L 121.698411 152.799739 
L 121.884488 153.04219 
L 122.070565 152.854863 
L 122.442719 152.947242 
L 123.00095 153.614442 
L 123.187027 153.185797 
L 123.373104 153.22167 
L 123.559181 153.546325 
L 123.745258 153.376779 
L 123.931335 153.542426 
L 124.303489 154.256432 
L 124.489566 153.980113 
L 124.675643 153.921762 
L 124.86172 154.480887 
L 125.047797 154.289573 
L 125.233874 154.533737 
L 125.419951 154.532267 
L 125.792105 155.240231 
L 125.978182 155.058894 
L 126.908567 155.859285 
L 127.094644 155.733726 
L 127.466798 156.133023 
L 127.652875 155.993801 
L 127.838952 156.262214 
L 128.211106 156.213759 
L 128.58326 156.79515 
L 128.769337 156.427451 
L 128.955414 156.626215 
L 129.699722 156.550364 
L 130.071876 156.973058 
L 130.257952 156.877234 
L 130.444029 157.143158 
L 130.630106 157.182086 
L 131.00226 156.851727 
L 131.188337 156.96798 
L 131.374414 157.224493 
L 131.560491 157.291196 
L 131.746568 157.227849 
L 131.932645 157.389726 
L 132.118722 157.369303 
L 132.304799 157.025664 
L 132.86303 157.474636 
L 133.793415 157.529668 
L 133.979492 157.425194 
L 134.351646 157.542863 
L 134.537723 157.29729 
L 134.7238 157.363164 
L 134.909877 157.550414 
L 135.654185 157.638344 
L 136.212416 158.042945 
L 136.398493 158.134268 
L 136.58457 158.019845 
L 136.956724 158.310438 
L 137.142801 158.373322 
L 137.328878 158.279583 
L 137.514955 158.345404 
L 137.701032 158.164389 
L 138.259263 158.310101 
L 138.817494 158.399208 
L 139.189648 158.731605 
L 139.375725 158.672838 
L 140.864341 159.206521 
L 141.422572 159.031524 
L 141.608649 158.787337 
L 141.794726 159.074726 
L 142.16688 159.02671 
L 142.539034 158.938724 
L 142.725111 159.163079 
L 142.911188 159.009206 
L 143.283342 159.185749 
L 144.213726 159.1175 
L 144.58588 159.409546 
L 144.771957 159.31406 
L 145.516265 159.452014 
L 145.888419 159.341693 
L 146.074496 159.476656 
L 146.260573 159.450428 
L 146.632727 159.618639 
L 147.004881 159.66258 
L 147.190958 159.413881 
L 147.377035 159.601722 
L 148.121343 159.742222 
L 148.30742 159.839526 
L 148.679574 159.799077 
L 149.609959 159.983071 
L 150.354267 159.774694 
L 150.912498 159.921202 
L 151.284652 159.938504 
L 151.470729 159.626816 
L 152.02896 159.760324 
L 152.215037 159.717481 
L 152.401114 159.928798 
L 152.773268 159.772119 
L 152.959345 159.432144 
L 153.145422 159.932404 
L 153.331499 159.939467 
L 153.703653 159.811672 
L 154.634038 159.815682 
L 154.820115 159.82281 
L 155.006192 160.063685 
L 155.192269 160.071159 
L 155.378346 159.960546 
L 155.564423 160.006424 
L 155.936577 159.926513 
L 156.494808 159.902917 
L 156.680885 160.03472 
L 157.053038 160.047397 
L 157.239115 160.085796 
L 157.611269 159.88112 
L 157.983423 160.143847 
L 158.1695 160.032033 
L 158.541654 160.162173 
L 159.099885 160.173711 
L 159.285962 160.233618 
L 159.472039 160.160321 
L 159.844193 160.373885 
L 160.402424 160.262576 
L 161.146732 160.254267 
L 161.332809 160.404379 
L 162.821425 160.443867 
L 163.007502 160.538279 
L 163.565733 160.507639 
L 163.937887 160.537429 
L 164.682195 160.618211 
L 166.170811 160.637492 
L 166.542965 160.482909 
L 166.729042 160.675277 
L 167.845504 160.665592 
L 168.217658 160.744345 
L 168.589812 160.755292 
L 169.706274 160.805497 
L 170.636658 160.831185 
L 171.008812 160.729924 
L 171.194889 160.953562 
L 172.125274 160.802418 
L 173.61389 160.914161 
L 173.986044 160.809381 
L 174.358198 160.893905 
L 175.47466 160.982403 
L 177.521507 161.049175 
L 179.382277 161.147259 
L 179.568354 161.168253 
L 179.754431 161.057227 
L 179.940508 161.185651 
L 180.684816 161.144118 
L 182.91774 161.227123 
L 184.964586 161.218296 
L 186.267125 161.23429 
L 186.825356 161.216205 
L 187.383587 161.289521 
L 187.755741 161.271559 
L 188.500049 161.291258 
L 188.872203 161.248911 
L 189.430434 161.310953 
L 193.338051 161.274727 
L 193.710205 161.237412 
L 194.64059 161.277458 
L 194.826667 161.132762 
L 195.570975 161.264499 
L 195.943129 161.358593 
L 196.50136 161.199894 
L 196.687437 161.151398 
L 197.05959 161.303763 
L 204.50267 161.511694 
L 205.246978 161.529563 
L 212.876134 161.573544 
L 213.992596 161.540187 
L 215.481212 161.593798 
L 216.039443 161.581632 
L 219.388829 161.654722 
L 222.552138 161.601219 
L 225.343292 161.625788 
L 229.623063 161.665793 
L 232.600295 161.669158 
L 233.902834 161.604228 
L 234.274988 161.662542 
L 235.949681 161.664713 
L 237.438296 161.659392 
L 240.787682 161.655753 
L 241.718067 161.70509 
L 244.509222 161.68332 
L 249.347224 161.740756 
L 249.905455 161.739641 
L 249.905455 161.739641 
" clip-path="url(#p1d1a60c81b)" style="fill: none; stroke: #1f77b4; stroke-width: 1.5; stroke-linecap: square"/>
   </g>
   <g id="line2d_11">
    <path d="M 64.014545 28.276364 
L 64.758853 28.31883 
L 65.131007 28.553453 
L 65.689238 29.039333 
L 65.875315 29.19407 
L 67.363931 29.276036 
L 70.155086 30.517678 
L 71.829779 32.138907 
L 72.201933 32.610819 
L 72.946241 33.534307 
L 73.876626 34.496342 
L 77.784242 39.743698 
L 78.342473 40.790631 
L 78.714627 41.278431 
L 81.133628 46.292337 
L 81.505782 47.164001 
L 83.552629 52.629034 
L 84.296937 54.690504 
L 84.669091 55.585712 
L 85.227322 57.564825 
L 85.413399 58.01455 
L 85.785553 59.418481 
L 86.343784 61.247363 
L 87.460246 65.099548 
L 87.8324 66.758099 
L 89.879247 74.593265 
L 90.623554 77.828854 
L 91.367862 80.974004 
L 91.740016 82.458821 
L 92.11217 84.548519 
L 92.670401 86.873082 
L 94.159017 92.976226 
L 94.531171 94.799429 
L 95.83371 100.962841 
L 96.764095 104.785482 
L 97.136249 106.734704 
L 97.508403 107.866225 
L 98.624865 112.307777 
L 98.997019 113.646612 
L 101.41602 122.234309 
L 102.904636 126.992664 
L 103.090713 127.082014 
L 104.393251 131.226279 
L 104.951482 132.05045 
L 105.137559 133.171176 
L 105.323636 133.28077 
L 105.509713 133.943951 
L 105.881867 134.501946 
L 106.626175 136.538573 
L 106.812252 136.608725 
L 106.998329 137.164156 
L 107.184406 137.293023 
L 107.370483 137.814401 
L 107.55656 137.918474 
L 107.928714 138.946795 
L 108.114791 138.943632 
L 108.673022 140.207185 
L 108.859099 140.363175 
L 109.045176 140.955762 
L 109.41733 141.419934 
L 109.603407 142.011314 
L 109.789484 142.154934 
L 110.347715 143.297997 
L 111.092023 144.371782 
L 111.464177 145.189707 
L 111.650254 145.487889 
L 111.836331 145.556578 
L 112.394562 146.541958 
L 112.580639 146.47948 
L 113.324947 147.482687 
L 113.883178 147.938023 
L 114.441409 148.797556 
L 114.627486 148.825161 
L 115.371794 149.765447 
L 115.743948 149.843969 
L 116.488256 150.582231 
L 117.41864 151.380351 
L 117.790794 151.58548 
L 117.976871 151.94571 
L 118.349025 152.287155 
L 118.721179 152.596185 
L 118.907256 152.502975 
L 119.093333 152.777987 
L 119.27941 152.768459 
L 119.837641 153.424823 
L 120.209795 153.605963 
L 120.395872 153.736333 
L 120.581949 153.660091 
L 120.954103 154.083703 
L 121.326257 154.10295 
L 121.698411 154.517044 
L 121.884488 154.323606 
L 122.070565 154.370865 
L 122.256642 154.576383 
L 122.628796 154.656269 
L 123.00095 154.887566 
L 123.373104 155.106361 
L 123.559181 155.06869 
L 124.117412 155.556618 
L 124.489566 155.437765 
L 124.675643 155.595653 
L 124.86172 155.920373 
L 126.164259 156.438058 
L 126.350336 156.714625 
L 126.536413 156.687395 
L 126.908567 156.842117 
L 127.280721 156.960443 
L 127.466798 157.046956 
L 127.652875 156.952879 
L 127.838952 157.068587 
L 128.025029 157.000227 
L 128.211106 157.154814 
L 128.58326 157.146837 
L 128.769337 157.260054 
L 128.955414 157.211256 
L 129.327568 157.304838 
L 129.885799 157.361631 
L 130.257952 157.506511 
L 130.630106 157.652276 
L 130.816183 157.867943 
L 131.188337 157.866913 
L 132.490876 158.478865 
L 134.165569 158.636604 
L 134.537723 158.746424 
L 135.654185 159.062314 
L 136.026339 159.060166 
L 136.398493 159.077068 
L 136.58457 159.08384 
L 136.770647 159.209636 
L 136.956724 159.14459 
L 138.073186 159.452644 
L 139.003571 159.510495 
L 139.375725 159.628101 
L 140.120033 159.532586 
L 141.050418 159.777914 
L 144.027649 160.149574 
L 144.58588 160.1648 
L 145.330188 160.195001 
L 145.516265 160.152638 
L 145.888419 160.299765 
L 147.004881 160.399275 
L 147.563112 160.419983 
L 148.865651 160.500724 
L 149.237805 160.540858 
L 149.982113 160.517504 
L 162.263194 161.101429 
L 163.007502 161.069115 
L 163.379656 161.104365 
L 167.101196 161.239598 
L 168.217658 161.230269 
L 169.520197 161.281948 
L 170.450581 161.316797 
L 172.497428 161.371488 
L 174.172121 161.320679 
L 175.288583 161.382856 
L 175.660737 161.331458 
L 176.777199 161.394574 
L 177.521507 161.367675 
L 178.451892 161.421715 
L 183.289894 161.481033 
L 184.220278 161.448493 
L 185.150663 161.512827 
L 186.825356 161.526914 
L 188.500049 161.539383 
L 190.546896 161.542263 
L 192.965897 161.540376 
L 214.36475 161.665542 
L 215.109058 161.695467 
L 218.458444 161.680666 
L 224.785061 161.69332 
L 226.273677 161.723227 
L 227.576216 161.732055 
L 229.995217 161.743806 
L 240.229451 161.7439 
L 240.973759 161.744165 
L 241.53199 161.751375 
L 248.416839 161.783294 
L 249.905455 161.774056 
L 249.905455 161.774056 
" clip-path="url(#p1d1a60c81b)" style="fill: none; stroke: #ff7f0e; stroke-width: 1.5; stroke-linecap: square"/>
   </g>
   <g id="patch_3">
    <path d="M 54.72 168.48 
L 54.72 21.6 
" style="fill: none; stroke: #000000; stroke-width: 0.8; stroke-linejoin: miter; stroke-linecap: square"/>
   </g>
   <g id="patch_4">
    <path d="M 259.2 168.48 
L 259.2 21.6 
" style="fill: none; stroke: #000000; stroke-width: 0.8; stroke-linejoin: miter; stroke-linecap: square"/>
   </g>
   <g id="patch_5">
    <path d="M 54.72 168.48 
L 259.2 168.48 
" style="fill: none; stroke: #000000; stroke-width: 0.8; stroke-linejoin: miter; stroke-linecap: square"/>
   </g>
   <g id="patch_6">
    <path d="M 54.72 21.6 
L 259.2 21.6 
" style="fill: none; stroke: #000000; stroke-width: 0.8; stroke-linejoin: miter; stroke-linecap: square"/>
   </g>
   <g id="legend_1">
    <g id="patch_7">
     <path d="M 154.996875 86.900625 
L 246.6 86.900625 
Q 250.2 86.900625 250.2 83.300625 
L 250.2 34.2 
Q 250.2 30.6 246.6 30.6 
L 154.996875 30.6 
Q 151.396875 30.6 151.396875 34.2 
L 151.396875 83.300625 
Q 151.396875 86.900625 154.996875 86.900625 
z
" style="fill: #ffffff; opacity: 0.8; stroke: #cccccc; stroke-linejoin: miter"/>
    </g>
    <g id="line2d_12">
     <path d="M 158.596875 44.1 
L 176.596875 44.1 
L 194.596875 44.1 
" style="fill: none; stroke: #1f77b4; stroke-width: 1.5; stroke-linecap: square"/>
    </g>
    <g id="text_12">
     <!-- SDT -->
     <g transform="translate(208.996875 50.4)scale(0.18 -0.18)">
      <defs>
       <path id="TimesNewRomanPSMT-53" d="M 2934 4334 
L 2934 2869 
L 2819 2869 
Q 2763 3291 2617 3541 
Q 2472 3791 2203 3937 
Q 1934 4084 1647 4084 
Q 1322 4084 1109 3886 
Q 897 3688 897 3434 
Q 897 3241 1031 3081 
Q 1225 2847 1953 2456 
Q 2547 2138 2764 1967 
Q 2981 1797 3098 1565 
Q 3216 1334 3216 1081 
Q 3216 600 2842 251 
Q 2469 -97 1881 -97 
Q 1697 -97 1534 -69 
Q 1438 -53 1133 45 
Q 828 144 747 144 
Q 669 144 623 97 
Q 578 50 556 -97 
L 441 -97 
L 441 1356 
L 556 1356 
Q 638 900 775 673 
Q 913 447 1195 297 
Q 1478 147 1816 147 
Q 2206 147 2432 353 
Q 2659 559 2659 841 
Q 2659 997 2573 1156 
Q 2488 1316 2306 1453 
Q 2184 1547 1640 1851 
Q 1097 2156 867 2337 
Q 638 2519 519 2737 
Q 400 2956 400 3219 
Q 400 3675 750 4004 
Q 1100 4334 1641 4334 
Q 1978 4334 2356 4169 
Q 2531 4091 2603 4091 
Q 2684 4091 2736 4139 
Q 2788 4188 2819 4334 
L 2934 4334 
z
" transform="scale(0.015625)"/>
       <path id="TimesNewRomanPSMT-44" d="M 109 0 
L 109 116 
L 269 116 
Q 538 116 650 288 
Q 719 391 719 750 
L 719 3488 
Q 719 3884 631 3984 
Q 509 4122 269 4122 
L 109 4122 
L 109 4238 
L 1834 4238 
Q 2784 4238 3279 4022 
Q 3775 3806 4076 3303 
Q 4378 2800 4378 2141 
Q 4378 1256 3841 663 
Q 3238 0 2003 0 
L 109 0 
z
M 1319 306 
Q 1716 219 1984 219 
Q 2709 219 3187 728 
Q 3666 1238 3666 2109 
Q 3666 2988 3187 3494 
Q 2709 4000 1959 4000 
Q 1678 4000 1319 3909 
L 1319 306 
z
" transform="scale(0.015625)"/>
       <path id="TimesNewRomanPSMT-54" d="M 3703 4238 
L 3750 3244 
L 3631 3244 
Q 3597 3506 3538 3619 
Q 3441 3800 3280 3886 
Q 3119 3972 2856 3972 
L 2259 3972 
L 2259 734 
Q 2259 344 2344 247 
Q 2463 116 2709 116 
L 2856 116 
L 2856 0 
L 1059 0 
L 1059 116 
L 1209 116 
Q 1478 116 1591 278 
Q 1659 378 1659 734 
L 1659 3972 
L 1150 3972 
Q 853 3972 728 3928 
Q 566 3869 450 3700 
Q 334 3531 313 3244 
L 194 3244 
L 244 4238 
L 3703 4238 
z
" transform="scale(0.015625)"/>
      </defs>
      <use xlink:href="#TimesNewRomanPSMT-53"/>
      <use xlink:href="#TimesNewRomanPSMT-44" x="55.615234"/>
      <use xlink:href="#TimesNewRomanPSMT-54" x="127.832031"/>
     </g>
    </g>
    <g id="line2d_13">
     <path d="M 158.596875 69.550312 
L 176.596875 69.550312 
L 194.596875 69.550312 
" style="fill: none; stroke: #ff7f0e; stroke-width: 1.5; stroke-linecap: square"/>
    </g>
    <g id="text_13">
     <!-- TET -->
     <g transform="translate(208.996875 75.850312)scale(0.18 -0.18)">
      <use xlink:href="#TimesNewRomanPSMT-54"/>
      <use xlink:href="#TimesNewRomanPSMT-45" x="61.083984"/>
      <use xlink:href="#TimesNewRomanPSMT-54" x="122.167969"/>
     </g>
    </g>
   </g>
  </g>
 </g>
 <defs>
  <clipPath id="p1d1a60c81b">
   <rect x="54.72" y="21.6" width="204.48" height="146.88"/>
  </clipPath>
 </defs>
</svg>
