<?xml version="1.0" encoding="utf-8" standalone="no"?>
<!DOCTYPE svg PUBLIC "-//W3C//DTD SVG 1.1//EN"
  "http://www.w3.org/Graphics/SVG/1.1/DTD/svg11.dtd">
<svg xmlns:xlink="http://www.w3.org/1999/xlink" width="288pt" height="216pt" viewBox="0 0 288 216" xmlns="http://www.w3.org/2000/svg" version="1.1">
 <metadata>
  <rdf:RDF xmlns:dc="http://purl.org/dc/elements/1.1/" xmlns:cc="http://creativecommons.org/ns#" xmlns:rdf="http://www.w3.org/1999/02/22-rdf-syntax-ns#">
   <cc:Work>
    <dc:type rdf:resource="http://purl.org/dc/dcmitype/StillImage"/>
    <dc:date>2024-05-21T22:19:07.214730</dc:date>
    <dc:format>image/svg+xml</dc:format>
    <dc:creator>
     <cc:Agent>
      <dc:title>Matplotlib v3.5.0, https://matplotlib.org/</dc:title>
     </cc:Agent>
    </dc:creator>
   </cc:Work>
  </rdf:RDF>
 </metadata>
 <defs>
  <style type="text/css">*{stroke-linejoin: round; stroke-linecap: butt}</style>
 </defs>
 <g id="figure_1">
  <g id="patch_1">
   <path d="M 0 216 
L 288 216 
L 288 0 
L 0 0 
z
" style="fill: #ffffff"/>
  </g>
  <g id="axes_1">
   <g id="patch_2">
    <path d="M 54.72 168.48 
L 259.2 168.48 
L 259.2 21.6 
L 54.72 21.6 
z
" style="fill: #ffffff"/>
   </g>
   <g id="matplotlib.axis_1">
    <g id="xtick_1">
     <g id="line2d_1">
      <defs>
       <path id="m9a5d9ba954" d="M 0 0 
L 0 3.5 
" style="stroke: #000000; stroke-width: 0.8"/>
      </defs>
      <g>
       <use xlink:href="#m9a5d9ba954" x="64.014545" y="168.48" style="stroke: #000000; stroke-width: 0.8"/>
      </g>
     </g>
     <g id="text_1">
      <!-- 0 -->
      <g transform="translate(59.514545 187.97875)scale(0.18 -0.18)">
       <defs>
        <path id="TimesNewRomanPSMT-30" d="M 231 2094 
Q 231 2819 450 3342 
Q 669 3866 1031 4122 
Q 1313 4325 1613 4325 
Q 2100 4325 2488 3828 
Q 2972 3213 2972 2159 
Q 2972 1422 2759 906 
Q 2547 391 2217 158 
Q 1888 -75 1581 -75 
Q 975 -75 572 641 
Q 231 1244 231 2094 
z
M 844 2016 
Q 844 1141 1059 588 
Q 1238 122 1591 122 
Q 1759 122 1940 273 
Q 2122 425 2216 781 
Q 2359 1319 2359 2297 
Q 2359 3022 2209 3506 
Q 2097 3866 1919 4016 
Q 1791 4119 1609 4119 
Q 1397 4119 1231 3928 
Q 1006 3669 925 3112 
Q 844 2556 844 2016 
z
" transform="scale(0.015625)"/>
       </defs>
       <use xlink:href="#TimesNewRomanPSMT-30"/>
      </g>
     </g>
    </g>
    <g id="xtick_2">
     <g id="line2d_2">
      <g>
       <use xlink:href="#m9a5d9ba954" x="157.053038" y="168.48" style="stroke: #000000; stroke-width: 0.8"/>
      </g>
     </g>
     <g id="text_2">
      <!-- 500 -->
      <g transform="translate(143.553038 187.97875)scale(0.18 -0.18)">
       <defs>
        <path id="TimesNewRomanPSMT-35" d="M 2778 4238 
L 2534 3706 
L 1259 3706 
L 981 3138 
Q 1809 3016 2294 2522 
Q 2709 2097 2709 1522 
Q 2709 1188 2573 903 
Q 2438 619 2231 419 
Q 2025 219 1772 97 
Q 1413 -75 1034 -75 
Q 653 -75 479 54 
Q 306 184 306 341 
Q 306 428 378 495 
Q 450 563 559 563 
Q 641 563 702 538 
Q 763 513 909 409 
Q 1144 247 1384 247 
Q 1750 247 2026 523 
Q 2303 800 2303 1197 
Q 2303 1581 2056 1914 
Q 1809 2247 1375 2428 
Q 1034 2569 447 2591 
L 1259 4238 
L 2778 4238 
z
" transform="scale(0.015625)"/>
       </defs>
       <use xlink:href="#TimesNewRomanPSMT-35"/>
       <use xlink:href="#TimesNewRomanPSMT-30" x="50"/>
       <use xlink:href="#TimesNewRomanPSMT-30" x="100"/>
      </g>
     </g>
    </g>
    <g id="xtick_3">
     <g id="line2d_3">
      <g>
       <use xlink:href="#m9a5d9ba954" x="250.091532" y="168.48" style="stroke: #000000; stroke-width: 0.8"/>
      </g>
     </g>
     <g id="text_3">
      <!-- 1000 -->
      <g transform="translate(232.091532 187.97875)scale(0.18 -0.18)">
       <defs>
        <path id="TimesNewRomanPSMT-31" d="M 750 3822 
L 1781 4325 
L 1884 4325 
L 1884 747 
Q 1884 391 1914 303 
Q 1944 216 2037 169 
Q 2131 122 2419 116 
L 2419 0 
L 825 0 
L 825 116 
Q 1125 122 1212 167 
Q 1300 213 1334 289 
Q 1369 366 1369 747 
L 1369 3034 
Q 1369 3497 1338 3628 
Q 1316 3728 1258 3775 
Q 1200 3822 1119 3822 
Q 1003 3822 797 3725 
L 750 3822 
z
" transform="scale(0.015625)"/>
       </defs>
       <use xlink:href="#TimesNewRomanPSMT-31"/>
       <use xlink:href="#TimesNewRomanPSMT-30" x="50"/>
       <use xlink:href="#TimesNewRomanPSMT-30" x="100"/>
       <use xlink:href="#TimesNewRomanPSMT-30" x="150"/>
      </g>
     </g>
    </g>
    <g id="text_4">
     <!-- Epoch -->
     <g transform="translate(133.967812 208.327812)scale(0.18 -0.18)">
      <defs>
       <path id="TimesNewRomanPSMT-45" d="M 1338 4006 
L 1338 2331 
L 2269 2331 
Q 2631 2331 2753 2441 
Q 2916 2584 2934 2947 
L 3050 2947 
L 3050 1472 
L 2934 1472 
Q 2891 1781 2847 1869 
Q 2791 1978 2662 2040 
Q 2534 2103 2269 2103 
L 1338 2103 
L 1338 706 
Q 1338 425 1363 364 
Q 1388 303 1450 267 
Q 1513 231 1688 231 
L 2406 231 
Q 2766 231 2928 281 
Q 3091 331 3241 478 
Q 3434 672 3638 1063 
L 3763 1063 
L 3397 0 
L 131 0 
L 131 116 
L 281 116 
Q 431 116 566 188 
Q 666 238 702 338 
Q 738 438 738 747 
L 738 3500 
Q 738 3903 656 3997 
Q 544 4122 281 4122 
L 131 4122 
L 131 4238 
L 3397 4238 
L 3444 3309 
L 3322 3309 
Q 3256 3644 3176 3769 
Q 3097 3894 2941 3959 
Q 2816 4006 2500 4006 
L 1338 4006 
z
" transform="scale(0.015625)"/>
       <path id="TimesNewRomanPSMT-70" d="M -6 2578 
L 875 2934 
L 994 2934 
L 994 2266 
Q 1216 2644 1439 2795 
Q 1663 2947 1909 2947 
Q 2341 2947 2628 2609 
Q 2981 2197 2981 1534 
Q 2981 794 2556 309 
Q 2206 -88 1675 -88 
Q 1444 -88 1275 -22 
Q 1150 25 994 166 
L 994 -706 
Q 994 -1000 1030 -1079 
Q 1066 -1159 1155 -1206 
Q 1244 -1253 1478 -1253 
L 1478 -1369 
L -22 -1369 
L -22 -1253 
L 56 -1253 
Q 228 -1256 350 -1188 
Q 409 -1153 442 -1076 
Q 475 -1000 475 -688 
L 475 2019 
Q 475 2297 450 2372 
Q 425 2447 370 2484 
Q 316 2522 222 2522 
Q 147 2522 31 2478 
L -6 2578 
z
M 994 2081 
L 994 1013 
Q 994 666 1022 556 
Q 1066 375 1236 237 
Q 1406 100 1666 100 
Q 1978 100 2172 344 
Q 2425 663 2425 1241 
Q 2425 1897 2138 2250 
Q 1938 2494 1663 2494 
Q 1513 2494 1366 2419 
Q 1253 2363 994 2081 
z
" transform="scale(0.015625)"/>
       <path id="TimesNewRomanPSMT-6f" d="M 1600 2947 
Q 2250 2947 2644 2453 
Q 2978 2031 2978 1484 
Q 2978 1100 2793 706 
Q 2609 313 2286 112 
Q 1963 -88 1566 -88 
Q 919 -88 538 428 
Q 216 863 216 1403 
Q 216 1797 411 2186 
Q 606 2575 925 2761 
Q 1244 2947 1600 2947 
z
M 1503 2744 
Q 1338 2744 1170 2645 
Q 1003 2547 900 2300 
Q 797 2053 797 1666 
Q 797 1041 1045 587 
Q 1294 134 1700 134 
Q 2003 134 2200 384 
Q 2397 634 2397 1244 
Q 2397 2006 2069 2444 
Q 1847 2744 1503 2744 
z
" transform="scale(0.015625)"/>
       <path id="TimesNewRomanPSMT-63" d="M 2631 1088 
Q 2516 522 2178 217 
Q 1841 -88 1431 -88 
Q 944 -88 581 321 
Q 219 731 219 1428 
Q 219 2103 620 2525 
Q 1022 2947 1584 2947 
Q 2006 2947 2278 2723 
Q 2550 2500 2550 2259 
Q 2550 2141 2473 2067 
Q 2397 1994 2259 1994 
Q 2075 1994 1981 2113 
Q 1928 2178 1911 2362 
Q 1894 2547 1784 2644 
Q 1675 2738 1481 2738 
Q 1169 2738 978 2506 
Q 725 2200 725 1697 
Q 725 1184 976 792 
Q 1228 400 1656 400 
Q 1963 400 2206 609 
Q 2378 753 2541 1131 
L 2631 1088 
z
" transform="scale(0.015625)"/>
       <path id="TimesNewRomanPSMT-68" d="M 1041 4444 
L 1041 2350 
Q 1388 2731 1591 2839 
Q 1794 2947 1997 2947 
Q 2241 2947 2416 2812 
Q 2591 2678 2675 2391 
Q 2734 2191 2734 1659 
L 2734 647 
Q 2734 375 2778 275 
Q 2809 200 2884 156 
Q 2959 113 3159 113 
L 3159 0 
L 1753 0 
L 1753 113 
L 1819 113 
Q 2019 113 2097 173 
Q 2175 234 2206 353 
Q 2216 403 2216 647 
L 2216 1659 
Q 2216 2128 2167 2275 
Q 2119 2422 2012 2495 
Q 1906 2569 1756 2569 
Q 1603 2569 1437 2487 
Q 1272 2406 1041 2159 
L 1041 647 
Q 1041 353 1073 281 
Q 1106 209 1195 161 
Q 1284 113 1503 113 
L 1503 0 
L 84 0 
L 84 113 
Q 275 113 384 172 
Q 447 203 484 290 
Q 522 378 522 647 
L 522 3238 
Q 522 3728 498 3840 
Q 475 3953 426 3993 
Q 378 4034 297 4034 
Q 231 4034 84 3984 
L 41 4094 
L 897 4444 
L 1041 4444 
z
" transform="scale(0.015625)"/>
      </defs>
      <use xlink:href="#TimesNewRomanPSMT-45"/>
      <use xlink:href="#TimesNewRomanPSMT-70" x="61.083984"/>
      <use xlink:href="#TimesNewRomanPSMT-6f" x="111.083984"/>
      <use xlink:href="#TimesNewRomanPSMT-63" x="161.083984"/>
      <use xlink:href="#TimesNewRomanPSMT-68" x="205.46875"/>
     </g>
    </g>
   </g>
   <g id="matplotlib.axis_2">
    <g id="ytick_1">
     <g id="line2d_4">
      <defs>
       <path id="m024d603fa5" d="M 0 0 
L -3.5 0 
" style="stroke: #000000; stroke-width: 0.8"/>
      </defs>
      <g>
       <use xlink:href="#m024d603fa5" x="54.72" y="161.868429" style="stroke: #000000; stroke-width: 0.8"/>
      </g>
     </g>
     <g id="text_5">
      <!-- 0.0 -->
      <g transform="translate(25.22 168.117804)scale(0.18 -0.18)">
       <defs>
        <path id="TimesNewRomanPSMT-2e" d="M 800 606 
Q 947 606 1047 504 
Q 1147 403 1147 259 
Q 1147 116 1045 14 
Q 944 -88 800 -88 
Q 656 -88 554 14 
Q 453 116 453 259 
Q 453 406 554 506 
Q 656 606 800 606 
z
" transform="scale(0.015625)"/>
       </defs>
       <use xlink:href="#TimesNewRomanPSMT-30"/>
       <use xlink:href="#TimesNewRomanPSMT-2e" x="50"/>
       <use xlink:href="#TimesNewRomanPSMT-30" x="75"/>
      </g>
     </g>
    </g>
    <g id="ytick_2">
     <g id="line2d_5">
      <g>
       <use xlink:href="#m024d603fa5" x="54.72" y="137.776863" style="stroke: #000000; stroke-width: 0.8"/>
      </g>
     </g>
     <g id="text_6">
      <!-- 0.5 -->
      <g transform="translate(25.22 144.026238)scale(0.18 -0.18)">
       <use xlink:href="#TimesNewRomanPSMT-30"/>
       <use xlink:href="#TimesNewRomanPSMT-2e" x="50"/>
       <use xlink:href="#TimesNewRomanPSMT-35" x="75"/>
      </g>
     </g>
    </g>
    <g id="ytick_3">
     <g id="line2d_6">
      <g>
       <use xlink:href="#m024d603fa5" x="54.72" y="113.685297" style="stroke: #000000; stroke-width: 0.8"/>
      </g>
     </g>
     <g id="text_7">
      <!-- 1.0 -->
      <g transform="translate(25.22 119.934672)scale(0.18 -0.18)">
       <use xlink:href="#TimesNewRomanPSMT-31"/>
       <use xlink:href="#TimesNewRomanPSMT-2e" x="50"/>
       <use xlink:href="#TimesNewRomanPSMT-30" x="75"/>
      </g>
     </g>
    </g>
    <g id="ytick_4">
     <g id="line2d_7">
      <g>
       <use xlink:href="#m024d603fa5" x="54.72" y="89.593731" style="stroke: #000000; stroke-width: 0.8"/>
      </g>
     </g>
     <g id="text_8">
      <!-- 1.5 -->
      <g transform="translate(25.22 95.843106)scale(0.18 -0.18)">
       <use xlink:href="#TimesNewRomanPSMT-31"/>
       <use xlink:href="#TimesNewRomanPSMT-2e" x="50"/>
       <use xlink:href="#TimesNewRomanPSMT-35" x="75"/>
      </g>
     </g>
    </g>
    <g id="ytick_5">
     <g id="line2d_8">
      <g>
       <use xlink:href="#m024d603fa5" x="54.72" y="65.502166" style="stroke: #000000; stroke-width: 0.8"/>
      </g>
     </g>
     <g id="text_9">
      <!-- 2.0 -->
      <g transform="translate(25.22 71.751541)scale(0.18 -0.18)">
       <defs>
        <path id="TimesNewRomanPSMT-32" d="M 2934 816 
L 2638 0 
L 138 0 
L 138 116 
Q 1241 1122 1691 1759 
Q 2141 2397 2141 2925 
Q 2141 3328 1894 3587 
Q 1647 3847 1303 3847 
Q 991 3847 742 3664 
Q 494 3481 375 3128 
L 259 3128 
Q 338 3706 661 4015 
Q 984 4325 1469 4325 
Q 1984 4325 2329 3994 
Q 2675 3663 2675 3213 
Q 2675 2891 2525 2569 
Q 2294 2063 1775 1497 
Q 997 647 803 472 
L 1909 472 
Q 2247 472 2383 497 
Q 2519 522 2628 598 
Q 2738 675 2819 816 
L 2934 816 
z
" transform="scale(0.015625)"/>
       </defs>
       <use xlink:href="#TimesNewRomanPSMT-32"/>
       <use xlink:href="#TimesNewRomanPSMT-2e" x="50"/>
       <use xlink:href="#TimesNewRomanPSMT-30" x="75"/>
      </g>
     </g>
    </g>
    <g id="ytick_6">
     <g id="line2d_9">
      <g>
       <use xlink:href="#m024d603fa5" x="54.72" y="41.4106" style="stroke: #000000; stroke-width: 0.8"/>
      </g>
     </g>
     <g id="text_10">
      <!-- 2.5 -->
      <g transform="translate(25.22 47.659975)scale(0.18 -0.18)">
       <use xlink:href="#TimesNewRomanPSMT-32"/>
       <use xlink:href="#TimesNewRomanPSMT-2e" x="50"/>
       <use xlink:href="#TimesNewRomanPSMT-35" x="75"/>
      </g>
     </g>
    </g>
    <g id="text_11">
     <!-- Loss -->
     <g transform="translate(17.369687 112.042969)rotate(-90)scale(0.18 -0.18)">
      <defs>
       <path id="TimesNewRomanPSMT-4c" d="M 3669 1172 
L 3772 1150 
L 3409 0 
L 128 0 
L 128 116 
L 288 116 
Q 556 116 672 291 
Q 738 391 738 753 
L 738 3488 
Q 738 3884 650 3984 
Q 528 4122 288 4122 
L 128 4122 
L 128 4238 
L 2047 4238 
L 2047 4122 
Q 1709 4125 1573 4059 
Q 1438 3994 1388 3894 
Q 1338 3794 1338 3416 
L 1338 753 
Q 1338 494 1388 397 
Q 1425 331 1503 300 
Q 1581 269 1991 269 
L 2300 269 
Q 2788 269 2984 341 
Q 3181 413 3343 595 
Q 3506 778 3669 1172 
z
" transform="scale(0.015625)"/>
       <path id="TimesNewRomanPSMT-73" d="M 2050 2947 
L 2050 1972 
L 1947 1972 
Q 1828 2431 1642 2597 
Q 1456 2763 1169 2763 
Q 950 2763 815 2647 
Q 681 2531 681 2391 
Q 681 2216 781 2091 
Q 878 1963 1175 1819 
L 1631 1597 
Q 2266 1288 2266 781 
Q 2266 391 1970 151 
Q 1675 -88 1309 -88 
Q 1047 -88 709 6 
Q 606 38 541 38 
Q 469 38 428 -44 
L 325 -44 
L 325 978 
L 428 978 
Q 516 541 762 319 
Q 1009 97 1316 97 
Q 1531 97 1667 223 
Q 1803 350 1803 528 
Q 1803 744 1651 891 
Q 1500 1038 1047 1263 
Q 594 1488 453 1669 
Q 313 1847 313 2119 
Q 313 2472 555 2709 
Q 797 2947 1181 2947 
Q 1350 2947 1591 2875 
Q 1750 2828 1803 2828 
Q 1853 2828 1881 2850 
Q 1909 2872 1947 2947 
L 2050 2947 
z
" transform="scale(0.015625)"/>
      </defs>
      <use xlink:href="#TimesNewRomanPSMT-4c"/>
      <use xlink:href="#TimesNewRomanPSMT-6f" x="61.083984"/>
      <use xlink:href="#TimesNewRomanPSMT-73" x="111.083984"/>
      <use xlink:href="#TimesNewRomanPSMT-73" x="150"/>
     </g>
    </g>
   </g>
   <g id="line2d_10">
    <path d="M 64.014545 28.276364 
L 69.596855 28.369564 
L 69.782932 28.393022 
L 70.155086 28.666695 
L 70.341163 28.686545 
L 70.713317 28.961597 
L 70.899394 28.949259 
L 72.201933 30.772342 
L 73.318395 33.09535 
L 73.690549 34.426172 
L 74.062703 35.215656 
L 74.807011 37.755564 
L 76.667781 46.26274 
L 77.598165 51.733691 
L 78.156396 55.535758 
L 78.714627 57.972276 
L 79.458935 64.215893 
L 79.831089 66.115376 
L 80.017166 68.286033 
L 80.203243 68.967406 
L 81.133628 78.160728 
L 81.319705 78.614288 
L 81.691859 81.145178 
L 82.994398 94.088464 
L 83.366552 96.596241 
L 83.738706 100.578511 
L 83.924783 100.291105 
L 84.296937 103.886898 
L 84.483014 104.891358 
L 85.041245 109.237825 
L 85.227322 110.220257 
L 85.599476 114.094333 
L 86.902015 122.592778 
L 87.088092 122.731332 
L 87.460246 124.37035 
L 87.646323 124.393254 
L 87.8324 125.785521 
L 88.018477 126.083763 
L 88.576708 128.624518 
L 88.762785 130.506252 
L 88.948862 130.851944 
L 89.134939 131.491746 
L 89.321016 132.806301 
L 89.507093 132.897867 
L 90.065324 134.966953 
L 90.2514 135.954308 
L 90.437477 135.97247 
L 90.623554 137.282014 
L 90.809631 137.409892 
L 90.995708 138.468493 
L 91.181785 138.396869 
L 91.553939 140.045209 
L 91.926093 143.437342 
L 92.298247 143.428693 
L 92.484324 143.819594 
L 92.670401 145.373348 
L 92.856478 145.768342 
L 93.228632 146.907216 
L 93.414709 146.967833 
L 93.786863 148.486645 
L 93.97294 148.933545 
L 94.159017 148.79279 
L 94.531171 150.424794 
L 94.717248 149.882094 
L 94.903325 150.384366 
L 95.089402 149.692356 
L 95.461556 150.609865 
L 95.647633 151.327696 
L 96.019787 151.444899 
L 96.205864 151.890398 
L 96.391941 151.559087 
L 96.764095 152.641621 
L 96.950172 152.640698 
L 97.136249 153.13411 
L 97.322326 153.090206 
L 97.508403 153.362179 
L 97.69448 153.896623 
L 97.880557 153.294718 
L 98.252711 153.845589 
L 98.438788 154.390786 
L 98.624865 153.929936 
L 99.183096 154.956469 
L 99.369173 154.637079 
L 99.55525 154.053396 
L 99.741327 154.924026 
L 99.927404 155.200005 
L 100.113481 155.121078 
L 100.299558 155.209287 
L 100.485635 155.568125 
L 100.857789 155.651434 
L 101.043866 156.087558 
L 101.229943 156.084765 
L 101.41602 156.303058 
L 101.788174 156.256546 
L 102.346405 157.108741 
L 102.532482 157.353273 
L 102.904636 157.31489 
L 103.27679 157.732258 
L 103.462867 157.353664 
L 103.648943 156.513803 
L 104.207174 157.95939 
L 104.393251 158.14727 
L 104.765405 157.656806 
L 104.951482 158.23934 
L 105.137559 157.941472 
L 105.69579 158.516313 
L 105.881867 158.000322 
L 106.254021 158.593117 
L 106.440098 158.310455 
L 106.626175 158.544186 
L 106.812252 158.315818 
L 106.998329 158.504945 
L 107.370483 158.550928 
L 107.742637 159.180283 
L 107.928714 158.766125 
L 108.114791 158.896546 
L 108.300868 158.833642 
L 108.486945 159.260064 
L 108.673022 159.370503 
L 109.045176 158.87869 
L 109.41733 159.49247 
L 109.789484 159.759417 
L 110.347715 159.862992 
L 110.533792 159.691654 
L 111.2781 159.719477 
L 111.650254 160.040384 
L 111.836331 159.910849 
L 112.208485 160.153099 
L 112.580639 160.25156 
L 113.324947 160.466431 
L 113.511024 160.343888 
L 113.697101 160.078506 
L 113.883178 160.548682 
L 114.069255 160.611441 
L 114.813563 160.31011 
L 114.99964 160.551322 
L 115.557871 160.589617 
L 115.930025 160.437166 
L 116.116102 160.643002 
L 116.674333 160.601894 
L 116.86041 160.68466 
L 117.046486 160.601094 
L 117.41864 160.762631 
L 118.349025 160.925146 
L 118.535102 160.759563 
L 118.907256 160.986716 
L 119.27941 160.91232 
L 119.837641 161.045913 
L 121.884488 161.153134 
L 122.070565 160.977309 
L 122.256642 161.11102 
L 122.814873 161.029671 
L 123.559181 161.140268 
L 123.745258 161.13746 
L 124.117412 160.939274 
L 124.489566 161.039057 
L 124.675643 160.948974 
L 125.233874 161.113292 
L 125.792105 160.973313 
L 126.164259 161.110492 
L 126.536413 161.062542 
L 127.094644 161.009745 
L 127.466798 161.174167 
L 130.257952 161.272375 
L 130.816183 161.270764 
L 131.188337 161.113567 
L 131.374414 161.294305 
L 132.304799 161.096702 
L 132.676953 161.250066 
L 133.049107 161.261018 
L 134.351646 161.266359 
L 134.537723 161.303085 
L 134.7238 161.197535 
L 135.095954 161.379126 
L 136.398493 161.410512 
L 137.514955 161.408356 
L 145.516265 161.583773 
L 145.888419 161.462836 
L 146.260573 161.550197 
L 152.401114 161.583355 
L 152.587191 161.439809 
L 152.773268 161.619097 
L 154.820115 161.559728 
L 155.378346 161.605091 
L 156.122654 161.568753 
L 156.308731 161.370339 
L 156.494808 161.570007 
L 157.239115 161.592126 
L 158.913808 161.60761 
L 159.099885 161.379417 
L 159.285962 161.603886 
L 160.03027 161.619861 
L 161.518886 161.582242 
L 162.635348 161.629355 
L 165.054349 161.661194 
L 166.729042 161.68032 
L 167.47335 161.672063 
L 178.079738 161.722641 
L 181.801278 161.727657 
L 188.313972 161.733443 
L 189.244357 161.707421 
L 190.732973 161.724688 
L 191.849435 161.702505 
L 192.965897 161.728072 
L 193.524128 161.730357 
L 196.315283 161.712589 
L 197.245667 161.731919 
L 205.991286 161.765699 
L 216.969828 161.789886 
L 217.528059 161.76324 
L 219.94706 161.767976 
L 221.621753 161.782744 
L 242.834529 161.801455 
L 243.020606 161.684676 
L 243.39276 161.782976 
L 243.764914 161.755286 
L 246.183915 161.797123 
L 249.905455 161.799015 
L 249.905455 161.799015 
" clip-path="url(#p9c5b07da01)" style="fill: none; stroke: #1f77b4; stroke-width: 1.5; stroke-linecap: square"/>
   </g>
   <g id="line2d_11">
    <path d="M 64.014545 28.276364 
L 69.782932 28.383395 
L 70.155086 28.669877 
L 70.341163 28.708177 
L 70.52724 29.013131 
L 70.713317 29.003918 
L 71.085471 29.46893 
L 71.271548 29.792104 
L 71.457625 29.774493 
L 72.015856 30.251109 
L 72.38801 30.956571 
L 72.946241 32.603686 
L 73.318395 33.346001 
L 73.504472 34.07568 
L 73.690549 34.251478 
L 74.620934 37.595517 
L 74.993088 38.579144 
L 75.737396 41.462352 
L 76.295627 44.654994 
L 76.667781 46.113112 
L 76.853857 47.225241 
L 77.039934 47.383738 
L 77.226011 47.980147 
L 77.598165 50.280283 
L 77.784242 50.991317 
L 78.900704 58.326501 
L 79.831089 63.09277 
L 80.947551 71.199977 
L 81.133628 72.168291 
L 81.691859 77.024187 
L 84.11086 92.187551 
L 84.296937 92.428938 
L 84.669091 94.565419 
L 84.855168 95.387511 
L 85.041245 95.222736 
L 85.413399 98.515115 
L 85.599476 98.588706 
L 85.97163 99.744276 
L 86.157707 101.172336 
L 86.343784 101.020118 
L 86.529861 102.835206 
L 87.088092 104.83948 
L 87.460246 106.780692 
L 88.018477 109.800742 
L 88.204554 109.950261 
L 88.762785 112.882596 
L 88.948862 112.548682 
L 89.507093 114.716989 
L 89.69317 115.814524 
L 89.879247 115.729948 
L 90.2514 116.422591 
L 90.437477 118.004477 
L 90.623554 117.967558 
L 90.809631 118.377568 
L 90.995708 118.039027 
L 91.181785 119.233196 
L 91.367862 119.344983 
L 91.553939 119.605046 
L 92.11217 121.426185 
L 92.298247 121.575155 
L 92.484324 122.005955 
L 92.670401 122.087676 
L 92.856478 123.027368 
L 93.042555 122.832869 
L 93.228632 123.304263 
L 93.414709 123.002503 
L 93.600786 121.968551 
L 93.97294 124.064161 
L 94.531171 123.918137 
L 94.717248 123.340332 
L 94.903325 123.729167 
L 95.275479 124.979594 
L 95.461556 125.106123 
L 95.647633 124.741729 
L 95.83371 125.189981 
L 96.019787 125.267911 
L 96.205864 126.654739 
L 96.391941 127.10252 
L 96.578018 127.107201 
L 96.764095 127.465214 
L 96.950172 127.484806 
L 97.322326 128.605491 
L 97.508403 129.657554 
L 97.69448 129.66532 
L 97.880557 130.30364 
L 98.066634 130.418041 
L 98.438788 131.628692 
L 98.624865 131.773058 
L 98.997019 131.676613 
L 99.369173 132.955441 
L 99.55525 132.76836 
L 99.927404 133.617615 
L 100.113481 134.016958 
L 100.299558 133.738059 
L 100.671712 134.826882 
L 100.857789 134.025462 
L 101.043866 134.39766 
L 101.229943 134.401112 
L 101.602097 135.182408 
L 101.788174 135.216067 
L 101.974251 134.874508 
L 102.160328 134.127574 
L 102.346405 134.938219 
L 102.532482 135.113447 
L 102.718559 135.039524 
L 103.090713 135.968691 
L 103.27679 135.974098 
L 103.462867 136.317367 
L 103.648943 135.671077 
L 103.83502 135.712508 
L 104.021097 136.060383 
L 104.207174 136.695773 
L 104.393251 136.91996 
L 104.579328 137.370578 
L 104.765405 136.671081 
L 104.951482 137.006187 
L 105.137559 136.630962 
L 105.323636 136.933625 
L 105.509713 138.114215 
L 105.69579 137.901048 
L 105.881867 138.444224 
L 106.067944 138.336575 
L 106.254021 137.8576 
L 106.440098 138.344813 
L 106.626175 137.982182 
L 106.812252 137.916586 
L 106.998329 138.463466 
L 107.184406 138.565784 
L 107.370483 138.398174 
L 107.55656 138.662826 
L 107.742637 138.313394 
L 107.928714 138.6459 
L 108.114791 138.244581 
L 108.486945 140.179923 
L 108.673022 140.003734 
L 108.859099 140.332842 
L 109.045176 140.278159 
L 109.231253 140.757481 
L 109.41733 140.443327 
L 109.603407 140.897705 
L 109.789484 140.366447 
L 110.161638 140.470503 
L 110.347715 139.923176 
L 110.533792 140.044886 
L 110.719869 140.815716 
L 110.905946 140.361231 
L 111.092023 140.98494 
L 111.2781 140.338605 
L 111.464177 140.557919 
L 111.650254 140.481083 
L 111.836331 140.830486 
L 112.022408 140.441493 
L 112.208485 140.375512 
L 112.394562 140.686902 
L 112.580639 140.752496 
L 112.766716 141.154205 
L 112.952793 141.147539 
L 113.511024 142.147533 
L 113.697101 141.838245 
L 113.883178 142.057888 
L 114.069255 142.542944 
L 114.255332 142.118783 
L 114.627486 142.821578 
L 114.813563 142.278341 
L 114.99964 142.70045 
L 115.371794 140.520676 
L 115.557871 141.073652 
L 115.743948 141.173698 
L 116.116102 142.216094 
L 116.302179 142.788378 
L 116.488256 141.461434 
L 116.674333 141.900773 
L 116.86041 142.862716 
L 117.046486 142.134679 
L 117.232563 142.765084 
L 117.41864 142.959666 
L 117.604717 142.76294 
L 117.790794 143.736776 
L 117.976871 143.854369 
L 118.162948 144.495565 
L 118.535102 144.227406 
L 118.907256 145.347815 
L 119.093333 145.319354 
L 119.27941 145.042755 
L 119.465487 145.470874 
L 119.651564 145.567161 
L 120.023718 146.551054 
L 120.209795 146.251284 
L 120.581949 147.027008 
L 121.14018 146.356687 
L 121.512334 146.658244 
L 121.698411 146.451395 
L 121.884488 146.416485 
L 122.070565 145.955388 
L 122.256642 146.167312 
L 122.628796 145.770783 
L 122.814873 145.923887 
L 123.00095 146.977808 
L 123.373104 147.827756 
L 123.559181 148.398409 
L 123.745258 147.685458 
L 123.931335 147.464216 
L 124.489566 148.610404 
L 124.675643 147.972803 
L 124.86172 148.767529 
L 125.233874 147.992421 
L 125.419951 146.9249 
L 125.606028 146.954923 
L 126.350336 150.09646 
L 126.536413 149.383581 
L 126.72249 149.865896 
L 126.908567 149.861146 
L 127.094644 148.706445 
L 127.280721 148.377598 
L 127.652875 149.002565 
L 127.838952 149.779916 
L 128.025029 149.952442 
L 128.397183 149.911654 
L 128.58326 149.6053 
L 128.769337 148.696751 
L 128.955414 148.657836 
L 129.141491 149.589505 
L 129.327568 149.516153 
L 129.885799 151.364271 
L 130.444029 151.922913 
L 130.630106 151.130359 
L 130.816183 151.723546 
L 131.00226 150.944705 
L 131.374414 151.51771 
L 131.746568 150.670635 
L 131.932645 150.619014 
L 132.304799 151.502894 
L 132.490876 151.129832 
L 133.049107 151.719874 
L 133.235184 151.258548 
L 133.421261 152.067643 
L 133.607338 151.922871 
L 133.793415 151.578331 
L 133.979492 151.761292 
L 134.165569 152.15528 
L 134.351646 152.224879 
L 134.537723 151.651012 
L 134.909877 152.842199 
L 135.095954 153.465497 
L 135.282031 152.581231 
L 135.468108 152.820439 
L 135.654185 152.253083 
L 135.840262 152.383232 
L 136.026339 152.862428 
L 136.212416 152.949572 
L 136.398493 152.561326 
L 136.58457 153.622159 
L 136.770647 152.910678 
L 136.956724 153.34076 
L 137.142801 153.227386 
L 137.887109 154.161709 
L 138.073186 153.211031 
L 138.259263 153.042414 
L 138.44534 153.06357 
L 138.631417 153.689731 
L 138.817494 153.831767 
L 139.003571 154.162032 
L 139.189648 154.214526 
L 139.561802 153.764992 
L 140.120033 154.311857 
L 140.30611 154.162756 
L 140.492187 153.868217 
L 140.678264 154.012467 
L 140.864341 153.806773 
L 141.236495 154.346651 
L 141.422572 154.543034 
L 141.608649 154.361836 
L 141.794726 154.517779 
L 141.980803 155.101651 
L 142.16688 154.603659 
L 142.352957 155.402235 
L 142.539034 155.608528 
L 142.725111 154.908249 
L 142.911188 155.095211 
L 143.097265 155.52321 
L 143.283342 155.117472 
L 143.469419 155.126037 
L 143.655495 155.329625 
L 143.841572 155.214277 
L 144.213726 156.350922 
L 144.399803 155.388156 
L 144.771957 154.90736 
L 144.958034 155.193629 
L 145.330188 156.184295 
L 145.702342 156.110634 
L 145.888419 155.691366 
L 146.074496 155.697675 
L 146.44665 155.91935 
L 146.632727 155.856295 
L 146.818804 156.478363 
L 147.004881 156.05856 
L 147.749189 156.795928 
L 147.935266 156.740892 
L 148.30742 157.039591 
L 148.493497 156.382507 
L 149.051728 157.778288 
L 149.237805 157.403794 
L 149.423882 157.284079 
L 149.609959 157.382482 
L 149.982113 157.009594 
L 150.16819 156.761698 
L 150.354267 157.12118 
L 150.540344 157.178206 
L 151.098575 158.091176 
L 151.284652 157.767229 
L 151.470729 158.126341 
L 151.656806 158.092495 
L 152.02896 157.629433 
L 152.215037 157.647896 
L 152.401114 157.781903 
L 152.773268 157.539873 
L 152.959345 156.882245 
L 153.331499 156.974878 
L 153.703653 157.055723 
L 153.88973 157.276058 
L 154.261884 157.123338 
L 154.634038 157.722147 
L 154.820115 158.264807 
L 155.192269 157.762327 
L 155.378346 158.281578 
L 155.7505 158.382539 
L 155.936577 158.706818 
L 156.122654 158.257914 
L 156.308731 158.546079 
L 156.494808 158.429806 
L 156.680885 158.682099 
L 156.866962 157.921026 
L 157.053038 157.813779 
L 157.239115 157.991383 
L 157.797346 158.048981 
L 157.983423 158.212522 
L 158.1695 158.203701 
L 158.355577 158.078049 
L 158.541654 158.0937 
L 158.727731 158.515592 
L 158.913808 158.629263 
L 159.099885 158.561672 
L 159.285962 158.241589 
L 159.472039 158.361364 
L 159.658116 158.162132 
L 160.03027 158.625645 
L 160.588501 159.027139 
L 160.774578 158.949805 
L 160.960655 159.334252 
L 161.146732 159.291207 
L 161.332809 159.553602 
L 161.518886 159.318944 
L 161.89104 159.65191 
L 162.263194 159.55124 
L 162.449271 159.6945 
L 162.635348 159.556816 
L 162.821425 159.619407 
L 163.007502 159.02724 
L 163.193579 159.134391 
L 163.379656 159.719942 
L 163.565733 159.836217 
L 163.75181 159.58695 
L 163.937887 159.784636 
L 164.123964 159.568598 
L 164.310041 159.997625 
L 164.496118 159.782298 
L 164.682195 159.84689 
L 165.240426 159.554697 
L 165.426503 159.770066 
L 165.61258 159.803753 
L 165.984734 159.377836 
L 166.170811 159.414789 
L 166.542965 159.888966 
L 166.729042 159.739953 
L 166.915119 159.937004 
L 167.101196 159.748218 
L 167.287273 159.003319 
L 167.659427 159.727438 
L 167.845504 159.673379 
L 168.403735 160.105018 
L 168.589812 160.062482 
L 168.775889 159.8454 
L 169.148043 159.965199 
L 169.33412 159.546519 
L 169.520197 159.738158 
L 169.706274 159.757051 
L 169.892351 159.494362 
L 170.078428 159.485858 
L 170.264505 159.11341 
L 170.450581 159.788489 
L 170.636658 159.802011 
L 170.822735 159.403784 
L 171.380966 159.619938 
L 171.567043 159.335299 
L 171.75312 159.656145 
L 171.939197 159.736857 
L 172.125274 159.556359 
L 172.497428 159.632503 
L 172.869582 160.022604 
L 173.055659 159.955189 
L 173.241736 160.148752 
L 173.427813 159.961004 
L 173.61389 159.931687 
L 173.799967 160.108951 
L 173.986044 159.999141 
L 174.172121 160.207967 
L 174.358198 160.027744 
L 174.544275 160.019725 
L 174.916429 160.471868 
L 175.102506 160.309148 
L 175.288583 159.953292 
L 175.47466 159.949385 
L 175.660737 160.260551 
L 175.846814 160.020438 
L 176.218968 160.043707 
L 176.405045 160.019179 
L 176.591122 159.628927 
L 176.777199 159.675715 
L 177.149353 160.226667 
L 177.33543 160.304381 
L 177.707584 160.069244 
L 177.893661 160.26688 
L 178.265815 160.093727 
L 178.637969 159.546044 
L 179.010123 160.234513 
L 179.1962 159.962193 
L 179.382277 160.256462 
L 179.754431 160.403598 
L 180.126585 160.010349 
L 180.312662 160.259641 
L 180.498739 159.954095 
L 180.870893 160.256344 
L 181.429124 160.445881 
L 181.615201 160.563262 
L 181.801278 160.515884 
L 181.987355 160.205471 
L 182.173432 160.365625 
L 182.731663 160.384573 
L 183.103817 160.826214 
L 183.289894 160.596872 
L 183.662048 160.648544 
L 183.848124 160.335918 
L 184.220278 160.473899 
L 184.406355 160.447608 
L 184.592432 160.533761 
L 184.778509 160.411387 
L 184.964586 160.704286 
L 185.522817 160.476082 
L 186.081048 160.815089 
L 186.453202 160.757162 
L 186.639279 160.902567 
L 186.825356 160.739077 
L 187.011433 161.043182 
L 187.19751 160.791934 
L 187.383587 161.133439 
L 187.941818 161.138577 
L 188.127895 161.066542 
L 188.500049 161.130147 
L 188.872203 160.98301 
L 189.05828 160.740107 
L 189.244357 160.699914 
L 189.430434 161.111289 
L 189.616511 161.133991 
L 189.988665 160.828238 
L 191.291204 161.026484 
L 191.477281 160.917847 
L 191.849435 160.510838 
L 192.035512 160.358913 
L 192.221589 160.653286 
L 192.407666 160.674191 
L 192.593743 160.957186 
L 192.77982 160.904495 
L 193.524128 161.091223 
L 193.710205 161.024142 
L 193.896282 160.800506 
L 194.082359 160.775715 
L 194.268436 160.369149 
L 194.64059 160.648091 
L 194.826667 160.641124 
L 195.198821 161.023317 
L 195.384898 160.952386 
L 195.570975 160.604766 
L 195.757052 160.915115 
L 196.873514 161.189968 
L 197.05959 161.155093 
L 197.245667 160.976364 
L 197.431744 161.033147 
L 197.617821 160.915418 
L 197.803898 160.644225 
L 197.989975 160.805321 
L 198.176052 160.686521 
L 198.92036 161.072867 
L 199.478591 161.255762 
L 199.850745 161.343681 
L 200.408976 161.086961 
L 200.595053 161.155922 
L 200.78113 160.791037 
L 200.967207 161.21409 
L 201.153284 161.271749 
L 201.525438 160.890867 
L 201.897592 161.056793 
L 202.455823 161.246986 
L 202.827977 161.108029 
L 203.014054 161.20591 
L 203.572285 160.821576 
L 204.130516 161.271257 
L 204.50267 161.002254 
L 204.688747 161.006389 
L 204.874824 161.242986 
L 205.246978 160.984337 
L 205.433055 161.281029 
L 206.177363 161.200941 
L 206.549517 161.257446 
L 206.735594 161.299509 
L 206.921671 161.146944 
L 207.107748 161.171306 
L 207.293825 160.584793 
L 207.479902 160.514644 
L 207.852056 161.057273 
L 208.038133 161.210602 
L 208.968518 161.252006 
L 209.154595 161.449423 
L 209.526749 161.268 
L 209.898903 161.389441 
L 211.015364 161.08436 
L 211.201441 161.21374 
L 211.573595 160.923602 
L 212.131826 161.406116 
L 213.992596 161.364649 
L 214.36475 161.52141 
L 214.550827 161.463757 
L 214.736904 161.207017 
L 215.109058 161.504127 
L 215.853366 161.450774 
L 216.039443 161.556898 
L 216.411597 161.409986 
L 217.341982 161.585656 
L 217.528059 161.454488 
L 217.900213 161.501587 
L 219.202752 161.579627 
L 220.319214 161.632719 
L 220.505291 161.529761 
L 220.691368 161.615914 
L 221.249599 161.421342 
L 221.621753 161.599248 
L 222.179984 161.634668 
L 222.552138 161.544891 
L 222.924292 161.627977 
L 223.296446 161.536868 
L 223.6686 161.571516 
L 223.854676 161.503706 
L 224.040753 161.185589 
L 224.22683 161.232702 
L 224.412907 161.479246 
L 224.971138 161.188249 
L 225.343292 161.531793 
L 225.715446 161.624348 
L 225.901523 161.43083 
L 226.0876 161.534084 
L 226.459754 161.467679 
L 226.831908 161.6029 
L 227.204062 161.4839 
L 227.390139 161.56381 
L 227.762293 161.507676 
L 228.134447 161.115691 
L 228.320524 161.26037 
L 228.506601 161.165307 
L 228.692678 161.276002 
L 228.878755 161.606236 
L 229.436986 161.502382 
L 229.623063 161.51085 
L 229.995217 161.364076 
L 230.367371 161.601702 
L 230.553448 161.483293 
L 231.66991 161.650976 
L 235.019296 161.724464 
L 235.763604 161.661478 
L 236.507912 161.712277 
L 236.880066 161.66794 
L 237.624373 161.704571 
L 237.81045 161.632605 
L 237.996527 161.720002 
L 238.182604 161.344098 
L 238.368681 161.699018 
L 239.112989 161.719138 
L 239.299066 161.609845 
L 239.857297 161.735674 
L 240.601605 161.649691 
L 240.787682 161.649434 
L 240.973759 161.510538 
L 241.159836 161.525759 
L 241.345913 161.667908 
L 242.648452 161.7136 
L 243.950991 161.693676 
L 244.881376 161.640908 
L 245.625684 161.721181 
L 245.997838 161.733371 
L 246.369992 161.665778 
L 246.742146 161.705084 
L 249.905455 161.757368 
L 249.905455 161.757368 
" clip-path="url(#p9c5b07da01)" style="fill: none; stroke: #ff7f0e; stroke-width: 1.5; stroke-linecap: square"/>
   </g>
   <g id="patch_3">
    <path d="M 54.72 168.48 
L 54.72 21.6 
" style="fill: none; stroke: #000000; stroke-width: 0.8; stroke-linejoin: miter; stroke-linecap: square"/>
   </g>
   <g id="patch_4">
    <path d="M 259.2 168.48 
L 259.2 21.6 
" style="fill: none; stroke: #000000; stroke-width: 0.8; stroke-linejoin: miter; stroke-linecap: square"/>
   </g>
   <g id="patch_5">
    <path d="M 54.72 168.48 
L 259.2 168.48 
" style="fill: none; stroke: #000000; stroke-width: 0.8; stroke-linejoin: miter; stroke-linecap: square"/>
   </g>
   <g id="patch_6">
    <path d="M 54.72 21.6 
L 259.2 21.6 
" style="fill: none; stroke: #000000; stroke-width: 0.8; stroke-linejoin: miter; stroke-linecap: square"/>
   </g>
   <g id="legend_1">
    <g id="patch_7">
     <path d="M 154.996875 86.900625 
L 246.6 86.900625 
Q 250.2 86.900625 250.2 83.300625 
L 250.2 34.2 
Q 250.2 30.6 246.6 30.6 
L 154.996875 30.6 
Q 151.396875 30.6 151.396875 34.2 
L 151.396875 83.300625 
Q 151.396875 86.900625 154.996875 86.900625 
z
" style="fill: #ffffff; opacity: 0.8; stroke: #cccccc; stroke-linejoin: miter"/>
    </g>
    <g id="line2d_12">
     <path d="M 158.596875 44.1 
L 176.596875 44.1 
L 194.596875 44.1 
" style="fill: none; stroke: #1f77b4; stroke-width: 1.5; stroke-linecap: square"/>
    </g>
    <g id="text_12">
     <!-- SDT -->
     <g transform="translate(208.996875 50.4)scale(0.18 -0.18)">
      <defs>
       <path id="TimesNewRomanPSMT-53" d="M 2934 4334 
L 2934 2869 
L 2819 2869 
Q 2763 3291 2617 3541 
Q 2472 3791 2203 3937 
Q 1934 4084 1647 4084 
Q 1322 4084 1109 3886 
Q 897 3688 897 3434 
Q 897 3241 1031 3081 
Q 1225 2847 1953 2456 
Q 2547 2138 2764 1967 
Q 2981 1797 3098 1565 
Q 3216 1334 3216 1081 
Q 3216 600 2842 251 
Q 2469 -97 1881 -97 
Q 1697 -97 1534 -69 
Q 1438 -53 1133 45 
Q 828 144 747 144 
Q 669 144 623 97 
Q 578 50 556 -97 
L 441 -97 
L 441 1356 
L 556 1356 
Q 638 900 775 673 
Q 913 447 1195 297 
Q 1478 147 1816 147 
Q 2206 147 2432 353 
Q 2659 559 2659 841 
Q 2659 997 2573 1156 
Q 2488 1316 2306 1453 
Q 2184 1547 1640 1851 
Q 1097 2156 867 2337 
Q 638 2519 519 2737 
Q 400 2956 400 3219 
Q 400 3675 750 4004 
Q 1100 4334 1641 4334 
Q 1978 4334 2356 4169 
Q 2531 4091 2603 4091 
Q 2684 4091 2736 4139 
Q 2788 4188 2819 4334 
L 2934 4334 
z
" transform="scale(0.015625)"/>
       <path id="TimesNewRomanPSMT-44" d="M 109 0 
L 109 116 
L 269 116 
Q 538 116 650 288 
Q 719 391 719 750 
L 719 3488 
Q 719 3884 631 3984 
Q 509 4122 269 4122 
L 109 4122 
L 109 4238 
L 1834 4238 
Q 2784 4238 3279 4022 
Q 3775 3806 4076 3303 
Q 4378 2800 4378 2141 
Q 4378 1256 3841 663 
Q 3238 0 2003 0 
L 109 0 
z
M 1319 306 
Q 1716 219 1984 219 
Q 2709 219 3187 728 
Q 3666 1238 3666 2109 
Q 3666 2988 3187 3494 
Q 2709 4000 1959 4000 
Q 1678 4000 1319 3909 
L 1319 306 
z
" transform="scale(0.015625)"/>
       <path id="TimesNewRomanPSMT-54" d="M 3703 4238 
L 3750 3244 
L 3631 3244 
Q 3597 3506 3538 3619 
Q 3441 3800 3280 3886 
Q 3119 3972 2856 3972 
L 2259 3972 
L 2259 734 
Q 2259 344 2344 247 
Q 2463 116 2709 116 
L 2856 116 
L 2856 0 
L 1059 0 
L 1059 116 
L 1209 116 
Q 1478 116 1591 278 
Q 1659 378 1659 734 
L 1659 3972 
L 1150 3972 
Q 853 3972 728 3928 
Q 566 3869 450 3700 
Q 334 3531 313 3244 
L 194 3244 
L 244 4238 
L 3703 4238 
z
" transform="scale(0.015625)"/>
      </defs>
      <use xlink:href="#TimesNewRomanPSMT-53"/>
      <use xlink:href="#TimesNewRomanPSMT-44" x="55.615234"/>
      <use xlink:href="#TimesNewRomanPSMT-54" x="127.832031"/>
     </g>
    </g>
    <g id="line2d_13">
     <path d="M 158.596875 69.550312 
L 176.596875 69.550312 
L 194.596875 69.550312 
" style="fill: none; stroke: #ff7f0e; stroke-width: 1.5; stroke-linecap: square"/>
    </g>
    <g id="text_13">
     <!-- TET -->
     <g transform="translate(208.996875 75.850312)scale(0.18 -0.18)">
      <use xlink:href="#TimesNewRomanPSMT-54"/>
      <use xlink:href="#TimesNewRomanPSMT-45" x="61.083984"/>
      <use xlink:href="#TimesNewRomanPSMT-54" x="122.167969"/>
     </g>
    </g>
   </g>
  </g>
 </g>
 <defs>
  <clipPath id="p9c5b07da01">
   <rect x="54.72" y="21.6" width="204.48" height="146.88"/>
  </clipPath>
 </defs>
</svg>
