<?xml version="1.0" encoding="utf-8" standalone="no"?>
<!DOCTYPE svg PUBLIC "-//W3C//DTD SVG 1.1//EN"
  "http://www.w3.org/Graphics/SVG/1.1/DTD/svg11.dtd">
<svg xmlns:xlink="http://www.w3.org/1999/xlink" width="288pt" height="216pt" viewBox="0 0 288 216" xmlns="http://www.w3.org/2000/svg" version="1.1">
 <metadata>
  <rdf:RDF xmlns:dc="http://purl.org/dc/elements/1.1/" xmlns:cc="http://creativecommons.org/ns#" xmlns:rdf="http://www.w3.org/1999/02/22-rdf-syntax-ns#">
   <cc:Work>
    <dc:type rdf:resource="http://purl.org/dc/dcmitype/StillImage"/>
    <dc:date>2024-05-21T22:16:47.651795</dc:date>
    <dc:format>image/svg+xml</dc:format>
    <dc:creator>
     <cc:Agent>
      <dc:title>Matplotlib v3.5.0, https://matplotlib.org/</dc:title>
     </cc:Agent>
    </dc:creator>
   </cc:Work>
  </rdf:RDF>
 </metadata>
 <defs>
  <style type="text/css">*{stroke-linejoin: round; stroke-linecap: butt}</style>
 </defs>
 <g id="figure_1">
  <g id="patch_1">
   <path d="M 0 216 
L 288 216 
L 288 0 
L 0 0 
z
" style="fill: #ffffff"/>
  </g>
  <g id="axes_1">
   <g id="patch_2">
    <path d="M 54.72 168.48 
L 259.2 168.48 
L 259.2 21.6 
L 54.72 21.6 
z
" style="fill: #ffffff"/>
   </g>
   <g id="matplotlib.axis_1">
    <g id="xtick_1">
     <g id="line2d_1">
      <defs>
       <path id="m707a2167da" d="M 0 0 
L 0 3.5 
" style="stroke: #000000; stroke-width: 0.8"/>
      </defs>
      <g>
       <use xlink:href="#m707a2167da" x="64.014545" y="168.48" style="stroke: #000000; stroke-width: 0.8"/>
      </g>
     </g>
     <g id="text_1">
      <!-- 0 -->
      <g transform="translate(59.514545 187.97875)scale(0.18 -0.18)">
       <defs>
        <path id="TimesNewRomanPSMT-30" d="M 231 2094 
Q 231 2819 450 3342 
Q 669 3866 1031 4122 
Q 1313 4325 1613 4325 
Q 2100 4325 2488 3828 
Q 2972 3213 2972 2159 
Q 2972 1422 2759 906 
Q 2547 391 2217 158 
Q 1888 -75 1581 -75 
Q 975 -75 572 641 
Q 231 1244 231 2094 
z
M 844 2016 
Q 844 1141 1059 588 
Q 1238 122 1591 122 
Q 1759 122 1940 273 
Q 2122 425 2216 781 
Q 2359 1319 2359 2297 
Q 2359 3022 2209 3506 
Q 2097 3866 1919 4016 
Q 1791 4119 1609 4119 
Q 1397 4119 1231 3928 
Q 1006 3669 925 3112 
Q 844 2556 844 2016 
z
" transform="scale(0.015625)"/>
       </defs>
       <use xlink:href="#TimesNewRomanPSMT-30"/>
      </g>
     </g>
    </g>
    <g id="xtick_2">
     <g id="line2d_2">
      <g>
       <use xlink:href="#m707a2167da" x="157.053038" y="168.48" style="stroke: #000000; stroke-width: 0.8"/>
      </g>
     </g>
     <g id="text_2">
      <!-- 500 -->
      <g transform="translate(143.553038 187.97875)scale(0.18 -0.18)">
       <defs>
        <path id="TimesNewRomanPSMT-35" d="M 2778 4238 
L 2534 3706 
L 1259 3706 
L 981 3138 
Q 1809 3016 2294 2522 
Q 2709 2097 2709 1522 
Q 2709 1188 2573 903 
Q 2438 619 2231 419 
Q 2025 219 1772 97 
Q 1413 -75 1034 -75 
Q 653 -75 479 54 
Q 306 184 306 341 
Q 306 428 378 495 
Q 450 563 559 563 
Q 641 563 702 538 
Q 763 513 909 409 
Q 1144 247 1384 247 
Q 1750 247 2026 523 
Q 2303 800 2303 1197 
Q 2303 1581 2056 1914 
Q 1809 2247 1375 2428 
Q 1034 2569 447 2591 
L 1259 4238 
L 2778 4238 
z
" transform="scale(0.015625)"/>
       </defs>
       <use xlink:href="#TimesNewRomanPSMT-35"/>
       <use xlink:href="#TimesNewRomanPSMT-30" x="50"/>
       <use xlink:href="#TimesNewRomanPSMT-30" x="100"/>
      </g>
     </g>
    </g>
    <g id="xtick_3">
     <g id="line2d_3">
      <g>
       <use xlink:href="#m707a2167da" x="250.091532" y="168.48" style="stroke: #000000; stroke-width: 0.8"/>
      </g>
     </g>
     <g id="text_3">
      <!-- 1000 -->
      <g transform="translate(232.091532 187.97875)scale(0.18 -0.18)">
       <defs>
        <path id="TimesNewRomanPSMT-31" d="M 750 3822 
L 1781 4325 
L 1884 4325 
L 1884 747 
Q 1884 391 1914 303 
Q 1944 216 2037 169 
Q 2131 122 2419 116 
L 2419 0 
L 825 0 
L 825 116 
Q 1125 122 1212 167 
Q 1300 213 1334 289 
Q 1369 366 1369 747 
L 1369 3034 
Q 1369 3497 1338 3628 
Q 1316 3728 1258 3775 
Q 1200 3822 1119 3822 
Q 1003 3822 797 3725 
L 750 3822 
z
" transform="scale(0.015625)"/>
       </defs>
       <use xlink:href="#TimesNewRomanPSMT-31"/>
       <use xlink:href="#TimesNewRomanPSMT-30" x="50"/>
       <use xlink:href="#TimesNewRomanPSMT-30" x="100"/>
       <use xlink:href="#TimesNewRomanPSMT-30" x="150"/>
      </g>
     </g>
    </g>
    <g id="text_4">
     <!-- Epoch -->
     <g transform="translate(133.967812 208.327812)scale(0.18 -0.18)">
      <defs>
       <path id="TimesNewRomanPSMT-45" d="M 1338 4006 
L 1338 2331 
L 2269 2331 
Q 2631 2331 2753 2441 
Q 2916 2584 2934 2947 
L 3050 2947 
L 3050 1472 
L 2934 1472 
Q 2891 1781 2847 1869 
Q 2791 1978 2662 2040 
Q 2534 2103 2269 2103 
L 1338 2103 
L 1338 706 
Q 1338 425 1363 364 
Q 1388 303 1450 267 
Q 1513 231 1688 231 
L 2406 231 
Q 2766 231 2928 281 
Q 3091 331 3241 478 
Q 3434 672 3638 1063 
L 3763 1063 
L 3397 0 
L 131 0 
L 131 116 
L 281 116 
Q 431 116 566 188 
Q 666 238 702 338 
Q 738 438 738 747 
L 738 3500 
Q 738 3903 656 3997 
Q 544 4122 281 4122 
L 131 4122 
L 131 4238 
L 3397 4238 
L 3444 3309 
L 3322 3309 
Q 3256 3644 3176 3769 
Q 3097 3894 2941 3959 
Q 2816 4006 2500 4006 
L 1338 4006 
z
" transform="scale(0.015625)"/>
       <path id="TimesNewRomanPSMT-70" d="M -6 2578 
L 875 2934 
L 994 2934 
L 994 2266 
Q 1216 2644 1439 2795 
Q 1663 2947 1909 2947 
Q 2341 2947 2628 2609 
Q 2981 2197 2981 1534 
Q 2981 794 2556 309 
Q 2206 -88 1675 -88 
Q 1444 -88 1275 -22 
Q 1150 25 994 166 
L 994 -706 
Q 994 -1000 1030 -1079 
Q 1066 -1159 1155 -1206 
Q 1244 -1253 1478 -1253 
L 1478 -1369 
L -22 -1369 
L -22 -1253 
L 56 -1253 
Q 228 -1256 350 -1188 
Q 409 -1153 442 -1076 
Q 475 -1000 475 -688 
L 475 2019 
Q 475 2297 450 2372 
Q 425 2447 370 2484 
Q 316 2522 222 2522 
Q 147 2522 31 2478 
L -6 2578 
z
M 994 2081 
L 994 1013 
Q 994 666 1022 556 
Q 1066 375 1236 237 
Q 1406 100 1666 100 
Q 1978 100 2172 344 
Q 2425 663 2425 1241 
Q 2425 1897 2138 2250 
Q 1938 2494 1663 2494 
Q 1513 2494 1366 2419 
Q 1253 2363 994 2081 
z
" transform="scale(0.015625)"/>
       <path id="TimesNewRomanPSMT-6f" d="M 1600 2947 
Q 2250 2947 2644 2453 
Q 2978 2031 2978 1484 
Q 2978 1100 2793 706 
Q 2609 313 2286 112 
Q 1963 -88 1566 -88 
Q 919 -88 538 428 
Q 216 863 216 1403 
Q 216 1797 411 2186 
Q 606 2575 925 2761 
Q 1244 2947 1600 2947 
z
M 1503 2744 
Q 1338 2744 1170 2645 
Q 1003 2547 900 2300 
Q 797 2053 797 1666 
Q 797 1041 1045 587 
Q 1294 134 1700 134 
Q 2003 134 2200 384 
Q 2397 634 2397 1244 
Q 2397 2006 2069 2444 
Q 1847 2744 1503 2744 
z
" transform="scale(0.015625)"/>
       <path id="TimesNewRomanPSMT-63" d="M 2631 1088 
Q 2516 522 2178 217 
Q 1841 -88 1431 -88 
Q 944 -88 581 321 
Q 219 731 219 1428 
Q 219 2103 620 2525 
Q 1022 2947 1584 2947 
Q 2006 2947 2278 2723 
Q 2550 2500 2550 2259 
Q 2550 2141 2473 2067 
Q 2397 1994 2259 1994 
Q 2075 1994 1981 2113 
Q 1928 2178 1911 2362 
Q 1894 2547 1784 2644 
Q 1675 2738 1481 2738 
Q 1169 2738 978 2506 
Q 725 2200 725 1697 
Q 725 1184 976 792 
Q 1228 400 1656 400 
Q 1963 400 2206 609 
Q 2378 753 2541 1131 
L 2631 1088 
z
" transform="scale(0.015625)"/>
       <path id="TimesNewRomanPSMT-68" d="M 1041 4444 
L 1041 2350 
Q 1388 2731 1591 2839 
Q 1794 2947 1997 2947 
Q 2241 2947 2416 2812 
Q 2591 2678 2675 2391 
Q 2734 2191 2734 1659 
L 2734 647 
Q 2734 375 2778 275 
Q 2809 200 2884 156 
Q 2959 113 3159 113 
L 3159 0 
L 1753 0 
L 1753 113 
L 1819 113 
Q 2019 113 2097 173 
Q 2175 234 2206 353 
Q 2216 403 2216 647 
L 2216 1659 
Q 2216 2128 2167 2275 
Q 2119 2422 2012 2495 
Q 1906 2569 1756 2569 
Q 1603 2569 1437 2487 
Q 1272 2406 1041 2159 
L 1041 647 
Q 1041 353 1073 281 
Q 1106 209 1195 161 
Q 1284 113 1503 113 
L 1503 0 
L 84 0 
L 84 113 
Q 275 113 384 172 
Q 447 203 484 290 
Q 522 378 522 647 
L 522 3238 
Q 522 3728 498 3840 
Q 475 3953 426 3993 
Q 378 4034 297 4034 
Q 231 4034 84 3984 
L 41 4094 
L 897 4444 
L 1041 4444 
z
" transform="scale(0.015625)"/>
      </defs>
      <use xlink:href="#TimesNewRomanPSMT-45"/>
      <use xlink:href="#TimesNewRomanPSMT-70" x="61.083984"/>
      <use xlink:href="#TimesNewRomanPSMT-6f" x="111.083984"/>
      <use xlink:href="#TimesNewRomanPSMT-63" x="161.083984"/>
      <use xlink:href="#TimesNewRomanPSMT-68" x="205.46875"/>
     </g>
    </g>
   </g>
   <g id="matplotlib.axis_2">
    <g id="ytick_1">
     <g id="line2d_4">
      <defs>
       <path id="m1677720b71" d="M 0 0 
L -3.5 0 
" style="stroke: #000000; stroke-width: 0.8"/>
      </defs>
      <g>
       <use xlink:href="#m1677720b71" x="54.72" y="162.070428" style="stroke: #000000; stroke-width: 0.8"/>
      </g>
     </g>
     <g id="text_5">
      <!-- 0.0 -->
      <g transform="translate(25.22 168.319803)scale(0.18 -0.18)">
       <defs>
        <path id="TimesNewRomanPSMT-2e" d="M 800 606 
Q 947 606 1047 504 
Q 1147 403 1147 259 
Q 1147 116 1045 14 
Q 944 -88 800 -88 
Q 656 -88 554 14 
Q 453 116 453 259 
Q 453 406 554 506 
Q 656 606 800 606 
z
" transform="scale(0.015625)"/>
       </defs>
       <use xlink:href="#TimesNewRomanPSMT-30"/>
       <use xlink:href="#TimesNewRomanPSMT-2e" x="50"/>
       <use xlink:href="#TimesNewRomanPSMT-30" x="75"/>
      </g>
     </g>
    </g>
    <g id="ytick_2">
     <g id="line2d_5">
      <g>
       <use xlink:href="#m1677720b71" x="54.72" y="137.935802" style="stroke: #000000; stroke-width: 0.8"/>
      </g>
     </g>
     <g id="text_6">
      <!-- 0.5 -->
      <g transform="translate(25.22 144.185177)scale(0.18 -0.18)">
       <use xlink:href="#TimesNewRomanPSMT-30"/>
       <use xlink:href="#TimesNewRomanPSMT-2e" x="50"/>
       <use xlink:href="#TimesNewRomanPSMT-35" x="75"/>
      </g>
     </g>
    </g>
    <g id="ytick_3">
     <g id="line2d_6">
      <g>
       <use xlink:href="#m1677720b71" x="54.72" y="113.801175" style="stroke: #000000; stroke-width: 0.8"/>
      </g>
     </g>
     <g id="text_7">
      <!-- 1.0 -->
      <g transform="translate(25.22 120.05055)scale(0.18 -0.18)">
       <use xlink:href="#TimesNewRomanPSMT-31"/>
       <use xlink:href="#TimesNewRomanPSMT-2e" x="50"/>
       <use xlink:href="#TimesNewRomanPSMT-30" x="75"/>
      </g>
     </g>
    </g>
    <g id="ytick_4">
     <g id="line2d_7">
      <g>
       <use xlink:href="#m1677720b71" x="54.72" y="89.666548" style="stroke: #000000; stroke-width: 0.8"/>
      </g>
     </g>
     <g id="text_8">
      <!-- 1.5 -->
      <g transform="translate(25.22 95.915923)scale(0.18 -0.18)">
       <use xlink:href="#TimesNewRomanPSMT-31"/>
       <use xlink:href="#TimesNewRomanPSMT-2e" x="50"/>
       <use xlink:href="#TimesNewRomanPSMT-35" x="75"/>
      </g>
     </g>
    </g>
    <g id="ytick_5">
     <g id="line2d_8">
      <g>
       <use xlink:href="#m1677720b71" x="54.72" y="65.531922" style="stroke: #000000; stroke-width: 0.8"/>
      </g>
     </g>
     <g id="text_9">
      <!-- 2.0 -->
      <g transform="translate(25.22 71.781297)scale(0.18 -0.18)">
       <defs>
        <path id="TimesNewRomanPSMT-32" d="M 2934 816 
L 2638 0 
L 138 0 
L 138 116 
Q 1241 1122 1691 1759 
Q 2141 2397 2141 2925 
Q 2141 3328 1894 3587 
Q 1647 3847 1303 3847 
Q 991 3847 742 3664 
Q 494 3481 375 3128 
L 259 3128 
Q 338 3706 661 4015 
Q 984 4325 1469 4325 
Q 1984 4325 2329 3994 
Q 2675 3663 2675 3213 
Q 2675 2891 2525 2569 
Q 2294 2063 1775 1497 
Q 997 647 803 472 
L 1909 472 
Q 2247 472 2383 497 
Q 2519 522 2628 598 
Q 2738 675 2819 816 
L 2934 816 
z
" transform="scale(0.015625)"/>
       </defs>
       <use xlink:href="#TimesNewRomanPSMT-32"/>
       <use xlink:href="#TimesNewRomanPSMT-2e" x="50"/>
       <use xlink:href="#TimesNewRomanPSMT-30" x="75"/>
      </g>
     </g>
    </g>
    <g id="ytick_6">
     <g id="line2d_9">
      <g>
       <use xlink:href="#m1677720b71" x="54.72" y="41.397295" style="stroke: #000000; stroke-width: 0.8"/>
      </g>
     </g>
     <g id="text_10">
      <!-- 2.5 -->
      <g transform="translate(25.22 47.64667)scale(0.18 -0.18)">
       <use xlink:href="#TimesNewRomanPSMT-32"/>
       <use xlink:href="#TimesNewRomanPSMT-2e" x="50"/>
       <use xlink:href="#TimesNewRomanPSMT-35" x="75"/>
      </g>
     </g>
    </g>
    <g id="text_11">
     <!-- Loss -->
     <g transform="translate(17.369687 112.042969)rotate(-90)scale(0.18 -0.18)">
      <defs>
       <path id="TimesNewRomanPSMT-4c" d="M 3669 1172 
L 3772 1150 
L 3409 0 
L 128 0 
L 128 116 
L 288 116 
Q 556 116 672 291 
Q 738 391 738 753 
L 738 3488 
Q 738 3884 650 3984 
Q 528 4122 288 4122 
L 128 4122 
L 128 4238 
L 2047 4238 
L 2047 4122 
Q 1709 4125 1573 4059 
Q 1438 3994 1388 3894 
Q 1338 3794 1338 3416 
L 1338 753 
Q 1338 494 1388 397 
Q 1425 331 1503 300 
Q 1581 269 1991 269 
L 2300 269 
Q 2788 269 2984 341 
Q 3181 413 3343 595 
Q 3506 778 3669 1172 
z
" transform="scale(0.015625)"/>
       <path id="TimesNewRomanPSMT-73" d="M 2050 2947 
L 2050 1972 
L 1947 1972 
Q 1828 2431 1642 2597 
Q 1456 2763 1169 2763 
Q 950 2763 815 2647 
Q 681 2531 681 2391 
Q 681 2216 781 2091 
Q 878 1963 1175 1819 
L 1631 1597 
Q 2266 1288 2266 781 
Q 2266 391 1970 151 
Q 1675 -88 1309 -88 
Q 1047 -88 709 6 
Q 606 38 541 38 
Q 469 38 428 -44 
L 325 -44 
L 325 978 
L 428 978 
Q 516 541 762 319 
Q 1009 97 1316 97 
Q 1531 97 1667 223 
Q 1803 350 1803 528 
Q 1803 744 1651 891 
Q 1500 1038 1047 1263 
Q 594 1488 453 1669 
Q 313 1847 313 2119 
Q 313 2472 555 2709 
Q 797 2947 1181 2947 
Q 1350 2947 1591 2875 
Q 1750 2828 1803 2828 
Q 1853 2828 1881 2850 
Q 1909 2872 1947 2947 
L 2050 2947 
z
" transform="scale(0.015625)"/>
      </defs>
      <use xlink:href="#TimesNewRomanPSMT-4c"/>
      <use xlink:href="#TimesNewRomanPSMT-6f" x="61.083984"/>
      <use xlink:href="#TimesNewRomanPSMT-73" x="111.083984"/>
      <use xlink:href="#TimesNewRomanPSMT-73" x="150"/>
     </g>
    </g>
   </g>
   <g id="line2d_10">
    <path d="M 64.014545 28.276364 
L 64.94493 29.040123 
L 66.247469 29.165747 
L 67.550008 29.352101 
L 68.852547 29.741921 
L 69.596855 30.130797 
L 70.341163 30.75137 
L 71.271548 31.970616 
L 73.504472 35.956856 
L 73.690549 36.102793 
L 74.24878 36.889937 
L 75.179165 37.968079 
L 75.551319 38.251137 
L 75.737396 38.566291 
L 76.295627 38.62816 
L 76.667781 39.313029 
L 76.853857 39.189499 
L 77.039934 39.544012 
L 77.226011 39.492731 
L 77.412088 39.81326 
L 77.598165 39.786296 
L 77.784242 40.058502 
L 77.970319 40.117332 
L 78.156396 40.359685 
L 78.342473 40.406581 
L 79.272858 41.290234 
L 79.458935 41.364773 
L 79.645012 41.674794 
L 80.017166 41.921394 
L 83.738706 45.362096 
L 83.924783 45.406322 
L 84.296937 46.041061 
L 84.669091 46.400097 
L 86.529861 48.692525 
L 86.715938 48.757293 
L 87.088092 49.20996 
L 87.274169 49.352203 
L 88.204554 50.839798 
L 88.576708 51.28777 
L 88.948862 51.849881 
L 90.437477 54.170941 
L 90.623554 54.181368 
L 92.670401 57.999437 
L 92.856478 57.97008 
L 93.042555 58.126063 
L 93.228632 58.506021 
L 93.414709 59.487033 
L 93.97294 60.262807 
L 94.159017 60.302119 
L 94.531171 61.504332 
L 94.903325 62.041447 
L 95.089402 62.64783 
L 95.275479 62.784134 
L 95.647633 63.435031 
L 96.391941 64.326889 
L 96.764095 65.544414 
L 97.322326 66.356485 
L 97.508403 66.575119 
L 97.880557 67.650862 
L 98.066634 67.720401 
L 98.252711 68.051886 
L 98.438788 68.684392 
L 98.624865 68.704555 
L 98.997019 70.174198 
L 99.369173 70.802936 
L 99.55525 70.847059 
L 100.113481 72.262566 
L 100.299558 72.517532 
L 100.485635 72.434805 
L 100.671712 71.932284 
L 100.857789 71.808185 
L 101.229943 74.056092 
L 101.602097 73.506911 
L 101.788174 73.879084 
L 101.974251 75.64396 
L 102.346405 75.223648 
L 102.532482 76.652391 
L 102.718559 76.740763 
L 102.904636 76.420833 
L 103.090713 77.62739 
L 103.27679 77.73951 
L 103.462867 77.984302 
L 104.021097 79.667781 
L 104.207174 79.219188 
L 104.393251 79.220367 
L 104.579328 79.498637 
L 104.765405 79.351343 
L 105.323636 81.329307 
L 105.509713 81.140249 
L 105.69579 81.332857 
L 105.881867 81.816194 
L 106.254021 83.502491 
L 106.440098 83.084027 
L 106.626175 83.518574 
L 106.812252 84.41084 
L 106.998329 84.33099 
L 107.184406 84.631322 
L 107.55656 85.864354 
L 107.742637 85.835428 
L 107.928714 85.353582 
L 108.114791 86.443382 
L 108.300868 86.765896 
L 108.486945 86.728667 
L 108.673022 86.83742 
L 108.859099 87.545634 
L 109.045176 87.466503 
L 109.603407 89.691084 
L 110.161638 90.464844 
L 110.347715 90.403165 
L 110.533792 90.820772 
L 110.719869 90.882756 
L 110.905946 90.474338 
L 111.092023 91.293089 
L 111.2781 91.561532 
L 111.464177 92.070261 
L 111.650254 93.061907 
L 111.836331 92.308627 
L 112.022408 92.627596 
L 112.208485 92.677456 
L 112.580639 94.085074 
L 112.952793 93.991938 
L 113.511024 95.81969 
L 113.697101 95.553774 
L 113.883178 96.005877 
L 114.069255 95.665887 
L 114.255332 96.800788 
L 114.441409 96.968959 
L 114.627486 96.905876 
L 114.813563 97.018111 
L 114.99964 97.811607 
L 115.371794 98.038879 
L 115.557871 97.611519 
L 115.743948 97.594089 
L 115.930025 97.754336 
L 116.302179 99.780865 
L 116.488256 100.434191 
L 116.86041 99.433827 
L 117.232563 101.223814 
L 117.41864 100.798278 
L 117.790794 101.760101 
L 117.976871 102.50616 
L 118.162948 102.747523 
L 118.349025 102.317677 
L 118.907256 103.450518 
L 119.27941 104.81436 
L 119.465487 105.066472 
L 119.651564 105.516906 
L 119.837641 105.312444 
L 120.023718 105.537155 
L 120.209795 105.392237 
L 120.395872 105.409677 
L 120.768026 106.660266 
L 120.954103 107.409858 
L 121.14018 107.438698 
L 121.326257 106.798826 
L 121.698411 107.43887 
L 122.070565 108.864799 
L 122.256642 109.241949 
L 122.442719 109.014597 
L 123.00095 109.475112 
L 123.187027 109.797931 
L 123.559181 111.22493 
L 124.117412 111.538358 
L 124.303489 112.175664 
L 124.489566 112.278249 
L 124.675643 112.656095 
L 124.86172 112.754111 
L 125.047797 112.488315 
L 125.419951 113.302878 
L 125.792105 113.130242 
L 125.978182 113.31026 
L 126.164259 114.454713 
L 126.350336 114.539886 
L 126.536413 114.403766 
L 126.72249 114.001045 
L 127.466798 115.716004 
L 127.652875 115.961695 
L 127.838952 115.773431 
L 128.397183 116.907285 
L 128.58326 116.112048 
L 128.769337 117.006788 
L 128.955414 116.726394 
L 129.141491 117.470635 
L 129.327568 116.722418 
L 129.513645 117.486295 
L 129.699722 117.08999 
L 130.444029 118.520223 
L 130.630106 118.533239 
L 130.816183 118.357001 
L 131.188337 120.044116 
L 131.560491 119.755971 
L 131.746568 119.676774 
L 132.490876 121.379232 
L 132.676953 121.2311 
L 132.86303 120.824452 
L 133.049107 121.190114 
L 133.235184 120.80685 
L 133.607338 121.935563 
L 133.979492 121.681164 
L 134.165569 121.69285 
L 134.537723 123.763723 
L 134.7238 123.515248 
L 134.909877 122.494742 
L 135.282031 124.749238 
L 135.468108 124.486985 
L 135.840262 125.138385 
L 136.026339 125.182177 
L 137.328878 126.790434 
L 137.514955 127.318725 
L 137.701032 127.384196 
L 137.887109 127.307795 
L 138.259263 128.193873 
L 138.631417 128.82743 
L 138.817494 128.375626 
L 139.003571 128.581308 
L 139.189648 128.999565 
L 139.375725 129.031771 
L 139.561802 129.504805 
L 139.747879 129.525885 
L 139.933956 129.391011 
L 140.30611 129.761365 
L 140.492187 129.624016 
L 140.678264 129.810603 
L 140.864341 130.664009 
L 141.422572 131.409895 
L 141.608649 131.273263 
L 142.16688 133.012954 
L 142.539034 133.297853 
L 142.725111 133.35073 
L 143.283342 133.856732 
L 143.469419 133.658056 
L 143.655495 133.679022 
L 143.841572 133.97351 
L 144.027649 133.832398 
L 144.213726 134.272904 
L 144.399803 134.075062 
L 144.58588 134.274636 
L 144.771957 133.920992 
L 144.958034 134.798502 
L 145.144111 134.428887 
L 145.330188 134.392711 
L 145.516265 134.818353 
L 145.702342 134.846134 
L 146.074496 136.169518 
L 146.44665 136.698074 
L 146.632727 136.538218 
L 147.004881 136.762563 
L 147.377035 137.411812 
L 147.563112 137.244844 
L 148.30742 137.238126 
L 148.493497 137.054083 
L 148.679574 136.698068 
L 149.051728 137.912722 
L 149.237805 137.917144 
L 149.423882 138.07497 
L 149.609959 138.601736 
L 149.796036 138.471472 
L 149.982113 138.917982 
L 150.354267 138.923906 
L 150.540344 139.004028 
L 150.726421 138.748196 
L 151.098575 139.436242 
L 151.284652 139.678281 
L 151.470729 139.310046 
L 151.656806 139.259039 
L 151.842883 138.008456 
L 152.215037 138.643238 
L 152.587191 140.009439 
L 152.773268 139.570377 
L 152.959345 139.476 
L 153.145422 139.729558 
L 153.517576 140.636271 
L 153.703653 140.740272 
L 154.075807 140.176489 
L 154.447961 140.513031 
L 154.634038 140.187726 
L 154.820115 140.806413 
L 155.006192 140.435857 
L 155.192269 140.884345 
L 155.378346 140.964227 
L 155.564423 141.213924 
L 155.936577 141.818919 
L 156.122654 141.781588 
L 156.308731 142.476234 
L 156.494808 142.171931 
L 156.680885 142.495464 
L 156.866962 141.966168 
L 157.053038 142.55968 
L 157.239115 142.464207 
L 157.425192 142.984862 
L 157.611269 142.954035 
L 157.797346 142.154483 
L 157.983423 142.784761 
L 158.727731 143.560271 
L 158.913808 143.538601 
L 159.099885 143.771024 
L 159.472039 143.481239 
L 159.658116 143.157487 
L 160.03027 144.424854 
L 160.216347 143.741978 
L 160.588501 145.011564 
L 160.774578 145.041684 
L 161.146732 144.159787 
L 161.332809 144.96978 
L 161.704963 144.924558 
L 162.077117 145.432741 
L 162.449271 145.403315 
L 162.635348 145.998044 
L 163.007502 145.945136 
L 163.379656 146.198772 
L 163.565733 146.355197 
L 163.75181 146.137152 
L 163.937887 146.135175 
L 164.123964 146.580104 
L 164.868272 147.189101 
L 165.054349 147.676981 
L 165.240426 147.426556 
L 165.426503 147.529948 
L 165.61258 147.468505 
L 166.356888 148.805032 
L 167.47335 148.206666 
L 167.659427 148.248064 
L 168.031581 148.472985 
L 168.217658 148.967891 
L 168.403735 148.960922 
L 168.589812 149.190184 
L 169.148043 149.364458 
L 169.33412 149.170758 
L 169.520197 149.402415 
L 169.706274 149.366882 
L 169.892351 149.618118 
L 170.450581 149.723317 
L 170.636658 149.457401 
L 170.822735 149.630386 
L 171.008812 149.638403 
L 171.380966 150.197917 
L 171.567043 149.921143 
L 171.75312 150.262876 
L 171.939197 150.330055 
L 172.125274 150.168078 
L 172.311351 150.267085 
L 172.497428 150.087235 
L 172.683505 150.394118 
L 172.869582 150.405248 
L 173.241736 150.83565 
L 173.61389 151.140098 
L 173.986044 151.252849 
L 174.358198 151.191843 
L 174.544275 150.877879 
L 174.916429 150.871114 
L 175.288583 151.133429 
L 175.47466 150.875825 
L 175.660737 150.837624 
L 176.032891 151.269988 
L 176.218968 151.019969 
L 176.405045 151.588325 
L 176.591122 151.417001 
L 176.963276 151.891248 
L 177.33543 152.119953 
L 177.521507 152.438632 
L 177.707584 152.136064 
L 178.079738 152.49156 
L 178.451892 152.573302 
L 178.637969 152.247183 
L 178.824046 152.15566 
L 179.010123 152.500846 
L 179.1962 152.359859 
L 179.382277 152.590045 
L 179.754431 152.572884 
L 179.940508 152.723859 
L 180.312662 152.648024 
L 180.684816 153.115472 
L 180.870893 152.922226 
L 181.05697 153.208391 
L 181.429124 152.865229 
L 181.615201 153.261618 
L 181.801278 153.293711 
L 181.987355 153.497428 
L 182.173432 153.127436 
L 182.359509 153.235245 
L 182.545586 153.116836 
L 182.731663 153.38096 
L 182.91774 153.218565 
L 183.662048 153.471526 
L 183.848124 153.216713 
L 184.034201 153.280197 
L 184.220278 153.192616 
L 184.778509 153.532638 
L 184.964586 153.633188 
L 185.150663 154.022133 
L 185.33674 154.0941 
L 185.522817 154.372093 
L 186.081048 153.954194 
L 186.267125 154.306265 
L 186.453202 154.268972 
L 186.639279 154.383137 
L 186.825356 154.668215 
L 187.011433 154.316668 
L 187.19751 154.268302 
L 187.383587 154.471775 
L 187.755741 154.364047 
L 188.127895 154.265548 
L 188.313972 154.534583 
L 188.686126 154.707248 
L 188.872203 154.435702 
L 189.05828 154.621108 
L 189.430434 154.469103 
L 189.616511 154.470248 
L 189.802588 154.684067 
L 190.174742 154.106129 
L 190.732973 154.542695 
L 190.91905 154.180391 
L 191.105127 154.816349 
L 191.291204 154.543243 
L 191.663358 155.084418 
L 191.849435 154.782553 
L 192.035512 155.161062 
L 192.221589 154.973276 
L 192.407666 154.994573 
L 192.593743 155.290173 
L 192.965897 155.158215 
L 193.151974 155.368156 
L 193.338051 155.325029 
L 193.896282 155.719678 
L 194.082359 155.78427 
L 194.454513 155.615953 
L 194.64059 155.684243 
L 195.012744 155.984592 
L 195.198821 155.853965 
L 195.757052 155.864428 
L 196.315283 155.810245 
L 196.50136 156.047262 
L 196.687437 156.040649 
L 196.873514 155.892865 
L 197.05959 156.169949 
L 197.245667 156.158114 
L 197.431744 155.809256 
L 197.617821 155.913884 
L 197.803898 156.228667 
L 197.989975 156.225134 
L 198.176052 156.022979 
L 198.734283 156.570405 
L 199.106437 156.637255 
L 199.292514 156.491556 
L 199.664668 156.827253 
L 200.036822 156.584949 
L 200.408976 156.81128 
L 200.78113 156.946638 
L 200.967207 156.79919 
L 201.339361 156.916447 
L 201.525438 157.109041 
L 201.711515 157.066195 
L 202.083669 156.666779 
L 202.269746 156.93765 
L 202.455823 156.916099 
L 202.827977 157.058318 
L 203.200131 156.725101 
L 203.572285 156.949769 
L 203.944439 156.983776 
L 205.433055 157.192348 
L 205.805209 157.522515 
L 205.991286 157.307016 
L 207.479902 157.339368 
L 207.665979 157.737814 
L 207.852056 157.546604 
L 208.22421 157.656824 
L 208.410287 157.535646 
L 208.782441 157.784229 
L 208.968518 157.891551 
L 209.712826 157.751409 
L 209.898903 157.896563 
L 210.08498 157.585101 
L 210.64321 157.941542 
L 211.387518 157.853265 
L 211.573595 158.029435 
L 211.759672 157.940787 
L 212.690057 158.225216 
L 212.876134 158.258534 
L 213.062211 158.122596 
L 213.620442 158.295293 
L 214.178673 158.27693 
L 214.36475 158.180322 
L 214.550827 158.387519 
L 215.481212 158.392792 
L 216.039443 158.521988 
L 216.597674 158.460137 
L 216.969828 158.247158 
L 217.714136 158.660844 
L 218.458444 158.57469 
L 218.644521 158.696611 
L 219.388829 158.534942 
L 219.574906 158.263661 
L 219.94706 158.492928 
L 220.319214 158.393606 
L 220.505291 158.375175 
L 220.877445 158.582832 
L 221.063522 158.570092 
L 221.249599 158.771593 
L 221.435676 158.625968 
L 221.993907 158.76383 
L 222.179984 158.736521 
L 222.366061 158.954646 
L 223.110369 158.847596 
L 223.482523 158.921685 
L 223.6686 158.81809 
L 223.854676 159.011263 
L 224.040753 158.944449 
L 224.22683 159.006044 
L 224.412907 158.92005 
L 225.157215 159.13411 
L 225.343292 158.941217 
L 225.529369 159.017196 
L 226.0876 158.950964 
L 227.576216 159.097022 
L 227.94837 159.106809 
L 228.320524 159.174757 
L 228.878755 159.308748 
L 229.064832 159.330596 
L 229.250909 159.195616 
L 229.436986 159.319374 
L 230.181294 159.298437 
L 230.553448 159.044291 
L 230.739525 159.184509 
L 231.111679 158.88779 
L 231.297756 158.975244 
L 231.483833 159.213568 
L 231.855987 159.262325 
L 232.042064 159.419243 
L 232.228141 159.321483 
L 232.414218 159.396633 
L 232.786372 159.170906 
L 233.158526 159.234495 
L 233.344603 159.184966 
L 233.53068 159.252198 
L 233.716757 159.104262 
L 234.647142 159.297554 
L 234.833219 159.206553 
L 235.205373 159.40437 
L 235.577527 159.429869 
L 235.949681 159.242755 
L 236.693989 159.387438 
L 237.624373 159.655739 
L 237.81045 159.544944 
L 237.996527 159.596436 
L 238.554758 159.436625 
L 238.740835 159.536824 
L 239.299066 159.470484 
L 239.485143 159.504203 
L 239.67122 159.391416 
L 240.043374 159.446121 
L 240.229451 159.384825 
L 240.415528 159.553236 
L 240.601605 159.48623 
L 240.787682 159.637684 
L 240.973759 159.590337 
L 241.159836 159.312284 
L 241.718067 159.686444 
L 241.904144 159.595184 
L 242.276298 159.693021 
L 243.764914 159.638727 
L 243.950991 159.830979 
L 244.881376 159.944858 
L 245.067453 160.02135 
L 245.439607 159.849037 
L 245.997838 159.996469 
L 246.183915 160.030971 
L 246.556069 159.961499 
L 246.928223 159.921396 
L 247.486454 159.926157 
L 247.672531 159.814591 
L 249.719378 159.990608 
L 249.905455 159.899207 
L 249.905455 159.899207 
" clip-path="url(#p36c269308a)" style="fill: none; stroke: #1f77b4; stroke-width: 1.5; stroke-linecap: square"/>
   </g>
   <g id="line2d_11">
    <path d="M 64.014545 28.276364 
L 65.131007 29.091093 
L 66.433546 29.123972 
L 66.991777 29.209099 
L 69.596855 29.794963 
L 70.899394 30.374842 
L 74.062703 32.681862 
L 74.620934 33.16376 
L 76.853857 34.920846 
L 79.086781 36.957582 
L 79.645012 37.524078 
L 81.505782 39.517244 
L 82.25009 40.459876 
L 82.622244 40.736386 
L 82.808321 41.139751 
L 82.994398 41.215982 
L 83.366552 42.024681 
L 83.552629 42.159397 
L 85.785553 45.594022 
L 86.157707 46.313071 
L 86.343784 46.523754 
L 86.902015 47.642923 
L 87.8324 49.455432 
L 88.576708 51.050193 
L 88.762785 51.24672 
L 89.321016 52.503114 
L 89.507093 52.71619 
L 89.879247 53.798038 
L 90.065324 53.926816 
L 90.437477 55.0126 
L 90.809631 55.652794 
L 91.181785 56.670449 
L 91.367862 56.99229 
L 91.740016 57.947961 
L 91.926093 58.209325 
L 92.670401 60.124189 
L 93.228632 61.328359 
L 93.600786 62.374025 
L 93.786863 62.475873 
L 94.159017 64.021551 
L 94.345094 64.164208 
L 94.717248 65.270638 
L 95.089402 66.228616 
L 95.647633 67.774824 
L 96.019787 68.769537 
L 96.391941 69.615355 
L 97.880557 73.893883 
L 98.066634 74.155892 
L 98.438788 75.469724 
L 101.043866 82.716418 
L 101.41602 83.811305 
L 101.602097 84.202955 
L 101.974251 85.672189 
L 102.160328 85.91903 
L 102.904636 87.981643 
L 103.090713 88.224278 
L 103.648943 90.258172 
L 104.393251 92.239519 
L 106.998329 99.838723 
L 107.370483 100.756963 
L 108.114791 102.864844 
L 108.486945 103.745994 
L 108.859099 105.022602 
L 109.603407 106.914921 
L 114.441409 118.882006 
L 114.627486 119.140157 
L 115.185717 120.688623 
L 119.465487 129.315114 
L 119.837641 129.935269 
L 120.023718 130.41543 
L 120.209795 130.587809 
L 120.581949 131.293354 
L 120.768026 131.516911 
L 121.14018 132.362614 
L 121.326257 132.411413 
L 121.698411 133.280095 
L 121.884488 133.463235 
L 122.628796 134.801056 
L 123.00095 135.289324 
L 123.187027 135.703605 
L 123.373104 135.824549 
L 123.931335 136.841246 
L 124.303489 137.340581 
L 125.792105 139.615476 
L 125.978182 139.727655 
L 126.350336 140.32224 
L 126.72249 140.563548 
L 127.280721 141.361299 
L 128.025029 142.204265 
L 128.397183 142.80671 
L 128.58326 142.904589 
L 128.955414 143.455218 
L 129.699722 144.218126 
L 130.071876 144.616503 
L 130.630106 145.04692 
L 131.00226 145.360633 
L 131.188337 145.438213 
L 131.746568 146.071601 
L 131.932645 146.162044 
L 132.304799 146.614841 
L 132.490876 146.658007 
L 132.86303 147.00614 
L 133.793415 147.700361 
L 134.7238 148.247329 
L 135.095954 148.533768 
L 136.58457 149.395564 
L 136.956724 149.824803 
L 137.142801 149.911213 
L 137.514955 150.191195 
L 138.073186 150.542009 
L 138.259263 150.835424 
L 139.003571 151.24322 
L 139.189648 151.464844 
L 139.933956 151.614248 
L 140.30611 151.823817 
L 140.492187 151.97543 
L 140.678264 151.914992 
L 144.213726 153.927636 
L 144.58588 154.039952 
L 145.144111 154.350205 
L 145.516265 154.315769 
L 145.888419 154.638714 
L 146.260573 154.731799 
L 147.935266 155.406653 
L 148.30742 155.500463 
L 149.237805 155.837324 
L 152.02896 156.440118 
L 152.401114 156.571285 
L 153.88973 156.875428 
L 154.820115 157.101719 
L 155.378346 157.220825 
L 157.239115 157.618063 
L 158.1695 157.818272 
L 159.472039 158.074023 
L 159.844193 158.095441 
L 160.402424 158.232688 
L 160.774578 158.240488 
L 161.332809 158.318004 
L 162.077117 158.460287 
L 163.379656 158.601004 
L 163.75181 158.634941 
L 165.798657 158.983242 
L 166.170811 158.974705 
L 166.729042 159.068633 
L 167.659427 159.128837 
L 168.589812 159.303299 
L 169.148043 159.347893 
L 170.450581 159.486756 
L 174.730352 159.908081 
L 175.288583 159.942723 
L 176.963276 160.059579 
L 177.707584 160.113543 
L 179.568354 160.260651 
L 182.545586 160.480062 
L 183.475971 160.525899 
L 184.406355 160.594704 
L 185.33674 160.651599 
L 193.151974 160.995132 
L 194.826667 161.047939 
L 201.153284 161.195933 
L 203.944439 161.259977 
L 205.619132 161.31939 
L 209.526749 161.379503 
L 211.387518 161.412308 
L 213.806519 161.442502 
L 219.202752 161.532817 
L 222.924292 161.574918 
L 227.204062 161.631458 
L 229.064832 161.644567 
L 247.672531 161.786985 
L 249.905455 161.803636 
L 249.905455 161.803636 
" clip-path="url(#p36c269308a)" style="fill: none; stroke: #ff7f0e; stroke-width: 1.5; stroke-linecap: square"/>
   </g>
   <g id="patch_3">
    <path d="M 54.72 168.48 
L 54.72 21.6 
" style="fill: none; stroke: #000000; stroke-width: 0.8; stroke-linejoin: miter; stroke-linecap: square"/>
   </g>
   <g id="patch_4">
    <path d="M 259.2 168.48 
L 259.2 21.6 
" style="fill: none; stroke: #000000; stroke-width: 0.8; stroke-linejoin: miter; stroke-linecap: square"/>
   </g>
   <g id="patch_5">
    <path d="M 54.72 168.48 
L 259.2 168.48 
" style="fill: none; stroke: #000000; stroke-width: 0.8; stroke-linejoin: miter; stroke-linecap: square"/>
   </g>
   <g id="patch_6">
    <path d="M 54.72 21.6 
L 259.2 21.6 
" style="fill: none; stroke: #000000; stroke-width: 0.8; stroke-linejoin: miter; stroke-linecap: square"/>
   </g>
   <g id="legend_1">
    <g id="patch_7">
     <path d="M 154.996875 86.900625 
L 246.6 86.900625 
Q 250.2 86.900625 250.2 83.300625 
L 250.2 34.2 
Q 250.2 30.6 246.6 30.6 
L 154.996875 30.6 
Q 151.396875 30.6 151.396875 34.2 
L 151.396875 83.300625 
Q 151.396875 86.900625 154.996875 86.900625 
z
" style="fill: #ffffff; opacity: 0.8; stroke: #cccccc; stroke-linejoin: miter"/>
    </g>
    <g id="line2d_12">
     <path d="M 158.596875 44.1 
L 176.596875 44.1 
L 194.596875 44.1 
" style="fill: none; stroke: #1f77b4; stroke-width: 1.5; stroke-linecap: square"/>
    </g>
    <g id="text_12">
     <!-- SDT -->
     <g transform="translate(208.996875 50.4)scale(0.18 -0.18)">
      <defs>
       <path id="TimesNewRomanPSMT-53" d="M 2934 4334 
L 2934 2869 
L 2819 2869 
Q 2763 3291 2617 3541 
Q 2472 3791 2203 3937 
Q 1934 4084 1647 4084 
Q 1322 4084 1109 3886 
Q 897 3688 897 3434 
Q 897 3241 1031 3081 
Q 1225 2847 1953 2456 
Q 2547 2138 2764 1967 
Q 2981 1797 3098 1565 
Q 3216 1334 3216 1081 
Q 3216 600 2842 251 
Q 2469 -97 1881 -97 
Q 1697 -97 1534 -69 
Q 1438 -53 1133 45 
Q 828 144 747 144 
Q 669 144 623 97 
Q 578 50 556 -97 
L 441 -97 
L 441 1356 
L 556 1356 
Q 638 900 775 673 
Q 913 447 1195 297 
Q 1478 147 1816 147 
Q 2206 147 2432 353 
Q 2659 559 2659 841 
Q 2659 997 2573 1156 
Q 2488 1316 2306 1453 
Q 2184 1547 1640 1851 
Q 1097 2156 867 2337 
Q 638 2519 519 2737 
Q 400 2956 400 3219 
Q 400 3675 750 4004 
Q 1100 4334 1641 4334 
Q 1978 4334 2356 4169 
Q 2531 4091 2603 4091 
Q 2684 4091 2736 4139 
Q 2788 4188 2819 4334 
L 2934 4334 
z
" transform="scale(0.015625)"/>
       <path id="TimesNewRomanPSMT-44" d="M 109 0 
L 109 116 
L 269 116 
Q 538 116 650 288 
Q 719 391 719 750 
L 719 3488 
Q 719 3884 631 3984 
Q 509 4122 269 4122 
L 109 4122 
L 109 4238 
L 1834 4238 
Q 2784 4238 3279 4022 
Q 3775 3806 4076 3303 
Q 4378 2800 4378 2141 
Q 4378 1256 3841 663 
Q 3238 0 2003 0 
L 109 0 
z
M 1319 306 
Q 1716 219 1984 219 
Q 2709 219 3187 728 
Q 3666 1238 3666 2109 
Q 3666 2988 3187 3494 
Q 2709 4000 1959 4000 
Q 1678 4000 1319 3909 
L 1319 306 
z
" transform="scale(0.015625)"/>
       <path id="TimesNewRomanPSMT-54" d="M 3703 4238 
L 3750 3244 
L 3631 3244 
Q 3597 3506 3538 3619 
Q 3441 3800 3280 3886 
Q 3119 3972 2856 3972 
L 2259 3972 
L 2259 734 
Q 2259 344 2344 247 
Q 2463 116 2709 116 
L 2856 116 
L 2856 0 
L 1059 0 
L 1059 116 
L 1209 116 
Q 1478 116 1591 278 
Q 1659 378 1659 734 
L 1659 3972 
L 1150 3972 
Q 853 3972 728 3928 
Q 566 3869 450 3700 
Q 334 3531 313 3244 
L 194 3244 
L 244 4238 
L 3703 4238 
z
" transform="scale(0.015625)"/>
      </defs>
      <use xlink:href="#TimesNewRomanPSMT-53"/>
      <use xlink:href="#TimesNewRomanPSMT-44" x="55.615234"/>
      <use xlink:href="#TimesNewRomanPSMT-54" x="127.832031"/>
     </g>
    </g>
    <g id="line2d_13">
     <path d="M 158.596875 69.550312 
L 176.596875 69.550312 
L 194.596875 69.550312 
" style="fill: none; stroke: #ff7f0e; stroke-width: 1.5; stroke-linecap: square"/>
    </g>
    <g id="text_13">
     <!-- TET -->
     <g transform="translate(208.996875 75.850312)scale(0.18 -0.18)">
      <use xlink:href="#TimesNewRomanPSMT-54"/>
      <use xlink:href="#TimesNewRomanPSMT-45" x="61.083984"/>
      <use xlink:href="#TimesNewRomanPSMT-54" x="122.167969"/>
     </g>
    </g>
   </g>
  </g>
 </g>
 <defs>
  <clipPath id="p36c269308a">
   <rect x="54.72" y="21.6" width="204.48" height="146.88"/>
  </clipPath>
 </defs>
</svg>
