<?xml version="1.0" encoding="utf-8" standalone="no"?>
<!DOCTYPE svg PUBLIC "-//W3C//DTD SVG 1.1//EN"
  "http://www.w3.org/Graphics/SVG/1.1/DTD/svg11.dtd">
<svg xmlns:xlink="http://www.w3.org/1999/xlink" width="288pt" height="216pt" viewBox="0 0 288 216" xmlns="http://www.w3.org/2000/svg" version="1.1">
 <metadata>
  <rdf:RDF xmlns:dc="http://purl.org/dc/elements/1.1/" xmlns:cc="http://creativecommons.org/ns#" xmlns:rdf="http://www.w3.org/1999/02/22-rdf-syntax-ns#">
   <cc:Work>
    <dc:type rdf:resource="http://purl.org/dc/dcmitype/StillImage"/>
    <dc:date>2024-05-21T22:17:13.632400</dc:date>
    <dc:format>image/svg+xml</dc:format>
    <dc:creator>
     <cc:Agent>
      <dc:title>Matplotlib v3.5.0, https://matplotlib.org/</dc:title>
     </cc:Agent>
    </dc:creator>
   </cc:Work>
  </rdf:RDF>
 </metadata>
 <defs>
  <style type="text/css">*{stroke-linejoin: round; stroke-linecap: butt}</style>
 </defs>
 <g id="figure_1">
  <g id="patch_1">
   <path d="M 0 216 
L 288 216 
L 288 0 
L 0 0 
z
" style="fill: #ffffff"/>
  </g>
  <g id="axes_1">
   <g id="patch_2">
    <path d="M 54.72 168.48 
L 259.2 168.48 
L 259.2 21.6 
L 54.72 21.6 
z
" style="fill: #ffffff"/>
   </g>
   <g id="matplotlib.axis_1">
    <g id="xtick_1">
     <g id="line2d_1">
      <defs>
       <path id="m05f22c8a4d" d="M 0 0 
L 0 3.5 
" style="stroke: #000000; stroke-width: 0.8"/>
      </defs>
      <g>
       <use xlink:href="#m05f22c8a4d" x="64.014545" y="168.48" style="stroke: #000000; stroke-width: 0.8"/>
      </g>
     </g>
     <g id="text_1">
      <!-- 0 -->
      <g transform="translate(59.514545 187.97875)scale(0.18 -0.18)">
       <defs>
        <path id="TimesNewRomanPSMT-30" d="M 231 2094 
Q 231 2819 450 3342 
Q 669 3866 1031 4122 
Q 1313 4325 1613 4325 
Q 2100 4325 2488 3828 
Q 2972 3213 2972 2159 
Q 2972 1422 2759 906 
Q 2547 391 2217 158 
Q 1888 -75 1581 -75 
Q 975 -75 572 641 
Q 231 1244 231 2094 
z
M 844 2016 
Q 844 1141 1059 588 
Q 1238 122 1591 122 
Q 1759 122 1940 273 
Q 2122 425 2216 781 
Q 2359 1319 2359 2297 
Q 2359 3022 2209 3506 
Q 2097 3866 1919 4016 
Q 1791 4119 1609 4119 
Q 1397 4119 1231 3928 
Q 1006 3669 925 3112 
Q 844 2556 844 2016 
z
" transform="scale(0.015625)"/>
       </defs>
       <use xlink:href="#TimesNewRomanPSMT-30"/>
      </g>
     </g>
    </g>
    <g id="xtick_2">
     <g id="line2d_2">
      <g>
       <use xlink:href="#m05f22c8a4d" x="157.053038" y="168.48" style="stroke: #000000; stroke-width: 0.8"/>
      </g>
     </g>
     <g id="text_2">
      <!-- 500 -->
      <g transform="translate(143.553038 187.97875)scale(0.18 -0.18)">
       <defs>
        <path id="TimesNewRomanPSMT-35" d="M 2778 4238 
L 2534 3706 
L 1259 3706 
L 981 3138 
Q 1809 3016 2294 2522 
Q 2709 2097 2709 1522 
Q 2709 1188 2573 903 
Q 2438 619 2231 419 
Q 2025 219 1772 97 
Q 1413 -75 1034 -75 
Q 653 -75 479 54 
Q 306 184 306 341 
Q 306 428 378 495 
Q 450 563 559 563 
Q 641 563 702 538 
Q 763 513 909 409 
Q 1144 247 1384 247 
Q 1750 247 2026 523 
Q 2303 800 2303 1197 
Q 2303 1581 2056 1914 
Q 1809 2247 1375 2428 
Q 1034 2569 447 2591 
L 1259 4238 
L 2778 4238 
z
" transform="scale(0.015625)"/>
       </defs>
       <use xlink:href="#TimesNewRomanPSMT-35"/>
       <use xlink:href="#TimesNewRomanPSMT-30" x="50"/>
       <use xlink:href="#TimesNewRomanPSMT-30" x="100"/>
      </g>
     </g>
    </g>
    <g id="xtick_3">
     <g id="line2d_3">
      <g>
       <use xlink:href="#m05f22c8a4d" x="250.091532" y="168.48" style="stroke: #000000; stroke-width: 0.8"/>
      </g>
     </g>
     <g id="text_3">
      <!-- 1000 -->
      <g transform="translate(232.091532 187.97875)scale(0.18 -0.18)">
       <defs>
        <path id="TimesNewRomanPSMT-31" d="M 750 3822 
L 1781 4325 
L 1884 4325 
L 1884 747 
Q 1884 391 1914 303 
Q 1944 216 2037 169 
Q 2131 122 2419 116 
L 2419 0 
L 825 0 
L 825 116 
Q 1125 122 1212 167 
Q 1300 213 1334 289 
Q 1369 366 1369 747 
L 1369 3034 
Q 1369 3497 1338 3628 
Q 1316 3728 1258 3775 
Q 1200 3822 1119 3822 
Q 1003 3822 797 3725 
L 750 3822 
z
" transform="scale(0.015625)"/>
       </defs>
       <use xlink:href="#TimesNewRomanPSMT-31"/>
       <use xlink:href="#TimesNewRomanPSMT-30" x="50"/>
       <use xlink:href="#TimesNewRomanPSMT-30" x="100"/>
       <use xlink:href="#TimesNewRomanPSMT-30" x="150"/>
      </g>
     </g>
    </g>
    <g id="text_4">
     <!-- Epoch -->
     <g transform="translate(133.967812 208.327812)scale(0.18 -0.18)">
      <defs>
       <path id="TimesNewRomanPSMT-45" d="M 1338 4006 
L 1338 2331 
L 2269 2331 
Q 2631 2331 2753 2441 
Q 2916 2584 2934 2947 
L 3050 2947 
L 3050 1472 
L 2934 1472 
Q 2891 1781 2847 1869 
Q 2791 1978 2662 2040 
Q 2534 2103 2269 2103 
L 1338 2103 
L 1338 706 
Q 1338 425 1363 364 
Q 1388 303 1450 267 
Q 1513 231 1688 231 
L 2406 231 
Q 2766 231 2928 281 
Q 3091 331 3241 478 
Q 3434 672 3638 1063 
L 3763 1063 
L 3397 0 
L 131 0 
L 131 116 
L 281 116 
Q 431 116 566 188 
Q 666 238 702 338 
Q 738 438 738 747 
L 738 3500 
Q 738 3903 656 3997 
Q 544 4122 281 4122 
L 131 4122 
L 131 4238 
L 3397 4238 
L 3444 3309 
L 3322 3309 
Q 3256 3644 3176 3769 
Q 3097 3894 2941 3959 
Q 2816 4006 2500 4006 
L 1338 4006 
z
" transform="scale(0.015625)"/>
       <path id="TimesNewRomanPSMT-70" d="M -6 2578 
L 875 2934 
L 994 2934 
L 994 2266 
Q 1216 2644 1439 2795 
Q 1663 2947 1909 2947 
Q 2341 2947 2628 2609 
Q 2981 2197 2981 1534 
Q 2981 794 2556 309 
Q 2206 -88 1675 -88 
Q 1444 -88 1275 -22 
Q 1150 25 994 166 
L 994 -706 
Q 994 -1000 1030 -1079 
Q 1066 -1159 1155 -1206 
Q 1244 -1253 1478 -1253 
L 1478 -1369 
L -22 -1369 
L -22 -1253 
L 56 -1253 
Q 228 -1256 350 -1188 
Q 409 -1153 442 -1076 
Q 475 -1000 475 -688 
L 475 2019 
Q 475 2297 450 2372 
Q 425 2447 370 2484 
Q 316 2522 222 2522 
Q 147 2522 31 2478 
L -6 2578 
z
M 994 2081 
L 994 1013 
Q 994 666 1022 556 
Q 1066 375 1236 237 
Q 1406 100 1666 100 
Q 1978 100 2172 344 
Q 2425 663 2425 1241 
Q 2425 1897 2138 2250 
Q 1938 2494 1663 2494 
Q 1513 2494 1366 2419 
Q 1253 2363 994 2081 
z
" transform="scale(0.015625)"/>
       <path id="TimesNewRomanPSMT-6f" d="M 1600 2947 
Q 2250 2947 2644 2453 
Q 2978 2031 2978 1484 
Q 2978 1100 2793 706 
Q 2609 313 2286 112 
Q 1963 -88 1566 -88 
Q 919 -88 538 428 
Q 216 863 216 1403 
Q 216 1797 411 2186 
Q 606 2575 925 2761 
Q 1244 2947 1600 2947 
z
M 1503 2744 
Q 1338 2744 1170 2645 
Q 1003 2547 900 2300 
Q 797 2053 797 1666 
Q 797 1041 1045 587 
Q 1294 134 1700 134 
Q 2003 134 2200 384 
Q 2397 634 2397 1244 
Q 2397 2006 2069 2444 
Q 1847 2744 1503 2744 
z
" transform="scale(0.015625)"/>
       <path id="TimesNewRomanPSMT-63" d="M 2631 1088 
Q 2516 522 2178 217 
Q 1841 -88 1431 -88 
Q 944 -88 581 321 
Q 219 731 219 1428 
Q 219 2103 620 2525 
Q 1022 2947 1584 2947 
Q 2006 2947 2278 2723 
Q 2550 2500 2550 2259 
Q 2550 2141 2473 2067 
Q 2397 1994 2259 1994 
Q 2075 1994 1981 2113 
Q 1928 2178 1911 2362 
Q 1894 2547 1784 2644 
Q 1675 2738 1481 2738 
Q 1169 2738 978 2506 
Q 725 2200 725 1697 
Q 725 1184 976 792 
Q 1228 400 1656 400 
Q 1963 400 2206 609 
Q 2378 753 2541 1131 
L 2631 1088 
z
" transform="scale(0.015625)"/>
       <path id="TimesNewRomanPSMT-68" d="M 1041 4444 
L 1041 2350 
Q 1388 2731 1591 2839 
Q 1794 2947 1997 2947 
Q 2241 2947 2416 2812 
Q 2591 2678 2675 2391 
Q 2734 2191 2734 1659 
L 2734 647 
Q 2734 375 2778 275 
Q 2809 200 2884 156 
Q 2959 113 3159 113 
L 3159 0 
L 1753 0 
L 1753 113 
L 1819 113 
Q 2019 113 2097 173 
Q 2175 234 2206 353 
Q 2216 403 2216 647 
L 2216 1659 
Q 2216 2128 2167 2275 
Q 2119 2422 2012 2495 
Q 1906 2569 1756 2569 
Q 1603 2569 1437 2487 
Q 1272 2406 1041 2159 
L 1041 647 
Q 1041 353 1073 281 
Q 1106 209 1195 161 
Q 1284 113 1503 113 
L 1503 0 
L 84 0 
L 84 113 
Q 275 113 384 172 
Q 447 203 484 290 
Q 522 378 522 647 
L 522 3238 
Q 522 3728 498 3840 
Q 475 3953 426 3993 
Q 378 4034 297 4034 
Q 231 4034 84 3984 
L 41 4094 
L 897 4444 
L 1041 4444 
z
" transform="scale(0.015625)"/>
      </defs>
      <use xlink:href="#TimesNewRomanPSMT-45"/>
      <use xlink:href="#TimesNewRomanPSMT-70" x="61.083984"/>
      <use xlink:href="#TimesNewRomanPSMT-6f" x="111.083984"/>
      <use xlink:href="#TimesNewRomanPSMT-63" x="161.083984"/>
      <use xlink:href="#TimesNewRomanPSMT-68" x="205.46875"/>
     </g>
    </g>
   </g>
   <g id="matplotlib.axis_2">
    <g id="ytick_1">
     <g id="line2d_4">
      <defs>
       <path id="m2fe5fa3b70" d="M 0 0 
L -3.5 0 
" style="stroke: #000000; stroke-width: 0.8"/>
      </defs>
      <g>
       <use xlink:href="#m2fe5fa3b70" x="54.72" y="161.985587" style="stroke: #000000; stroke-width: 0.8"/>
      </g>
     </g>
     <g id="text_5">
      <!-- 0.0 -->
      <g transform="translate(25.22 168.234962)scale(0.18 -0.18)">
       <defs>
        <path id="TimesNewRomanPSMT-2e" d="M 800 606 
Q 947 606 1047 504 
Q 1147 403 1147 259 
Q 1147 116 1045 14 
Q 944 -88 800 -88 
Q 656 -88 554 14 
Q 453 116 453 259 
Q 453 406 554 506 
Q 656 606 800 606 
z
" transform="scale(0.015625)"/>
       </defs>
       <use xlink:href="#TimesNewRomanPSMT-30"/>
       <use xlink:href="#TimesNewRomanPSMT-2e" x="50"/>
       <use xlink:href="#TimesNewRomanPSMT-30" x="75"/>
      </g>
     </g>
    </g>
    <g id="ytick_2">
     <g id="line2d_5">
      <g>
       <use xlink:href="#m2fe5fa3b70" x="54.72" y="137.869358" style="stroke: #000000; stroke-width: 0.8"/>
      </g>
     </g>
     <g id="text_6">
      <!-- 0.5 -->
      <g transform="translate(25.22 144.118733)scale(0.18 -0.18)">
       <use xlink:href="#TimesNewRomanPSMT-30"/>
       <use xlink:href="#TimesNewRomanPSMT-2e" x="50"/>
       <use xlink:href="#TimesNewRomanPSMT-35" x="75"/>
      </g>
     </g>
    </g>
    <g id="ytick_3">
     <g id="line2d_6">
      <g>
       <use xlink:href="#m2fe5fa3b70" x="54.72" y="113.753128" style="stroke: #000000; stroke-width: 0.8"/>
      </g>
     </g>
     <g id="text_7">
      <!-- 1.0 -->
      <g transform="translate(25.22 120.002503)scale(0.18 -0.18)">
       <use xlink:href="#TimesNewRomanPSMT-31"/>
       <use xlink:href="#TimesNewRomanPSMT-2e" x="50"/>
       <use xlink:href="#TimesNewRomanPSMT-30" x="75"/>
      </g>
     </g>
    </g>
    <g id="ytick_4">
     <g id="line2d_7">
      <g>
       <use xlink:href="#m2fe5fa3b70" x="54.72" y="89.636898" style="stroke: #000000; stroke-width: 0.8"/>
      </g>
     </g>
     <g id="text_8">
      <!-- 1.5 -->
      <g transform="translate(25.22 95.886273)scale(0.18 -0.18)">
       <use xlink:href="#TimesNewRomanPSMT-31"/>
       <use xlink:href="#TimesNewRomanPSMT-2e" x="50"/>
       <use xlink:href="#TimesNewRomanPSMT-35" x="75"/>
      </g>
     </g>
    </g>
    <g id="ytick_5">
     <g id="line2d_8">
      <g>
       <use xlink:href="#m2fe5fa3b70" x="54.72" y="65.520669" style="stroke: #000000; stroke-width: 0.8"/>
      </g>
     </g>
     <g id="text_9">
      <!-- 2.0 -->
      <g transform="translate(25.22 71.770044)scale(0.18 -0.18)">
       <defs>
        <path id="TimesNewRomanPSMT-32" d="M 2934 816 
L 2638 0 
L 138 0 
L 138 116 
Q 1241 1122 1691 1759 
Q 2141 2397 2141 2925 
Q 2141 3328 1894 3587 
Q 1647 3847 1303 3847 
Q 991 3847 742 3664 
Q 494 3481 375 3128 
L 259 3128 
Q 338 3706 661 4015 
Q 984 4325 1469 4325 
Q 1984 4325 2329 3994 
Q 2675 3663 2675 3213 
Q 2675 2891 2525 2569 
Q 2294 2063 1775 1497 
Q 997 647 803 472 
L 1909 472 
Q 2247 472 2383 497 
Q 2519 522 2628 598 
Q 2738 675 2819 816 
L 2934 816 
z
" transform="scale(0.015625)"/>
       </defs>
       <use xlink:href="#TimesNewRomanPSMT-32"/>
       <use xlink:href="#TimesNewRomanPSMT-2e" x="50"/>
       <use xlink:href="#TimesNewRomanPSMT-30" x="75"/>
      </g>
     </g>
    </g>
    <g id="ytick_6">
     <g id="line2d_9">
      <g>
       <use xlink:href="#m2fe5fa3b70" x="54.72" y="41.404439" style="stroke: #000000; stroke-width: 0.8"/>
      </g>
     </g>
     <g id="text_10">
      <!-- 2.5 -->
      <g transform="translate(25.22 47.653814)scale(0.18 -0.18)">
       <use xlink:href="#TimesNewRomanPSMT-32"/>
       <use xlink:href="#TimesNewRomanPSMT-2e" x="50"/>
       <use xlink:href="#TimesNewRomanPSMT-35" x="75"/>
      </g>
     </g>
    </g>
    <g id="text_11">
     <!-- Loss -->
     <g transform="translate(17.369687 112.042969)rotate(-90)scale(0.18 -0.18)">
      <defs>
       <path id="TimesNewRomanPSMT-4c" d="M 3669 1172 
L 3772 1150 
L 3409 0 
L 128 0 
L 128 116 
L 288 116 
Q 556 116 672 291 
Q 738 391 738 753 
L 738 3488 
Q 738 3884 650 3984 
Q 528 4122 288 4122 
L 128 4122 
L 128 4238 
L 2047 4238 
L 2047 4122 
Q 1709 4125 1573 4059 
Q 1438 3994 1388 3894 
Q 1338 3794 1338 3416 
L 1338 753 
Q 1338 494 1388 397 
Q 1425 331 1503 300 
Q 1581 269 1991 269 
L 2300 269 
Q 2788 269 2984 341 
Q 3181 413 3343 595 
Q 3506 778 3669 1172 
z
" transform="scale(0.015625)"/>
       <path id="TimesNewRomanPSMT-73" d="M 2050 2947 
L 2050 1972 
L 1947 1972 
Q 1828 2431 1642 2597 
Q 1456 2763 1169 2763 
Q 950 2763 815 2647 
Q 681 2531 681 2391 
Q 681 2216 781 2091 
Q 878 1963 1175 1819 
L 1631 1597 
Q 2266 1288 2266 781 
Q 2266 391 1970 151 
Q 1675 -88 1309 -88 
Q 1047 -88 709 6 
Q 606 38 541 38 
Q 469 38 428 -44 
L 325 -44 
L 325 978 
L 428 978 
Q 516 541 762 319 
Q 1009 97 1316 97 
Q 1531 97 1667 223 
Q 1803 350 1803 528 
Q 1803 744 1651 891 
Q 1500 1038 1047 1263 
Q 594 1488 453 1669 
Q 313 1847 313 2119 
Q 313 2472 555 2709 
Q 797 2947 1181 2947 
Q 1350 2947 1591 2875 
Q 1750 2828 1803 2828 
Q 1853 2828 1881 2850 
Q 1909 2872 1947 2947 
L 2050 2947 
z
" transform="scale(0.015625)"/>
      </defs>
      <use xlink:href="#TimesNewRomanPSMT-4c"/>
      <use xlink:href="#TimesNewRomanPSMT-6f" x="61.083984"/>
      <use xlink:href="#TimesNewRomanPSMT-73" x="111.083984"/>
      <use xlink:href="#TimesNewRomanPSMT-73" x="150"/>
     </g>
    </g>
   </g>
   <g id="line2d_10">
    <path d="M 64.014545 28.276364 
L 64.572776 28.723879 
L 64.94493 29.0265 
L 68.294316 29.618276 
L 69.596855 30.285536 
L 69.969009 30.577025 
L 70.713317 31.442594 
L 71.457625 32.589452 
L 73.132318 35.883407 
L 74.062703 37.210244 
L 74.24878 37.368156 
L 74.620934 37.873939 
L 77.970319 41.430336 
L 78.156396 41.4263 
L 78.900704 42.134923 
L 79.086781 42.235808 
L 79.272858 42.491672 
L 79.458935 42.545352 
L 79.831089 42.923732 
L 80.017166 43.133529 
L 80.203243 43.133529 
L 80.38932 43.352756 
L 80.575397 43.384886 
L 81.691859 44.672222 
L 81.877936 44.685251 
L 82.064013 44.92321 
L 82.25009 44.812297 
L 82.436167 44.962539 
L 82.808321 45.666838 
L 83.552629 46.266848 
L 83.738706 46.727817 
L 83.924783 46.715432 
L 84.11086 46.967559 
L 84.296937 47.408543 
L 84.669091 47.806265 
L 84.855168 47.94948 
L 87.646323 52.409164 
L 87.8324 52.381841 
L 88.018477 52.567466 
L 88.204554 52.04302 
L 88.576708 53.656367 
L 88.762785 53.471616 
L 89.321016 54.390208 
L 90.065324 55.794092 
L 90.2514 56.323518 
L 90.437477 56.443021 
L 91.367862 58.749617 
L 91.553939 58.796926 
L 91.740016 59.173029 
L 91.926093 59.818531 
L 92.11217 59.840852 
L 92.856478 61.534535 
L 93.414709 62.400885 
L 93.600786 62.021459 
L 93.786863 63.538118 
L 93.97294 63.933126 
L 94.159017 63.565901 
L 94.345094 64.439025 
L 94.531171 64.769889 
L 94.717248 64.690438 
L 94.903325 65.954891 
L 95.089402 65.836532 
L 95.275479 66.007432 
L 95.461556 66.860949 
L 95.647633 66.892296 
L 96.019787 67.875936 
L 96.391941 68.819816 
L 96.578018 68.581196 
L 96.764095 69.669291 
L 97.136249 70.27006 
L 97.322326 71.237549 
L 97.508403 71.441004 
L 97.69448 71.928911 
L 98.066634 72.041503 
L 98.252711 71.177539 
L 98.438788 69.519027 
L 98.624865 72.864196 
L 98.810942 73.403017 
L 98.997019 72.105906 
L 99.183096 73.795967 
L 99.369173 74.114607 
L 99.55525 74.170075 
L 99.927404 75.62616 
L 100.113481 75.443082 
L 100.299558 77.014238 
L 100.485635 76.499755 
L 100.857789 77.85073 
L 101.043866 78.126 
L 101.41602 79.267988 
L 101.602097 79.413445 
L 101.788174 80.194331 
L 101.974251 80.209372 
L 102.904636 83.331381 
L 103.090713 83.235705 
L 103.462867 84.181575 
L 103.648943 84.355016 
L 105.323636 88.464971 
L 105.509713 89.161037 
L 105.69579 89.267799 
L 105.881867 90.142889 
L 106.067944 90.41549 
L 106.254021 90.347931 
L 106.440098 91.154006 
L 106.626175 91.172975 
L 106.812252 91.31044 
L 106.998329 92.064831 
L 107.184406 91.976141 
L 107.370483 92.27648 
L 107.55656 92.112508 
L 107.742637 91.489039 
L 107.928714 92.129924 
L 108.300868 94.922616 
L 108.486945 94.109635 
L 108.859099 96.070624 
L 109.045176 95.218975 
L 109.41733 96.82521 
L 109.603407 96.628264 
L 109.789484 97.348502 
L 109.975561 97.543625 
L 110.161638 98.350167 
L 110.347715 98.495917 
L 110.533792 98.848262 
L 110.719869 99.640999 
L 110.905946 99.684542 
L 111.092023 99.948921 
L 111.464177 101.207911 
L 111.650254 101.307439 
L 112.022408 103.467336 
L 112.208485 102.594362 
L 112.580639 103.77627 
L 112.766716 103.482279 
L 112.952793 103.744865 
L 113.13887 103.785481 
L 113.511024 104.35013 
L 113.697101 105.241889 
L 113.883178 106.745048 
L 114.069255 106.607324 
L 114.255332 106.101202 
L 114.441409 106.159596 
L 114.813563 107.897064 
L 115.185717 108.902144 
L 115.371794 108.608274 
L 115.557871 109.507122 
L 115.743948 109.785163 
L 115.930025 110.786133 
L 116.116102 110.693539 
L 116.302179 110.094609 
L 116.488256 110.334777 
L 116.674333 111.486821 
L 116.86041 111.270515 
L 117.046486 111.89445 
L 117.232563 111.958928 
L 117.41864 111.598504 
L 117.604717 111.894554 
L 117.790794 111.876701 
L 117.976871 111.526598 
L 118.162948 111.792754 
L 118.349025 111.302099 
L 118.535102 112.681983 
L 118.721179 112.839561 
L 118.907256 112.361595 
L 119.093333 113.367595 
L 119.465487 113.78616 
L 119.651564 112.932339 
L 119.837641 113.141199 
L 120.023718 114.759997 
L 120.209795 114.845855 
L 120.395872 113.891507 
L 120.954103 115.245662 
L 121.14018 114.492475 
L 121.326257 116.295372 
L 121.512334 116.518339 
L 121.698411 116.091008 
L 122.070565 116.94485 
L 122.256642 117.04683 
L 122.442719 117.467353 
L 122.628796 117.562322 
L 122.814873 117.829076 
L 123.00095 118.542779 
L 123.187027 118.18793 
L 123.559181 119.110369 
L 124.303489 120.242448 
L 124.489566 121.178974 
L 124.86172 121.634375 
L 125.047797 122.18582 
L 125.233874 121.696495 
L 125.419951 123.183371 
L 125.606028 123.283017 
L 125.792105 122.874028 
L 126.164259 123.824607 
L 126.536413 124.020081 
L 127.094644 125.089967 
L 127.280721 124.830173 
L 127.652875 126.259126 
L 127.838952 125.817185 
L 128.211106 125.873691 
L 128.769337 127.018577 
L 128.955414 126.688133 
L 129.141491 127.395867 
L 129.327568 127.524392 
L 129.513645 127.933286 
L 129.885799 129.109838 
L 130.071876 129.583052 
L 130.444029 129.011198 
L 130.630106 129.301311 
L 131.00226 130.371111 
L 131.374414 130.463337 
L 131.746568 130.835208 
L 131.932645 130.734372 
L 133.049107 131.320916 
L 133.235184 132.137028 
L 133.607338 132.515092 
L 133.793415 132.368847 
L 133.979492 132.813866 
L 134.165569 132.906412 
L 134.351646 132.514074 
L 134.537723 132.451387 
L 134.7238 131.779689 
L 134.909877 131.566733 
L 135.654185 133.745939 
L 135.840262 133.678526 
L 136.026339 133.953862 
L 136.212416 134.505456 
L 136.398493 134.421812 
L 136.58457 133.902468 
L 136.956724 134.543937 
L 137.328878 135.130774 
L 137.514955 135.058031 
L 137.701032 134.849191 
L 138.259263 136.786555 
L 138.44534 136.681067 
L 138.631417 137.134582 
L 138.817494 137.267899 
L 139.003571 137.580329 
L 139.189648 138.255477 
L 139.375725 138.309897 
L 139.561802 138.177654 
L 139.747879 138.896726 
L 139.933956 138.436305 
L 140.120033 138.855915 
L 140.30611 138.896003 
L 140.492187 138.449461 
L 140.678264 138.740095 
L 140.864341 138.660616 
L 141.236495 139.68726 
L 141.422572 139.72938 
L 141.608649 139.561919 
L 141.794726 139.075622 
L 141.980803 138.257581 
L 142.352957 139.219705 
L 142.539034 139.88647 
L 142.725111 139.473484 
L 143.097265 140.995706 
L 143.283342 140.494958 
L 143.469419 140.685017 
L 143.655495 140.582741 
L 143.841572 141.592233 
L 144.027649 141.863428 
L 144.213726 141.329198 
L 144.399803 141.716573 
L 144.58588 141.699602 
L 144.958034 142.418497 
L 145.144111 142.144002 
L 145.330188 142.374231 
L 145.516265 142.784773 
L 145.702342 142.76576 
L 145.888419 142.892113 
L 146.074496 143.162059 
L 146.44665 143.1615 
L 146.818804 143.012251 
L 147.190958 142.994201 
L 147.377035 142.354489 
L 147.749189 142.809034 
L 148.121343 143.757241 
L 148.493497 143.534338 
L 148.679574 143.937856 
L 148.865651 143.638204 
L 149.237805 143.77018 
L 149.423882 143.599997 
L 149.796036 144.690753 
L 150.16819 143.993335 
L 150.354267 143.497197 
L 150.726421 144.511923 
L 150.912498 144.612641 
L 151.284652 145.144247 
L 151.470729 144.95654 
L 152.02896 146.123472 
L 152.215037 145.907482 
L 152.587191 146.616735 
L 152.773268 146.195549 
L 152.959345 146.064639 
L 153.331499 147.507048 
L 153.517576 147.550708 
L 153.703653 148.048563 
L 153.88973 148.069174 
L 154.261884 148.375984 
L 154.820115 147.439507 
L 155.006192 147.576 
L 155.378346 148.085881 
L 155.564423 147.894337 
L 155.7505 148.508497 
L 155.936577 148.327213 
L 156.680885 149.170896 
L 156.866962 149.06102 
L 157.053038 149.203462 
L 157.425192 148.751667 
L 157.611269 149.328308 
L 157.983423 148.324892 
L 158.355577 149.887319 
L 158.913808 149.921049 
L 159.099885 149.827079 
L 159.285962 149.98928 
L 159.658116 149.520142 
L 159.844193 150.293506 
L 160.03027 149.954772 
L 160.216347 150.036106 
L 160.402424 149.991308 
L 160.588501 150.060944 
L 160.774578 149.922174 
L 160.960655 149.993521 
L 161.146732 150.447953 
L 161.332809 150.594822 
L 161.518886 151.052083 
L 161.704963 151.05389 
L 161.89104 150.217535 
L 162.077117 150.91347 
L 162.263194 150.901779 
L 162.635348 151.290508 
L 163.007502 151.198536 
L 163.379656 151.555638 
L 163.565733 151.260809 
L 163.75181 150.748603 
L 164.310041 150.993192 
L 164.496118 151.480218 
L 165.240426 151.979595 
L 165.426503 151.866361 
L 165.61258 152.021906 
L 165.798657 152.380297 
L 165.984734 151.951307 
L 166.915119 152.595399 
L 167.101196 152.679708 
L 167.287273 153.063597 
L 167.47335 152.810629 
L 167.659427 152.813546 
L 167.845504 152.521881 
L 168.031581 152.739663 
L 168.403735 152.523064 
L 168.589812 152.372434 
L 168.961966 152.507576 
L 169.148043 152.739685 
L 169.520197 152.158362 
L 169.892351 152.435038 
L 170.264505 153.356145 
L 170.450581 153.210051 
L 170.636658 153.671724 
L 170.822735 153.313865 
L 171.008812 153.342558 
L 171.194889 153.762471 
L 171.380966 153.604373 
L 171.567043 153.602236 
L 171.75312 153.937116 
L 171.939197 154.041902 
L 172.125274 154.28607 
L 172.311351 154.018842 
L 172.683505 154.651598 
L 172.869582 154.413552 
L 173.427813 154.273208 
L 173.799967 154.606733 
L 173.986044 154.602829 
L 174.172121 154.834284 
L 174.358198 154.652694 
L 174.544275 154.787629 
L 174.730352 154.46623 
L 174.916429 154.608272 
L 175.102506 154.940848 
L 175.288583 155.01449 
L 175.660737 154.805186 
L 176.032891 155.143128 
L 176.218968 154.928344 
L 176.591122 155.048295 
L 176.963276 154.685905 
L 177.33543 155.337681 
L 177.521507 154.978479 
L 177.707584 154.876406 
L 177.893661 155.13917 
L 178.265815 155.224113 
L 178.451892 155.707016 
L 178.637969 155.433104 
L 178.824046 155.432553 
L 179.010123 155.588051 
L 179.382277 155.178407 
L 179.940508 155.679282 
L 180.312662 155.531712 
L 180.498739 155.965543 
L 180.684816 156.029172 
L 180.870893 155.897242 
L 181.243047 156.053321 
L 181.429124 156.379243 
L 181.615201 156.27923 
L 181.987355 156.295075 
L 182.173432 156.231474 
L 182.359509 155.905081 
L 182.91774 156.382734 
L 183.103817 156.187831 
L 183.289894 156.4539 
L 183.662048 155.853468 
L 184.034201 156.334599 
L 184.220278 156.271982 
L 184.406355 155.577346 
L 184.778509 155.671435 
L 184.964586 156.08841 
L 185.33674 156.112575 
L 185.522817 155.689827 
L 185.708894 156.197501 
L 186.081048 156.303229 
L 186.267125 156.00554 
L 186.639279 156.520645 
L 186.825356 156.637156 
L 187.011433 155.851384 
L 187.19751 156.356618 
L 187.383587 156.345349 
L 188.313972 156.843387 
L 188.500049 157.201744 
L 188.872203 157.233312 
L 189.244357 156.39263 
L 189.430434 156.594413 
L 189.616511 156.191993 
L 189.988665 157.140671 
L 190.174742 157.284204 
L 190.360819 156.965773 
L 190.546896 156.919598 
L 190.91905 156.996854 
L 191.105127 157.489094 
L 191.291204 157.373405 
L 191.477281 157.093374 
L 192.035512 157.408824 
L 192.221589 157.405649 
L 192.965897 157.002115 
L 193.151974 157.239012 
L 193.338051 157.178728 
L 193.524128 157.243347 
L 193.710205 156.93218 
L 193.896282 157.356532 
L 194.082359 157.04913 
L 194.64059 157.391029 
L 194.826667 157.218752 
L 195.012744 157.375832 
L 195.570975 156.894869 
L 195.757052 156.841294 
L 196.129206 157.219369 
L 196.315283 156.985992 
L 196.687437 157.62902 
L 196.873514 157.551028 
L 197.431744 157.767979 
L 197.803898 157.442124 
L 197.989975 157.941402 
L 198.362129 157.967578 
L 199.106437 158.091408 
L 199.292514 158.153327 
L 199.850745 157.404409 
L 200.222899 157.695111 
L 200.408976 157.635883 
L 200.595053 157.708094 
L 200.78113 157.596008 
L 200.967207 157.175771 
L 201.153284 157.459661 
L 201.339361 157.534011 
L 201.525438 157.403317 
L 201.711515 157.489588 
L 201.897592 156.844861 
L 202.083669 157.572602 
L 202.269746 157.592835 
L 202.6419 157.841617 
L 203.200131 158.099911 
L 203.758362 158.023342 
L 204.130516 157.613543 
L 204.316593 157.991092 
L 204.50267 157.950026 
L 204.874824 157.646384 
L 205.246978 158.213519 
L 205.619132 158.230339 
L 205.805209 157.971647 
L 205.991286 158.031168 
L 206.36344 158.246189 
L 206.549517 157.936647 
L 206.735594 158.202011 
L 207.293825 158.386489 
L 207.852056 157.913585 
L 208.038133 158.061895 
L 208.22421 157.927313 
L 208.410287 157.580772 
L 208.596364 157.631153 
L 208.782441 157.856367 
L 209.154595 157.532644 
L 209.340672 157.395021 
L 209.526749 157.464294 
L 209.898903 158.030572 
L 210.08498 157.891631 
L 211.201441 158.415077 
L 211.387518 158.219228 
L 211.573595 158.595994 
L 211.759672 158.436617 
L 211.945749 158.535668 
L 212.131826 158.368994 
L 212.317903 158.471597 
L 212.690057 158.312547 
L 212.876134 157.871779 
L 213.062211 158.286991 
L 213.248288 158.159694 
L 213.620442 158.460573 
L 213.806519 158.459447 
L 213.992596 158.224879 
L 214.178673 158.331932 
L 214.550827 158.673138 
L 214.736904 158.823132 
L 215.109058 158.60473 
L 215.667289 158.547538 
L 215.853366 158.928743 
L 216.039443 158.674031 
L 216.411597 158.541368 
L 216.597674 158.993248 
L 216.783751 158.752128 
L 217.155905 158.843958 
L 217.341982 159.009757 
L 217.528059 158.913013 
L 217.714136 159.009391 
L 218.458444 158.842548 
L 218.644521 158.545571 
L 218.830598 158.693082 
L 219.016675 158.656116 
L 219.388829 158.283868 
L 219.574906 158.453526 
L 219.760983 158.351931 
L 219.94706 158.413218 
L 220.133137 158.239744 
L 220.319214 158.606035 
L 220.505291 158.083397 
L 220.877445 158.510135 
L 221.249599 158.713128 
L 221.435676 158.743434 
L 221.621753 158.924123 
L 221.993907 158.667179 
L 222.179984 158.774151 
L 222.366061 158.700929 
L 222.552138 159.081789 
L 222.924292 159.140101 
L 223.110369 159.134108 
L 223.6686 159.543794 
L 224.040753 159.245001 
L 224.22683 159.350603 
L 224.598984 158.996977 
L 224.785061 159.345391 
L 224.971138 159.138732 
L 225.157215 159.273193 
L 225.343292 159.158092 
L 226.273677 159.471111 
L 226.459754 159.377073 
L 226.645831 158.936238 
L 227.204062 159.601942 
L 228.506601 159.674659 
L 229.064832 159.779199 
L 230.553448 159.698261 
L 231.111679 159.804432 
L 232.228141 159.898301 
L 232.600295 160.10353 
L 232.972449 159.939166 
L 233.344603 160.021621 
L 234.647142 160.282474 
L 234.833219 160.165718 
L 235.019296 160.23113 
L 235.39145 160.153122 
L 235.949681 160.380778 
L 236.135758 160.220994 
L 236.321835 160.397562 
L 236.693989 160.314881 
L 237.252219 160.201435 
L 237.624373 160.272778 
L 238.182604 160.286687 
L 238.368681 160.158158 
L 238.740835 160.296818 
L 239.112989 160.260005 
L 239.485143 160.320043 
L 239.857297 160.353077 
L 240.043374 160.389379 
L 240.415528 160.124824 
L 240.601605 160.221277 
L 241.159836 160.220295 
L 241.718067 160.424757 
L 242.834529 160.600729 
L 243.206683 160.44068 
L 244.137068 160.485246 
L 244.323145 160.350888 
L 244.509222 160.549749 
L 245.067453 160.45845 
L 245.439607 160.173934 
L 245.997838 160.377264 
L 246.183915 160.302032 
L 247.486454 160.658333 
L 247.672531 160.567623 
L 248.044685 160.678126 
L 248.416839 160.653718 
L 248.602916 160.500539 
L 248.97507 160.68291 
L 249.347224 160.767059 
L 249.905455 160.858327 
L 249.905455 160.858327 
" clip-path="url(#padc4e4bf65)" style="fill: none; stroke: #1f77b4; stroke-width: 1.5; stroke-linecap: square"/>
   </g>
   <g id="line2d_11">
    <path d="M 64.014545 28.276364 
L 64.758853 28.891174 
L 65.131007 29.118772 
L 67.550008 29.364195 
L 69.224701 29.825038 
L 70.899394 30.668769 
L 71.829779 31.372217 
L 72.946241 32.327286 
L 73.504472 32.812876 
L 75.923473 35.085445 
L 76.295627 35.422737 
L 76.667781 35.738042 
L 77.598165 36.771526 
L 78.52855 37.71589 
L 79.086781 38.466405 
L 79.458935 38.822223 
L 82.064013 42.370076 
L 83.366552 44.556594 
L 86.343784 50.198359 
L 86.529861 50.780085 
L 86.715938 50.971184 
L 87.088092 52.044767 
L 88.576708 55.70274 
L 88.948862 56.742009 
L 89.134939 57.093882 
L 89.69317 58.730942 
L 89.879247 59.383378 
L 90.065324 59.566243 
L 90.995708 62.425195 
L 91.367862 63.325573 
L 92.11217 65.439172 
L 93.414709 69.45099 
L 93.600786 70.226477 
L 93.786863 70.429898 
L 96.019787 77.675196 
L 96.205864 78.128685 
L 96.950172 80.666501 
L 97.136249 81.345812 
L 97.322326 81.5453 
L 97.69448 83.079191 
L 98.252711 84.852416 
L 98.624865 86.196715 
L 98.997019 87.279935 
L 99.369173 88.538637 
L 99.927404 90.408355 
L 105.509713 107.721133 
L 105.69579 107.938629 
L 106.067944 109.452229 
L 106.254021 109.642874 
L 108.486945 115.975564 
L 109.045176 117.222667 
L 109.41733 118.349633 
L 109.603407 118.594533 
L 109.975561 119.712064 
L 110.161638 119.852226 
L 110.347715 120.226958 
L 110.905946 121.871184 
L 111.464177 122.870509 
L 112.022408 124.57094 
L 115.557871 131.64062 
L 115.930025 132.16262 
L 116.116102 132.689953 
L 116.302179 132.760589 
L 116.86041 133.828796 
L 117.232563 134.286638 
L 117.790794 135.377304 
L 117.976871 135.600613 
L 118.349025 136.311973 
L 118.535102 136.560055 
L 118.721179 136.9999 
L 118.907256 137.035054 
L 119.093333 137.451336 
L 119.27941 137.574289 
L 121.14018 140.394075 
L 121.326257 140.585802 
L 121.698411 141.332585 
L 122.256642 142.021135 
L 122.628796 142.548468 
L 123.373104 143.531388 
L 123.559181 143.794277 
L 123.745258 143.826202 
L 124.117412 144.325872 
L 124.303489 144.47858 
L 124.489566 144.92915 
L 124.86172 145.191178 
L 126.164259 146.377824 
L 126.350336 146.423067 
L 126.72249 146.863622 
L 127.466798 147.390866 
L 128.025029 147.7995 
L 128.769337 148.491573 
L 129.141491 148.666086 
L 129.327568 148.905514 
L 129.513645 148.901063 
L 130.071876 149.428263 
L 131.00226 150.16547 
L 131.374414 150.503054 
L 131.932645 150.72097 
L 132.118722 151.028953 
L 132.490876 151.055629 
L 132.86303 151.328634 
L 133.049107 151.352219 
L 133.421261 151.700164 
L 136.398493 153.485013 
L 137.328878 153.74931 
L 137.701032 154.031949 
L 138.259263 154.308018 
L 139.375725 154.759762 
L 140.30611 155.203975 
L 142.16688 155.868006 
L 142.539034 155.917238 
L 145.144111 156.677825 
L 150.354267 157.875017 
L 150.726421 158.016132 
L 151.098575 158.033799 
L 152.401114 158.303309 
L 152.773268 158.317214 
L 153.145422 158.397042 
L 154.075807 158.525379 
L 155.006192 158.687938 
L 167.101196 160.033243 
L 167.659427 160.054652 
L 173.799967 160.455271 
L 174.730352 160.536033 
L 180.498739 160.870819 
L 181.429124 160.89228 
L 182.91774 160.911561 
L 184.778509 160.991309 
L 187.755741 161.103398 
L 199.106437 161.393568 
L 201.711515 161.43652 
L 229.064832 161.707355 
L 241.904144 161.771713 
L 249.905455 161.799023 
L 249.905455 161.799023 
" clip-path="url(#padc4e4bf65)" style="fill: none; stroke: #ff7f0e; stroke-width: 1.5; stroke-linecap: square"/>
   </g>
   <g id="patch_3">
    <path d="M 54.72 168.48 
L 54.72 21.6 
" style="fill: none; stroke: #000000; stroke-width: 0.8; stroke-linejoin: miter; stroke-linecap: square"/>
   </g>
   <g id="patch_4">
    <path d="M 259.2 168.48 
L 259.2 21.6 
" style="fill: none; stroke: #000000; stroke-width: 0.8; stroke-linejoin: miter; stroke-linecap: square"/>
   </g>
   <g id="patch_5">
    <path d="M 54.72 168.48 
L 259.2 168.48 
" style="fill: none; stroke: #000000; stroke-width: 0.8; stroke-linejoin: miter; stroke-linecap: square"/>
   </g>
   <g id="patch_6">
    <path d="M 54.72 21.6 
L 259.2 21.6 
" style="fill: none; stroke: #000000; stroke-width: 0.8; stroke-linejoin: miter; stroke-linecap: square"/>
   </g>
   <g id="legend_1">
    <g id="patch_7">
     <path d="M 154.996875 86.900625 
L 246.6 86.900625 
Q 250.2 86.900625 250.2 83.300625 
L 250.2 34.2 
Q 250.2 30.6 246.6 30.6 
L 154.996875 30.6 
Q 151.396875 30.6 151.396875 34.2 
L 151.396875 83.300625 
Q 151.396875 86.900625 154.996875 86.900625 
z
" style="fill: #ffffff; opacity: 0.8; stroke: #cccccc; stroke-linejoin: miter"/>
    </g>
    <g id="line2d_12">
     <path d="M 158.596875 44.1 
L 176.596875 44.1 
L 194.596875 44.1 
" style="fill: none; stroke: #1f77b4; stroke-width: 1.5; stroke-linecap: square"/>
    </g>
    <g id="text_12">
     <!-- SDT -->
     <g transform="translate(208.996875 50.4)scale(0.18 -0.18)">
      <defs>
       <path id="TimesNewRomanPSMT-53" d="M 2934 4334 
L 2934 2869 
L 2819 2869 
Q 2763 3291 2617 3541 
Q 2472 3791 2203 3937 
Q 1934 4084 1647 4084 
Q 1322 4084 1109 3886 
Q 897 3688 897 3434 
Q 897 3241 1031 3081 
Q 1225 2847 1953 2456 
Q 2547 2138 2764 1967 
Q 2981 1797 3098 1565 
Q 3216 1334 3216 1081 
Q 3216 600 2842 251 
Q 2469 -97 1881 -97 
Q 1697 -97 1534 -69 
Q 1438 -53 1133 45 
Q 828 144 747 144 
Q 669 144 623 97 
Q 578 50 556 -97 
L 441 -97 
L 441 1356 
L 556 1356 
Q 638 900 775 673 
Q 913 447 1195 297 
Q 1478 147 1816 147 
Q 2206 147 2432 353 
Q 2659 559 2659 841 
Q 2659 997 2573 1156 
Q 2488 1316 2306 1453 
Q 2184 1547 1640 1851 
Q 1097 2156 867 2337 
Q 638 2519 519 2737 
Q 400 2956 400 3219 
Q 400 3675 750 4004 
Q 1100 4334 1641 4334 
Q 1978 4334 2356 4169 
Q 2531 4091 2603 4091 
Q 2684 4091 2736 4139 
Q 2788 4188 2819 4334 
L 2934 4334 
z
" transform="scale(0.015625)"/>
       <path id="TimesNewRomanPSMT-44" d="M 109 0 
L 109 116 
L 269 116 
Q 538 116 650 288 
Q 719 391 719 750 
L 719 3488 
Q 719 3884 631 3984 
Q 509 4122 269 4122 
L 109 4122 
L 109 4238 
L 1834 4238 
Q 2784 4238 3279 4022 
Q 3775 3806 4076 3303 
Q 4378 2800 4378 2141 
Q 4378 1256 3841 663 
Q 3238 0 2003 0 
L 109 0 
z
M 1319 306 
Q 1716 219 1984 219 
Q 2709 219 3187 728 
Q 3666 1238 3666 2109 
Q 3666 2988 3187 3494 
Q 2709 4000 1959 4000 
Q 1678 4000 1319 3909 
L 1319 306 
z
" transform="scale(0.015625)"/>
       <path id="TimesNewRomanPSMT-54" d="M 3703 4238 
L 3750 3244 
L 3631 3244 
Q 3597 3506 3538 3619 
Q 3441 3800 3280 3886 
Q 3119 3972 2856 3972 
L 2259 3972 
L 2259 734 
Q 2259 344 2344 247 
Q 2463 116 2709 116 
L 2856 116 
L 2856 0 
L 1059 0 
L 1059 116 
L 1209 116 
Q 1478 116 1591 278 
Q 1659 378 1659 734 
L 1659 3972 
L 1150 3972 
Q 853 3972 728 3928 
Q 566 3869 450 3700 
Q 334 3531 313 3244 
L 194 3244 
L 244 4238 
L 3703 4238 
z
" transform="scale(0.015625)"/>
      </defs>
      <use xlink:href="#TimesNewRomanPSMT-53"/>
      <use xlink:href="#TimesNewRomanPSMT-44" x="55.615234"/>
      <use xlink:href="#TimesNewRomanPSMT-54" x="127.832031"/>
     </g>
    </g>
    <g id="line2d_13">
     <path d="M 158.596875 69.550312 
L 176.596875 69.550312 
L 194.596875 69.550312 
" style="fill: none; stroke: #ff7f0e; stroke-width: 1.5; stroke-linecap: square"/>
    </g>
    <g id="text_13">
     <!-- TET -->
     <g transform="translate(208.996875 75.850312)scale(0.18 -0.18)">
      <use xlink:href="#TimesNewRomanPSMT-54"/>
      <use xlink:href="#TimesNewRomanPSMT-45" x="61.083984"/>
      <use xlink:href="#TimesNewRomanPSMT-54" x="122.167969"/>
     </g>
    </g>
   </g>
  </g>
 </g>
 <defs>
  <clipPath id="padc4e4bf65">
   <rect x="54.72" y="21.6" width="204.48" height="146.88"/>
  </clipPath>
 </defs>
</svg>
