<?xml version="1.0" encoding="utf-8" standalone="no"?>
<!DOCTYPE svg PUBLIC "-//W3C//DTD SVG 1.1//EN"
  "http://www.w3.org/Graphics/SVG/1.1/DTD/svg11.dtd">
<svg xmlns:xlink="http://www.w3.org/1999/xlink" width="288pt" height="216pt" viewBox="0 0 288 216" xmlns="http://www.w3.org/2000/svg" version="1.1">
 <metadata>
  <rdf:RDF xmlns:dc="http://purl.org/dc/elements/1.1/" xmlns:cc="http://creativecommons.org/ns#" xmlns:rdf="http://www.w3.org/1999/02/22-rdf-syntax-ns#">
   <cc:Work>
    <dc:type rdf:resource="http://purl.org/dc/dcmitype/StillImage"/>
    <dc:date>2024-05-21T22:18:31.995255</dc:date>
    <dc:format>image/svg+xml</dc:format>
    <dc:creator>
     <cc:Agent>
      <dc:title>Matplotlib v3.5.0, https://matplotlib.org/</dc:title>
     </cc:Agent>
    </dc:creator>
   </cc:Work>
  </rdf:RDF>
 </metadata>
 <defs>
  <style type="text/css">*{stroke-linejoin: round; stroke-linecap: butt}</style>
 </defs>
 <g id="figure_1">
  <g id="patch_1">
   <path d="M 0 216 
L 288 216 
L 288 0 
L 0 0 
z
" style="fill: #ffffff"/>
  </g>
  <g id="axes_1">
   <g id="patch_2">
    <path d="M 54.72 168.48 
L 259.2 168.48 
L 259.2 21.6 
L 54.72 21.6 
z
" style="fill: #ffffff"/>
   </g>
   <g id="matplotlib.axis_1">
    <g id="xtick_1">
     <g id="line2d_1">
      <defs>
       <path id="m71032b294d" d="M 0 0 
L 0 3.5 
" style="stroke: #000000; stroke-width: 0.8"/>
      </defs>
      <g>
       <use xlink:href="#m71032b294d" x="64.014545" y="168.48" style="stroke: #000000; stroke-width: 0.8"/>
      </g>
     </g>
     <g id="text_1">
      <!-- 0 -->
      <g transform="translate(59.514545 187.97875)scale(0.18 -0.18)">
       <defs>
        <path id="TimesNewRomanPSMT-30" d="M 231 2094 
Q 231 2819 450 3342 
Q 669 3866 1031 4122 
Q 1313 4325 1613 4325 
Q 2100 4325 2488 3828 
Q 2972 3213 2972 2159 
Q 2972 1422 2759 906 
Q 2547 391 2217 158 
Q 1888 -75 1581 -75 
Q 975 -75 572 641 
Q 231 1244 231 2094 
z
M 844 2016 
Q 844 1141 1059 588 
Q 1238 122 1591 122 
Q 1759 122 1940 273 
Q 2122 425 2216 781 
Q 2359 1319 2359 2297 
Q 2359 3022 2209 3506 
Q 2097 3866 1919 4016 
Q 1791 4119 1609 4119 
Q 1397 4119 1231 3928 
Q 1006 3669 925 3112 
Q 844 2556 844 2016 
z
" transform="scale(0.015625)"/>
       </defs>
       <use xlink:href="#TimesNewRomanPSMT-30"/>
      </g>
     </g>
    </g>
    <g id="xtick_2">
     <g id="line2d_2">
      <g>
       <use xlink:href="#m71032b294d" x="157.053038" y="168.48" style="stroke: #000000; stroke-width: 0.8"/>
      </g>
     </g>
     <g id="text_2">
      <!-- 500 -->
      <g transform="translate(143.553038 187.97875)scale(0.18 -0.18)">
       <defs>
        <path id="TimesNewRomanPSMT-35" d="M 2778 4238 
L 2534 3706 
L 1259 3706 
L 981 3138 
Q 1809 3016 2294 2522 
Q 2709 2097 2709 1522 
Q 2709 1188 2573 903 
Q 2438 619 2231 419 
Q 2025 219 1772 97 
Q 1413 -75 1034 -75 
Q 653 -75 479 54 
Q 306 184 306 341 
Q 306 428 378 495 
Q 450 563 559 563 
Q 641 563 702 538 
Q 763 513 909 409 
Q 1144 247 1384 247 
Q 1750 247 2026 523 
Q 2303 800 2303 1197 
Q 2303 1581 2056 1914 
Q 1809 2247 1375 2428 
Q 1034 2569 447 2591 
L 1259 4238 
L 2778 4238 
z
" transform="scale(0.015625)"/>
       </defs>
       <use xlink:href="#TimesNewRomanPSMT-35"/>
       <use xlink:href="#TimesNewRomanPSMT-30" x="50"/>
       <use xlink:href="#TimesNewRomanPSMT-30" x="100"/>
      </g>
     </g>
    </g>
    <g id="xtick_3">
     <g id="line2d_3">
      <g>
       <use xlink:href="#m71032b294d" x="250.091532" y="168.48" style="stroke: #000000; stroke-width: 0.8"/>
      </g>
     </g>
     <g id="text_3">
      <!-- 1000 -->
      <g transform="translate(232.091532 187.97875)scale(0.18 -0.18)">
       <defs>
        <path id="TimesNewRomanPSMT-31" d="M 750 3822 
L 1781 4325 
L 1884 4325 
L 1884 747 
Q 1884 391 1914 303 
Q 1944 216 2037 169 
Q 2131 122 2419 116 
L 2419 0 
L 825 0 
L 825 116 
Q 1125 122 1212 167 
Q 1300 213 1334 289 
Q 1369 366 1369 747 
L 1369 3034 
Q 1369 3497 1338 3628 
Q 1316 3728 1258 3775 
Q 1200 3822 1119 3822 
Q 1003 3822 797 3725 
L 750 3822 
z
" transform="scale(0.015625)"/>
       </defs>
       <use xlink:href="#TimesNewRomanPSMT-31"/>
       <use xlink:href="#TimesNewRomanPSMT-30" x="50"/>
       <use xlink:href="#TimesNewRomanPSMT-30" x="100"/>
       <use xlink:href="#TimesNewRomanPSMT-30" x="150"/>
      </g>
     </g>
    </g>
    <g id="text_4">
     <!-- Epoch -->
     <g transform="translate(133.967812 208.327812)scale(0.18 -0.18)">
      <defs>
       <path id="TimesNewRomanPSMT-45" d="M 1338 4006 
L 1338 2331 
L 2269 2331 
Q 2631 2331 2753 2441 
Q 2916 2584 2934 2947 
L 3050 2947 
L 3050 1472 
L 2934 1472 
Q 2891 1781 2847 1869 
Q 2791 1978 2662 2040 
Q 2534 2103 2269 2103 
L 1338 2103 
L 1338 706 
Q 1338 425 1363 364 
Q 1388 303 1450 267 
Q 1513 231 1688 231 
L 2406 231 
Q 2766 231 2928 281 
Q 3091 331 3241 478 
Q 3434 672 3638 1063 
L 3763 1063 
L 3397 0 
L 131 0 
L 131 116 
L 281 116 
Q 431 116 566 188 
Q 666 238 702 338 
Q 738 438 738 747 
L 738 3500 
Q 738 3903 656 3997 
Q 544 4122 281 4122 
L 131 4122 
L 131 4238 
L 3397 4238 
L 3444 3309 
L 3322 3309 
Q 3256 3644 3176 3769 
Q 3097 3894 2941 3959 
Q 2816 4006 2500 4006 
L 1338 4006 
z
" transform="scale(0.015625)"/>
       <path id="TimesNewRomanPSMT-70" d="M -6 2578 
L 875 2934 
L 994 2934 
L 994 2266 
Q 1216 2644 1439 2795 
Q 1663 2947 1909 2947 
Q 2341 2947 2628 2609 
Q 2981 2197 2981 1534 
Q 2981 794 2556 309 
Q 2206 -88 1675 -88 
Q 1444 -88 1275 -22 
Q 1150 25 994 166 
L 994 -706 
Q 994 -1000 1030 -1079 
Q 1066 -1159 1155 -1206 
Q 1244 -1253 1478 -1253 
L 1478 -1369 
L -22 -1369 
L -22 -1253 
L 56 -1253 
Q 228 -1256 350 -1188 
Q 409 -1153 442 -1076 
Q 475 -1000 475 -688 
L 475 2019 
Q 475 2297 450 2372 
Q 425 2447 370 2484 
Q 316 2522 222 2522 
Q 147 2522 31 2478 
L -6 2578 
z
M 994 2081 
L 994 1013 
Q 994 666 1022 556 
Q 1066 375 1236 237 
Q 1406 100 1666 100 
Q 1978 100 2172 344 
Q 2425 663 2425 1241 
Q 2425 1897 2138 2250 
Q 1938 2494 1663 2494 
Q 1513 2494 1366 2419 
Q 1253 2363 994 2081 
z
" transform="scale(0.015625)"/>
       <path id="TimesNewRomanPSMT-6f" d="M 1600 2947 
Q 2250 2947 2644 2453 
Q 2978 2031 2978 1484 
Q 2978 1100 2793 706 
Q 2609 313 2286 112 
Q 1963 -88 1566 -88 
Q 919 -88 538 428 
Q 216 863 216 1403 
Q 216 1797 411 2186 
Q 606 2575 925 2761 
Q 1244 2947 1600 2947 
z
M 1503 2744 
Q 1338 2744 1170 2645 
Q 1003 2547 900 2300 
Q 797 2053 797 1666 
Q 797 1041 1045 587 
Q 1294 134 1700 134 
Q 2003 134 2200 384 
Q 2397 634 2397 1244 
Q 2397 2006 2069 2444 
Q 1847 2744 1503 2744 
z
" transform="scale(0.015625)"/>
       <path id="TimesNewRomanPSMT-63" d="M 2631 1088 
Q 2516 522 2178 217 
Q 1841 -88 1431 -88 
Q 944 -88 581 321 
Q 219 731 219 1428 
Q 219 2103 620 2525 
Q 1022 2947 1584 2947 
Q 2006 2947 2278 2723 
Q 2550 2500 2550 2259 
Q 2550 2141 2473 2067 
Q 2397 1994 2259 1994 
Q 2075 1994 1981 2113 
Q 1928 2178 1911 2362 
Q 1894 2547 1784 2644 
Q 1675 2738 1481 2738 
Q 1169 2738 978 2506 
Q 725 2200 725 1697 
Q 725 1184 976 792 
Q 1228 400 1656 400 
Q 1963 400 2206 609 
Q 2378 753 2541 1131 
L 2631 1088 
z
" transform="scale(0.015625)"/>
       <path id="TimesNewRomanPSMT-68" d="M 1041 4444 
L 1041 2350 
Q 1388 2731 1591 2839 
Q 1794 2947 1997 2947 
Q 2241 2947 2416 2812 
Q 2591 2678 2675 2391 
Q 2734 2191 2734 1659 
L 2734 647 
Q 2734 375 2778 275 
Q 2809 200 2884 156 
Q 2959 113 3159 113 
L 3159 0 
L 1753 0 
L 1753 113 
L 1819 113 
Q 2019 113 2097 173 
Q 2175 234 2206 353 
Q 2216 403 2216 647 
L 2216 1659 
Q 2216 2128 2167 2275 
Q 2119 2422 2012 2495 
Q 1906 2569 1756 2569 
Q 1603 2569 1437 2487 
Q 1272 2406 1041 2159 
L 1041 647 
Q 1041 353 1073 281 
Q 1106 209 1195 161 
Q 1284 113 1503 113 
L 1503 0 
L 84 0 
L 84 113 
Q 275 113 384 172 
Q 447 203 484 290 
Q 522 378 522 647 
L 522 3238 
Q 522 3728 498 3840 
Q 475 3953 426 3993 
Q 378 4034 297 4034 
Q 231 4034 84 3984 
L 41 4094 
L 897 4444 
L 1041 4444 
z
" transform="scale(0.015625)"/>
      </defs>
      <use xlink:href="#TimesNewRomanPSMT-45"/>
      <use xlink:href="#TimesNewRomanPSMT-70" x="61.083984"/>
      <use xlink:href="#TimesNewRomanPSMT-6f" x="111.083984"/>
      <use xlink:href="#TimesNewRomanPSMT-63" x="161.083984"/>
      <use xlink:href="#TimesNewRomanPSMT-68" x="205.46875"/>
     </g>
    </g>
   </g>
   <g id="matplotlib.axis_2">
    <g id="ytick_1">
     <g id="line2d_4">
      <defs>
       <path id="mc74046806b" d="M 0 0 
L -3.5 0 
" style="stroke: #000000; stroke-width: 0.8"/>
      </defs>
      <g>
       <use xlink:href="#mc74046806b" x="54.72" y="161.948756" style="stroke: #000000; stroke-width: 0.8"/>
      </g>
     </g>
     <g id="text_5">
      <!-- 0.0 -->
      <g transform="translate(25.22 168.198131)scale(0.18 -0.18)">
       <defs>
        <path id="TimesNewRomanPSMT-2e" d="M 800 606 
Q 947 606 1047 504 
Q 1147 403 1147 259 
Q 1147 116 1045 14 
Q 944 -88 800 -88 
Q 656 -88 554 14 
Q 453 116 453 259 
Q 453 406 554 506 
Q 656 606 800 606 
z
" transform="scale(0.015625)"/>
       </defs>
       <use xlink:href="#TimesNewRomanPSMT-30"/>
       <use xlink:href="#TimesNewRomanPSMT-2e" x="50"/>
       <use xlink:href="#TimesNewRomanPSMT-30" x="75"/>
      </g>
     </g>
    </g>
    <g id="ytick_2">
     <g id="line2d_5">
      <g>
       <use xlink:href="#mc74046806b" x="54.72" y="137.842704" style="stroke: #000000; stroke-width: 0.8"/>
      </g>
     </g>
     <g id="text_6">
      <!-- 0.5 -->
      <g transform="translate(25.22 144.092079)scale(0.18 -0.18)">
       <use xlink:href="#TimesNewRomanPSMT-30"/>
       <use xlink:href="#TimesNewRomanPSMT-2e" x="50"/>
       <use xlink:href="#TimesNewRomanPSMT-35" x="75"/>
      </g>
     </g>
    </g>
    <g id="ytick_3">
     <g id="line2d_6">
      <g>
       <use xlink:href="#mc74046806b" x="54.72" y="113.736653" style="stroke: #000000; stroke-width: 0.8"/>
      </g>
     </g>
     <g id="text_7">
      <!-- 1.0 -->
      <g transform="translate(25.22 119.986028)scale(0.18 -0.18)">
       <use xlink:href="#TimesNewRomanPSMT-31"/>
       <use xlink:href="#TimesNewRomanPSMT-2e" x="50"/>
       <use xlink:href="#TimesNewRomanPSMT-30" x="75"/>
      </g>
     </g>
    </g>
    <g id="ytick_4">
     <g id="line2d_7">
      <g>
       <use xlink:href="#mc74046806b" x="54.72" y="89.630601" style="stroke: #000000; stroke-width: 0.8"/>
      </g>
     </g>
     <g id="text_8">
      <!-- 1.5 -->
      <g transform="translate(25.22 95.879976)scale(0.18 -0.18)">
       <use xlink:href="#TimesNewRomanPSMT-31"/>
       <use xlink:href="#TimesNewRomanPSMT-2e" x="50"/>
       <use xlink:href="#TimesNewRomanPSMT-35" x="75"/>
      </g>
     </g>
    </g>
    <g id="ytick_5">
     <g id="line2d_8">
      <g>
       <use xlink:href="#mc74046806b" x="54.72" y="65.524549" style="stroke: #000000; stroke-width: 0.8"/>
      </g>
     </g>
     <g id="text_9">
      <!-- 2.0 -->
      <g transform="translate(25.22 71.773924)scale(0.18 -0.18)">
       <defs>
        <path id="TimesNewRomanPSMT-32" d="M 2934 816 
L 2638 0 
L 138 0 
L 138 116 
Q 1241 1122 1691 1759 
Q 2141 2397 2141 2925 
Q 2141 3328 1894 3587 
Q 1647 3847 1303 3847 
Q 991 3847 742 3664 
Q 494 3481 375 3128 
L 259 3128 
Q 338 3706 661 4015 
Q 984 4325 1469 4325 
Q 1984 4325 2329 3994 
Q 2675 3663 2675 3213 
Q 2675 2891 2525 2569 
Q 2294 2063 1775 1497 
Q 997 647 803 472 
L 1909 472 
Q 2247 472 2383 497 
Q 2519 522 2628 598 
Q 2738 675 2819 816 
L 2934 816 
z
" transform="scale(0.015625)"/>
       </defs>
       <use xlink:href="#TimesNewRomanPSMT-32"/>
       <use xlink:href="#TimesNewRomanPSMT-2e" x="50"/>
       <use xlink:href="#TimesNewRomanPSMT-30" x="75"/>
      </g>
     </g>
    </g>
    <g id="ytick_6">
     <g id="line2d_9">
      <g>
       <use xlink:href="#mc74046806b" x="54.72" y="41.418497" style="stroke: #000000; stroke-width: 0.8"/>
      </g>
     </g>
     <g id="text_10">
      <!-- 2.5 -->
      <g transform="translate(25.22 47.667872)scale(0.18 -0.18)">
       <use xlink:href="#TimesNewRomanPSMT-32"/>
       <use xlink:href="#TimesNewRomanPSMT-2e" x="50"/>
       <use xlink:href="#TimesNewRomanPSMT-35" x="75"/>
      </g>
     </g>
    </g>
    <g id="text_11">
     <!-- Loss -->
     <g transform="translate(17.369687 112.042969)rotate(-90)scale(0.18 -0.18)">
      <defs>
       <path id="TimesNewRomanPSMT-4c" d="M 3669 1172 
L 3772 1150 
L 3409 0 
L 128 0 
L 128 116 
L 288 116 
Q 556 116 672 291 
Q 738 391 738 753 
L 738 3488 
Q 738 3884 650 3984 
Q 528 4122 288 4122 
L 128 4122 
L 128 4238 
L 2047 4238 
L 2047 4122 
Q 1709 4125 1573 4059 
Q 1438 3994 1388 3894 
Q 1338 3794 1338 3416 
L 1338 753 
Q 1338 494 1388 397 
Q 1425 331 1503 300 
Q 1581 269 1991 269 
L 2300 269 
Q 2788 269 2984 341 
Q 3181 413 3343 595 
Q 3506 778 3669 1172 
z
" transform="scale(0.015625)"/>
       <path id="TimesNewRomanPSMT-73" d="M 2050 2947 
L 2050 1972 
L 1947 1972 
Q 1828 2431 1642 2597 
Q 1456 2763 1169 2763 
Q 950 2763 815 2647 
Q 681 2531 681 2391 
Q 681 2216 781 2091 
Q 878 1963 1175 1819 
L 1631 1597 
Q 2266 1288 2266 781 
Q 2266 391 1970 151 
Q 1675 -88 1309 -88 
Q 1047 -88 709 6 
Q 606 38 541 38 
Q 469 38 428 -44 
L 325 -44 
L 325 978 
L 428 978 
Q 516 541 762 319 
Q 1009 97 1316 97 
Q 1531 97 1667 223 
Q 1803 350 1803 528 
Q 1803 744 1651 891 
Q 1500 1038 1047 1263 
Q 594 1488 453 1669 
Q 313 1847 313 2119 
Q 313 2472 555 2709 
Q 797 2947 1181 2947 
Q 1350 2947 1591 2875 
Q 1750 2828 1803 2828 
Q 1853 2828 1881 2850 
Q 1909 2872 1947 2947 
L 2050 2947 
z
" transform="scale(0.015625)"/>
      </defs>
      <use xlink:href="#TimesNewRomanPSMT-4c"/>
      <use xlink:href="#TimesNewRomanPSMT-6f" x="61.083984"/>
      <use xlink:href="#TimesNewRomanPSMT-73" x="111.083984"/>
      <use xlink:href="#TimesNewRomanPSMT-73" x="150"/>
     </g>
    </g>
   </g>
   <g id="line2d_10">
    <path d="M 64.014545 28.276364 
L 65.317084 28.335366 
L 65.689238 28.563316 
L 66.247469 29.1016 
L 66.8057 29.118463 
L 67.363931 29.433508 
L 68.108239 29.645964 
L 68.66647 29.970125 
L 69.224701 30.520765 
L 69.596855 30.67784 
L 69.969009 31.018082 
L 71.085471 32.357279 
L 72.201933 34.41457 
L 72.38801 35.058352 
L 72.574087 35.249646 
L 73.876626 38.396976 
L 74.062703 38.568867 
L 74.993088 40.39807 
L 75.179165 40.655987 
L 76.10955 42.856249 
L 76.295627 43.029359 
L 76.667781 43.775052 
L 77.412088 45.34989 
L 77.784242 46.198701 
L 78.342473 47.484885 
L 78.52855 47.519507 
L 80.203243 52.041277 
L 80.761474 54.305898 
L 80.947551 54.667497 
L 81.319705 56.300072 
L 81.691859 57.151229 
L 82.064013 58.303338 
L 82.436167 60.301961 
L 82.994398 62.672643 
L 83.366552 64.512272 
L 83.924783 67.164498 
L 84.296937 68.742031 
L 84.483014 69.098389 
L 85.413399 73.504947 
L 85.599476 75.401814 
L 85.785553 75.204761 
L 85.97163 76.159024 
L 86.343784 78.516321 
L 86.715938 80.783781 
L 86.902015 81.197456 
L 87.460246 84.153297 
L 88.204554 87.796151 
L 88.576708 89.900145 
L 88.762785 90.544461 
L 89.134939 92.661358 
L 89.507093 94.262104 
L 90.065324 97.767028 
L 90.2514 98.436799 
L 90.437477 99.882264 
L 90.995708 101.670304 
L 91.740016 104.256408 
L 91.926093 103.511715 
L 92.11217 105.565029 
L 92.298247 105.761955 
L 92.484324 106.673729 
L 92.670401 108.669001 
L 92.856478 108.702319 
L 93.042555 109.163743 
L 93.600786 111.829539 
L 93.786863 111.729127 
L 93.97294 113.025099 
L 94.159017 112.602423 
L 94.345094 114.937758 
L 94.531171 115.181586 
L 95.089402 117.509074 
L 95.275479 117.820878 
L 95.461556 118.760213 
L 95.83371 119.628942 
L 96.019787 120.393622 
L 96.205864 120.280555 
L 96.578018 121.983566 
L 97.136249 123.85311 
L 97.322326 124.104458 
L 97.69448 125.478653 
L 97.880557 125.54675 
L 98.066634 126.001666 
L 98.252711 126.876734 
L 98.438788 127.06056 
L 98.997019 128.438373 
L 99.183096 129.541122 
L 99.369173 129.892471 
L 99.927404 132.259819 
L 100.113481 132.523467 
L 100.671712 134.769986 
L 100.857789 135.151523 
L 101.043866 135.202088 
L 101.41602 136.062081 
L 101.602097 136.10445 
L 101.788174 136.458779 
L 101.974251 137.149114 
L 102.160328 136.930273 
L 102.346405 137.191201 
L 102.718559 138.143944 
L 102.904636 138.107254 
L 103.27679 138.827407 
L 104.021097 140.602821 
L 104.207174 140.355871 
L 105.137559 142.563363 
L 105.323636 142.425828 
L 105.69579 143.701654 
L 105.881867 144.228825 
L 106.067944 144.31737 
L 106.440098 144.893581 
L 106.626175 145.868905 
L 106.812252 145.952875 
L 106.998329 146.594757 
L 107.184406 146.658989 
L 107.370483 146.856749 
L 107.55656 147.376086 
L 107.742637 147.258431 
L 108.114791 148.328853 
L 108.300868 148.304799 
L 108.486945 148.822702 
L 108.673022 148.569623 
L 109.045176 149.666343 
L 109.231253 149.554409 
L 109.41733 148.949763 
L 109.975561 150.175306 
L 110.161638 149.816615 
L 110.347715 150.587896 
L 110.533792 150.452109 
L 111.092023 151.746859 
L 111.464177 151.917814 
L 111.650254 151.632198 
L 112.208485 152.679738 
L 112.394562 152.828959 
L 112.580639 152.777555 
L 112.766716 153.126063 
L 113.13887 152.697328 
L 113.324947 152.969464 
L 113.511024 153.02985 
L 113.697101 153.712633 
L 113.883178 153.624464 
L 114.255332 153.825491 
L 114.627486 154.358653 
L 114.813563 154.083534 
L 114.99964 154.536999 
L 115.371794 154.363996 
L 115.557871 154.64593 
L 115.743948 154.525256 
L 116.116102 155.216115 
L 116.488256 155.532885 
L 116.86041 155.565676 
L 117.232563 155.465098 
L 117.604717 155.857081 
L 118.349025 155.890272 
L 118.535102 156.217242 
L 118.721179 156.265475 
L 118.907256 156.175909 
L 119.837641 156.595909 
L 120.023718 156.394358 
L 120.209795 156.603593 
L 120.581949 156.503979 
L 120.954103 156.625331 
L 121.14018 156.395961 
L 121.326257 156.878428 
L 122.814873 157.337485 
L 123.00095 157.043186 
L 123.373104 157.577493 
L 123.559181 157.478975 
L 123.745258 157.220434 
L 124.117412 157.732847 
L 124.303489 157.855383 
L 124.489566 157.795843 
L 124.86172 157.938109 
L 125.047797 157.78381 
L 125.233874 157.97522 
L 125.419951 157.793619 
L 126.350336 158.472264 
L 126.72249 158.395387 
L 127.094644 158.575334 
L 127.280721 158.686996 
L 127.838952 158.678238 
L 129.513645 159.184974 
L 129.885799 159.09152 
L 130.444029 159.299764 
L 130.816183 159.484005 
L 131.00226 159.211673 
L 131.746568 159.523137 
L 131.932645 159.365458 
L 132.304799 159.323465 
L 132.490876 159.19862 
L 133.421261 159.560034 
L 133.607338 159.552842 
L 133.793415 159.433039 
L 133.979492 159.525361 
L 134.165569 159.413264 
L 134.351646 159.483201 
L 134.537723 159.718914 
L 134.7238 159.514508 
L 135.095954 159.80192 
L 136.026339 159.706302 
L 136.770647 159.91427 
L 136.956724 159.63064 
L 137.328878 159.872821 
L 137.701032 159.860778 
L 138.073186 159.863848 
L 138.259263 159.997327 
L 138.817494 160.061222 
L 139.003571 159.851729 
L 139.375725 159.91686 
L 139.561802 159.913428 
L 139.747879 160.052384 
L 139.933956 159.962856 
L 140.120033 160.035824 
L 140.30611 159.955808 
L 140.864341 160.079535 
L 141.236495 160.09332 
L 141.794726 160.104995 
L 142.16688 159.887758 
L 142.352957 160.011536 
L 142.725111 160.085686 
L 143.283342 160.328205 
L 143.841572 160.072768 
L 144.213726 160.30484 
L 144.399803 160.205227 
L 144.58588 160.288813 
L 144.958034 160.258656 
L 145.516265 160.367169 
L 148.679574 160.700944 
L 152.401114 160.976868 
L 153.703653 161.025653 
L 154.261884 160.979771 
L 155.006192 160.980116 
L 155.192269 160.881752 
L 155.564423 160.904474 
L 155.936577 160.879703 
L 156.494808 160.905728 
L 156.680885 160.763933 
L 156.866962 160.887826 
L 158.1695 160.695019 
L 158.541654 160.744487 
L 165.426503 161.176489 
L 165.61258 161.130933 
L 166.170811 161.25257 
L 167.101196 161.331461 
L 167.287273 161.184992 
L 168.031581 161.250999 
L 168.403735 161.244646 
L 168.589812 161.183705 
L 168.775889 161.295815 
L 169.892351 161.257345 
L 170.450581 161.273246 
L 171.008812 161.282239 
L 173.799967 161.382917 
L 174.544275 161.388687 
L 175.660737 161.453328 
L 179.754431 161.518828 
L 182.545586 161.536386 
L 184.406355 161.506908 
L 186.639279 161.556323 
L 199.292514 161.623414 
L 200.595053 161.613362 
L 201.525438 161.647725 
L 207.107748 161.690958 
L 209.526749 161.706569 
L 214.736904 161.701911 
L 215.853366 161.708024 
L 217.714136 161.719927 
L 221.435676 161.741444 
L 249.905455 161.791766 
L 249.905455 161.791766 
" clip-path="url(#p250d358fd5)" style="fill: none; stroke: #1f77b4; stroke-width: 1.5; stroke-linecap: square"/>
   </g>
   <g id="line2d_11">
    <path d="M 64.014545 28.276364 
L 65.317084 28.334389 
L 65.689238 28.554764 
L 66.247469 29.127831 
L 68.294316 29.501384 
L 69.224701 29.928192 
L 71.457625 31.797477 
L 71.829779 32.207825 
L 72.760164 33.404592 
L 73.504472 34.60014 
L 73.690549 34.637187 
L 75.365242 36.988846 
L 75.551319 37.214819 
L 75.923473 37.891901 
L 76.481704 38.534878 
L 76.667781 39.120599 
L 76.853857 39.317423 
L 77.226011 39.944445 
L 77.970319 41.519225 
L 78.342473 42.131178 
L 79.086781 43.549286 
L 80.017166 45.589048 
L 80.575397 47.257279 
L 80.947551 48.068377 
L 81.505782 49.895626 
L 81.691859 50.126082 
L 82.436167 52.592021 
L 82.622244 52.910814 
L 85.413399 63.036955 
L 88.948862 78.91364 
L 89.321016 81.031795 
L 89.507093 81.430695 
L 92.670401 97.067888 
L 92.856478 97.266349 
L 93.042555 98.782299 
L 93.600786 100.675637 
L 94.717248 106.167562 
L 95.089402 107.106101 
L 95.83371 110.554792 
L 96.019787 110.855021 
L 96.578018 113.895974 
L 96.764095 114.214782 
L 97.322326 116.611197 
L 97.508403 117.095347 
L 98.252711 120.697486 
L 98.438788 121.32673 
L 98.810942 121.772039 
L 99.55525 124.904075 
L 99.741327 125.39686 
L 99.927404 125.306825 
L 100.299558 126.566812 
L 100.485635 126.907152 
L 101.043866 129.045188 
L 101.229943 129.306056 
L 101.41602 129.337293 
L 101.974251 131.074915 
L 102.532482 133.062759 
L 102.718559 133.684163 
L 102.904636 133.709204 
L 103.27679 134.744198 
L 103.462867 135.790106 
L 104.021097 136.907777 
L 104.207174 137.548044 
L 104.393251 137.759609 
L 104.765405 139.034554 
L 104.951482 139.086224 
L 106.440098 142.579443 
L 106.626175 142.689463 
L 106.812252 143.19119 
L 106.998329 143.198444 
L 108.300868 145.263074 
L 108.486945 145.165982 
L 108.673022 145.252504 
L 109.603407 147.093644 
L 109.789484 147.014154 
L 109.975561 147.347854 
L 110.161638 147.942149 
L 110.347715 147.840435 
L 110.533792 148.056334 
L 110.719869 148.644781 
L 110.905946 148.742011 
L 111.092023 149.310977 
L 111.2781 149.261748 
L 111.650254 149.897017 
L 111.836331 149.977021 
L 112.394562 150.948426 
L 112.580639 150.779168 
L 112.952793 151.326607 
L 115.371794 152.858026 
L 115.743948 153.36769 
L 115.930025 153.230238 
L 116.302179 153.733125 
L 116.488256 153.994017 
L 116.674333 153.831328 
L 117.232563 154.245465 
L 117.41864 154.241229 
L 117.604717 154.547709 
L 117.976871 154.6211 
L 118.721179 155.512997 
L 119.093333 155.285524 
L 119.27941 155.56134 
L 119.651564 155.763235 
L 119.837641 155.855948 
L 120.023718 155.774357 
L 120.209795 156.082148 
L 120.395872 156.118256 
L 120.581949 156.303486 
L 120.768026 156.264943 
L 120.954103 156.489421 
L 121.14018 156.390399 
L 121.326257 156.485294 
L 121.512334 156.745629 
L 122.628796 156.941275 
L 123.187027 157.403016 
L 123.373104 157.565525 
L 123.559181 157.519803 
L 123.745258 157.745883 
L 124.303489 157.771244 
L 124.489566 157.717693 
L 124.86172 158.074215 
L 125.233874 158.060756 
L 125.606028 158.328158 
L 126.164259 158.460755 
L 127.094644 158.535187 
L 127.466798 158.774203 
L 127.652875 158.853757 
L 128.211106 158.671951 
L 128.397183 158.639413 
L 128.955414 159.00227 
L 129.327568 158.924282 
L 129.699722 159.136689 
L 130.071876 159.083234 
L 130.630106 159.39039 
L 130.816183 159.297134 
L 131.00226 159.434071 
L 131.188337 159.322041 
L 131.374414 159.401104 
L 131.560491 159.344689 
L 131.746568 159.534563 
L 132.490876 159.567131 
L 136.212416 160.102453 
L 136.58457 160.065148 
L 137.142801 160.160608 
L 137.328878 160.09624 
L 137.887109 160.263975 
L 140.864341 160.496597 
L 141.422572 160.603379 
L 142.352957 160.635273 
L 142.911188 160.764542 
L 145.888419 160.734167 
L 146.260573 160.806506 
L 147.377035 160.887303 
L 148.493497 160.955603 
L 149.051728 160.909316 
L 167.845504 161.222466 
L 168.031581 161.15573 
L 168.403735 161.243709 
L 169.33412 161.231485 
L 169.892351 161.31453 
L 170.636658 161.252118 
L 171.380966 161.257706 
L 173.427813 161.319428 
L 173.799967 161.322306 
L 174.358198 161.283515 
L 180.126585 161.287952 
L 180.498739 161.317353 
L 181.615201 161.320562 
L 182.173432 161.344893 
L 183.662048 161.434294 
L 184.406355 161.471889 
L 184.964586 161.377245 
L 185.894971 161.384629 
L 187.19751 161.462592 
L 187.569664 161.42717 
L 188.313972 161.446245 
L 189.244357 161.406862 
L 189.616511 161.409907 
L 191.105127 161.380087 
L 191.477281 161.423113 
L 198.734283 161.458334 
L 199.106437 161.454053 
L 200.595053 161.476394 
L 207.479902 161.58318 
L 208.038133 161.562695 
L 208.968518 161.583551 
L 212.131826 161.604091 
L 212.50398 161.562619 
L 213.062211 161.585003 
L 214.36475 161.596391 
L 215.295135 161.53656 
L 216.969828 161.579521 
L 217.528059 161.668605 
L 220.133137 161.582782 
L 220.691368 161.660469 
L 224.412907 161.616842 
L 225.529369 161.68041 
L 226.645831 161.672382 
L 249.905455 161.78261 
L 249.905455 161.78261 
" clip-path="url(#p250d358fd5)" style="fill: none; stroke: #ff7f0e; stroke-width: 1.5; stroke-linecap: square"/>
   </g>
   <g id="patch_3">
    <path d="M 54.72 168.48 
L 54.72 21.6 
" style="fill: none; stroke: #000000; stroke-width: 0.8; stroke-linejoin: miter; stroke-linecap: square"/>
   </g>
   <g id="patch_4">
    <path d="M 259.2 168.48 
L 259.2 21.6 
" style="fill: none; stroke: #000000; stroke-width: 0.8; stroke-linejoin: miter; stroke-linecap: square"/>
   </g>
   <g id="patch_5">
    <path d="M 54.72 168.48 
L 259.2 168.48 
" style="fill: none; stroke: #000000; stroke-width: 0.8; stroke-linejoin: miter; stroke-linecap: square"/>
   </g>
   <g id="patch_6">
    <path d="M 54.72 21.6 
L 259.2 21.6 
" style="fill: none; stroke: #000000; stroke-width: 0.8; stroke-linejoin: miter; stroke-linecap: square"/>
   </g>
   <g id="legend_1">
    <g id="patch_7">
     <path d="M 154.996875 86.900625 
L 246.6 86.900625 
Q 250.2 86.900625 250.2 83.300625 
L 250.2 34.2 
Q 250.2 30.6 246.6 30.6 
L 154.996875 30.6 
Q 151.396875 30.6 151.396875 34.2 
L 151.396875 83.300625 
Q 151.396875 86.900625 154.996875 86.900625 
z
" style="fill: #ffffff; opacity: 0.8; stroke: #cccccc; stroke-linejoin: miter"/>
    </g>
    <g id="line2d_12">
     <path d="M 158.596875 44.1 
L 176.596875 44.1 
L 194.596875 44.1 
" style="fill: none; stroke: #1f77b4; stroke-width: 1.5; stroke-linecap: square"/>
    </g>
    <g id="text_12">
     <!-- SDT -->
     <g transform="translate(208.996875 50.4)scale(0.18 -0.18)">
      <defs>
       <path id="TimesNewRomanPSMT-53" d="M 2934 4334 
L 2934 2869 
L 2819 2869 
Q 2763 3291 2617 3541 
Q 2472 3791 2203 3937 
Q 1934 4084 1647 4084 
Q 1322 4084 1109 3886 
Q 897 3688 897 3434 
Q 897 3241 1031 3081 
Q 1225 2847 1953 2456 
Q 2547 2138 2764 1967 
Q 2981 1797 3098 1565 
Q 3216 1334 3216 1081 
Q 3216 600 2842 251 
Q 2469 -97 1881 -97 
Q 1697 -97 1534 -69 
Q 1438 -53 1133 45 
Q 828 144 747 144 
Q 669 144 623 97 
Q 578 50 556 -97 
L 441 -97 
L 441 1356 
L 556 1356 
Q 638 900 775 673 
Q 913 447 1195 297 
Q 1478 147 1816 147 
Q 2206 147 2432 353 
Q 2659 559 2659 841 
Q 2659 997 2573 1156 
Q 2488 1316 2306 1453 
Q 2184 1547 1640 1851 
Q 1097 2156 867 2337 
Q 638 2519 519 2737 
Q 400 2956 400 3219 
Q 400 3675 750 4004 
Q 1100 4334 1641 4334 
Q 1978 4334 2356 4169 
Q 2531 4091 2603 4091 
Q 2684 4091 2736 4139 
Q 2788 4188 2819 4334 
L 2934 4334 
z
" transform="scale(0.015625)"/>
       <path id="TimesNewRomanPSMT-44" d="M 109 0 
L 109 116 
L 269 116 
Q 538 116 650 288 
Q 719 391 719 750 
L 719 3488 
Q 719 3884 631 3984 
Q 509 4122 269 4122 
L 109 4122 
L 109 4238 
L 1834 4238 
Q 2784 4238 3279 4022 
Q 3775 3806 4076 3303 
Q 4378 2800 4378 2141 
Q 4378 1256 3841 663 
Q 3238 0 2003 0 
L 109 0 
z
M 1319 306 
Q 1716 219 1984 219 
Q 2709 219 3187 728 
Q 3666 1238 3666 2109 
Q 3666 2988 3187 3494 
Q 2709 4000 1959 4000 
Q 1678 4000 1319 3909 
L 1319 306 
z
" transform="scale(0.015625)"/>
       <path id="TimesNewRomanPSMT-54" d="M 3703 4238 
L 3750 3244 
L 3631 3244 
Q 3597 3506 3538 3619 
Q 3441 3800 3280 3886 
Q 3119 3972 2856 3972 
L 2259 3972 
L 2259 734 
Q 2259 344 2344 247 
Q 2463 116 2709 116 
L 2856 116 
L 2856 0 
L 1059 0 
L 1059 116 
L 1209 116 
Q 1478 116 1591 278 
Q 1659 378 1659 734 
L 1659 3972 
L 1150 3972 
Q 853 3972 728 3928 
Q 566 3869 450 3700 
Q 334 3531 313 3244 
L 194 3244 
L 244 4238 
L 3703 4238 
z
" transform="scale(0.015625)"/>
      </defs>
      <use xlink:href="#TimesNewRomanPSMT-53"/>
      <use xlink:href="#TimesNewRomanPSMT-44" x="55.615234"/>
      <use xlink:href="#TimesNewRomanPSMT-54" x="127.832031"/>
     </g>
    </g>
    <g id="line2d_13">
     <path d="M 158.596875 69.550312 
L 176.596875 69.550312 
L 194.596875 69.550312 
" style="fill: none; stroke: #ff7f0e; stroke-width: 1.5; stroke-linecap: square"/>
    </g>
    <g id="text_13">
     <!-- TET -->
     <g transform="translate(208.996875 75.850312)scale(0.18 -0.18)">
      <use xlink:href="#TimesNewRomanPSMT-54"/>
      <use xlink:href="#TimesNewRomanPSMT-45" x="61.083984"/>
      <use xlink:href="#TimesNewRomanPSMT-54" x="122.167969"/>
     </g>
    </g>
   </g>
  </g>
 </g>
 <defs>
  <clipPath id="p250d358fd5">
   <rect x="54.72" y="21.6" width="204.48" height="146.88"/>
  </clipPath>
 </defs>
</svg>
