<?xml version="1.0" encoding="utf-8" standalone="no"?>
<!DOCTYPE svg PUBLIC "-//W3C//DTD SVG 1.1//EN"
  "http://www.w3.org/Graphics/SVG/1.1/DTD/svg11.dtd">
<svg xmlns:xlink="http://www.w3.org/1999/xlink" width="288pt" height="216pt" viewBox="0 0 288 216" xmlns="http://www.w3.org/2000/svg" version="1.1">
 <metadata>
  <rdf:RDF xmlns:dc="http://purl.org/dc/elements/1.1/" xmlns:cc="http://creativecommons.org/ns#" xmlns:rdf="http://www.w3.org/1999/02/22-rdf-syntax-ns#">
   <cc:Work>
    <dc:type rdf:resource="http://purl.org/dc/dcmitype/StillImage"/>
    <dc:date>2024-05-21T22:19:24.725687</dc:date>
    <dc:format>image/svg+xml</dc:format>
    <dc:creator>
     <cc:Agent>
      <dc:title>Matplotlib v3.5.0, https://matplotlib.org/</dc:title>
     </cc:Agent>
    </dc:creator>
   </cc:Work>
  </rdf:RDF>
 </metadata>
 <defs>
  <style type="text/css">*{stroke-linejoin: round; stroke-linecap: butt}</style>
 </defs>
 <g id="figure_1">
  <g id="patch_1">
   <path d="M 0 216 
L 288 216 
L 288 0 
L 0 0 
z
" style="fill: #ffffff"/>
  </g>
  <g id="axes_1">
   <g id="patch_2">
    <path d="M 54.72 168.48 
L 259.2 168.48 
L 259.2 21.6 
L 54.72 21.6 
z
" style="fill: #ffffff"/>
   </g>
   <g id="matplotlib.axis_1">
    <g id="xtick_1">
     <g id="line2d_1">
      <defs>
       <path id="m753175a73a" d="M 0 0 
L 0 3.5 
" style="stroke: #000000; stroke-width: 0.8"/>
      </defs>
      <g>
       <use xlink:href="#m753175a73a" x="64.014545" y="168.48" style="stroke: #000000; stroke-width: 0.8"/>
      </g>
     </g>
     <g id="text_1">
      <!-- 0 -->
      <g transform="translate(59.514545 187.97875)scale(0.18 -0.18)">
       <defs>
        <path id="TimesNewRomanPSMT-30" d="M 231 2094 
Q 231 2819 450 3342 
Q 669 3866 1031 4122 
Q 1313 4325 1613 4325 
Q 2100 4325 2488 3828 
Q 2972 3213 2972 2159 
Q 2972 1422 2759 906 
Q 2547 391 2217 158 
Q 1888 -75 1581 -75 
Q 975 -75 572 641 
Q 231 1244 231 2094 
z
M 844 2016 
Q 844 1141 1059 588 
Q 1238 122 1591 122 
Q 1759 122 1940 273 
Q 2122 425 2216 781 
Q 2359 1319 2359 2297 
Q 2359 3022 2209 3506 
Q 2097 3866 1919 4016 
Q 1791 4119 1609 4119 
Q 1397 4119 1231 3928 
Q 1006 3669 925 3112 
Q 844 2556 844 2016 
z
" transform="scale(0.015625)"/>
       </defs>
       <use xlink:href="#TimesNewRomanPSMT-30"/>
      </g>
     </g>
    </g>
    <g id="xtick_2">
     <g id="line2d_2">
      <g>
       <use xlink:href="#m753175a73a" x="157.053038" y="168.48" style="stroke: #000000; stroke-width: 0.8"/>
      </g>
     </g>
     <g id="text_2">
      <!-- 500 -->
      <g transform="translate(143.553038 187.97875)scale(0.18 -0.18)">
       <defs>
        <path id="TimesNewRomanPSMT-35" d="M 2778 4238 
L 2534 3706 
L 1259 3706 
L 981 3138 
Q 1809 3016 2294 2522 
Q 2709 2097 2709 1522 
Q 2709 1188 2573 903 
Q 2438 619 2231 419 
Q 2025 219 1772 97 
Q 1413 -75 1034 -75 
Q 653 -75 479 54 
Q 306 184 306 341 
Q 306 428 378 495 
Q 450 563 559 563 
Q 641 563 702 538 
Q 763 513 909 409 
Q 1144 247 1384 247 
Q 1750 247 2026 523 
Q 2303 800 2303 1197 
Q 2303 1581 2056 1914 
Q 1809 2247 1375 2428 
Q 1034 2569 447 2591 
L 1259 4238 
L 2778 4238 
z
" transform="scale(0.015625)"/>
       </defs>
       <use xlink:href="#TimesNewRomanPSMT-35"/>
       <use xlink:href="#TimesNewRomanPSMT-30" x="50"/>
       <use xlink:href="#TimesNewRomanPSMT-30" x="100"/>
      </g>
     </g>
    </g>
    <g id="xtick_3">
     <g id="line2d_3">
      <g>
       <use xlink:href="#m753175a73a" x="250.091532" y="168.48" style="stroke: #000000; stroke-width: 0.8"/>
      </g>
     </g>
     <g id="text_3">
      <!-- 1000 -->
      <g transform="translate(232.091532 187.97875)scale(0.18 -0.18)">
       <defs>
        <path id="TimesNewRomanPSMT-31" d="M 750 3822 
L 1781 4325 
L 1884 4325 
L 1884 747 
Q 1884 391 1914 303 
Q 1944 216 2037 169 
Q 2131 122 2419 116 
L 2419 0 
L 825 0 
L 825 116 
Q 1125 122 1212 167 
Q 1300 213 1334 289 
Q 1369 366 1369 747 
L 1369 3034 
Q 1369 3497 1338 3628 
Q 1316 3728 1258 3775 
Q 1200 3822 1119 3822 
Q 1003 3822 797 3725 
L 750 3822 
z
" transform="scale(0.015625)"/>
       </defs>
       <use xlink:href="#TimesNewRomanPSMT-31"/>
       <use xlink:href="#TimesNewRomanPSMT-30" x="50"/>
       <use xlink:href="#TimesNewRomanPSMT-30" x="100"/>
       <use xlink:href="#TimesNewRomanPSMT-30" x="150"/>
      </g>
     </g>
    </g>
    <g id="text_4">
     <!-- Epoch -->
     <g transform="translate(133.967812 208.327812)scale(0.18 -0.18)">
      <defs>
       <path id="TimesNewRomanPSMT-45" d="M 1338 4006 
L 1338 2331 
L 2269 2331 
Q 2631 2331 2753 2441 
Q 2916 2584 2934 2947 
L 3050 2947 
L 3050 1472 
L 2934 1472 
Q 2891 1781 2847 1869 
Q 2791 1978 2662 2040 
Q 2534 2103 2269 2103 
L 1338 2103 
L 1338 706 
Q 1338 425 1363 364 
Q 1388 303 1450 267 
Q 1513 231 1688 231 
L 2406 231 
Q 2766 231 2928 281 
Q 3091 331 3241 478 
Q 3434 672 3638 1063 
L 3763 1063 
L 3397 0 
L 131 0 
L 131 116 
L 281 116 
Q 431 116 566 188 
Q 666 238 702 338 
Q 738 438 738 747 
L 738 3500 
Q 738 3903 656 3997 
Q 544 4122 281 4122 
L 131 4122 
L 131 4238 
L 3397 4238 
L 3444 3309 
L 3322 3309 
Q 3256 3644 3176 3769 
Q 3097 3894 2941 3959 
Q 2816 4006 2500 4006 
L 1338 4006 
z
" transform="scale(0.015625)"/>
       <path id="TimesNewRomanPSMT-70" d="M -6 2578 
L 875 2934 
L 994 2934 
L 994 2266 
Q 1216 2644 1439 2795 
Q 1663 2947 1909 2947 
Q 2341 2947 2628 2609 
Q 2981 2197 2981 1534 
Q 2981 794 2556 309 
Q 2206 -88 1675 -88 
Q 1444 -88 1275 -22 
Q 1150 25 994 166 
L 994 -706 
Q 994 -1000 1030 -1079 
Q 1066 -1159 1155 -1206 
Q 1244 -1253 1478 -1253 
L 1478 -1369 
L -22 -1369 
L -22 -1253 
L 56 -1253 
Q 228 -1256 350 -1188 
Q 409 -1153 442 -1076 
Q 475 -1000 475 -688 
L 475 2019 
Q 475 2297 450 2372 
Q 425 2447 370 2484 
Q 316 2522 222 2522 
Q 147 2522 31 2478 
L -6 2578 
z
M 994 2081 
L 994 1013 
Q 994 666 1022 556 
Q 1066 375 1236 237 
Q 1406 100 1666 100 
Q 1978 100 2172 344 
Q 2425 663 2425 1241 
Q 2425 1897 2138 2250 
Q 1938 2494 1663 2494 
Q 1513 2494 1366 2419 
Q 1253 2363 994 2081 
z
" transform="scale(0.015625)"/>
       <path id="TimesNewRomanPSMT-6f" d="M 1600 2947 
Q 2250 2947 2644 2453 
Q 2978 2031 2978 1484 
Q 2978 1100 2793 706 
Q 2609 313 2286 112 
Q 1963 -88 1566 -88 
Q 919 -88 538 428 
Q 216 863 216 1403 
Q 216 1797 411 2186 
Q 606 2575 925 2761 
Q 1244 2947 1600 2947 
z
M 1503 2744 
Q 1338 2744 1170 2645 
Q 1003 2547 900 2300 
Q 797 2053 797 1666 
Q 797 1041 1045 587 
Q 1294 134 1700 134 
Q 2003 134 2200 384 
Q 2397 634 2397 1244 
Q 2397 2006 2069 2444 
Q 1847 2744 1503 2744 
z
" transform="scale(0.015625)"/>
       <path id="TimesNewRomanPSMT-63" d="M 2631 1088 
Q 2516 522 2178 217 
Q 1841 -88 1431 -88 
Q 944 -88 581 321 
Q 219 731 219 1428 
Q 219 2103 620 2525 
Q 1022 2947 1584 2947 
Q 2006 2947 2278 2723 
Q 2550 2500 2550 2259 
Q 2550 2141 2473 2067 
Q 2397 1994 2259 1994 
Q 2075 1994 1981 2113 
Q 1928 2178 1911 2362 
Q 1894 2547 1784 2644 
Q 1675 2738 1481 2738 
Q 1169 2738 978 2506 
Q 725 2200 725 1697 
Q 725 1184 976 792 
Q 1228 400 1656 400 
Q 1963 400 2206 609 
Q 2378 753 2541 1131 
L 2631 1088 
z
" transform="scale(0.015625)"/>
       <path id="TimesNewRomanPSMT-68" d="M 1041 4444 
L 1041 2350 
Q 1388 2731 1591 2839 
Q 1794 2947 1997 2947 
Q 2241 2947 2416 2812 
Q 2591 2678 2675 2391 
Q 2734 2191 2734 1659 
L 2734 647 
Q 2734 375 2778 275 
Q 2809 200 2884 156 
Q 2959 113 3159 113 
L 3159 0 
L 1753 0 
L 1753 113 
L 1819 113 
Q 2019 113 2097 173 
Q 2175 234 2206 353 
Q 2216 403 2216 647 
L 2216 1659 
Q 2216 2128 2167 2275 
Q 2119 2422 2012 2495 
Q 1906 2569 1756 2569 
Q 1603 2569 1437 2487 
Q 1272 2406 1041 2159 
L 1041 647 
Q 1041 353 1073 281 
Q 1106 209 1195 161 
Q 1284 113 1503 113 
L 1503 0 
L 84 0 
L 84 113 
Q 275 113 384 172 
Q 447 203 484 290 
Q 522 378 522 647 
L 522 3238 
Q 522 3728 498 3840 
Q 475 3953 426 3993 
Q 378 4034 297 4034 
Q 231 4034 84 3984 
L 41 4094 
L 897 4444 
L 1041 4444 
z
" transform="scale(0.015625)"/>
      </defs>
      <use xlink:href="#TimesNewRomanPSMT-45"/>
      <use xlink:href="#TimesNewRomanPSMT-70" x="61.083984"/>
      <use xlink:href="#TimesNewRomanPSMT-6f" x="111.083984"/>
      <use xlink:href="#TimesNewRomanPSMT-63" x="161.083984"/>
      <use xlink:href="#TimesNewRomanPSMT-68" x="205.46875"/>
     </g>
    </g>
   </g>
   <g id="matplotlib.axis_2">
    <g id="ytick_1">
     <g id="line2d_4">
      <defs>
       <path id="m6a8718e173" d="M 0 0 
L -3.5 0 
" style="stroke: #000000; stroke-width: 0.8"/>
      </defs>
      <g>
       <use xlink:href="#m6a8718e173" x="54.72" y="161.85162" style="stroke: #000000; stroke-width: 0.8"/>
      </g>
     </g>
     <g id="text_5">
      <!-- 0.0 -->
      <g transform="translate(25.22 168.100995)scale(0.18 -0.18)">
       <defs>
        <path id="TimesNewRomanPSMT-2e" d="M 800 606 
Q 947 606 1047 504 
Q 1147 403 1147 259 
Q 1147 116 1045 14 
Q 944 -88 800 -88 
Q 656 -88 554 14 
Q 453 116 453 259 
Q 453 406 554 506 
Q 656 606 800 606 
z
" transform="scale(0.015625)"/>
       </defs>
       <use xlink:href="#TimesNewRomanPSMT-30"/>
       <use xlink:href="#TimesNewRomanPSMT-2e" x="50"/>
       <use xlink:href="#TimesNewRomanPSMT-30" x="75"/>
      </g>
     </g>
    </g>
    <g id="ytick_2">
     <g id="line2d_5">
      <g>
       <use xlink:href="#m6a8718e173" x="54.72" y="137.763086" style="stroke: #000000; stroke-width: 0.8"/>
      </g>
     </g>
     <g id="text_6">
      <!-- 0.5 -->
      <g transform="translate(25.22 144.012461)scale(0.18 -0.18)">
       <use xlink:href="#TimesNewRomanPSMT-30"/>
       <use xlink:href="#TimesNewRomanPSMT-2e" x="50"/>
       <use xlink:href="#TimesNewRomanPSMT-35" x="75"/>
      </g>
     </g>
    </g>
    <g id="ytick_3">
     <g id="line2d_6">
      <g>
       <use xlink:href="#m6a8718e173" x="54.72" y="113.674551" style="stroke: #000000; stroke-width: 0.8"/>
      </g>
     </g>
     <g id="text_7">
      <!-- 1.0 -->
      <g transform="translate(25.22 119.923926)scale(0.18 -0.18)">
       <use xlink:href="#TimesNewRomanPSMT-31"/>
       <use xlink:href="#TimesNewRomanPSMT-2e" x="50"/>
       <use xlink:href="#TimesNewRomanPSMT-30" x="75"/>
      </g>
     </g>
    </g>
    <g id="ytick_4">
     <g id="line2d_7">
      <g>
       <use xlink:href="#m6a8718e173" x="54.72" y="89.586016" style="stroke: #000000; stroke-width: 0.8"/>
      </g>
     </g>
     <g id="text_8">
      <!-- 1.5 -->
      <g transform="translate(25.22 95.835391)scale(0.18 -0.18)">
       <use xlink:href="#TimesNewRomanPSMT-31"/>
       <use xlink:href="#TimesNewRomanPSMT-2e" x="50"/>
       <use xlink:href="#TimesNewRomanPSMT-35" x="75"/>
      </g>
     </g>
    </g>
    <g id="ytick_5">
     <g id="line2d_8">
      <g>
       <use xlink:href="#m6a8718e173" x="54.72" y="65.497482" style="stroke: #000000; stroke-width: 0.8"/>
      </g>
     </g>
     <g id="text_9">
      <!-- 2.0 -->
      <g transform="translate(25.22 71.746857)scale(0.18 -0.18)">
       <defs>
        <path id="TimesNewRomanPSMT-32" d="M 2934 816 
L 2638 0 
L 138 0 
L 138 116 
Q 1241 1122 1691 1759 
Q 2141 2397 2141 2925 
Q 2141 3328 1894 3587 
Q 1647 3847 1303 3847 
Q 991 3847 742 3664 
Q 494 3481 375 3128 
L 259 3128 
Q 338 3706 661 4015 
Q 984 4325 1469 4325 
Q 1984 4325 2329 3994 
Q 2675 3663 2675 3213 
Q 2675 2891 2525 2569 
Q 2294 2063 1775 1497 
Q 997 647 803 472 
L 1909 472 
Q 2247 472 2383 497 
Q 2519 522 2628 598 
Q 2738 675 2819 816 
L 2934 816 
z
" transform="scale(0.015625)"/>
       </defs>
       <use xlink:href="#TimesNewRomanPSMT-32"/>
       <use xlink:href="#TimesNewRomanPSMT-2e" x="50"/>
       <use xlink:href="#TimesNewRomanPSMT-30" x="75"/>
      </g>
     </g>
    </g>
    <g id="ytick_6">
     <g id="line2d_9">
      <g>
       <use xlink:href="#m6a8718e173" x="54.72" y="41.408947" style="stroke: #000000; stroke-width: 0.8"/>
      </g>
     </g>
     <g id="text_10">
      <!-- 2.5 -->
      <g transform="translate(25.22 47.658322)scale(0.18 -0.18)">
       <use xlink:href="#TimesNewRomanPSMT-32"/>
       <use xlink:href="#TimesNewRomanPSMT-2e" x="50"/>
       <use xlink:href="#TimesNewRomanPSMT-35" x="75"/>
      </g>
     </g>
    </g>
    <g id="text_11">
     <!-- Loss -->
     <g transform="translate(17.369687 112.042969)rotate(-90)scale(0.18 -0.18)">
      <defs>
       <path id="TimesNewRomanPSMT-4c" d="M 3669 1172 
L 3772 1150 
L 3409 0 
L 128 0 
L 128 116 
L 288 116 
Q 556 116 672 291 
Q 738 391 738 753 
L 738 3488 
Q 738 3884 650 3984 
Q 528 4122 288 4122 
L 128 4122 
L 128 4238 
L 2047 4238 
L 2047 4122 
Q 1709 4125 1573 4059 
Q 1438 3994 1388 3894 
Q 1338 3794 1338 3416 
L 1338 753 
Q 1338 494 1388 397 
Q 1425 331 1503 300 
Q 1581 269 1991 269 
L 2300 269 
Q 2788 269 2984 341 
Q 3181 413 3343 595 
Q 3506 778 3669 1172 
z
" transform="scale(0.015625)"/>
       <path id="TimesNewRomanPSMT-73" d="M 2050 2947 
L 2050 1972 
L 1947 1972 
Q 1828 2431 1642 2597 
Q 1456 2763 1169 2763 
Q 950 2763 815 2647 
Q 681 2531 681 2391 
Q 681 2216 781 2091 
Q 878 1963 1175 1819 
L 1631 1597 
Q 2266 1288 2266 781 
Q 2266 391 1970 151 
Q 1675 -88 1309 -88 
Q 1047 -88 709 6 
Q 606 38 541 38 
Q 469 38 428 -44 
L 325 -44 
L 325 978 
L 428 978 
Q 516 541 762 319 
Q 1009 97 1316 97 
Q 1531 97 1667 223 
Q 1803 350 1803 528 
Q 1803 744 1651 891 
Q 1500 1038 1047 1263 
Q 594 1488 453 1669 
Q 313 1847 313 2119 
Q 313 2472 555 2709 
Q 797 2947 1181 2947 
Q 1350 2947 1591 2875 
Q 1750 2828 1803 2828 
Q 1853 2828 1881 2850 
Q 1909 2872 1947 2947 
L 2050 2947 
z
" transform="scale(0.015625)"/>
      </defs>
      <use xlink:href="#TimesNewRomanPSMT-4c"/>
      <use xlink:href="#TimesNewRomanPSMT-6f" x="61.083984"/>
      <use xlink:href="#TimesNewRomanPSMT-73" x="111.083984"/>
      <use xlink:href="#TimesNewRomanPSMT-73" x="150"/>
     </g>
    </g>
   </g>
   <g id="line2d_10">
    <path d="M 64.014545 28.276364 
L 76.667781 28.336759 
L 77.226011 28.673112 
L 77.412088 28.931198 
L 77.598165 28.956479 
L 77.784242 28.802391 
L 78.52855 29.663198 
L 78.714627 29.647542 
L 79.272858 30.787558 
L 81.133628 37.420752 
L 81.505782 39.65493 
L 82.994398 47.258637 
L 83.366552 49.825792 
L 83.552629 50.342228 
L 84.11086 53.90288 
L 84.483014 57.859179 
L 84.669091 58.436308 
L 86.157707 67.803479 
L 86.529861 71.798704 
L 86.715938 71.940479 
L 86.902015 72.679922 
L 87.088092 72.882989 
L 87.460246 73.917313 
L 87.646323 76.807854 
L 87.8324 77.375496 
L 88.204554 80.232256 
L 88.762785 81.908292 
L 89.134939 84.234735 
L 89.321016 85.133992 
L 89.507093 86.826839 
L 89.69317 87.431926 
L 89.879247 88.45512 
L 90.065324 90.243429 
L 90.2514 90.435969 
L 90.437477 91.620816 
L 90.809631 94.751823 
L 90.995708 93.802123 
L 91.740016 97.921119 
L 92.11217 102.081184 
L 92.484324 102.408148 
L 92.670401 104.142242 
L 93.228632 105.462277 
L 93.414709 105.412553 
L 93.600786 104.613841 
L 93.97294 105.935576 
L 94.531171 109.54157 
L 94.717248 112.639284 
L 94.903325 113.823793 
L 95.089402 114.152399 
L 95.461556 116.777767 
L 95.647633 117.095871 
L 95.83371 117.976535 
L 96.019787 119.737263 
L 96.205864 119.897126 
L 96.391941 120.229483 
L 96.578018 119.750056 
L 96.764095 120.388812 
L 96.950172 120.468576 
L 97.136249 120.239961 
L 97.322326 122.440812 
L 97.508403 121.997826 
L 97.69448 122.066396 
L 97.880557 123.871389 
L 98.066634 123.725312 
L 98.252711 124.086938 
L 98.438788 123.472671 
L 98.624865 124.663792 
L 98.810942 124.657021 
L 98.997019 123.848454 
L 99.369173 127.25983 
L 99.55525 126.939305 
L 99.741327 126.903131 
L 99.927404 127.065077 
L 100.113481 128.518985 
L 100.299558 128.966121 
L 100.671712 130.595724 
L 100.857789 130.965818 
L 101.043866 132.14612 
L 101.229943 131.503728 
L 101.41602 132.192036 
L 101.602097 132.155728 
L 101.788174 131.942361 
L 101.974251 131.180719 
L 102.160328 131.841009 
L 102.346405 131.692072 
L 102.718559 133.47071 
L 103.090713 136.026123 
L 103.27679 136.11397 
L 103.648943 137.583247 
L 103.83502 137.035514 
L 104.021097 137.782213 
L 104.207174 136.689299 
L 104.393251 136.348684 
L 104.765405 137.864166 
L 104.951482 137.640756 
L 105.137559 136.751676 
L 105.323636 134.758885 
L 105.509713 135.129993 
L 105.881867 137.7693 
L 106.067944 136.298659 
L 106.254021 136.329856 
L 106.440098 137.035457 
L 106.626175 135.881611 
L 106.812252 136.057478 
L 106.998329 138.119086 
L 107.55656 139.272844 
L 107.742637 139.121509 
L 107.928714 139.825647 
L 108.114791 139.950116 
L 108.300868 140.246792 
L 108.486945 140.030682 
L 108.673022 143.030214 
L 108.859099 142.449555 
L 109.231253 142.707114 
L 109.41733 143.024227 
L 109.603407 142.202794 
L 109.975561 145.193715 
L 110.161638 144.73413 
L 110.347715 145.758732 
L 110.533792 145.637552 
L 110.719869 146.110127 
L 110.905946 145.82629 
L 111.092023 145.30953 
L 111.2781 147.410156 
L 111.650254 148.202219 
L 112.022408 148.234747 
L 112.208485 147.476601 
L 112.580639 148.508755 
L 112.766716 148.189032 
L 112.952793 147.013159 
L 113.324947 148.921089 
L 113.511024 148.922686 
L 113.697101 148.68015 
L 114.441409 151.252077 
L 114.627486 150.533959 
L 114.813563 151.01497 
L 115.185717 151.289939 
L 115.371794 151.28452 
L 115.557871 151.41898 
L 115.930025 152.821154 
L 116.116102 153.145126 
L 116.302179 153.07963 
L 116.674333 151.846986 
L 117.046486 152.301171 
L 117.232563 152.838163 
L 117.41864 152.325303 
L 117.604717 152.6816 
L 117.790794 154.031195 
L 117.976871 153.468651 
L 118.162948 153.329763 
L 118.535102 154.157846 
L 118.721179 154.061393 
L 118.907256 153.783616 
L 119.093333 153.754058 
L 119.27941 154.053517 
L 119.465487 153.088799 
L 119.651564 153.142733 
L 119.837641 152.883838 
L 120.023718 152.846215 
L 120.209795 152.672512 
L 120.395872 152.236939 
L 120.581949 153.983395 
L 120.768026 153.517007 
L 120.954103 153.402065 
L 121.14018 153.602646 
L 121.326257 153.268323 
L 121.512334 153.538074 
L 121.698411 154.160412 
L 121.884488 154.378774 
L 122.070565 154.13031 
L 122.442719 155.64462 
L 122.628796 155.625805 
L 122.814873 155.745659 
L 123.00095 156.106369 
L 123.187027 155.611125 
L 123.373104 155.766267 
L 123.745258 155.039773 
L 123.931335 155.124657 
L 124.117412 155.075457 
L 124.303489 154.889526 
L 124.489566 155.464576 
L 124.86172 152.775006 
L 125.419951 154.764272 
L 125.606028 154.040616 
L 125.792105 154.265046 
L 125.978182 154.069457 
L 126.164259 154.644078 
L 126.350336 153.876181 
L 126.536413 153.795411 
L 126.72249 154.129935 
L 126.908567 155.105872 
L 127.094644 153.876444 
L 127.280721 154.763589 
L 127.466798 154.019197 
L 127.838952 154.490403 
L 128.211106 156.411411 
L 128.397183 156.546215 
L 128.58326 156.361506 
L 128.769337 155.460886 
L 128.955414 155.38635 
L 129.327568 157.416797 
L 129.513645 155.921499 
L 129.699722 156.533329 
L 129.885799 156.040401 
L 130.071876 156.282932 
L 130.257952 156.925902 
L 130.630106 157.075393 
L 130.816183 156.901898 
L 131.00226 156.559131 
L 131.188337 157.393268 
L 131.374414 157.593267 
L 131.560491 156.832075 
L 131.746568 157.054167 
L 131.932645 157.049384 
L 132.118722 157.298334 
L 132.304799 157.353969 
L 133.049107 158.932481 
L 133.421261 158.726312 
L 133.979492 159.177119 
L 134.165569 159.17822 
L 134.351646 159.010518 
L 134.537723 159.474351 
L 134.7238 159.620178 
L 134.909877 159.577074 
L 135.095954 158.625371 
L 135.282031 158.826403 
L 135.654185 158.699836 
L 136.026339 159.998662 
L 136.212416 159.813708 
L 136.398493 159.938495 
L 136.58457 159.866369 
L 136.770647 159.324384 
L 137.328878 160.136728 
L 137.701032 159.091406 
L 138.073186 159.430775 
L 138.259263 159.77778 
L 138.44534 159.662671 
L 138.631417 159.041445 
L 139.003571 159.716596 
L 139.375725 158.411261 
L 139.747879 159.761809 
L 140.120033 159.576191 
L 140.30611 159.782212 
L 140.492187 160.30127 
L 140.678264 159.752864 
L 140.864341 159.783033 
L 141.050418 160.195755 
L 141.236495 159.623487 
L 141.422572 160.034421 
L 141.794726 159.707511 
L 141.980803 159.777377 
L 142.16688 160.186729 
L 142.352957 160.21542 
L 142.539034 160.474868 
L 142.725111 160.145511 
L 142.911188 160.211303 
L 143.283342 160.634107 
L 143.655495 160.589257 
L 143.841572 160.449036 
L 144.027649 160.093883 
L 144.399803 160.183592 
L 144.58588 160.657726 
L 144.771957 160.350208 
L 145.144111 160.706549 
L 145.516265 160.712898 
L 145.702342 160.80369 
L 145.888419 160.630819 
L 146.074496 160.703172 
L 146.260573 160.513341 
L 146.44665 160.784606 
L 146.632727 160.612517 
L 147.004881 160.86064 
L 147.190958 160.404322 
L 147.377035 160.835718 
L 147.749189 160.836353 
L 147.935266 160.632386 
L 148.121343 160.739184 
L 148.30742 160.169582 
L 148.493497 160.854813 
L 148.679574 160.929023 
L 148.865651 160.586113 
L 149.051728 160.621029 
L 149.423882 161.020842 
L 149.609959 160.967455 
L 149.796036 161.060037 
L 150.16819 160.510234 
L 150.726421 161.135725 
L 150.912498 161.133385 
L 151.098575 160.857997 
L 151.470729 160.924543 
L 151.656806 160.805095 
L 151.842883 161.057571 
L 152.02896 160.966128 
L 152.215037 161.089465 
L 152.587191 161.028783 
L 152.773268 160.907593 
L 153.145422 161.160873 
L 153.331499 161.063727 
L 153.517576 160.67808 
L 153.703653 160.680547 
L 153.88973 160.886521 
L 154.261884 160.900117 
L 155.192269 161.241438 
L 155.378346 161.021301 
L 155.564423 161.102603 
L 155.7505 161.008785 
L 156.122654 161.263942 
L 156.308731 161.203026 
L 156.680885 160.917361 
L 156.866962 160.802369 
L 157.239115 161.189918 
L 157.425192 161.120352 
L 157.611269 161.287807 
L 157.983423 161.263168 
L 158.1695 160.673121 
L 158.541654 161.13369 
L 159.285962 161.25706 
L 159.472039 161.093505 
L 159.658116 160.750057 
L 159.844193 160.846164 
L 160.03027 161.237016 
L 160.216347 161.120103 
L 160.588501 161.291975 
L 160.774578 161.016476 
L 160.960655 161.127234 
L 161.146732 161.379145 
L 161.332809 161.349693 
L 161.518886 161.054675 
L 161.89104 161.143344 
L 162.077117 161.336842 
L 162.263194 161.208493 
L 162.449271 160.776268 
L 162.635348 161.170142 
L 163.007502 161.306208 
L 163.379656 161.299145 
L 163.565733 160.897785 
L 164.123964 161.14005 
L 164.310041 160.954638 
L 164.496118 160.995436 
L 164.682195 160.697493 
L 164.868272 160.685221 
L 165.054349 160.884679 
L 165.240426 160.565445 
L 165.426503 161.017406 
L 165.61258 161.125582 
L 165.798657 160.376297 
L 165.984734 160.46661 
L 166.356888 160.206991 
L 166.542965 160.480681 
L 166.915119 160.572317 
L 167.101196 160.284682 
L 167.287273 160.440135 
L 167.659427 161.066004 
L 167.845504 159.908746 
L 168.217658 159.965988 
L 168.403735 160.756181 
L 168.589812 160.876714 
L 168.775889 160.70866 
L 168.961966 160.17801 
L 169.148043 160.164342 
L 169.33412 160.873322 
L 169.520197 160.857695 
L 169.892351 161.208575 
L 170.078428 161.227726 
L 170.450581 160.926332 
L 170.636658 160.228894 
L 170.822735 160.991357 
L 171.008812 160.976879 
L 171.194889 161.259418 
L 171.567043 161.338378 
L 172.497428 161.407525 
L 172.683505 161.438187 
L 173.055659 161.178376 
L 173.427813 161.186666 
L 173.61389 160.888581 
L 173.986044 161.361687 
L 174.172121 161.362097 
L 174.358198 160.96141 
L 174.544275 161.321163 
L 174.730352 160.662589 
L 174.916429 161.40852 
L 175.47466 161.19826 
L 175.660737 160.850892 
L 175.846814 161.289318 
L 176.032891 161.289776 
L 176.218968 161.164398 
L 176.405045 161.469212 
L 176.777199 161.557416 
L 176.963276 161.052635 
L 177.149353 161.568179 
L 177.521507 161.496904 
L 178.079738 161.410423 
L 178.265815 161.310145 
L 179.010123 161.537468 
L 179.1962 161.283337 
L 179.382277 161.563709 
L 179.940508 161.241094 
L 180.126585 161.499301 
L 180.312662 160.443267 
L 180.498739 161.498415 
L 180.684816 161.509191 
L 180.870893 161.35828 
L 181.429124 161.615404 
L 181.615201 161.622976 
L 181.801278 161.363447 
L 181.987355 161.590226 
L 182.731663 161.560588 
L 182.91774 161.589217 
L 183.103817 161.012605 
L 183.289894 161.608562 
L 186.267125 161.604404 
L 186.453202 161.242167 
L 186.639279 161.444327 
L 186.825356 161.307776 
L 187.011433 161.537794 
L 187.19751 161.481662 
L 187.755741 161.589378 
L 188.686126 161.606696 
L 188.872203 161.254856 
L 189.05828 161.642391 
L 189.430434 161.631353 
L 189.616511 161.197928 
L 189.802588 161.614344 
L 190.174742 161.535016 
L 190.360819 161.610129 
L 190.546896 161.558193 
L 190.732973 161.651123 
L 191.105127 161.531493 
L 191.477281 161.670676 
L 191.663358 161.638539 
L 191.849435 161.421028 
L 193.524128 161.601184 
L 193.710205 161.469192 
L 193.896282 161.138074 
L 194.268436 161.240393 
L 194.454513 161.538881 
L 194.64059 161.276829 
L 194.826667 161.25777 
L 195.012744 161.067763 
L 195.198821 161.544741 
L 195.384898 161.600108 
L 196.129206 161.315425 
L 196.315283 161.042657 
L 196.50136 161.457174 
L 196.687437 161.397372 
L 197.245667 161.545406 
L 197.617821 161.507563 
L 197.989975 161.597416 
L 198.362129 161.5831 
L 198.548206 161.486844 
L 199.106437 161.601822 
L 200.036822 161.653596 
L 200.222899 161.448029 
L 200.408976 161.454741 
L 200.595053 161.655806 
L 201.339361 161.596577 
L 201.525438 161.236852 
L 201.711515 161.680899 
L 203.944439 161.709514 
L 205.433055 161.715563 
L 205.619132 160.932369 
L 205.805209 161.460904 
L 205.991286 161.331654 
L 206.177363 161.655373 
L 206.735594 161.668535 
L 206.921671 161.132534 
L 207.107748 161.676246 
L 207.293825 161.667516 
L 207.479902 161.468112 
L 207.665979 161.514837 
L 207.852056 161.691077 
L 208.22421 161.668144 
L 208.410287 161.279059 
L 208.596364 161.696507 
L 208.782441 161.287195 
L 208.968518 161.589072 
L 209.154595 161.301877 
L 209.340672 161.657922 
L 210.271057 161.634824 
L 210.457133 161.426998 
L 210.64321 161.64164 
L 211.387518 161.531767 
L 211.945749 161.634354 
L 212.876134 161.664344 
L 213.062211 161.002376 
L 213.248288 161.311215 
L 213.620442 161.277205 
L 213.806519 161.439655 
L 214.36475 161.396431 
L 214.550827 161.49786 
L 214.736904 161.380025 
L 215.295135 161.645996 
L 215.481212 161.533157 
L 215.667289 161.650019 
L 216.039443 161.56443 
L 216.22552 161.218855 
L 216.411597 161.500008 
L 216.597674 161.444346 
L 216.783751 161.667087 
L 216.969828 161.52539 
L 217.341982 161.532809 
L 217.714136 161.573616 
L 218.08629 161.596254 
L 219.016675 161.525144 
L 219.202752 161.665767 
L 221.80783 161.637306 
L 221.993907 160.886819 
L 222.179984 161.718971 
L 225.157215 161.753025 
L 230.181294 161.759951 
L 230.553448 161.782428 
L 235.763604 161.793828 
L 237.252219 161.783099 
L 244.509222 161.794174 
L 249.905455 161.801509 
L 249.905455 161.801509 
" clip-path="url(#p5accd0c534)" style="fill: none; stroke: #1f77b4; stroke-width: 1.5; stroke-linecap: square"/>
   </g>
   <g id="line2d_11">
    <path d="M 64.014545 28.276364 
L 76.667781 28.336759 
L 77.226011 28.673112 
L 77.412088 28.931198 
L 77.598165 28.956479 
L 77.784242 28.802391 
L 78.52855 29.663198 
L 78.714627 29.647542 
L 79.272858 30.787558 
L 81.133628 37.420752 
L 81.505782 39.65493 
L 82.994398 47.258637 
L 83.366552 49.825792 
L 83.552629 50.342228 
L 84.11086 53.90288 
L 84.483014 57.859179 
L 84.669091 58.436308 
L 86.157707 67.803479 
L 86.529861 71.798704 
L 86.715938 71.940479 
L 86.902015 72.679922 
L 87.088092 72.882989 
L 87.460246 73.917313 
L 87.646323 76.807854 
L 87.8324 77.375496 
L 88.204554 80.232256 
L 88.762785 81.908292 
L 89.134939 84.234735 
L 89.321016 85.133992 
L 89.507093 86.826839 
L 89.69317 87.431926 
L 89.879247 88.45512 
L 90.065324 90.243429 
L 90.2514 90.435969 
L 90.437477 91.620816 
L 90.809631 94.751823 
L 90.995708 93.802123 
L 91.740016 97.921119 
L 92.11217 102.081184 
L 92.484324 102.408148 
L 92.670401 104.142242 
L 93.228632 105.462277 
L 93.414709 105.412553 
L 93.600786 104.613841 
L 93.97294 105.935576 
L 94.531171 109.54157 
L 94.717248 112.639284 
L 94.903325 113.823793 
L 95.089402 114.152399 
L 95.461556 116.777767 
L 95.647633 117.095871 
L 95.83371 117.976535 
L 96.019787 119.737263 
L 96.205864 119.897126 
L 96.391941 120.229483 
L 96.578018 119.750056 
L 96.764095 120.388812 
L 96.950172 120.468576 
L 97.136249 120.239961 
L 97.322326 122.440812 
L 97.508403 121.997826 
L 97.69448 122.066396 
L 97.880557 123.871389 
L 98.066634 123.725312 
L 98.252711 124.086938 
L 98.438788 123.472671 
L 98.624865 124.663792 
L 98.810942 124.657021 
L 98.997019 123.848454 
L 99.369173 127.25983 
L 99.55525 126.939305 
L 99.741327 126.903131 
L 99.927404 127.065077 
L 100.113481 128.518985 
L 100.299558 128.966121 
L 100.671712 130.595724 
L 100.857789 130.965818 
L 101.043866 132.14612 
L 101.229943 131.503728 
L 101.41602 132.192036 
L 101.602097 132.155728 
L 101.788174 131.942361 
L 101.974251 131.180719 
L 102.160328 131.841009 
L 102.346405 131.692072 
L 102.718559 133.47071 
L 103.090713 136.026123 
L 103.27679 136.11397 
L 103.648943 137.583247 
L 103.83502 137.035514 
L 104.021097 137.782213 
L 104.207174 136.689299 
L 104.393251 136.348684 
L 104.765405 137.864166 
L 104.951482 137.640756 
L 105.137559 136.751676 
L 105.323636 134.758885 
L 105.509713 135.129993 
L 105.881867 137.7693 
L 106.067944 136.298659 
L 106.254021 136.329856 
L 106.440098 137.035457 
L 106.626175 135.881611 
L 106.812252 136.057478 
L 106.998329 138.119086 
L 107.55656 139.272844 
L 107.742637 139.121509 
L 107.928714 139.825647 
L 108.114791 139.950116 
L 108.300868 140.246792 
L 108.486945 140.030682 
L 108.673022 143.030214 
L 108.859099 142.449555 
L 109.231253 142.707114 
L 109.41733 143.024227 
L 109.603407 142.202794 
L 109.975561 145.193715 
L 110.161638 144.73413 
L 110.347715 145.758732 
L 110.533792 145.637552 
L 110.719869 146.110127 
L 110.905946 145.82629 
L 111.092023 145.30953 
L 111.2781 147.410156 
L 111.650254 148.202219 
L 112.022408 148.234747 
L 112.208485 147.476601 
L 112.580639 148.508755 
L 112.766716 148.189032 
L 112.952793 147.013159 
L 113.324947 148.921089 
L 113.511024 148.922686 
L 113.697101 148.68015 
L 114.441409 151.252077 
L 114.627486 150.533959 
L 114.813563 151.01497 
L 115.185717 151.289939 
L 115.371794 151.28452 
L 115.557871 151.41898 
L 115.930025 152.821154 
L 116.116102 153.145126 
L 116.302179 153.07963 
L 116.674333 151.846986 
L 117.046486 152.301171 
L 117.232563 152.838163 
L 117.41864 152.325303 
L 117.604717 152.6816 
L 117.790794 154.031195 
L 117.976871 153.468651 
L 118.162948 153.329763 
L 118.535102 154.157846 
L 118.721179 154.061393 
L 118.907256 153.783616 
L 119.093333 153.754058 
L 119.27941 154.053517 
L 119.465487 153.088799 
L 119.651564 153.142733 
L 119.837641 152.883838 
L 120.023718 152.846215 
L 120.209795 152.672512 
L 120.395872 152.236939 
L 120.581949 153.983395 
L 120.768026 153.517007 
L 120.954103 153.402065 
L 121.14018 153.602646 
L 121.326257 153.268323 
L 121.512334 153.538074 
L 121.698411 154.160412 
L 121.884488 154.378774 
L 122.070565 154.13031 
L 122.442719 155.64462 
L 122.628796 155.625805 
L 122.814873 155.745659 
L 123.00095 156.106369 
L 123.187027 155.611125 
L 123.373104 155.766267 
L 123.745258 155.039773 
L 123.931335 155.124657 
L 124.117412 155.075457 
L 124.303489 154.889526 
L 124.489566 155.464576 
L 124.86172 152.775006 
L 125.419951 154.764272 
L 125.606028 154.040616 
L 125.792105 154.265046 
L 125.978182 154.069457 
L 126.164259 154.644078 
L 126.350336 153.876181 
L 126.536413 153.795411 
L 126.72249 154.129935 
L 126.908567 155.105872 
L 127.094644 153.876444 
L 127.280721 154.763589 
L 127.466798 154.019197 
L 127.838952 154.490403 
L 128.211106 156.411411 
L 128.397183 156.546215 
L 128.58326 156.361506 
L 128.769337 155.460886 
L 128.955414 155.38635 
L 129.327568 157.416797 
L 129.513645 155.921499 
L 129.699722 156.533329 
L 129.885799 156.040401 
L 130.071876 156.282932 
L 130.257952 156.925902 
L 130.630106 157.075393 
L 130.816183 156.901898 
L 131.00226 156.559131 
L 131.188337 157.393268 
L 131.374414 157.593267 
L 131.560491 156.832075 
L 131.746568 157.054167 
L 131.932645 157.049384 
L 132.118722 157.298334 
L 132.304799 157.353969 
L 133.049107 158.932481 
L 133.421261 158.726312 
L 133.979492 159.177119 
L 134.165569 159.17822 
L 134.351646 159.010518 
L 134.537723 159.474351 
L 134.7238 159.620178 
L 134.909877 159.577074 
L 135.095954 158.625371 
L 135.282031 158.826403 
L 135.654185 158.699836 
L 136.026339 159.998662 
L 136.212416 159.813708 
L 136.398493 159.938495 
L 136.58457 159.866369 
L 136.770647 159.324384 
L 137.328878 160.136728 
L 137.701032 159.091406 
L 138.073186 159.430775 
L 138.259263 159.77778 
L 138.44534 159.662671 
L 138.631417 159.041445 
L 139.003571 159.716596 
L 139.375725 158.411261 
L 139.747879 159.761809 
L 140.120033 159.576191 
L 140.30611 159.782212 
L 140.492187 160.30127 
L 140.678264 159.752864 
L 140.864341 159.783033 
L 141.050418 160.195755 
L 141.236495 159.623487 
L 141.422572 160.034421 
L 141.794726 159.707511 
L 141.980803 159.777377 
L 142.16688 160.186729 
L 142.352957 160.21542 
L 142.539034 160.474868 
L 142.725111 160.145511 
L 142.911188 160.211303 
L 143.283342 160.634107 
L 143.655495 160.589257 
L 143.841572 160.449036 
L 144.027649 160.093883 
L 144.399803 160.183592 
L 144.58588 160.657726 
L 144.771957 160.350208 
L 145.144111 160.706549 
L 145.516265 160.712898 
L 145.702342 160.80369 
L 145.888419 160.630819 
L 146.074496 160.703172 
L 146.260573 160.513341 
L 146.44665 160.784606 
L 146.632727 160.612517 
L 147.004881 160.86064 
L 147.190958 160.404322 
L 147.377035 160.835718 
L 147.749189 160.836353 
L 147.935266 160.632386 
L 148.121343 160.739184 
L 148.30742 160.169582 
L 148.493497 160.854813 
L 148.679574 160.929023 
L 148.865651 160.586113 
L 149.051728 160.621029 
L 149.423882 161.020842 
L 149.609959 160.967455 
L 149.796036 161.060037 
L 150.16819 160.510234 
L 150.726421 161.135725 
L 150.912498 161.133385 
L 151.098575 160.857997 
L 151.470729 160.924543 
L 151.656806 160.805095 
L 151.842883 161.057571 
L 152.02896 160.966128 
L 152.215037 161.089465 
L 152.587191 161.028783 
L 152.773268 160.907593 
L 153.145422 161.160873 
L 153.331499 161.063727 
L 153.517576 160.67808 
L 153.703653 160.680547 
L 153.88973 160.886521 
L 154.261884 160.900117 
L 155.192269 161.241438 
L 155.378346 161.021301 
L 155.564423 161.102603 
L 155.7505 161.008785 
L 156.122654 161.263942 
L 156.308731 161.203026 
L 156.680885 160.917361 
L 156.866962 160.802369 
L 157.239115 161.189918 
L 157.425192 161.120352 
L 157.611269 161.287807 
L 157.983423 161.263168 
L 158.1695 160.673121 
L 158.541654 161.13369 
L 159.285962 161.25706 
L 159.472039 161.093505 
L 159.658116 160.750057 
L 159.844193 160.846164 
L 160.03027 161.237016 
L 160.216347 161.120103 
L 160.588501 161.291975 
L 160.774578 161.016476 
L 160.960655 161.127234 
L 161.146732 161.379145 
L 161.332809 161.349693 
L 161.518886 161.054675 
L 161.89104 161.143344 
L 162.077117 161.336842 
L 162.263194 161.208493 
L 162.449271 160.776268 
L 162.635348 161.170142 
L 163.007502 161.306208 
L 163.379656 161.299145 
L 163.565733 160.897785 
L 164.123964 161.14005 
L 164.310041 160.954638 
L 164.496118 160.995436 
L 164.682195 160.697493 
L 164.868272 160.685221 
L 165.054349 160.884679 
L 165.240426 160.565445 
L 165.426503 161.017406 
L 165.61258 161.125582 
L 165.798657 160.376297 
L 165.984734 160.46661 
L 166.356888 160.206991 
L 166.542965 160.480681 
L 166.915119 160.572317 
L 167.101196 160.284682 
L 167.287273 160.440135 
L 167.659427 161.066004 
L 167.845504 159.908746 
L 168.217658 159.965988 
L 168.403735 160.756181 
L 168.589812 160.876714 
L 168.775889 160.70866 
L 168.961966 160.17801 
L 169.148043 160.164342 
L 169.33412 160.873322 
L 169.520197 160.857695 
L 169.892351 161.208575 
L 170.078428 161.227726 
L 170.450581 160.926332 
L 170.636658 160.228894 
L 170.822735 160.991357 
L 171.008812 160.976879 
L 171.194889 161.259418 
L 171.567043 161.338378 
L 172.497428 161.407525 
L 172.683505 161.438187 
L 173.055659 161.178376 
L 173.427813 161.186666 
L 173.61389 160.888581 
L 173.986044 161.361687 
L 174.172121 161.362097 
L 174.358198 160.96141 
L 174.544275 161.321163 
L 174.730352 160.662589 
L 174.916429 161.40852 
L 175.47466 161.19826 
L 175.660737 160.850892 
L 175.846814 161.289318 
L 176.032891 161.289776 
L 176.218968 161.164398 
L 176.405045 161.469212 
L 176.777199 161.557416 
L 176.963276 161.052635 
L 177.149353 161.568179 
L 177.521507 161.496904 
L 178.079738 161.410423 
L 178.265815 161.310145 
L 179.010123 161.537468 
L 179.1962 161.283337 
L 179.382277 161.563709 
L 179.940508 161.241094 
L 180.126585 161.499301 
L 180.312662 160.443267 
L 180.498739 161.498415 
L 180.684816 161.509191 
L 180.870893 161.35828 
L 181.429124 161.615404 
L 181.615201 161.622976 
L 181.801278 161.363447 
L 181.987355 161.590226 
L 182.731663 161.560588 
L 182.91774 161.589217 
L 183.103817 161.012605 
L 183.289894 161.608562 
L 186.267125 161.604404 
L 186.453202 161.242167 
L 186.639279 161.444327 
L 186.825356 161.307776 
L 187.011433 161.537794 
L 187.19751 161.481662 
L 187.755741 161.589378 
L 188.686126 161.606696 
L 188.872203 161.254856 
L 189.05828 161.642391 
L 189.430434 161.631353 
L 189.616511 161.197928 
L 189.802588 161.614344 
L 190.174742 161.535016 
L 190.360819 161.610129 
L 190.546896 161.558193 
L 190.732973 161.651123 
L 191.105127 161.531493 
L 191.477281 161.670676 
L 191.663358 161.638539 
L 191.849435 161.421028 
L 193.524128 161.601184 
L 193.710205 161.469192 
L 193.896282 161.138074 
L 194.268436 161.240393 
L 194.454513 161.538881 
L 194.64059 161.276829 
L 194.826667 161.25777 
L 195.012744 161.067763 
L 195.198821 161.544741 
L 195.384898 161.600108 
L 196.129206 161.315425 
L 196.315283 161.042657 
L 196.50136 161.457174 
L 196.687437 161.397372 
L 197.245667 161.545406 
L 197.617821 161.507563 
L 197.989975 161.597416 
L 198.362129 161.5831 
L 198.548206 161.486844 
L 199.106437 161.601822 
L 200.036822 161.653596 
L 200.222899 161.448029 
L 200.408976 161.454741 
L 200.595053 161.655806 
L 201.339361 161.596577 
L 201.525438 161.236852 
L 201.711515 161.680899 
L 203.944439 161.709514 
L 205.433055 161.715563 
L 205.619132 160.932369 
L 205.805209 161.460904 
L 205.991286 161.331654 
L 206.177363 161.655373 
L 206.735594 161.668535 
L 206.921671 161.132534 
L 207.107748 161.676246 
L 207.293825 161.667516 
L 207.479902 161.468112 
L 207.665979 161.514837 
L 207.852056 161.691077 
L 208.22421 161.668144 
L 208.410287 161.279059 
L 208.596364 161.696507 
L 208.782441 161.287195 
L 208.968518 161.589072 
L 209.154595 161.301877 
L 209.340672 161.657922 
L 210.271057 161.634824 
L 210.457133 161.426998 
L 210.64321 161.64164 
L 211.387518 161.531767 
L 211.945749 161.634354 
L 212.876134 161.664344 
L 213.062211 161.002376 
L 213.248288 161.311215 
L 213.620442 161.277205 
L 213.806519 161.439655 
L 214.36475 161.396431 
L 214.550827 161.49786 
L 214.736904 161.380025 
L 215.295135 161.645996 
L 215.481212 161.533157 
L 215.667289 161.650019 
L 216.039443 161.56443 
L 216.22552 161.218855 
L 216.411597 161.500008 
L 216.597674 161.444346 
L 216.783751 161.667087 
L 216.969828 161.52539 
L 217.341982 161.532809 
L 217.714136 161.573616 
L 218.08629 161.596254 
L 219.016675 161.525144 
L 219.202752 161.665767 
L 221.80783 161.637306 
L 221.993907 160.886819 
L 222.179984 161.718971 
L 225.157215 161.753025 
L 230.181294 161.759951 
L 230.553448 161.782428 
L 235.763604 161.793828 
L 237.252219 161.783099 
L 244.509222 161.794174 
L 249.905455 161.801509 
L 249.905455 161.801509 
" clip-path="url(#p5accd0c534)" style="fill: none; stroke: #ff7f0e; stroke-width: 1.5; stroke-linecap: square"/>
   </g>
   <g id="patch_3">
    <path d="M 54.72 168.48 
L 54.72 21.6 
" style="fill: none; stroke: #000000; stroke-width: 0.8; stroke-linejoin: miter; stroke-linecap: square"/>
   </g>
   <g id="patch_4">
    <path d="M 259.2 168.48 
L 259.2 21.6 
" style="fill: none; stroke: #000000; stroke-width: 0.8; stroke-linejoin: miter; stroke-linecap: square"/>
   </g>
   <g id="patch_5">
    <path d="M 54.72 168.48 
L 259.2 168.48 
" style="fill: none; stroke: #000000; stroke-width: 0.8; stroke-linejoin: miter; stroke-linecap: square"/>
   </g>
   <g id="patch_6">
    <path d="M 54.72 21.6 
L 259.2 21.6 
" style="fill: none; stroke: #000000; stroke-width: 0.8; stroke-linejoin: miter; stroke-linecap: square"/>
   </g>
   <g id="legend_1">
    <g id="patch_7">
     <path d="M 154.996875 86.900625 
L 246.6 86.900625 
Q 250.2 86.900625 250.2 83.300625 
L 250.2 34.2 
Q 250.2 30.6 246.6 30.6 
L 154.996875 30.6 
Q 151.396875 30.6 151.396875 34.2 
L 151.396875 83.300625 
Q 151.396875 86.900625 154.996875 86.900625 
z
" style="fill: #ffffff; opacity: 0.8; stroke: #cccccc; stroke-linejoin: miter"/>
    </g>
    <g id="line2d_12">
     <path d="M 158.596875 44.1 
L 176.596875 44.1 
L 194.596875 44.1 
" style="fill: none; stroke: #1f77b4; stroke-width: 1.5; stroke-linecap: square"/>
    </g>
    <g id="text_12">
     <!-- SDT -->
     <g transform="translate(208.996875 50.4)scale(0.18 -0.18)">
      <defs>
       <path id="TimesNewRomanPSMT-53" d="M 2934 4334 
L 2934 2869 
L 2819 2869 
Q 2763 3291 2617 3541 
Q 2472 3791 2203 3937 
Q 1934 4084 1647 4084 
Q 1322 4084 1109 3886 
Q 897 3688 897 3434 
Q 897 3241 1031 3081 
Q 1225 2847 1953 2456 
Q 2547 2138 2764 1967 
Q 2981 1797 3098 1565 
Q 3216 1334 3216 1081 
Q 3216 600 2842 251 
Q 2469 -97 1881 -97 
Q 1697 -97 1534 -69 
Q 1438 -53 1133 45 
Q 828 144 747 144 
Q 669 144 623 97 
Q 578 50 556 -97 
L 441 -97 
L 441 1356 
L 556 1356 
Q 638 900 775 673 
Q 913 447 1195 297 
Q 1478 147 1816 147 
Q 2206 147 2432 353 
Q 2659 559 2659 841 
Q 2659 997 2573 1156 
Q 2488 1316 2306 1453 
Q 2184 1547 1640 1851 
Q 1097 2156 867 2337 
Q 638 2519 519 2737 
Q 400 2956 400 3219 
Q 400 3675 750 4004 
Q 1100 4334 1641 4334 
Q 1978 4334 2356 4169 
Q 2531 4091 2603 4091 
Q 2684 4091 2736 4139 
Q 2788 4188 2819 4334 
L 2934 4334 
z
" transform="scale(0.015625)"/>
       <path id="TimesNewRomanPSMT-44" d="M 109 0 
L 109 116 
L 269 116 
Q 538 116 650 288 
Q 719 391 719 750 
L 719 3488 
Q 719 3884 631 3984 
Q 509 4122 269 4122 
L 109 4122 
L 109 4238 
L 1834 4238 
Q 2784 4238 3279 4022 
Q 3775 3806 4076 3303 
Q 4378 2800 4378 2141 
Q 4378 1256 3841 663 
Q 3238 0 2003 0 
L 109 0 
z
M 1319 306 
Q 1716 219 1984 219 
Q 2709 219 3187 728 
Q 3666 1238 3666 2109 
Q 3666 2988 3187 3494 
Q 2709 4000 1959 4000 
Q 1678 4000 1319 3909 
L 1319 306 
z
" transform="scale(0.015625)"/>
       <path id="TimesNewRomanPSMT-54" d="M 3703 4238 
L 3750 3244 
L 3631 3244 
Q 3597 3506 3538 3619 
Q 3441 3800 3280 3886 
Q 3119 3972 2856 3972 
L 2259 3972 
L 2259 734 
Q 2259 344 2344 247 
Q 2463 116 2709 116 
L 2856 116 
L 2856 0 
L 1059 0 
L 1059 116 
L 1209 116 
Q 1478 116 1591 278 
Q 1659 378 1659 734 
L 1659 3972 
L 1150 3972 
Q 853 3972 728 3928 
Q 566 3869 450 3700 
Q 334 3531 313 3244 
L 194 3244 
L 244 4238 
L 3703 4238 
z
" transform="scale(0.015625)"/>
      </defs>
      <use xlink:href="#TimesNewRomanPSMT-53"/>
      <use xlink:href="#TimesNewRomanPSMT-44" x="55.615234"/>
      <use xlink:href="#TimesNewRomanPSMT-54" x="127.832031"/>
     </g>
    </g>
    <g id="line2d_13">
     <path d="M 158.596875 69.550312 
L 176.596875 69.550312 
L 194.596875 69.550312 
" style="fill: none; stroke: #ff7f0e; stroke-width: 1.5; stroke-linecap: square"/>
    </g>
    <g id="text_13">
     <!-- TET -->
     <g transform="translate(208.996875 75.850312)scale(0.18 -0.18)">
      <use xlink:href="#TimesNewRomanPSMT-54"/>
      <use xlink:href="#TimesNewRomanPSMT-45" x="61.083984"/>
      <use xlink:href="#TimesNewRomanPSMT-54" x="122.167969"/>
     </g>
    </g>
   </g>
  </g>
 </g>
 <defs>
  <clipPath id="p5accd0c534">
   <rect x="54.72" y="21.6" width="204.48" height="146.88"/>
  </clipPath>
 </defs>
</svg>
