<?xml version="1.0" encoding="utf-8" standalone="no"?>
<!DOCTYPE svg PUBLIC "-//W3C//DTD SVG 1.1//EN"
  "http://www.w3.org/Graphics/SVG/1.1/DTD/svg11.dtd">
<svg xmlns:xlink="http://www.w3.org/1999/xlink" width="288pt" height="216pt" viewBox="0 0 288 216" xmlns="http://www.w3.org/2000/svg" version="1.1">
 <metadata>
  <rdf:RDF xmlns:dc="http://purl.org/dc/elements/1.1/" xmlns:cc="http://creativecommons.org/ns#" xmlns:rdf="http://www.w3.org/1999/02/22-rdf-syntax-ns#">
   <cc:Work>
    <dc:type rdf:resource="http://purl.org/dc/dcmitype/StillImage"/>
    <dc:date>2024-05-21T22:18:49.034101</dc:date>
    <dc:format>image/svg+xml</dc:format>
    <dc:creator>
     <cc:Agent>
      <dc:title>Matplotlib v3.5.0, https://matplotlib.org/</dc:title>
     </cc:Agent>
    </dc:creator>
   </cc:Work>
  </rdf:RDF>
 </metadata>
 <defs>
  <style type="text/css">*{stroke-linejoin: round; stroke-linecap: butt}</style>
 </defs>
 <g id="figure_1">
  <g id="patch_1">
   <path d="M 0 216 
L 288 216 
L 288 0 
L 0 0 
z
" style="fill: #ffffff"/>
  </g>
  <g id="axes_1">
   <g id="patch_2">
    <path d="M 54.72 168.48 
L 259.2 168.48 
L 259.2 21.6 
L 54.72 21.6 
z
" style="fill: #ffffff"/>
   </g>
   <g id="matplotlib.axis_1">
    <g id="xtick_1">
     <g id="line2d_1">
      <defs>
       <path id="m00a7d903bd" d="M 0 0 
L 0 3.5 
" style="stroke: #000000; stroke-width: 0.8"/>
      </defs>
      <g>
       <use xlink:href="#m00a7d903bd" x="64.014545" y="168.48" style="stroke: #000000; stroke-width: 0.8"/>
      </g>
     </g>
     <g id="text_1">
      <!-- 0 -->
      <g transform="translate(59.514545 187.97875)scale(0.18 -0.18)">
       <defs>
        <path id="TimesNewRomanPSMT-30" d="M 231 2094 
Q 231 2819 450 3342 
Q 669 3866 1031 4122 
Q 1313 4325 1613 4325 
Q 2100 4325 2488 3828 
Q 2972 3213 2972 2159 
Q 2972 1422 2759 906 
Q 2547 391 2217 158 
Q 1888 -75 1581 -75 
Q 975 -75 572 641 
Q 231 1244 231 2094 
z
M 844 2016 
Q 844 1141 1059 588 
Q 1238 122 1591 122 
Q 1759 122 1940 273 
Q 2122 425 2216 781 
Q 2359 1319 2359 2297 
Q 2359 3022 2209 3506 
Q 2097 3866 1919 4016 
Q 1791 4119 1609 4119 
Q 1397 4119 1231 3928 
Q 1006 3669 925 3112 
Q 844 2556 844 2016 
z
" transform="scale(0.015625)"/>
       </defs>
       <use xlink:href="#TimesNewRomanPSMT-30"/>
      </g>
     </g>
    </g>
    <g id="xtick_2">
     <g id="line2d_2">
      <g>
       <use xlink:href="#m00a7d903bd" x="157.053038" y="168.48" style="stroke: #000000; stroke-width: 0.8"/>
      </g>
     </g>
     <g id="text_2">
      <!-- 500 -->
      <g transform="translate(143.553038 187.97875)scale(0.18 -0.18)">
       <defs>
        <path id="TimesNewRomanPSMT-35" d="M 2778 4238 
L 2534 3706 
L 1259 3706 
L 981 3138 
Q 1809 3016 2294 2522 
Q 2709 2097 2709 1522 
Q 2709 1188 2573 903 
Q 2438 619 2231 419 
Q 2025 219 1772 97 
Q 1413 -75 1034 -75 
Q 653 -75 479 54 
Q 306 184 306 341 
Q 306 428 378 495 
Q 450 563 559 563 
Q 641 563 702 538 
Q 763 513 909 409 
Q 1144 247 1384 247 
Q 1750 247 2026 523 
Q 2303 800 2303 1197 
Q 2303 1581 2056 1914 
Q 1809 2247 1375 2428 
Q 1034 2569 447 2591 
L 1259 4238 
L 2778 4238 
z
" transform="scale(0.015625)"/>
       </defs>
       <use xlink:href="#TimesNewRomanPSMT-35"/>
       <use xlink:href="#TimesNewRomanPSMT-30" x="50"/>
       <use xlink:href="#TimesNewRomanPSMT-30" x="100"/>
      </g>
     </g>
    </g>
    <g id="xtick_3">
     <g id="line2d_3">
      <g>
       <use xlink:href="#m00a7d903bd" x="250.091532" y="168.48" style="stroke: #000000; stroke-width: 0.8"/>
      </g>
     </g>
     <g id="text_3">
      <!-- 1000 -->
      <g transform="translate(232.091532 187.97875)scale(0.18 -0.18)">
       <defs>
        <path id="TimesNewRomanPSMT-31" d="M 750 3822 
L 1781 4325 
L 1884 4325 
L 1884 747 
Q 1884 391 1914 303 
Q 1944 216 2037 169 
Q 2131 122 2419 116 
L 2419 0 
L 825 0 
L 825 116 
Q 1125 122 1212 167 
Q 1300 213 1334 289 
Q 1369 366 1369 747 
L 1369 3034 
Q 1369 3497 1338 3628 
Q 1316 3728 1258 3775 
Q 1200 3822 1119 3822 
Q 1003 3822 797 3725 
L 750 3822 
z
" transform="scale(0.015625)"/>
       </defs>
       <use xlink:href="#TimesNewRomanPSMT-31"/>
       <use xlink:href="#TimesNewRomanPSMT-30" x="50"/>
       <use xlink:href="#TimesNewRomanPSMT-30" x="100"/>
       <use xlink:href="#TimesNewRomanPSMT-30" x="150"/>
      </g>
     </g>
    </g>
    <g id="text_4">
     <!-- Epoch -->
     <g transform="translate(133.967812 208.327812)scale(0.18 -0.18)">
      <defs>
       <path id="TimesNewRomanPSMT-45" d="M 1338 4006 
L 1338 2331 
L 2269 2331 
Q 2631 2331 2753 2441 
Q 2916 2584 2934 2947 
L 3050 2947 
L 3050 1472 
L 2934 1472 
Q 2891 1781 2847 1869 
Q 2791 1978 2662 2040 
Q 2534 2103 2269 2103 
L 1338 2103 
L 1338 706 
Q 1338 425 1363 364 
Q 1388 303 1450 267 
Q 1513 231 1688 231 
L 2406 231 
Q 2766 231 2928 281 
Q 3091 331 3241 478 
Q 3434 672 3638 1063 
L 3763 1063 
L 3397 0 
L 131 0 
L 131 116 
L 281 116 
Q 431 116 566 188 
Q 666 238 702 338 
Q 738 438 738 747 
L 738 3500 
Q 738 3903 656 3997 
Q 544 4122 281 4122 
L 131 4122 
L 131 4238 
L 3397 4238 
L 3444 3309 
L 3322 3309 
Q 3256 3644 3176 3769 
Q 3097 3894 2941 3959 
Q 2816 4006 2500 4006 
L 1338 4006 
z
" transform="scale(0.015625)"/>
       <path id="TimesNewRomanPSMT-70" d="M -6 2578 
L 875 2934 
L 994 2934 
L 994 2266 
Q 1216 2644 1439 2795 
Q 1663 2947 1909 2947 
Q 2341 2947 2628 2609 
Q 2981 2197 2981 1534 
Q 2981 794 2556 309 
Q 2206 -88 1675 -88 
Q 1444 -88 1275 -22 
Q 1150 25 994 166 
L 994 -706 
Q 994 -1000 1030 -1079 
Q 1066 -1159 1155 -1206 
Q 1244 -1253 1478 -1253 
L 1478 -1369 
L -22 -1369 
L -22 -1253 
L 56 -1253 
Q 228 -1256 350 -1188 
Q 409 -1153 442 -1076 
Q 475 -1000 475 -688 
L 475 2019 
Q 475 2297 450 2372 
Q 425 2447 370 2484 
Q 316 2522 222 2522 
Q 147 2522 31 2478 
L -6 2578 
z
M 994 2081 
L 994 1013 
Q 994 666 1022 556 
Q 1066 375 1236 237 
Q 1406 100 1666 100 
Q 1978 100 2172 344 
Q 2425 663 2425 1241 
Q 2425 1897 2138 2250 
Q 1938 2494 1663 2494 
Q 1513 2494 1366 2419 
Q 1253 2363 994 2081 
z
" transform="scale(0.015625)"/>
       <path id="TimesNewRomanPSMT-6f" d="M 1600 2947 
Q 2250 2947 2644 2453 
Q 2978 2031 2978 1484 
Q 2978 1100 2793 706 
Q 2609 313 2286 112 
Q 1963 -88 1566 -88 
Q 919 -88 538 428 
Q 216 863 216 1403 
Q 216 1797 411 2186 
Q 606 2575 925 2761 
Q 1244 2947 1600 2947 
z
M 1503 2744 
Q 1338 2744 1170 2645 
Q 1003 2547 900 2300 
Q 797 2053 797 1666 
Q 797 1041 1045 587 
Q 1294 134 1700 134 
Q 2003 134 2200 384 
Q 2397 634 2397 1244 
Q 2397 2006 2069 2444 
Q 1847 2744 1503 2744 
z
" transform="scale(0.015625)"/>
       <path id="TimesNewRomanPSMT-63" d="M 2631 1088 
Q 2516 522 2178 217 
Q 1841 -88 1431 -88 
Q 944 -88 581 321 
Q 219 731 219 1428 
Q 219 2103 620 2525 
Q 1022 2947 1584 2947 
Q 2006 2947 2278 2723 
Q 2550 2500 2550 2259 
Q 2550 2141 2473 2067 
Q 2397 1994 2259 1994 
Q 2075 1994 1981 2113 
Q 1928 2178 1911 2362 
Q 1894 2547 1784 2644 
Q 1675 2738 1481 2738 
Q 1169 2738 978 2506 
Q 725 2200 725 1697 
Q 725 1184 976 792 
Q 1228 400 1656 400 
Q 1963 400 2206 609 
Q 2378 753 2541 1131 
L 2631 1088 
z
" transform="scale(0.015625)"/>
       <path id="TimesNewRomanPSMT-68" d="M 1041 4444 
L 1041 2350 
Q 1388 2731 1591 2839 
Q 1794 2947 1997 2947 
Q 2241 2947 2416 2812 
Q 2591 2678 2675 2391 
Q 2734 2191 2734 1659 
L 2734 647 
Q 2734 375 2778 275 
Q 2809 200 2884 156 
Q 2959 113 3159 113 
L 3159 0 
L 1753 0 
L 1753 113 
L 1819 113 
Q 2019 113 2097 173 
Q 2175 234 2206 353 
Q 2216 403 2216 647 
L 2216 1659 
Q 2216 2128 2167 2275 
Q 2119 2422 2012 2495 
Q 1906 2569 1756 2569 
Q 1603 2569 1437 2487 
Q 1272 2406 1041 2159 
L 1041 647 
Q 1041 353 1073 281 
Q 1106 209 1195 161 
Q 1284 113 1503 113 
L 1503 0 
L 84 0 
L 84 113 
Q 275 113 384 172 
Q 447 203 484 290 
Q 522 378 522 647 
L 522 3238 
Q 522 3728 498 3840 
Q 475 3953 426 3993 
Q 378 4034 297 4034 
Q 231 4034 84 3984 
L 41 4094 
L 897 4444 
L 1041 4444 
z
" transform="scale(0.015625)"/>
      </defs>
      <use xlink:href="#TimesNewRomanPSMT-45"/>
      <use xlink:href="#TimesNewRomanPSMT-70" x="61.083984"/>
      <use xlink:href="#TimesNewRomanPSMT-6f" x="111.083984"/>
      <use xlink:href="#TimesNewRomanPSMT-63" x="161.083984"/>
      <use xlink:href="#TimesNewRomanPSMT-68" x="205.46875"/>
     </g>
    </g>
   </g>
   <g id="matplotlib.axis_2">
    <g id="ytick_1">
     <g id="line2d_4">
      <defs>
       <path id="mbf907a5eee" d="M 0 0 
L -3.5 0 
" style="stroke: #000000; stroke-width: 0.8"/>
      </defs>
      <g>
       <use xlink:href="#mbf907a5eee" x="54.72" y="161.899307" style="stroke: #000000; stroke-width: 0.8"/>
      </g>
     </g>
     <g id="text_5">
      <!-- 0.0 -->
      <g transform="translate(25.22 168.148682)scale(0.18 -0.18)">
       <defs>
        <path id="TimesNewRomanPSMT-2e" d="M 800 606 
Q 947 606 1047 504 
Q 1147 403 1147 259 
Q 1147 116 1045 14 
Q 944 -88 800 -88 
Q 656 -88 554 14 
Q 453 116 453 259 
Q 453 406 554 506 
Q 656 606 800 606 
z
" transform="scale(0.015625)"/>
       </defs>
       <use xlink:href="#TimesNewRomanPSMT-30"/>
       <use xlink:href="#TimesNewRomanPSMT-2e" x="50"/>
       <use xlink:href="#TimesNewRomanPSMT-30" x="75"/>
      </g>
     </g>
    </g>
    <g id="ytick_2">
     <g id="line2d_5">
      <g>
       <use xlink:href="#mbf907a5eee" x="54.72" y="137.802496" style="stroke: #000000; stroke-width: 0.8"/>
      </g>
     </g>
     <g id="text_6">
      <!-- 0.5 -->
      <g transform="translate(25.22 144.051871)scale(0.18 -0.18)">
       <use xlink:href="#TimesNewRomanPSMT-30"/>
       <use xlink:href="#TimesNewRomanPSMT-2e" x="50"/>
       <use xlink:href="#TimesNewRomanPSMT-35" x="75"/>
      </g>
     </g>
    </g>
    <g id="ytick_3">
     <g id="line2d_6">
      <g>
       <use xlink:href="#mbf907a5eee" x="54.72" y="113.705685" style="stroke: #000000; stroke-width: 0.8"/>
      </g>
     </g>
     <g id="text_7">
      <!-- 1.0 -->
      <g transform="translate(25.22 119.95506)scale(0.18 -0.18)">
       <use xlink:href="#TimesNewRomanPSMT-31"/>
       <use xlink:href="#TimesNewRomanPSMT-2e" x="50"/>
       <use xlink:href="#TimesNewRomanPSMT-30" x="75"/>
      </g>
     </g>
    </g>
    <g id="ytick_4">
     <g id="line2d_7">
      <g>
       <use xlink:href="#mbf907a5eee" x="54.72" y="89.608874" style="stroke: #000000; stroke-width: 0.8"/>
      </g>
     </g>
     <g id="text_8">
      <!-- 1.5 -->
      <g transform="translate(25.22 95.858249)scale(0.18 -0.18)">
       <use xlink:href="#TimesNewRomanPSMT-31"/>
       <use xlink:href="#TimesNewRomanPSMT-2e" x="50"/>
       <use xlink:href="#TimesNewRomanPSMT-35" x="75"/>
      </g>
     </g>
    </g>
    <g id="ytick_5">
     <g id="line2d_8">
      <g>
       <use xlink:href="#mbf907a5eee" x="54.72" y="65.512063" style="stroke: #000000; stroke-width: 0.8"/>
      </g>
     </g>
     <g id="text_9">
      <!-- 2.0 -->
      <g transform="translate(25.22 71.761438)scale(0.18 -0.18)">
       <defs>
        <path id="TimesNewRomanPSMT-32" d="M 2934 816 
L 2638 0 
L 138 0 
L 138 116 
Q 1241 1122 1691 1759 
Q 2141 2397 2141 2925 
Q 2141 3328 1894 3587 
Q 1647 3847 1303 3847 
Q 991 3847 742 3664 
Q 494 3481 375 3128 
L 259 3128 
Q 338 3706 661 4015 
Q 984 4325 1469 4325 
Q 1984 4325 2329 3994 
Q 2675 3663 2675 3213 
Q 2675 2891 2525 2569 
Q 2294 2063 1775 1497 
Q 997 647 803 472 
L 1909 472 
Q 2247 472 2383 497 
Q 2519 522 2628 598 
Q 2738 675 2819 816 
L 2934 816 
z
" transform="scale(0.015625)"/>
       </defs>
       <use xlink:href="#TimesNewRomanPSMT-32"/>
       <use xlink:href="#TimesNewRomanPSMT-2e" x="50"/>
       <use xlink:href="#TimesNewRomanPSMT-30" x="75"/>
      </g>
     </g>
    </g>
    <g id="ytick_6">
     <g id="line2d_9">
      <g>
       <use xlink:href="#mbf907a5eee" x="54.72" y="41.415252" style="stroke: #000000; stroke-width: 0.8"/>
      </g>
     </g>
     <g id="text_10">
      <!-- 2.5 -->
      <g transform="translate(25.22 47.664627)scale(0.18 -0.18)">
       <use xlink:href="#TimesNewRomanPSMT-32"/>
       <use xlink:href="#TimesNewRomanPSMT-2e" x="50"/>
       <use xlink:href="#TimesNewRomanPSMT-35" x="75"/>
      </g>
     </g>
    </g>
    <g id="text_11">
     <!-- Loss -->
     <g transform="translate(17.369687 112.042969)rotate(-90)scale(0.18 -0.18)">
      <defs>
       <path id="TimesNewRomanPSMT-4c" d="M 3669 1172 
L 3772 1150 
L 3409 0 
L 128 0 
L 128 116 
L 288 116 
Q 556 116 672 291 
Q 738 391 738 753 
L 738 3488 
Q 738 3884 650 3984 
Q 528 4122 288 4122 
L 128 4122 
L 128 4238 
L 2047 4238 
L 2047 4122 
Q 1709 4125 1573 4059 
Q 1438 3994 1388 3894 
Q 1338 3794 1338 3416 
L 1338 753 
Q 1338 494 1388 397 
Q 1425 331 1503 300 
Q 1581 269 1991 269 
L 2300 269 
Q 2788 269 2984 341 
Q 3181 413 3343 595 
Q 3506 778 3669 1172 
z
" transform="scale(0.015625)"/>
       <path id="TimesNewRomanPSMT-73" d="M 2050 2947 
L 2050 1972 
L 1947 1972 
Q 1828 2431 1642 2597 
Q 1456 2763 1169 2763 
Q 950 2763 815 2647 
Q 681 2531 681 2391 
Q 681 2216 781 2091 
Q 878 1963 1175 1819 
L 1631 1597 
Q 2266 1288 2266 781 
Q 2266 391 1970 151 
Q 1675 -88 1309 -88 
Q 1047 -88 709 6 
Q 606 38 541 38 
Q 469 38 428 -44 
L 325 -44 
L 325 978 
L 428 978 
Q 516 541 762 319 
Q 1009 97 1316 97 
Q 1531 97 1667 223 
Q 1803 350 1803 528 
Q 1803 744 1651 891 
Q 1500 1038 1047 1263 
Q 594 1488 453 1669 
Q 313 1847 313 2119 
Q 313 2472 555 2709 
Q 797 2947 1181 2947 
Q 1350 2947 1591 2875 
Q 1750 2828 1803 2828 
Q 1853 2828 1881 2850 
Q 1909 2872 1947 2947 
L 2050 2947 
z
" transform="scale(0.015625)"/>
      </defs>
      <use xlink:href="#TimesNewRomanPSMT-4c"/>
      <use xlink:href="#TimesNewRomanPSMT-6f" x="61.083984"/>
      <use xlink:href="#TimesNewRomanPSMT-73" x="111.083984"/>
      <use xlink:href="#TimesNewRomanPSMT-73" x="150"/>
     </g>
    </g>
   </g>
   <g id="line2d_10">
    <path d="M 64.014545 28.278156 
L 66.433546 28.324025 
L 66.8057 28.545063 
L 67.177854 29.006018 
L 67.922162 29.210131 
L 69.038624 30.105072 
L 69.969009 31.079676 
L 70.341163 31.429623 
L 70.899394 32.139916 
L 71.271548 32.54535 
L 71.643702 33.244072 
L 72.201933 33.926788 
L 73.132318 35.620578 
L 73.690549 37.130134 
L 74.062703 37.992132 
L 74.24878 38.257442 
L 76.481704 45.403209 
L 76.853857 46.364151 
L 77.226011 47.753495 
L 77.598165 48.567855 
L 79.645012 56.692695 
L 79.831089 58.06609 
L 80.017166 58.380831 
L 80.575397 61.189268 
L 80.761474 61.580798 
L 83.552629 77.251783 
L 84.483014 84.114481 
L 84.669091 84.431761 
L 85.227322 88.373832 
L 85.785553 91.100992 
L 86.157707 92.191837 
L 86.343784 94.941426 
L 86.529861 95.49995 
L 86.715938 96.500194 
L 86.902015 98.371147 
L 87.088092 98.423077 
L 87.460246 100.900267 
L 88.018477 104.126949 
L 88.204554 106.107897 
L 88.390631 106.896611 
L 89.134939 111.501377 
L 89.321016 112.21414 
L 89.69317 114.585307 
L 91.740016 125.345175 
L 91.926093 125.318072 
L 92.484324 127.682356 
L 92.856478 129.503217 
L 93.042555 129.712581 
L 93.414709 130.900107 
L 94.531171 136.002608 
L 94.717248 136.646507 
L 94.903325 136.814512 
L 95.089402 138.475635 
L 95.275479 138.51732 
L 95.461556 138.126798 
L 95.647633 138.482795 
L 95.83371 139.914089 
L 96.205864 140.563456 
L 96.578018 140.695759 
L 96.950172 142.093197 
L 97.136249 143.481471 
L 97.508403 143.82478 
L 98.066634 145.908207 
L 98.252711 146.20174 
L 98.438788 147.258384 
L 98.624865 147.402269 
L 98.997019 148.201735 
L 99.183096 148.323303 
L 99.741327 149.44226 
L 99.927404 150.238325 
L 100.113481 149.908487 
L 100.299558 150.111157 
L 100.485635 150.631484 
L 100.671712 150.775694 
L 100.857789 151.366108 
L 101.043866 151.042775 
L 101.229943 151.561013 
L 101.41602 151.714585 
L 101.602097 151.495971 
L 102.160328 152.749204 
L 102.718559 153.363432 
L 102.904636 153.247353 
L 103.090713 153.429848 
L 103.27679 153.810271 
L 103.462867 153.588933 
L 103.648943 153.807247 
L 103.83502 153.656555 
L 104.021097 153.888608 
L 104.207174 153.719355 
L 104.393251 153.798044 
L 104.579328 153.696152 
L 104.765405 154.538148 
L 105.323636 154.82054 
L 105.881867 155.11509 
L 106.067944 154.994767 
L 106.440098 155.732248 
L 106.812252 156.215002 
L 107.184406 156.468382 
L 107.370483 156.477804 
L 107.742637 156.820153 
L 108.114791 156.726524 
L 108.300868 156.416666 
L 108.486945 156.573109 
L 108.673022 156.990683 
L 108.859099 157.040281 
L 109.231253 157.278067 
L 109.41733 157.111872 
L 109.789484 157.657128 
L 110.161638 157.650204 
L 110.347715 157.624123 
L 110.719869 158.198626 
L 110.905946 158.037365 
L 111.2781 158.065029 
L 111.464177 158.355893 
L 112.208485 158.411976 
L 112.394562 158.329712 
L 112.766716 158.747023 
L 113.13887 158.791515 
L 113.883178 158.85183 
L 115.371794 159.000817 
L 115.743948 159.351288 
L 117.232563 159.626935 
L 117.41864 159.762631 
L 117.790794 159.657393 
L 118.349025 159.880694 
L 118.721179 159.886268 
L 119.093333 160.028287 
L 122.256642 160.455699 
L 125.606028 160.476417 
L 125.978182 160.472223 
L 129.327568 160.778982 
L 130.071876 160.683553 
L 131.188337 160.871196 
L 131.746568 160.870314 
L 132.118722 160.840296 
L 132.304799 160.891064 
L 132.490876 160.786908 
L 133.049107 160.911649 
L 137.142801 161.060752 
L 137.701032 161.036632 
L 139.375725 161.086626 
L 141.422572 161.12457 
L 144.027649 161.22987 
L 144.58588 161.20917 
L 145.516265 161.294188 
L 149.051728 161.360108 
L 153.88973 161.412297 
L 155.192269 161.428154 
L 159.658116 161.43752 
L 160.960655 161.49455 
L 180.870893 161.632692 
L 181.429124 161.615885 
L 221.435676 161.750279 
L 224.412907 161.77223 
L 231.111679 161.77608 
L 240.043374 161.784736 
L 244.695299 161.785194 
L 249.905455 161.803636 
L 249.905455 161.803636 
" clip-path="url(#pb91f5a3a1c)" style="fill: none; stroke: #1f77b4; stroke-width: 1.5; stroke-linecap: square"/>
   </g>
   <g id="line2d_11">
    <path d="M 64.014545 28.278156 
L 66.433546 28.325266 
L 66.8057 28.541697 
L 67.177854 28.98691 
L 68.108239 29.344004 
L 68.66647 29.381807 
L 71.085471 31.48797 
L 71.457625 31.9512 
L 73.690549 35.32282 
L 74.062703 36.054393 
L 76.853857 41.186871 
L 77.412088 42.931138 
L 77.598165 43.172962 
L 77.970319 44.366236 
L 78.714627 46.396875 
L 79.272858 48.54831 
L 79.458935 48.90815 
L 80.761474 54.266321 
L 81.877936 58.7742 
L 82.064013 59.280243 
L 83.180475 65.620416 
L 83.552629 67.079311 
L 83.924783 69.328367 
L 84.11086 69.760975 
L 84.855168 74.691432 
L 85.227322 76.503629 
L 86.529861 83.853267 
L 86.902015 86.30249 
L 87.088092 86.667093 
L 87.460246 89.272922 
L 88.018477 91.984823 
L 88.204554 92.828679 
L 88.576708 95.262091 
L 88.948862 96.084793 
L 89.321016 98.839329 
L 90.2514 104.046172 
L 90.809631 106.992251 
L 91.740016 110.992543 
L 92.298247 112.475774 
L 92.670401 115.009938 
L 92.856478 115.370996 
L 93.228632 117.204536 
L 93.414709 117.590115 
L 93.786863 119.797858 
L 93.97294 119.512044 
L 94.159017 119.753049 
L 94.903325 123.976404 
L 95.089402 123.663826 
L 95.275479 125.268607 
L 95.461556 125.136555 
L 95.647633 125.976392 
L 95.83371 126.249941 
L 96.205864 127.928808 
L 96.578018 128.910509 
L 96.764095 129.833892 
L 96.950172 130.075673 
L 97.322326 131.778141 
L 99.927404 139.27189 
L 100.857789 140.739438 
L 101.043866 141.406207 
L 101.41602 141.689553 
L 101.602097 142.194275 
L 101.788174 142.271547 
L 102.160328 143.335598 
L 102.718559 144.69044 
L 102.904636 144.872552 
L 103.090713 144.705266 
L 103.462867 145.729021 
L 104.021097 145.449154 
L 104.393251 146.572523 
L 104.579328 146.885634 
L 104.765405 147.978442 
L 104.951482 148.331631 
L 105.137559 148.385279 
L 105.323636 148.934513 
L 105.509713 148.950568 
L 105.69579 149.632808 
L 105.881867 149.082664 
L 106.067944 149.788515 
L 106.254021 149.796512 
L 106.440098 150.477145 
L 106.626175 150.375072 
L 106.812252 151.013632 
L 106.998329 150.92543 
L 107.370483 151.331094 
L 107.55656 151.061244 
L 107.742637 151.347896 
L 108.114791 152.168703 
L 108.300868 152.097377 
L 108.486945 152.459594 
L 108.673022 152.480659 
L 109.045176 152.877865 
L 109.231253 153.050467 
L 109.603407 153.125296 
L 109.789484 153.452467 
L 110.161638 153.346569 
L 111.092023 154.331456 
L 111.2781 154.461831 
L 111.464177 154.446318 
L 111.650254 154.797848 
L 112.022408 154.594507 
L 112.952793 155.413121 
L 113.324947 155.937417 
L 113.511024 155.963371 
L 113.883178 156.449709 
L 114.069255 156.444741 
L 114.255332 156.055035 
L 114.441409 156.180992 
L 114.627486 155.995397 
L 114.813563 156.035039 
L 115.185717 156.442011 
L 116.116102 156.809155 
L 116.302179 157.187914 
L 116.488256 157.060916 
L 116.674333 157.338727 
L 116.86041 157.365156 
L 117.046486 157.628395 
L 117.232563 157.511195 
L 117.604717 157.654854 
L 117.790794 157.753365 
L 117.976871 157.643795 
L 118.162948 157.786031 
L 118.349025 157.740449 
L 118.535102 158.005246 
L 119.837641 158.281754 
L 120.209795 158.102409 
L 120.581949 158.288878 
L 120.768026 158.127579 
L 121.512334 158.286456 
L 121.698411 157.952921 
L 122.070565 158.3523 
L 122.256642 158.199055 
L 122.442719 158.393955 
L 122.628796 158.295852 
L 122.814873 158.445082 
L 123.00095 158.381922 
L 123.745258 158.741061 
L 123.931335 158.604332 
L 124.117412 158.916247 
L 124.303489 158.696771 
L 124.489566 158.661135 
L 124.86172 158.75293 
L 125.606028 158.955573 
L 125.792105 159.18145 
L 126.908567 159.222978 
L 127.094644 159.353752 
L 127.466798 159.298901 
L 127.838952 159.123936 
L 128.58326 159.465244 
L 129.141491 159.498736 
L 129.699722 159.663553 
L 130.071876 159.563534 
L 130.257952 159.692339 
L 130.630106 159.61892 
L 131.00226 159.735396 
L 131.188337 159.601107 
L 131.374414 159.692696 
L 132.118722 159.531694 
L 132.304799 159.723422 
L 132.676953 159.620525 
L 132.86303 159.74163 
L 133.049107 159.725631 
L 133.235184 159.529748 
L 133.421261 159.579326 
L 133.979492 159.370631 
L 134.351646 159.487782 
L 134.909877 159.358437 
L 135.095954 159.489337 
L 135.840262 159.261891 
L 136.026339 159.485389 
L 136.212416 159.294264 
L 136.398493 159.506419 
L 136.58457 159.441471 
L 137.142801 159.620967 
L 137.328878 159.481766 
L 137.887109 159.85548 
L 138.073186 159.833329 
L 138.259263 159.946782 
L 139.189648 159.841711 
L 139.375725 159.996739 
L 139.747879 159.982674 
L 139.933956 160.062383 
L 140.492187 159.883844 
L 141.050418 160.109649 
L 141.608649 160.112993 
L 143.097265 160.168295 
L 143.283342 160.007685 
L 143.841572 160.237438 
L 144.213726 160.100639 
L 144.958034 160.116823 
L 145.888419 159.978403 
L 146.260573 160.100764 
L 146.44665 159.928181 
L 147.190958 160.118456 
L 147.377035 160.090517 
L 147.563112 160.35951 
L 147.749189 160.079605 
L 148.121343 160.304921 
L 148.30742 160.404292 
L 148.493497 160.172741 
L 149.609959 160.355337 
L 149.982113 160.221932 
L 150.354267 160.309534 
L 150.540344 160.208695 
L 150.912498 160.469804 
L 151.470729 160.519227 
L 152.215037 160.349402 
L 152.773268 160.404201 
L 152.959345 160.319891 
L 153.517576 160.403574 
L 155.192269 160.403432 
L 155.564423 160.305585 
L 155.7505 160.241305 
L 155.936577 160.389009 
L 156.680885 160.319084 
L 157.053038 160.521066 
L 158.355577 160.403011 
L 158.727731 160.149593 
L 158.913808 160.316954 
L 159.099885 160.135065 
L 159.472039 160.409299 
L 160.588501 160.374887 
L 160.774578 160.42619 
L 160.960655 160.237357 
L 161.146732 160.353103 
L 162.635348 160.218468 
L 162.821425 160.249124 
L 163.007502 160.094426 
L 163.379656 160.395988 
L 163.565733 160.390114 
L 163.937887 160.59468 
L 164.310041 160.605523 
L 164.682195 160.566666 
L 166.356888 160.536341 
L 166.542965 160.606417 
L 166.915119 160.467914 
L 167.101196 160.43207 
L 167.287273 160.52155 
L 167.47335 160.237804 
L 167.845504 160.220492 
L 168.031581 160.46489 
L 168.217658 160.456723 
L 168.403735 160.337137 
L 168.589812 160.523486 
L 168.775889 160.365756 
L 169.148043 160.47249 
L 169.33412 160.554493 
L 169.520197 160.347351 
L 169.706274 160.420625 
L 170.264505 160.312025 
L 170.636658 160.530683 
L 172.125274 160.410402 
L 173.055659 160.370794 
L 173.427813 160.659639 
L 173.799967 160.660464 
L 174.172121 160.81729 
L 174.544275 160.594922 
L 175.846814 160.829211 
L 176.218968 160.66396 
L 176.405045 160.816738 
L 176.777199 160.699952 
L 177.149353 160.425806 
L 177.33543 160.713451 
L 177.521507 160.720033 
L 177.707584 160.538623 
L 178.079738 160.774685 
L 178.265815 160.559869 
L 178.451892 160.693225 
L 178.824046 160.623256 
L 179.1962 160.661208 
L 179.382277 160.730647 
L 179.754431 160.635786 
L 179.940508 160.425875 
L 180.312662 160.772871 
L 180.870893 160.766335 
L 181.615201 160.719754 
L 181.801278 160.858982 
L 182.173432 160.735077 
L 182.545586 160.705798 
L 183.289894 160.460431 
L 183.662048 160.714525 
L 184.034201 160.466913 
L 184.406355 160.838442 
L 185.522817 160.76072 
L 185.708894 160.613227 
L 185.894971 160.718895 
L 186.081048 160.587334 
L 187.011433 160.86745 
L 187.19751 160.759041 
L 187.569664 160.911482 
L 187.755741 160.938421 
L 187.941818 160.753025 
L 188.313972 160.84552 
L 188.686126 160.729148 
L 188.872203 160.827414 
L 189.05828 160.722109 
L 189.802588 160.73412 
L 189.988665 160.622529 
L 190.732973 160.80022 
L 193.338051 160.9532 
L 193.710205 161.136849 
L 194.454513 160.956452 
L 194.64059 161.12917 
L 195.012744 160.853622 
L 195.570975 160.899059 
L 195.757052 160.803958 
L 196.129206 161.063336 
L 196.315283 160.961524 
L 197.05959 161.086579 
L 197.245667 160.938803 
L 197.803898 161.022673 
L 197.989975 160.927619 
L 198.362129 160.982827 
L 198.734283 160.860715 
L 198.92036 160.979239 
L 200.036822 160.815392 
L 200.408976 161.078314 
L 200.595053 161.040587 
L 200.78113 161.169182 
L 201.153284 161.02746 
L 201.525438 161.084869 
L 201.711515 160.989774 
L 202.083669 161.129872 
L 202.455823 161.051781 
L 202.827977 161.228105 
L 203.014054 161.016211 
L 203.386208 161.153719 
L 203.758362 161.238804 
L 203.944439 161.119009 
L 204.316593 161.220862 
L 205.433055 161.280944 
L 205.991286 161.083808 
L 206.177363 161.259608 
L 206.549517 161.21098 
L 207.107748 161.207927 
L 207.293825 161.101677 
L 207.665979 161.219716 
L 208.22421 161.023131 
L 208.410287 161.188689 
L 209.340672 161.115207 
L 209.712826 161.089536 
L 209.898903 161.025483 
L 210.271057 161.225223 
L 211.015364 161.157819 
L 211.201441 161.300239 
L 211.387518 161.294988 
L 211.573595 161.099296 
L 211.759672 161.194579 
L 211.945749 161.048868 
L 212.50398 161.250527 
L 213.434365 161.39331 
L 213.806519 161.361016 
L 214.178673 161.351207 
L 214.550827 161.226048 
L 214.922981 161.279665 
L 215.109058 161.20412 
L 215.481212 161.355469 
L 215.667289 161.28292 
L 216.039443 161.405863 
L 216.411597 161.320673 
L 217.528059 161.311867 
L 217.900213 161.32769 
L 218.644521 161.368456 
L 218.830598 161.304118 
L 219.202752 161.387682 
L 219.760983 161.260628 
L 219.94706 161.381367 
L 220.691368 161.345609 
L 221.80783 161.411734 
L 222.179984 161.298164 
L 223.854676 161.300332 
L 224.22683 161.411452 
L 224.412907 161.263837 
L 224.598984 161.411194 
L 225.157215 161.36196 
L 228.134447 161.281955 
L 228.506601 161.397764 
L 229.80914 161.362993 
L 229.995217 161.204385 
L 230.181294 161.472876 
L 230.739525 161.460476 
L 231.111679 161.541614 
L 234.088911 161.496423 
L 234.274988 161.263702 
L 234.461065 161.576974 
L 234.833219 161.475628 
L 235.205373 161.48719 
L 235.577527 161.395865 
L 235.763604 161.465151 
L 236.135758 161.463463 
L 237.624373 161.438778 
L 237.81045 161.280242 
L 238.368681 161.501696 
L 238.554758 161.531377 
L 238.740835 161.363744 
L 240.229451 161.577087 
L 242.462375 161.601599 
L 242.648452 161.506329 
L 243.764914 161.629122 
L 244.881376 161.541335 
L 245.25353 161.601302 
L 246.369992 161.662137 
L 246.928223 161.551052 
L 249.905455 161.619771 
L 249.905455 161.619771 
" clip-path="url(#pb91f5a3a1c)" style="fill: none; stroke: #ff7f0e; stroke-width: 1.5; stroke-linecap: square"/>
   </g>
   <g id="patch_3">
    <path d="M 54.72 168.48 
L 54.72 21.6 
" style="fill: none; stroke: #000000; stroke-width: 0.8; stroke-linejoin: miter; stroke-linecap: square"/>
   </g>
   <g id="patch_4">
    <path d="M 259.2 168.48 
L 259.2 21.6 
" style="fill: none; stroke: #000000; stroke-width: 0.8; stroke-linejoin: miter; stroke-linecap: square"/>
   </g>
   <g id="patch_5">
    <path d="M 54.72 168.48 
L 259.2 168.48 
" style="fill: none; stroke: #000000; stroke-width: 0.8; stroke-linejoin: miter; stroke-linecap: square"/>
   </g>
   <g id="patch_6">
    <path d="M 54.72 21.6 
L 259.2 21.6 
" style="fill: none; stroke: #000000; stroke-width: 0.8; stroke-linejoin: miter; stroke-linecap: square"/>
   </g>
   <g id="legend_1">
    <g id="patch_7">
     <path d="M 154.996875 86.900625 
L 246.6 86.900625 
Q 250.2 86.900625 250.2 83.300625 
L 250.2 34.2 
Q 250.2 30.6 246.6 30.6 
L 154.996875 30.6 
Q 151.396875 30.6 151.396875 34.2 
L 151.396875 83.300625 
Q 151.396875 86.900625 154.996875 86.900625 
z
" style="fill: #ffffff; opacity: 0.8; stroke: #cccccc; stroke-linejoin: miter"/>
    </g>
    <g id="line2d_12">
     <path d="M 158.596875 44.1 
L 176.596875 44.1 
L 194.596875 44.1 
" style="fill: none; stroke: #1f77b4; stroke-width: 1.5; stroke-linecap: square"/>
    </g>
    <g id="text_12">
     <!-- SDT -->
     <g transform="translate(208.996875 50.4)scale(0.18 -0.18)">
      <defs>
       <path id="TimesNewRomanPSMT-53" d="M 2934 4334 
L 2934 2869 
L 2819 2869 
Q 2763 3291 2617 3541 
Q 2472 3791 2203 3937 
Q 1934 4084 1647 4084 
Q 1322 4084 1109 3886 
Q 897 3688 897 3434 
Q 897 3241 1031 3081 
Q 1225 2847 1953 2456 
Q 2547 2138 2764 1967 
Q 2981 1797 3098 1565 
Q 3216 1334 3216 1081 
Q 3216 600 2842 251 
Q 2469 -97 1881 -97 
Q 1697 -97 1534 -69 
Q 1438 -53 1133 45 
Q 828 144 747 144 
Q 669 144 623 97 
Q 578 50 556 -97 
L 441 -97 
L 441 1356 
L 556 1356 
Q 638 900 775 673 
Q 913 447 1195 297 
Q 1478 147 1816 147 
Q 2206 147 2432 353 
Q 2659 559 2659 841 
Q 2659 997 2573 1156 
Q 2488 1316 2306 1453 
Q 2184 1547 1640 1851 
Q 1097 2156 867 2337 
Q 638 2519 519 2737 
Q 400 2956 400 3219 
Q 400 3675 750 4004 
Q 1100 4334 1641 4334 
Q 1978 4334 2356 4169 
Q 2531 4091 2603 4091 
Q 2684 4091 2736 4139 
Q 2788 4188 2819 4334 
L 2934 4334 
z
" transform="scale(0.015625)"/>
       <path id="TimesNewRomanPSMT-44" d="M 109 0 
L 109 116 
L 269 116 
Q 538 116 650 288 
Q 719 391 719 750 
L 719 3488 
Q 719 3884 631 3984 
Q 509 4122 269 4122 
L 109 4122 
L 109 4238 
L 1834 4238 
Q 2784 4238 3279 4022 
Q 3775 3806 4076 3303 
Q 4378 2800 4378 2141 
Q 4378 1256 3841 663 
Q 3238 0 2003 0 
L 109 0 
z
M 1319 306 
Q 1716 219 1984 219 
Q 2709 219 3187 728 
Q 3666 1238 3666 2109 
Q 3666 2988 3187 3494 
Q 2709 4000 1959 4000 
Q 1678 4000 1319 3909 
L 1319 306 
z
" transform="scale(0.015625)"/>
       <path id="TimesNewRomanPSMT-54" d="M 3703 4238 
L 3750 3244 
L 3631 3244 
Q 3597 3506 3538 3619 
Q 3441 3800 3280 3886 
Q 3119 3972 2856 3972 
L 2259 3972 
L 2259 734 
Q 2259 344 2344 247 
Q 2463 116 2709 116 
L 2856 116 
L 2856 0 
L 1059 0 
L 1059 116 
L 1209 116 
Q 1478 116 1591 278 
Q 1659 378 1659 734 
L 1659 3972 
L 1150 3972 
Q 853 3972 728 3928 
Q 566 3869 450 3700 
Q 334 3531 313 3244 
L 194 3244 
L 244 4238 
L 3703 4238 
z
" transform="scale(0.015625)"/>
      </defs>
      <use xlink:href="#TimesNewRomanPSMT-53"/>
      <use xlink:href="#TimesNewRomanPSMT-44" x="55.615234"/>
      <use xlink:href="#TimesNewRomanPSMT-54" x="127.832031"/>
     </g>
    </g>
    <g id="line2d_13">
     <path d="M 158.596875 69.550312 
L 176.596875 69.550312 
L 194.596875 69.550312 
" style="fill: none; stroke: #ff7f0e; stroke-width: 1.5; stroke-linecap: square"/>
    </g>
    <g id="text_13">
     <!-- TET -->
     <g transform="translate(208.996875 75.850312)scale(0.18 -0.18)">
      <use xlink:href="#TimesNewRomanPSMT-54"/>
      <use xlink:href="#TimesNewRomanPSMT-45" x="61.083984"/>
      <use xlink:href="#TimesNewRomanPSMT-54" x="122.167969"/>
     </g>
    </g>
   </g>
  </g>
 </g>
 <defs>
  <clipPath id="pb91f5a3a1c">
   <rect x="54.72" y="21.6" width="204.48" height="146.88"/>
  </clipPath>
 </defs>
</svg>
