<?xml version="1.0" encoding="utf-8" standalone="no"?>
<!DOCTYPE svg PUBLIC "-//W3C//DTD SVG 1.1//EN"
  "http://www.w3.org/Graphics/SVG/1.1/DTD/svg11.dtd">
<svg xmlns:xlink="http://www.w3.org/1999/xlink" width="288pt" height="216pt" viewBox="0 0 288 216" xmlns="http://www.w3.org/2000/svg" version="1.1">
 <metadata>
  <rdf:RDF xmlns:dc="http://purl.org/dc/elements/1.1/" xmlns:cc="http://creativecommons.org/ns#" xmlns:rdf="http://www.w3.org/1999/02/22-rdf-syntax-ns#">
   <cc:Work>
    <dc:type rdf:resource="http://purl.org/dc/dcmitype/StillImage"/>
    <dc:date>2024-05-21T22:17:34.895063</dc:date>
    <dc:format>image/svg+xml</dc:format>
    <dc:creator>
     <cc:Agent>
      <dc:title>Matplotlib v3.5.0, https://matplotlib.org/</dc:title>
     </cc:Agent>
    </dc:creator>
   </cc:Work>
  </rdf:RDF>
 </metadata>
 <defs>
  <style type="text/css">*{stroke-linejoin: round; stroke-linecap: butt}</style>
 </defs>
 <g id="figure_1">
  <g id="patch_1">
   <path d="M 0 216 
L 288 216 
L 288 0 
L 0 0 
z
" style="fill: #ffffff"/>
  </g>
  <g id="axes_1">
   <g id="patch_2">
    <path d="M 54.72 168.48 
L 259.2 168.48 
L 259.2 21.6 
L 54.72 21.6 
z
" style="fill: #ffffff"/>
   </g>
   <g id="matplotlib.axis_1">
    <g id="xtick_1">
     <g id="line2d_1">
      <defs>
       <path id="mab7047c69b" d="M 0 0 
L 0 3.5 
" style="stroke: #000000; stroke-width: 0.8"/>
      </defs>
      <g>
       <use xlink:href="#mab7047c69b" x="64.014545" y="168.48" style="stroke: #000000; stroke-width: 0.8"/>
      </g>
     </g>
     <g id="text_1">
      <!-- 0 -->
      <g transform="translate(59.514545 187.97875)scale(0.18 -0.18)">
       <defs>
        <path id="TimesNewRomanPSMT-30" d="M 231 2094 
Q 231 2819 450 3342 
Q 669 3866 1031 4122 
Q 1313 4325 1613 4325 
Q 2100 4325 2488 3828 
Q 2972 3213 2972 2159 
Q 2972 1422 2759 906 
Q 2547 391 2217 158 
Q 1888 -75 1581 -75 
Q 975 -75 572 641 
Q 231 1244 231 2094 
z
M 844 2016 
Q 844 1141 1059 588 
Q 1238 122 1591 122 
Q 1759 122 1940 273 
Q 2122 425 2216 781 
Q 2359 1319 2359 2297 
Q 2359 3022 2209 3506 
Q 2097 3866 1919 4016 
Q 1791 4119 1609 4119 
Q 1397 4119 1231 3928 
Q 1006 3669 925 3112 
Q 844 2556 844 2016 
z
" transform="scale(0.015625)"/>
       </defs>
       <use xlink:href="#TimesNewRomanPSMT-30"/>
      </g>
     </g>
    </g>
    <g id="xtick_2">
     <g id="line2d_2">
      <g>
       <use xlink:href="#mab7047c69b" x="157.053038" y="168.48" style="stroke: #000000; stroke-width: 0.8"/>
      </g>
     </g>
     <g id="text_2">
      <!-- 500 -->
      <g transform="translate(143.553038 187.97875)scale(0.18 -0.18)">
       <defs>
        <path id="TimesNewRomanPSMT-35" d="M 2778 4238 
L 2534 3706 
L 1259 3706 
L 981 3138 
Q 1809 3016 2294 2522 
Q 2709 2097 2709 1522 
Q 2709 1188 2573 903 
Q 2438 619 2231 419 
Q 2025 219 1772 97 
Q 1413 -75 1034 -75 
Q 653 -75 479 54 
Q 306 184 306 341 
Q 306 428 378 495 
Q 450 563 559 563 
Q 641 563 702 538 
Q 763 513 909 409 
Q 1144 247 1384 247 
Q 1750 247 2026 523 
Q 2303 800 2303 1197 
Q 2303 1581 2056 1914 
Q 1809 2247 1375 2428 
Q 1034 2569 447 2591 
L 1259 4238 
L 2778 4238 
z
" transform="scale(0.015625)"/>
       </defs>
       <use xlink:href="#TimesNewRomanPSMT-35"/>
       <use xlink:href="#TimesNewRomanPSMT-30" x="50"/>
       <use xlink:href="#TimesNewRomanPSMT-30" x="100"/>
      </g>
     </g>
    </g>
    <g id="xtick_3">
     <g id="line2d_3">
      <g>
       <use xlink:href="#mab7047c69b" x="250.091532" y="168.48" style="stroke: #000000; stroke-width: 0.8"/>
      </g>
     </g>
     <g id="text_3">
      <!-- 1000 -->
      <g transform="translate(232.091532 187.97875)scale(0.18 -0.18)">
       <defs>
        <path id="TimesNewRomanPSMT-31" d="M 750 3822 
L 1781 4325 
L 1884 4325 
L 1884 747 
Q 1884 391 1914 303 
Q 1944 216 2037 169 
Q 2131 122 2419 116 
L 2419 0 
L 825 0 
L 825 116 
Q 1125 122 1212 167 
Q 1300 213 1334 289 
Q 1369 366 1369 747 
L 1369 3034 
Q 1369 3497 1338 3628 
Q 1316 3728 1258 3775 
Q 1200 3822 1119 3822 
Q 1003 3822 797 3725 
L 750 3822 
z
" transform="scale(0.015625)"/>
       </defs>
       <use xlink:href="#TimesNewRomanPSMT-31"/>
       <use xlink:href="#TimesNewRomanPSMT-30" x="50"/>
       <use xlink:href="#TimesNewRomanPSMT-30" x="100"/>
       <use xlink:href="#TimesNewRomanPSMT-30" x="150"/>
      </g>
     </g>
    </g>
    <g id="text_4">
     <!-- Epoch -->
     <g transform="translate(133.967812 208.327812)scale(0.18 -0.18)">
      <defs>
       <path id="TimesNewRomanPSMT-45" d="M 1338 4006 
L 1338 2331 
L 2269 2331 
Q 2631 2331 2753 2441 
Q 2916 2584 2934 2947 
L 3050 2947 
L 3050 1472 
L 2934 1472 
Q 2891 1781 2847 1869 
Q 2791 1978 2662 2040 
Q 2534 2103 2269 2103 
L 1338 2103 
L 1338 706 
Q 1338 425 1363 364 
Q 1388 303 1450 267 
Q 1513 231 1688 231 
L 2406 231 
Q 2766 231 2928 281 
Q 3091 331 3241 478 
Q 3434 672 3638 1063 
L 3763 1063 
L 3397 0 
L 131 0 
L 131 116 
L 281 116 
Q 431 116 566 188 
Q 666 238 702 338 
Q 738 438 738 747 
L 738 3500 
Q 738 3903 656 3997 
Q 544 4122 281 4122 
L 131 4122 
L 131 4238 
L 3397 4238 
L 3444 3309 
L 3322 3309 
Q 3256 3644 3176 3769 
Q 3097 3894 2941 3959 
Q 2816 4006 2500 4006 
L 1338 4006 
z
" transform="scale(0.015625)"/>
       <path id="TimesNewRomanPSMT-70" d="M -6 2578 
L 875 2934 
L 994 2934 
L 994 2266 
Q 1216 2644 1439 2795 
Q 1663 2947 1909 2947 
Q 2341 2947 2628 2609 
Q 2981 2197 2981 1534 
Q 2981 794 2556 309 
Q 2206 -88 1675 -88 
Q 1444 -88 1275 -22 
Q 1150 25 994 166 
L 994 -706 
Q 994 -1000 1030 -1079 
Q 1066 -1159 1155 -1206 
Q 1244 -1253 1478 -1253 
L 1478 -1369 
L -22 -1369 
L -22 -1253 
L 56 -1253 
Q 228 -1256 350 -1188 
Q 409 -1153 442 -1076 
Q 475 -1000 475 -688 
L 475 2019 
Q 475 2297 450 2372 
Q 425 2447 370 2484 
Q 316 2522 222 2522 
Q 147 2522 31 2478 
L -6 2578 
z
M 994 2081 
L 994 1013 
Q 994 666 1022 556 
Q 1066 375 1236 237 
Q 1406 100 1666 100 
Q 1978 100 2172 344 
Q 2425 663 2425 1241 
Q 2425 1897 2138 2250 
Q 1938 2494 1663 2494 
Q 1513 2494 1366 2419 
Q 1253 2363 994 2081 
z
" transform="scale(0.015625)"/>
       <path id="TimesNewRomanPSMT-6f" d="M 1600 2947 
Q 2250 2947 2644 2453 
Q 2978 2031 2978 1484 
Q 2978 1100 2793 706 
Q 2609 313 2286 112 
Q 1963 -88 1566 -88 
Q 919 -88 538 428 
Q 216 863 216 1403 
Q 216 1797 411 2186 
Q 606 2575 925 2761 
Q 1244 2947 1600 2947 
z
M 1503 2744 
Q 1338 2744 1170 2645 
Q 1003 2547 900 2300 
Q 797 2053 797 1666 
Q 797 1041 1045 587 
Q 1294 134 1700 134 
Q 2003 134 2200 384 
Q 2397 634 2397 1244 
Q 2397 2006 2069 2444 
Q 1847 2744 1503 2744 
z
" transform="scale(0.015625)"/>
       <path id="TimesNewRomanPSMT-63" d="M 2631 1088 
Q 2516 522 2178 217 
Q 1841 -88 1431 -88 
Q 944 -88 581 321 
Q 219 731 219 1428 
Q 219 2103 620 2525 
Q 1022 2947 1584 2947 
Q 2006 2947 2278 2723 
Q 2550 2500 2550 2259 
Q 2550 2141 2473 2067 
Q 2397 1994 2259 1994 
Q 2075 1994 1981 2113 
Q 1928 2178 1911 2362 
Q 1894 2547 1784 2644 
Q 1675 2738 1481 2738 
Q 1169 2738 978 2506 
Q 725 2200 725 1697 
Q 725 1184 976 792 
Q 1228 400 1656 400 
Q 1963 400 2206 609 
Q 2378 753 2541 1131 
L 2631 1088 
z
" transform="scale(0.015625)"/>
       <path id="TimesNewRomanPSMT-68" d="M 1041 4444 
L 1041 2350 
Q 1388 2731 1591 2839 
Q 1794 2947 1997 2947 
Q 2241 2947 2416 2812 
Q 2591 2678 2675 2391 
Q 2734 2191 2734 1659 
L 2734 647 
Q 2734 375 2778 275 
Q 2809 200 2884 156 
Q 2959 113 3159 113 
L 3159 0 
L 1753 0 
L 1753 113 
L 1819 113 
Q 2019 113 2097 173 
Q 2175 234 2206 353 
Q 2216 403 2216 647 
L 2216 1659 
Q 2216 2128 2167 2275 
Q 2119 2422 2012 2495 
Q 1906 2569 1756 2569 
Q 1603 2569 1437 2487 
Q 1272 2406 1041 2159 
L 1041 647 
Q 1041 353 1073 281 
Q 1106 209 1195 161 
Q 1284 113 1503 113 
L 1503 0 
L 84 0 
L 84 113 
Q 275 113 384 172 
Q 447 203 484 290 
Q 522 378 522 647 
L 522 3238 
Q 522 3728 498 3840 
Q 475 3953 426 3993 
Q 378 4034 297 4034 
Q 231 4034 84 3984 
L 41 4094 
L 897 4444 
L 1041 4444 
z
" transform="scale(0.015625)"/>
      </defs>
      <use xlink:href="#TimesNewRomanPSMT-45"/>
      <use xlink:href="#TimesNewRomanPSMT-70" x="61.083984"/>
      <use xlink:href="#TimesNewRomanPSMT-6f" x="111.083984"/>
      <use xlink:href="#TimesNewRomanPSMT-63" x="161.083984"/>
      <use xlink:href="#TimesNewRomanPSMT-68" x="205.46875"/>
     </g>
    </g>
   </g>
   <g id="matplotlib.axis_2">
    <g id="ytick_1">
     <g id="line2d_4">
      <defs>
       <path id="m9e8ac53385" d="M 0 0 
L -3.5 0 
" style="stroke: #000000; stroke-width: 0.8"/>
      </defs>
      <g>
       <use xlink:href="#m9e8ac53385" x="54.72" y="161.938482" style="stroke: #000000; stroke-width: 0.8"/>
      </g>
     </g>
     <g id="text_5">
      <!-- 0.0 -->
      <g transform="translate(25.22 168.187857)scale(0.18 -0.18)">
       <defs>
        <path id="TimesNewRomanPSMT-2e" d="M 800 606 
Q 947 606 1047 504 
Q 1147 403 1147 259 
Q 1147 116 1045 14 
Q 944 -88 800 -88 
Q 656 -88 554 14 
Q 453 116 453 259 
Q 453 406 554 506 
Q 656 606 800 606 
z
" transform="scale(0.015625)"/>
       </defs>
       <use xlink:href="#TimesNewRomanPSMT-30"/>
       <use xlink:href="#TimesNewRomanPSMT-2e" x="50"/>
       <use xlink:href="#TimesNewRomanPSMT-30" x="75"/>
      </g>
     </g>
    </g>
    <g id="ytick_2">
     <g id="line2d_5">
      <g>
       <use xlink:href="#m9e8ac53385" x="54.72" y="137.834706" style="stroke: #000000; stroke-width: 0.8"/>
      </g>
     </g>
     <g id="text_6">
      <!-- 0.5 -->
      <g transform="translate(25.22 144.084081)scale(0.18 -0.18)">
       <use xlink:href="#TimesNewRomanPSMT-30"/>
       <use xlink:href="#TimesNewRomanPSMT-2e" x="50"/>
       <use xlink:href="#TimesNewRomanPSMT-35" x="75"/>
      </g>
     </g>
    </g>
    <g id="ytick_3">
     <g id="line2d_6">
      <g>
       <use xlink:href="#m9e8ac53385" x="54.72" y="113.73093" style="stroke: #000000; stroke-width: 0.8"/>
      </g>
     </g>
     <g id="text_7">
      <!-- 1.0 -->
      <g transform="translate(25.22 119.980305)scale(0.18 -0.18)">
       <use xlink:href="#TimesNewRomanPSMT-31"/>
       <use xlink:href="#TimesNewRomanPSMT-2e" x="50"/>
       <use xlink:href="#TimesNewRomanPSMT-30" x="75"/>
      </g>
     </g>
    </g>
    <g id="ytick_4">
     <g id="line2d_7">
      <g>
       <use xlink:href="#m9e8ac53385" x="54.72" y="89.627154" style="stroke: #000000; stroke-width: 0.8"/>
      </g>
     </g>
     <g id="text_8">
      <!-- 1.5 -->
      <g transform="translate(25.22 95.876529)scale(0.18 -0.18)">
       <use xlink:href="#TimesNewRomanPSMT-31"/>
       <use xlink:href="#TimesNewRomanPSMT-2e" x="50"/>
       <use xlink:href="#TimesNewRomanPSMT-35" x="75"/>
      </g>
     </g>
    </g>
    <g id="ytick_5">
     <g id="line2d_8">
      <g>
       <use xlink:href="#m9e8ac53385" x="54.72" y="65.523378" style="stroke: #000000; stroke-width: 0.8"/>
      </g>
     </g>
     <g id="text_9">
      <!-- 2.0 -->
      <g transform="translate(25.22 71.772753)scale(0.18 -0.18)">
       <defs>
        <path id="TimesNewRomanPSMT-32" d="M 2934 816 
L 2638 0 
L 138 0 
L 138 116 
Q 1241 1122 1691 1759 
Q 2141 2397 2141 2925 
Q 2141 3328 1894 3587 
Q 1647 3847 1303 3847 
Q 991 3847 742 3664 
Q 494 3481 375 3128 
L 259 3128 
Q 338 3706 661 4015 
Q 984 4325 1469 4325 
Q 1984 4325 2329 3994 
Q 2675 3663 2675 3213 
Q 2675 2891 2525 2569 
Q 2294 2063 1775 1497 
Q 997 647 803 472 
L 1909 472 
Q 2247 472 2383 497 
Q 2519 522 2628 598 
Q 2738 675 2819 816 
L 2934 816 
z
" transform="scale(0.015625)"/>
       </defs>
       <use xlink:href="#TimesNewRomanPSMT-32"/>
       <use xlink:href="#TimesNewRomanPSMT-2e" x="50"/>
       <use xlink:href="#TimesNewRomanPSMT-30" x="75"/>
      </g>
     </g>
    </g>
    <g id="ytick_6">
     <g id="line2d_9">
      <g>
       <use xlink:href="#m9e8ac53385" x="54.72" y="41.419601" style="stroke: #000000; stroke-width: 0.8"/>
      </g>
     </g>
     <g id="text_10">
      <!-- 2.5 -->
      <g transform="translate(25.22 47.668976)scale(0.18 -0.18)">
       <use xlink:href="#TimesNewRomanPSMT-32"/>
       <use xlink:href="#TimesNewRomanPSMT-2e" x="50"/>
       <use xlink:href="#TimesNewRomanPSMT-35" x="75"/>
      </g>
     </g>
    </g>
    <g id="text_11">
     <!-- Loss -->
     <g transform="translate(17.369687 112.042969)rotate(-90)scale(0.18 -0.18)">
      <defs>
       <path id="TimesNewRomanPSMT-4c" d="M 3669 1172 
L 3772 1150 
L 3409 0 
L 128 0 
L 128 116 
L 288 116 
Q 556 116 672 291 
Q 738 391 738 753 
L 738 3488 
Q 738 3884 650 3984 
Q 528 4122 288 4122 
L 128 4122 
L 128 4238 
L 2047 4238 
L 2047 4122 
Q 1709 4125 1573 4059 
Q 1438 3994 1388 3894 
Q 1338 3794 1338 3416 
L 1338 753 
Q 1338 494 1388 397 
Q 1425 331 1503 300 
Q 1581 269 1991 269 
L 2300 269 
Q 2788 269 2984 341 
Q 3181 413 3343 595 
Q 3506 778 3669 1172 
z
" transform="scale(0.015625)"/>
       <path id="TimesNewRomanPSMT-73" d="M 2050 2947 
L 2050 1972 
L 1947 1972 
Q 1828 2431 1642 2597 
Q 1456 2763 1169 2763 
Q 950 2763 815 2647 
Q 681 2531 681 2391 
Q 681 2216 781 2091 
Q 878 1963 1175 1819 
L 1631 1597 
Q 2266 1288 2266 781 
Q 2266 391 1970 151 
Q 1675 -88 1309 -88 
Q 1047 -88 709 6 
Q 606 38 541 38 
Q 469 38 428 -44 
L 325 -44 
L 325 978 
L 428 978 
Q 516 541 762 319 
Q 1009 97 1316 97 
Q 1531 97 1667 223 
Q 1803 350 1803 528 
Q 1803 744 1651 891 
Q 1500 1038 1047 1263 
Q 594 1488 453 1669 
Q 313 1847 313 2119 
Q 313 2472 555 2709 
Q 797 2947 1181 2947 
Q 1350 2947 1591 2875 
Q 1750 2828 1803 2828 
Q 1853 2828 1881 2850 
Q 1909 2872 1947 2947 
L 2050 2947 
z
" transform="scale(0.015625)"/>
      </defs>
      <use xlink:href="#TimesNewRomanPSMT-4c"/>
      <use xlink:href="#TimesNewRomanPSMT-6f" x="61.083984"/>
      <use xlink:href="#TimesNewRomanPSMT-73" x="111.083984"/>
      <use xlink:href="#TimesNewRomanPSMT-73" x="150"/>
     </g>
    </g>
   </g>
   <g id="line2d_10">
    <path d="M 64.014545 28.276364 
L 64.386699 28.452928 
L 65.317084 29.12421 
L 65.689238 29.051697 
L 66.433546 29.280649 
L 66.991777 29.345554 
L 69.224701 30.244696 
L 69.969009 30.847844 
L 70.713317 31.885381 
L 72.946241 36.380599 
L 73.318395 36.933636 
L 73.504472 37.349404 
L 73.690549 37.411021 
L 74.062703 38.058684 
L 75.179165 39.469233 
L 75.365242 39.465337 
L 75.923473 39.973606 
L 76.295627 40.210868 
L 76.667781 40.780271 
L 77.039934 41.091402 
L 78.52855 42.789003 
L 78.714627 43.119225 
L 78.900704 43.160062 
L 79.458935 43.85247 
L 80.017166 44.439699 
L 81.319705 46.342714 
L 81.691859 46.746288 
L 81.877936 47.235638 
L 82.064013 47.194422 
L 82.25009 47.785721 
L 82.994398 48.547986 
L 83.366552 49.420762 
L 85.041245 52.244654 
L 85.227322 52.156509 
L 85.413399 52.33974 
L 85.599476 52.72474 
L 85.785553 53.379081 
L 85.97163 53.556151 
L 86.157707 53.893143 
L 86.529861 54.805422 
L 87.274169 56.49615 
L 87.460246 56.724355 
L 88.018477 58.374028 
L 88.204554 58.60136 
L 88.390631 59.420656 
L 88.576708 59.104077 
L 88.762785 60.061055 
L 88.948862 60.160153 
L 89.134939 61.161221 
L 89.321016 61.312924 
L 89.69317 62.313371 
L 90.065324 63.018525 
L 90.437477 64.588444 
L 90.623554 64.737815 
L 90.809631 65.743744 
L 90.995708 66.047542 
L 91.367862 67.283073 
L 91.553939 67.597974 
L 92.11217 68.929861 
L 92.298247 68.965077 
L 92.484324 68.67729 
L 92.670401 70.900866 
L 92.856478 71.490354 
L 93.042555 70.8363 
L 93.414709 72.848578 
L 93.600786 72.790576 
L 93.786863 73.338182 
L 93.97294 74.754369 
L 94.159017 74.344531 
L 94.345094 75.920685 
L 94.531171 76.251591 
L 94.717248 76.116127 
L 94.903325 76.975163 
L 95.089402 77.211051 
L 95.275479 76.826942 
L 95.461556 77.358968 
L 95.83371 78.830278 
L 96.019787 78.296154 
L 96.205864 80.079814 
L 96.578018 80.627793 
L 96.764095 81.93948 
L 96.950172 81.893379 
L 97.136249 82.473213 
L 97.322326 83.483924 
L 97.508403 83.669591 
L 97.69448 84.152626 
L 97.880557 85.316183 
L 98.252711 85.789018 
L 98.624865 86.657329 
L 98.810942 87.571769 
L 98.997019 87.63022 
L 99.369173 89.142837 
L 99.927404 90.574966 
L 100.299558 92.392422 
L 100.485635 91.980527 
L 100.671712 92.241011 
L 100.857789 92.203284 
L 101.043866 92.621225 
L 101.229943 93.869979 
L 101.41602 94.258548 
L 101.788174 94.243618 
L 102.160328 95.556948 
L 102.346405 95.496555 
L 102.718559 97.459037 
L 103.090713 98.013183 
L 103.27679 98.367835 
L 103.462867 99.355684 
L 103.83502 99.459517 
L 104.021097 100.874147 
L 104.207174 101.104593 
L 104.393251 100.949366 
L 104.579328 100.939419 
L 104.765405 102.02678 
L 104.951482 102.05437 
L 105.137559 101.747785 
L 105.323636 102.753576 
L 105.509713 103.142668 
L 105.69579 103.090269 
L 105.881867 103.787205 
L 106.067944 103.6196 
L 106.254021 104.451126 
L 106.440098 104.163901 
L 107.184406 107.081367 
L 107.742637 107.579269 
L 107.928714 108.826127 
L 108.300868 109.393657 
L 108.486945 110.157244 
L 108.673022 109.622793 
L 109.231253 110.877834 
L 109.41733 110.754128 
L 109.603407 111.205153 
L 109.789484 111.159329 
L 109.975561 111.54549 
L 110.533792 109.591047 
L 110.905946 113.02923 
L 111.092023 112.776923 
L 111.2781 111.276896 
L 111.464177 113.314363 
L 111.650254 113.886004 
L 111.836331 113.05982 
L 112.022408 113.130212 
L 112.208485 114.400092 
L 112.394562 113.768138 
L 112.766716 115.899305 
L 112.952793 114.474016 
L 113.324947 117.409848 
L 113.511024 115.965379 
L 113.697101 118.245498 
L 114.069255 118.428832 
L 114.255332 119.26378 
L 114.813563 120.215749 
L 115.185717 120.744666 
L 115.371794 121.001801 
L 115.743948 122.331435 
L 116.302179 122.859786 
L 116.488256 123.286902 
L 116.86041 123.488468 
L 117.046486 123.728824 
L 117.232563 123.639286 
L 117.41864 124.14357 
L 117.790794 124.095639 
L 118.907256 125.709351 
L 119.093333 125.852234 
L 119.465487 127.299088 
L 119.651564 127.382368 
L 119.837641 126.05696 
L 120.023718 125.779445 
L 120.209795 125.92941 
L 120.395872 128.235527 
L 120.581949 128.210353 
L 120.768026 127.671925 
L 120.954103 127.888165 
L 121.14018 129.089531 
L 121.512334 128.359152 
L 121.698411 129.877755 
L 121.884488 129.747872 
L 122.070565 128.880992 
L 122.256642 130.224706 
L 122.442719 130.592808 
L 122.628796 129.751639 
L 122.814873 131.219225 
L 123.00095 131.570903 
L 123.187027 130.970633 
L 123.559181 132.526329 
L 123.745258 132.026336 
L 123.931335 132.933702 
L 124.117412 132.977515 
L 124.303489 132.361997 
L 124.489566 134.330576 
L 124.675643 133.380356 
L 124.86172 133.342353 
L 125.047797 134.29467 
L 125.419951 133.823009 
L 125.606028 133.776876 
L 126.350336 135.350367 
L 126.536413 135.319403 
L 126.908567 136.474852 
L 127.094644 136.265827 
L 127.466798 136.725458 
L 127.652875 137.552289 
L 127.838952 136.967458 
L 128.025029 137.250539 
L 128.211106 136.916039 
L 128.58326 138.027586 
L 128.769337 139.179136 
L 128.955414 138.944453 
L 129.141491 138.186828 
L 129.513645 139.407545 
L 129.699722 138.879613 
L 130.071876 139.550949 
L 130.257952 139.239504 
L 130.630106 140.627828 
L 130.816183 139.809543 
L 131.188337 140.760607 
L 131.374414 141.066119 
L 131.560491 140.955704 
L 131.932645 140.581296 
L 132.118722 140.916324 
L 132.304799 141.575248 
L 133.049107 142.460191 
L 133.607338 142.816328 
L 133.793415 142.446624 
L 134.165569 143.28209 
L 134.351646 143.156449 
L 134.537723 143.813392 
L 134.7238 144.012502 
L 134.909877 143.608829 
L 135.095954 144.083751 
L 135.282031 144.24957 
L 135.468108 144.799874 
L 135.840262 144.900532 
L 136.026339 144.484739 
L 136.212416 144.524133 
L 136.398493 144.858105 
L 136.58457 144.861856 
L 136.770647 145.058545 
L 136.956724 144.375494 
L 137.142801 144.586914 
L 137.328878 144.317385 
L 137.887109 145.018167 
L 138.259263 144.384562 
L 138.44534 144.748002 
L 138.631417 144.624806 
L 138.817494 145.672822 
L 139.003571 145.553548 
L 139.375725 146.025146 
L 139.561802 145.308206 
L 139.747879 146.421691 
L 139.933956 146.401937 
L 140.120033 146.973463 
L 140.492187 146.554056 
L 140.678264 146.825589 
L 141.050418 146.807013 
L 141.236495 146.989515 
L 141.422572 146.467886 
L 141.794726 147.129139 
L 141.980803 147.110855 
L 142.16688 147.631374 
L 142.352957 147.777831 
L 142.539034 147.41777 
L 142.725111 147.705747 
L 143.097265 147.851091 
L 143.469419 148.482766 
L 143.655495 148.353486 
L 143.841572 148.843578 
L 144.213726 148.741735 
L 144.58588 149.157338 
L 145.330188 149.661284 
L 145.516265 149.429064 
L 145.702342 149.798963 
L 145.888419 149.898877 
L 146.074496 149.579523 
L 146.818804 149.958888 
L 147.004881 150.432183 
L 147.190958 150.291811 
L 147.563112 150.94163 
L 147.935266 151.134226 
L 148.121343 151.389218 
L 148.30742 151.338834 
L 148.493497 151.91754 
L 148.679574 151.947663 
L 148.865651 152.202112 
L 149.051728 152.176164 
L 149.237805 152.42235 
L 149.423882 152.278471 
L 149.609959 152.630267 
L 149.982113 152.288877 
L 150.16819 152.301275 
L 150.354267 152.118988 
L 150.726421 152.590817 
L 150.912498 152.560759 
L 151.284652 153.205717 
L 151.470729 153.108031 
L 151.842883 153.130865 
L 152.02896 152.867202 
L 152.401114 153.451522 
L 152.587191 153.368081 
L 152.959345 153.347192 
L 153.331499 154.060401 
L 153.517576 153.871568 
L 153.88973 154.113229 
L 154.075807 153.993696 
L 154.261884 154.194683 
L 154.447961 153.63814 
L 154.634038 153.943493 
L 155.006192 153.616843 
L 155.378346 153.599564 
L 155.564423 153.726396 
L 155.936577 154.166877 
L 156.122654 153.987932 
L 156.308731 154.070405 
L 156.494808 153.687816 
L 156.866962 154.66215 
L 157.239115 154.557158 
L 157.425192 154.823452 
L 157.611269 154.620436 
L 157.797346 154.884212 
L 157.983423 154.72673 
L 158.727731 155.561589 
L 159.099885 154.869356 
L 159.285962 155.087483 
L 159.472039 155.013233 
L 159.658116 155.112167 
L 159.844193 155.630209 
L 160.03027 155.289388 
L 160.216347 155.212306 
L 160.588501 155.526598 
L 160.774578 155.583125 
L 160.960655 155.777804 
L 161.332809 155.139372 
L 162.263194 155.519103 
L 162.635348 156.093917 
L 163.007502 156.125573 
L 163.193579 156.169159 
L 163.379656 156.350076 
L 163.565733 156.226466 
L 163.75181 155.889007 
L 163.937887 156.184242 
L 164.310041 156.252907 
L 164.496118 155.991455 
L 164.868272 156.08579 
L 165.054349 156.400641 
L 165.240426 156.296477 
L 165.61258 156.459717 
L 165.798657 156.565247 
L 165.984734 156.387632 
L 167.101196 156.92646 
L 167.287273 156.939489 
L 167.47335 156.745499 
L 167.659427 156.953134 
L 167.845504 156.851639 
L 168.403735 157.200238 
L 168.775889 157.250072 
L 168.961966 157.378155 
L 169.520197 156.817975 
L 169.706274 157.07081 
L 170.078428 156.861275 
L 170.450581 157.051664 
L 170.636658 156.900109 
L 170.822735 157.173023 
L 171.008812 157.041143 
L 171.380966 157.602653 
L 171.939197 157.098394 
L 172.125274 157.207314 
L 172.311351 157.029209 
L 172.497428 157.43935 
L 173.055659 157.566588 
L 173.241736 157.86661 
L 173.799967 157.984483 
L 173.986044 157.816522 
L 174.358198 157.974346 
L 174.544275 157.603366 
L 174.730352 157.783242 
L 174.916429 157.691326 
L 175.288583 157.815724 
L 175.47466 157.839848 
L 175.660737 157.706872 
L 175.846814 157.977879 
L 176.591122 158.157247 
L 176.777199 158.050001 
L 176.963276 158.122336 
L 177.149353 158.058547 
L 177.707584 158.16247 
L 177.893661 158.042044 
L 178.265815 158.098665 
L 178.451892 157.909053 
L 178.637969 158.345582 
L 179.010123 158.504268 
L 179.1962 158.252092 
L 179.568354 158.44455 
L 180.126585 158.259335 
L 180.498739 158.399784 
L 181.05697 158.737322 
L 181.243047 158.802011 
L 181.987355 158.614119 
L 182.731663 158.807037 
L 182.91774 158.731721 
L 183.289894 159.007512 
L 183.475971 159.051016 
L 183.662048 158.915242 
L 184.406355 158.985976 
L 184.592432 158.816428 
L 184.778509 158.850507 
L 184.964586 158.738724 
L 185.150663 158.876233 
L 185.33674 158.802996 
L 185.522817 158.970804 
L 185.708894 158.926903 
L 186.453202 159.174505 
L 186.825356 159.136396 
L 187.19751 159.360669 
L 187.383587 159.248357 
L 187.569664 159.355699 
L 187.755741 159.188511 
L 187.941818 159.330176 
L 188.127895 159.304821 
L 188.313972 159.461558 
L 188.686126 159.30957 
L 188.872203 159.244785 
L 189.05828 159.372061 
L 189.244357 159.25952 
L 189.802588 159.44609 
L 189.988665 159.531991 
L 190.174742 159.471082 
L 190.360819 159.552483 
L 190.732973 159.386128 
L 191.291204 159.552265 
L 191.663358 159.502974 
L 192.035512 159.667131 
L 192.593743 159.434797 
L 192.77982 159.57953 
L 192.965897 159.502946 
L 193.338051 159.575046 
L 193.710205 159.53697 
L 194.454513 159.658126 
L 194.826667 159.450094 
L 195.012744 159.81096 
L 195.570975 159.684394 
L 196.129206 159.754986 
L 197.245667 159.746089 
L 197.431744 159.381993 
L 197.989975 159.802623 
L 198.362129 159.879817 
L 199.478591 159.997422 
L 199.664668 159.791905 
L 200.036822 159.813302 
L 200.78113 160.035111 
L 202.083669 160.034843 
L 202.269746 159.96625 
L 202.6419 159.99706 
L 202.827977 159.901241 
L 203.200131 159.924896 
L 203.572285 159.956713 
L 203.944439 160.166314 
L 204.130516 160.017907 
L 204.688747 160.259205 
L 204.874824 160.059465 
L 205.991286 160.007894 
L 206.549517 160.243052 
L 207.665979 160.203185 
L 207.852056 160.096796 
L 208.968518 160.380232 
L 209.154595 160.238292 
L 209.526749 160.264546 
L 209.712826 160.264168 
L 209.898903 160.13627 
L 210.271057 160.294694 
L 210.64321 160.346525 
L 211.201441 160.36222 
L 211.387518 160.501094 
L 211.573595 160.397359 
L 211.945749 160.616658 
L 213.062211 160.519487 
L 213.248288 160.646607 
L 213.620442 160.540024 
L 213.992596 160.6087 
L 214.36475 160.588026 
L 214.922981 160.665958 
L 215.667289 160.664618 
L 215.853366 160.525842 
L 216.039443 160.698113 
L 216.411597 160.630903 
L 216.597674 160.395776 
L 216.783751 160.657872 
L 217.714136 160.640343 
L 218.830598 160.737164 
L 219.202752 160.628945 
L 219.574906 160.598851 
L 220.133137 160.577472 
L 220.877445 160.586582 
L 221.435676 160.683797 
L 222.366061 160.685216 
L 222.552138 160.582457 
L 222.924292 160.688565 
L 223.296446 160.734728 
L 223.6686 160.782966 
L 224.040753 160.725076 
L 226.459754 160.719447 
L 227.94837 160.756051 
L 228.134447 160.684668 
L 228.878755 160.78195 
L 229.623063 160.740278 
L 229.80914 160.787644 
L 230.181294 160.676853 
L 230.925602 160.775235 
L 231.297756 160.73537 
L 231.855987 160.829041 
L 232.042064 160.774601 
L 232.414218 160.841292 
L 233.344603 160.763651 
L 233.716757 160.777905 
L 233.902834 160.772364 
L 234.088911 160.539877 
L 234.461065 160.78426 
L 235.205373 160.740181 
L 237.252219 160.803968 
L 237.438296 160.756092 
L 237.624373 160.890717 
L 237.996527 160.836605 
L 238.368681 160.852625 
L 238.740835 160.747642 
L 239.112989 160.858999 
L 240.415528 160.909392 
L 240.787682 160.84515 
L 242.834529 160.965955 
L 243.578837 160.937415 
L 244.137068 161.04976 
L 244.323145 160.931033 
L 244.881376 161.033672 
L 245.067453 160.977162 
L 245.25353 161.069061 
L 245.625684 161.039528 
L 247.672531 161.030373 
L 248.044685 161.007536 
L 248.416839 161.01994 
L 249.347224 160.940815 
L 249.905455 161.002882 
L 249.905455 161.002882 
" clip-path="url(#p87f67cf8eb)" style="fill: none; stroke: #1f77b4; stroke-width: 1.5; stroke-linecap: square"/>
   </g>
   <g id="line2d_11">
    <path d="M 64.014545 28.276364 
L 64.386699 28.458215 
L 65.317084 29.154117 
L 66.061392 29.223308 
L 66.619623 29.21817 
L 67.922162 29.557805 
L 68.480393 29.728129 
L 68.852547 29.879568 
L 70.899394 31.069958 
L 76.10955 36.35013 
L 76.481704 36.89065 
L 77.226011 37.807561 
L 77.598165 38.194469 
L 78.714627 39.836016 
L 78.900704 39.968319 
L 79.458935 41.017257 
L 80.38932 42.453345 
L 81.133628 43.859389 
L 81.505782 44.248297 
L 81.877936 45.165657 
L 82.064013 45.412952 
L 82.436167 46.278511 
L 83.366552 47.96471 
L 83.738706 48.91385 
L 84.11086 49.757018 
L 85.785553 53.583276 
L 88.204554 60.311064 
L 88.576708 61.286638 
L 89.69317 64.746481 
L 89.879247 65.197512 
L 90.2514 66.673367 
L 90.437477 67.010531 
L 90.809631 68.330149 
L 92.484324 74.22094 
L 93.042555 75.863211 
L 93.228632 76.659256 
L 93.414709 76.832171 
L 93.786863 78.713532 
L 93.97294 79.04349 
L 94.345094 80.928252 
L 94.531171 81.321896 
L 95.089402 83.478211 
L 95.83371 86.221452 
L 96.019787 86.586965 
L 96.391941 88.041598 
L 97.508403 92.313157 
L 97.880557 93.321408 
L 98.438788 95.396963 
L 98.810942 96.407151 
L 102.904636 109.657078 
L 103.090713 109.947854 
L 104.579328 114.298385 
L 106.067944 118.238587 
L 106.254021 118.488647 
L 106.626175 119.658368 
L 106.998329 120.509295 
L 107.742637 122.377079 
L 108.114791 122.934006 
L 108.673022 124.230682 
L 109.41733 125.822629 
L 109.975561 127.119952 
L 110.161638 127.304763 
L 110.533792 128.311192 
L 110.719869 128.427841 
L 111.092023 129.578494 
L 111.464177 130.36552 
L 113.511024 134.310701 
L 113.697101 134.372738 
L 114.069255 135.084575 
L 114.441409 135.978152 
L 114.627486 136.080853 
L 114.813563 136.531559 
L 114.99964 136.678769 
L 115.371794 137.347801 
L 115.930025 138.361843 
L 116.302179 139.188651 
L 116.488256 139.083926 
L 116.86041 139.820821 
L 117.046486 140.007491 
L 117.232563 140.451477 
L 117.41864 140.595049 
L 117.976871 141.433724 
L 118.349025 141.853888 
L 119.465487 143.330503 
L 119.651564 143.452597 
L 120.209795 144.302866 
L 120.954103 145.204723 
L 121.326257 145.399311 
L 121.512334 145.744952 
L 121.698411 145.853861 
L 121.884488 145.792871 
L 122.256642 146.318455 
L 122.442719 146.363773 
L 126.908567 150.189181 
L 127.094644 150.191526 
L 127.466798 150.517782 
L 128.025029 150.998329 
L 128.211106 151.024244 
L 129.513645 152.04474 
L 129.885799 152.265812 
L 130.257952 152.492406 
L 130.630106 152.640785 
L 131.00226 153.038124 
L 131.374414 153.195617 
L 131.932645 153.680502 
L 132.490876 153.883574 
L 132.86303 154.044698 
L 134.351646 154.584191 
L 134.537723 154.783086 
L 134.7238 154.762092 
L 134.909877 154.918309 
L 135.095954 154.92789 
L 135.654185 155.218938 
L 136.212416 155.405133 
L 136.58457 155.640985 
L 138.44534 156.270686 
L 138.631417 156.46366 
L 139.003571 156.549756 
L 139.375725 156.699002 
L 141.608649 157.353467 
L 141.980803 157.527085 
L 143.655495 157.892865 
L 144.58588 157.94151 
L 145.144111 158.220409 
L 145.516265 158.250828 
L 146.074496 158.365487 
L 147.004881 158.509695 
L 147.190958 158.457366 
L 147.935266 158.724556 
L 149.609959 159.077871 
L 150.16819 159.251109 
L 150.540344 159.240767 
L 151.656806 159.371517 
L 153.517576 159.59361 
L 153.88973 159.680737 
L 154.075807 159.621328 
L 154.820115 159.766262 
L 156.122654 159.867378 
L 157.053038 159.895167 
L 157.983423 159.984886 
L 158.541654 160.041212 
L 159.099885 160.071796 
L 162.449271 160.354859 
L 163.193579 160.423679 
L 182.359509 161.267323 
L 182.91774 161.245465 
L 186.639279 161.369018 
L 187.941818 161.359475 
L 189.616511 161.408346 
L 191.477281 161.428397 
L 194.826667 161.493656 
L 199.106437 161.521218 
L 201.525438 161.553596 
L 232.042064 161.754389 
L 234.088911 161.749961 
L 240.973759 161.784578 
L 246.928223 161.793624 
L 249.905455 161.801112 
L 249.905455 161.801112 
" clip-path="url(#p87f67cf8eb)" style="fill: none; stroke: #ff7f0e; stroke-width: 1.5; stroke-linecap: square"/>
   </g>
   <g id="patch_3">
    <path d="M 54.72 168.48 
L 54.72 21.6 
" style="fill: none; stroke: #000000; stroke-width: 0.8; stroke-linejoin: miter; stroke-linecap: square"/>
   </g>
   <g id="patch_4">
    <path d="M 259.2 168.48 
L 259.2 21.6 
" style="fill: none; stroke: #000000; stroke-width: 0.8; stroke-linejoin: miter; stroke-linecap: square"/>
   </g>
   <g id="patch_5">
    <path d="M 54.72 168.48 
L 259.2 168.48 
" style="fill: none; stroke: #000000; stroke-width: 0.8; stroke-linejoin: miter; stroke-linecap: square"/>
   </g>
   <g id="patch_6">
    <path d="M 54.72 21.6 
L 259.2 21.6 
" style="fill: none; stroke: #000000; stroke-width: 0.8; stroke-linejoin: miter; stroke-linecap: square"/>
   </g>
   <g id="legend_1">
    <g id="patch_7">
     <path d="M 154.996875 86.900625 
L 246.6 86.900625 
Q 250.2 86.900625 250.2 83.300625 
L 250.2 34.2 
Q 250.2 30.6 246.6 30.6 
L 154.996875 30.6 
Q 151.396875 30.6 151.396875 34.2 
L 151.396875 83.300625 
Q 151.396875 86.900625 154.996875 86.900625 
z
" style="fill: #ffffff; opacity: 0.8; stroke: #cccccc; stroke-linejoin: miter"/>
    </g>
    <g id="line2d_12">
     <path d="M 158.596875 44.1 
L 176.596875 44.1 
L 194.596875 44.1 
" style="fill: none; stroke: #1f77b4; stroke-width: 1.5; stroke-linecap: square"/>
    </g>
    <g id="text_12">
     <!-- SDT -->
     <g transform="translate(208.996875 50.4)scale(0.18 -0.18)">
      <defs>
       <path id="TimesNewRomanPSMT-53" d="M 2934 4334 
L 2934 2869 
L 2819 2869 
Q 2763 3291 2617 3541 
Q 2472 3791 2203 3937 
Q 1934 4084 1647 4084 
Q 1322 4084 1109 3886 
Q 897 3688 897 3434 
Q 897 3241 1031 3081 
Q 1225 2847 1953 2456 
Q 2547 2138 2764 1967 
Q 2981 1797 3098 1565 
Q 3216 1334 3216 1081 
Q 3216 600 2842 251 
Q 2469 -97 1881 -97 
Q 1697 -97 1534 -69 
Q 1438 -53 1133 45 
Q 828 144 747 144 
Q 669 144 623 97 
Q 578 50 556 -97 
L 441 -97 
L 441 1356 
L 556 1356 
Q 638 900 775 673 
Q 913 447 1195 297 
Q 1478 147 1816 147 
Q 2206 147 2432 353 
Q 2659 559 2659 841 
Q 2659 997 2573 1156 
Q 2488 1316 2306 1453 
Q 2184 1547 1640 1851 
Q 1097 2156 867 2337 
Q 638 2519 519 2737 
Q 400 2956 400 3219 
Q 400 3675 750 4004 
Q 1100 4334 1641 4334 
Q 1978 4334 2356 4169 
Q 2531 4091 2603 4091 
Q 2684 4091 2736 4139 
Q 2788 4188 2819 4334 
L 2934 4334 
z
" transform="scale(0.015625)"/>
       <path id="TimesNewRomanPSMT-44" d="M 109 0 
L 109 116 
L 269 116 
Q 538 116 650 288 
Q 719 391 719 750 
L 719 3488 
Q 719 3884 631 3984 
Q 509 4122 269 4122 
L 109 4122 
L 109 4238 
L 1834 4238 
Q 2784 4238 3279 4022 
Q 3775 3806 4076 3303 
Q 4378 2800 4378 2141 
Q 4378 1256 3841 663 
Q 3238 0 2003 0 
L 109 0 
z
M 1319 306 
Q 1716 219 1984 219 
Q 2709 219 3187 728 
Q 3666 1238 3666 2109 
Q 3666 2988 3187 3494 
Q 2709 4000 1959 4000 
Q 1678 4000 1319 3909 
L 1319 306 
z
" transform="scale(0.015625)"/>
       <path id="TimesNewRomanPSMT-54" d="M 3703 4238 
L 3750 3244 
L 3631 3244 
Q 3597 3506 3538 3619 
Q 3441 3800 3280 3886 
Q 3119 3972 2856 3972 
L 2259 3972 
L 2259 734 
Q 2259 344 2344 247 
Q 2463 116 2709 116 
L 2856 116 
L 2856 0 
L 1059 0 
L 1059 116 
L 1209 116 
Q 1478 116 1591 278 
Q 1659 378 1659 734 
L 1659 3972 
L 1150 3972 
Q 853 3972 728 3928 
Q 566 3869 450 3700 
Q 334 3531 313 3244 
L 194 3244 
L 244 4238 
L 3703 4238 
z
" transform="scale(0.015625)"/>
      </defs>
      <use xlink:href="#TimesNewRomanPSMT-53"/>
      <use xlink:href="#TimesNewRomanPSMT-44" x="55.615234"/>
      <use xlink:href="#TimesNewRomanPSMT-54" x="127.832031"/>
     </g>
    </g>
    <g id="line2d_13">
     <path d="M 158.596875 69.550312 
L 176.596875 69.550312 
L 194.596875 69.550312 
" style="fill: none; stroke: #ff7f0e; stroke-width: 1.5; stroke-linecap: square"/>
    </g>
    <g id="text_13">
     <!-- TET -->
     <g transform="translate(208.996875 75.850312)scale(0.18 -0.18)">
      <use xlink:href="#TimesNewRomanPSMT-54"/>
      <use xlink:href="#TimesNewRomanPSMT-45" x="61.083984"/>
      <use xlink:href="#TimesNewRomanPSMT-54" x="122.167969"/>
     </g>
    </g>
   </g>
  </g>
 </g>
 <defs>
  <clipPath id="p87f67cf8eb">
   <rect x="54.72" y="21.6" width="204.48" height="146.88"/>
  </clipPath>
 </defs>
</svg>
