<?xml version="1.0" encoding="utf-8" standalone="no"?>
<!DOCTYPE svg PUBLIC "-//W3C//DTD SVG 1.1//EN"
  "http://www.w3.org/Graphics/SVG/1.1/DTD/svg11.dtd">
<svg xmlns:xlink="http://www.w3.org/1999/xlink" width="288pt" height="216pt" viewBox="0 0 288 216" xmlns="http://www.w3.org/2000/svg" version="1.1">
 <metadata>
  <rdf:RDF xmlns:dc="http://purl.org/dc/elements/1.1/" xmlns:cc="http://creativecommons.org/ns#" xmlns:rdf="http://www.w3.org/1999/02/22-rdf-syntax-ns#">
   <cc:Work>
    <dc:type rdf:resource="http://purl.org/dc/dcmitype/StillImage"/>
    <dc:date>2024-05-21T22:17:53.984729</dc:date>
    <dc:format>image/svg+xml</dc:format>
    <dc:creator>
     <cc:Agent>
      <dc:title>Matplotlib v3.5.0, https://matplotlib.org/</dc:title>
     </cc:Agent>
    </dc:creator>
   </cc:Work>
  </rdf:RDF>
 </metadata>
 <defs>
  <style type="text/css">*{stroke-linejoin: round; stroke-linecap: butt}</style>
 </defs>
 <g id="figure_1">
  <g id="patch_1">
   <path d="M 0 216 
L 288 216 
L 288 0 
L 0 0 
z
" style="fill: #ffffff"/>
  </g>
  <g id="axes_1">
   <g id="patch_2">
    <path d="M 54.72 168.48 
L 259.2 168.48 
L 259.2 21.6 
L 54.72 21.6 
z
" style="fill: #ffffff"/>
   </g>
   <g id="matplotlib.axis_1">
    <g id="xtick_1">
     <g id="line2d_1">
      <defs>
       <path id="m51572cda34" d="M 0 0 
L 0 3.5 
" style="stroke: #000000; stroke-width: 0.8"/>
      </defs>
      <g>
       <use xlink:href="#m51572cda34" x="64.014545" y="168.48" style="stroke: #000000; stroke-width: 0.8"/>
      </g>
     </g>
     <g id="text_1">
      <!-- 0 -->
      <g transform="translate(59.514545 187.97875)scale(0.18 -0.18)">
       <defs>
        <path id="TimesNewRomanPSMT-30" d="M 231 2094 
Q 231 2819 450 3342 
Q 669 3866 1031 4122 
Q 1313 4325 1613 4325 
Q 2100 4325 2488 3828 
Q 2972 3213 2972 2159 
Q 2972 1422 2759 906 
Q 2547 391 2217 158 
Q 1888 -75 1581 -75 
Q 975 -75 572 641 
Q 231 1244 231 2094 
z
M 844 2016 
Q 844 1141 1059 588 
Q 1238 122 1591 122 
Q 1759 122 1940 273 
Q 2122 425 2216 781 
Q 2359 1319 2359 2297 
Q 2359 3022 2209 3506 
Q 2097 3866 1919 4016 
Q 1791 4119 1609 4119 
Q 1397 4119 1231 3928 
Q 1006 3669 925 3112 
Q 844 2556 844 2016 
z
" transform="scale(0.015625)"/>
       </defs>
       <use xlink:href="#TimesNewRomanPSMT-30"/>
      </g>
     </g>
    </g>
    <g id="xtick_2">
     <g id="line2d_2">
      <g>
       <use xlink:href="#m51572cda34" x="157.053038" y="168.48" style="stroke: #000000; stroke-width: 0.8"/>
      </g>
     </g>
     <g id="text_2">
      <!-- 500 -->
      <g transform="translate(143.553038 187.97875)scale(0.18 -0.18)">
       <defs>
        <path id="TimesNewRomanPSMT-35" d="M 2778 4238 
L 2534 3706 
L 1259 3706 
L 981 3138 
Q 1809 3016 2294 2522 
Q 2709 2097 2709 1522 
Q 2709 1188 2573 903 
Q 2438 619 2231 419 
Q 2025 219 1772 97 
Q 1413 -75 1034 -75 
Q 653 -75 479 54 
Q 306 184 306 341 
Q 306 428 378 495 
Q 450 563 559 563 
Q 641 563 702 538 
Q 763 513 909 409 
Q 1144 247 1384 247 
Q 1750 247 2026 523 
Q 2303 800 2303 1197 
Q 2303 1581 2056 1914 
Q 1809 2247 1375 2428 
Q 1034 2569 447 2591 
L 1259 4238 
L 2778 4238 
z
" transform="scale(0.015625)"/>
       </defs>
       <use xlink:href="#TimesNewRomanPSMT-35"/>
       <use xlink:href="#TimesNewRomanPSMT-30" x="50"/>
       <use xlink:href="#TimesNewRomanPSMT-30" x="100"/>
      </g>
     </g>
    </g>
    <g id="xtick_3">
     <g id="line2d_3">
      <g>
       <use xlink:href="#m51572cda34" x="250.091532" y="168.48" style="stroke: #000000; stroke-width: 0.8"/>
      </g>
     </g>
     <g id="text_3">
      <!-- 1000 -->
      <g transform="translate(232.091532 187.97875)scale(0.18 -0.18)">
       <defs>
        <path id="TimesNewRomanPSMT-31" d="M 750 3822 
L 1781 4325 
L 1884 4325 
L 1884 747 
Q 1884 391 1914 303 
Q 1944 216 2037 169 
Q 2131 122 2419 116 
L 2419 0 
L 825 0 
L 825 116 
Q 1125 122 1212 167 
Q 1300 213 1334 289 
Q 1369 366 1369 747 
L 1369 3034 
Q 1369 3497 1338 3628 
Q 1316 3728 1258 3775 
Q 1200 3822 1119 3822 
Q 1003 3822 797 3725 
L 750 3822 
z
" transform="scale(0.015625)"/>
       </defs>
       <use xlink:href="#TimesNewRomanPSMT-31"/>
       <use xlink:href="#TimesNewRomanPSMT-30" x="50"/>
       <use xlink:href="#TimesNewRomanPSMT-30" x="100"/>
       <use xlink:href="#TimesNewRomanPSMT-30" x="150"/>
      </g>
     </g>
    </g>
    <g id="text_4">
     <!-- Epoch -->
     <g transform="translate(133.967812 208.327812)scale(0.18 -0.18)">
      <defs>
       <path id="TimesNewRomanPSMT-45" d="M 1338 4006 
L 1338 2331 
L 2269 2331 
Q 2631 2331 2753 2441 
Q 2916 2584 2934 2947 
L 3050 2947 
L 3050 1472 
L 2934 1472 
Q 2891 1781 2847 1869 
Q 2791 1978 2662 2040 
Q 2534 2103 2269 2103 
L 1338 2103 
L 1338 706 
Q 1338 425 1363 364 
Q 1388 303 1450 267 
Q 1513 231 1688 231 
L 2406 231 
Q 2766 231 2928 281 
Q 3091 331 3241 478 
Q 3434 672 3638 1063 
L 3763 1063 
L 3397 0 
L 131 0 
L 131 116 
L 281 116 
Q 431 116 566 188 
Q 666 238 702 338 
Q 738 438 738 747 
L 738 3500 
Q 738 3903 656 3997 
Q 544 4122 281 4122 
L 131 4122 
L 131 4238 
L 3397 4238 
L 3444 3309 
L 3322 3309 
Q 3256 3644 3176 3769 
Q 3097 3894 2941 3959 
Q 2816 4006 2500 4006 
L 1338 4006 
z
" transform="scale(0.015625)"/>
       <path id="TimesNewRomanPSMT-70" d="M -6 2578 
L 875 2934 
L 994 2934 
L 994 2266 
Q 1216 2644 1439 2795 
Q 1663 2947 1909 2947 
Q 2341 2947 2628 2609 
Q 2981 2197 2981 1534 
Q 2981 794 2556 309 
Q 2206 -88 1675 -88 
Q 1444 -88 1275 -22 
Q 1150 25 994 166 
L 994 -706 
Q 994 -1000 1030 -1079 
Q 1066 -1159 1155 -1206 
Q 1244 -1253 1478 -1253 
L 1478 -1369 
L -22 -1369 
L -22 -1253 
L 56 -1253 
Q 228 -1256 350 -1188 
Q 409 -1153 442 -1076 
Q 475 -1000 475 -688 
L 475 2019 
Q 475 2297 450 2372 
Q 425 2447 370 2484 
Q 316 2522 222 2522 
Q 147 2522 31 2478 
L -6 2578 
z
M 994 2081 
L 994 1013 
Q 994 666 1022 556 
Q 1066 375 1236 237 
Q 1406 100 1666 100 
Q 1978 100 2172 344 
Q 2425 663 2425 1241 
Q 2425 1897 2138 2250 
Q 1938 2494 1663 2494 
Q 1513 2494 1366 2419 
Q 1253 2363 994 2081 
z
" transform="scale(0.015625)"/>
       <path id="TimesNewRomanPSMT-6f" d="M 1600 2947 
Q 2250 2947 2644 2453 
Q 2978 2031 2978 1484 
Q 2978 1100 2793 706 
Q 2609 313 2286 112 
Q 1963 -88 1566 -88 
Q 919 -88 538 428 
Q 216 863 216 1403 
Q 216 1797 411 2186 
Q 606 2575 925 2761 
Q 1244 2947 1600 2947 
z
M 1503 2744 
Q 1338 2744 1170 2645 
Q 1003 2547 900 2300 
Q 797 2053 797 1666 
Q 797 1041 1045 587 
Q 1294 134 1700 134 
Q 2003 134 2200 384 
Q 2397 634 2397 1244 
Q 2397 2006 2069 2444 
Q 1847 2744 1503 2744 
z
" transform="scale(0.015625)"/>
       <path id="TimesNewRomanPSMT-63" d="M 2631 1088 
Q 2516 522 2178 217 
Q 1841 -88 1431 -88 
Q 944 -88 581 321 
Q 219 731 219 1428 
Q 219 2103 620 2525 
Q 1022 2947 1584 2947 
Q 2006 2947 2278 2723 
Q 2550 2500 2550 2259 
Q 2550 2141 2473 2067 
Q 2397 1994 2259 1994 
Q 2075 1994 1981 2113 
Q 1928 2178 1911 2362 
Q 1894 2547 1784 2644 
Q 1675 2738 1481 2738 
Q 1169 2738 978 2506 
Q 725 2200 725 1697 
Q 725 1184 976 792 
Q 1228 400 1656 400 
Q 1963 400 2206 609 
Q 2378 753 2541 1131 
L 2631 1088 
z
" transform="scale(0.015625)"/>
       <path id="TimesNewRomanPSMT-68" d="M 1041 4444 
L 1041 2350 
Q 1388 2731 1591 2839 
Q 1794 2947 1997 2947 
Q 2241 2947 2416 2812 
Q 2591 2678 2675 2391 
Q 2734 2191 2734 1659 
L 2734 647 
Q 2734 375 2778 275 
Q 2809 200 2884 156 
Q 2959 113 3159 113 
L 3159 0 
L 1753 0 
L 1753 113 
L 1819 113 
Q 2019 113 2097 173 
Q 2175 234 2206 353 
Q 2216 403 2216 647 
L 2216 1659 
Q 2216 2128 2167 2275 
Q 2119 2422 2012 2495 
Q 1906 2569 1756 2569 
Q 1603 2569 1437 2487 
Q 1272 2406 1041 2159 
L 1041 647 
Q 1041 353 1073 281 
Q 1106 209 1195 161 
Q 1284 113 1503 113 
L 1503 0 
L 84 0 
L 84 113 
Q 275 113 384 172 
Q 447 203 484 290 
Q 522 378 522 647 
L 522 3238 
Q 522 3728 498 3840 
Q 475 3953 426 3993 
Q 378 4034 297 4034 
Q 231 4034 84 3984 
L 41 4094 
L 897 4444 
L 1041 4444 
z
" transform="scale(0.015625)"/>
      </defs>
      <use xlink:href="#TimesNewRomanPSMT-45"/>
      <use xlink:href="#TimesNewRomanPSMT-70" x="61.083984"/>
      <use xlink:href="#TimesNewRomanPSMT-6f" x="111.083984"/>
      <use xlink:href="#TimesNewRomanPSMT-63" x="161.083984"/>
      <use xlink:href="#TimesNewRomanPSMT-68" x="205.46875"/>
     </g>
    </g>
   </g>
   <g id="matplotlib.axis_2">
    <g id="ytick_1">
     <g id="line2d_4">
      <defs>
       <path id="mfb3b4f36f5" d="M 0 0 
L -3.5 0 
" style="stroke: #000000; stroke-width: 0.8"/>
      </defs>
      <g>
       <use xlink:href="#mfb3b4f36f5" x="54.72" y="161.971575" style="stroke: #000000; stroke-width: 0.8"/>
      </g>
     </g>
     <g id="text_5">
      <!-- 0.0 -->
      <g transform="translate(25.22 168.22095)scale(0.18 -0.18)">
       <defs>
        <path id="TimesNewRomanPSMT-2e" d="M 800 606 
Q 947 606 1047 504 
Q 1147 403 1147 259 
Q 1147 116 1045 14 
Q 944 -88 800 -88 
Q 656 -88 554 14 
Q 453 116 453 259 
Q 453 406 554 506 
Q 656 606 800 606 
z
" transform="scale(0.015625)"/>
       </defs>
       <use xlink:href="#TimesNewRomanPSMT-30"/>
       <use xlink:href="#TimesNewRomanPSMT-2e" x="50"/>
       <use xlink:href="#TimesNewRomanPSMT-30" x="75"/>
      </g>
     </g>
    </g>
    <g id="ytick_2">
     <g id="line2d_5">
      <g>
       <use xlink:href="#mfb3b4f36f5" x="54.72" y="137.86346" style="stroke: #000000; stroke-width: 0.8"/>
      </g>
     </g>
     <g id="text_6">
      <!-- 0.5 -->
      <g transform="translate(25.22 144.112835)scale(0.18 -0.18)">
       <use xlink:href="#TimesNewRomanPSMT-30"/>
       <use xlink:href="#TimesNewRomanPSMT-2e" x="50"/>
       <use xlink:href="#TimesNewRomanPSMT-35" x="75"/>
      </g>
     </g>
    </g>
    <g id="ytick_3">
     <g id="line2d_6">
      <g>
       <use xlink:href="#mfb3b4f36f5" x="54.72" y="113.755346" style="stroke: #000000; stroke-width: 0.8"/>
      </g>
     </g>
     <g id="text_7">
      <!-- 1.0 -->
      <g transform="translate(25.22 120.004721)scale(0.18 -0.18)">
       <use xlink:href="#TimesNewRomanPSMT-31"/>
       <use xlink:href="#TimesNewRomanPSMT-2e" x="50"/>
       <use xlink:href="#TimesNewRomanPSMT-30" x="75"/>
      </g>
     </g>
    </g>
    <g id="ytick_4">
     <g id="line2d_7">
      <g>
       <use xlink:href="#mfb3b4f36f5" x="54.72" y="89.647231" style="stroke: #000000; stroke-width: 0.8"/>
      </g>
     </g>
     <g id="text_8">
      <!-- 1.5 -->
      <g transform="translate(25.22 95.896606)scale(0.18 -0.18)">
       <use xlink:href="#TimesNewRomanPSMT-31"/>
       <use xlink:href="#TimesNewRomanPSMT-2e" x="50"/>
       <use xlink:href="#TimesNewRomanPSMT-35" x="75"/>
      </g>
     </g>
    </g>
    <g id="ytick_5">
     <g id="line2d_8">
      <g>
       <use xlink:href="#mfb3b4f36f5" x="54.72" y="65.539117" style="stroke: #000000; stroke-width: 0.8"/>
      </g>
     </g>
     <g id="text_9">
      <!-- 2.0 -->
      <g transform="translate(25.22 71.788492)scale(0.18 -0.18)">
       <defs>
        <path id="TimesNewRomanPSMT-32" d="M 2934 816 
L 2638 0 
L 138 0 
L 138 116 
Q 1241 1122 1691 1759 
Q 2141 2397 2141 2925 
Q 2141 3328 1894 3587 
Q 1647 3847 1303 3847 
Q 991 3847 742 3664 
Q 494 3481 375 3128 
L 259 3128 
Q 338 3706 661 4015 
Q 984 4325 1469 4325 
Q 1984 4325 2329 3994 
Q 2675 3663 2675 3213 
Q 2675 2891 2525 2569 
Q 2294 2063 1775 1497 
Q 997 647 803 472 
L 1909 472 
Q 2247 472 2383 497 
Q 2519 522 2628 598 
Q 2738 675 2819 816 
L 2934 816 
z
" transform="scale(0.015625)"/>
       </defs>
       <use xlink:href="#TimesNewRomanPSMT-32"/>
       <use xlink:href="#TimesNewRomanPSMT-2e" x="50"/>
       <use xlink:href="#TimesNewRomanPSMT-30" x="75"/>
      </g>
     </g>
    </g>
    <g id="ytick_6">
     <g id="line2d_9">
      <g>
       <use xlink:href="#mfb3b4f36f5" x="54.72" y="41.431002" style="stroke: #000000; stroke-width: 0.8"/>
      </g>
     </g>
     <g id="text_10">
      <!-- 2.5 -->
      <g transform="translate(25.22 47.680377)scale(0.18 -0.18)">
       <use xlink:href="#TimesNewRomanPSMT-32"/>
       <use xlink:href="#TimesNewRomanPSMT-2e" x="50"/>
       <use xlink:href="#TimesNewRomanPSMT-35" x="75"/>
      </g>
     </g>
    </g>
    <g id="text_11">
     <!-- Loss -->
     <g transform="translate(17.369687 112.042969)rotate(-90)scale(0.18 -0.18)">
      <defs>
       <path id="TimesNewRomanPSMT-4c" d="M 3669 1172 
L 3772 1150 
L 3409 0 
L 128 0 
L 128 116 
L 288 116 
Q 556 116 672 291 
Q 738 391 738 753 
L 738 3488 
Q 738 3884 650 3984 
Q 528 4122 288 4122 
L 128 4122 
L 128 4238 
L 2047 4238 
L 2047 4122 
Q 1709 4125 1573 4059 
Q 1438 3994 1388 3894 
Q 1338 3794 1338 3416 
L 1338 753 
Q 1338 494 1388 397 
Q 1425 331 1503 300 
Q 1581 269 1991 269 
L 2300 269 
Q 2788 269 2984 341 
Q 3181 413 3343 595 
Q 3506 778 3669 1172 
z
" transform="scale(0.015625)"/>
       <path id="TimesNewRomanPSMT-73" d="M 2050 2947 
L 2050 1972 
L 1947 1972 
Q 1828 2431 1642 2597 
Q 1456 2763 1169 2763 
Q 950 2763 815 2647 
Q 681 2531 681 2391 
Q 681 2216 781 2091 
Q 878 1963 1175 1819 
L 1631 1597 
Q 2266 1288 2266 781 
Q 2266 391 1970 151 
Q 1675 -88 1309 -88 
Q 1047 -88 709 6 
Q 606 38 541 38 
Q 469 38 428 -44 
L 325 -44 
L 325 978 
L 428 978 
Q 516 541 762 319 
Q 1009 97 1316 97 
Q 1531 97 1667 223 
Q 1803 350 1803 528 
Q 1803 744 1651 891 
Q 1500 1038 1047 1263 
Q 594 1488 453 1669 
Q 313 1847 313 2119 
Q 313 2472 555 2709 
Q 797 2947 1181 2947 
Q 1350 2947 1591 2875 
Q 1750 2828 1803 2828 
Q 1853 2828 1881 2850 
Q 1909 2872 1947 2947 
L 2050 2947 
z
" transform="scale(0.015625)"/>
      </defs>
      <use xlink:href="#TimesNewRomanPSMT-4c"/>
      <use xlink:href="#TimesNewRomanPSMT-6f" x="61.083984"/>
      <use xlink:href="#TimesNewRomanPSMT-73" x="111.083984"/>
      <use xlink:href="#TimesNewRomanPSMT-73" x="150"/>
     </g>
    </g>
   </g>
   <g id="line2d_10">
    <path d="M 64.014545 28.276364 
L 64.386699 28.351166 
L 65.503161 29.113511 
L 65.875315 29.122156 
L 66.8057 29.344206 
L 67.177854 29.438091 
L 67.550008 29.503765 
L 69.969009 30.834191 
L 70.899394 31.964224 
L 71.271548 32.521993 
L 72.015856 34.201334 
L 74.434857 38.682647 
L 76.10955 40.475841 
L 76.481704 40.822457 
L 76.853857 41.402045 
L 77.039934 41.441394 
L 77.970319 42.342446 
L 79.831089 44.858073 
L 80.017166 45.343051 
L 80.575397 45.571987 
L 81.691859 47.592817 
L 81.877936 47.831065 
L 82.436167 48.978537 
L 82.622244 49.254593 
L 82.808321 49.751263 
L 82.994398 49.89997 
L 83.180475 50.441806 
L 83.366552 50.521092 
L 83.738706 51.46716 
L 83.924783 51.783244 
L 84.296937 52.592676 
L 85.413399 54.988023 
L 85.599476 55.251113 
L 85.97163 56.528313 
L 86.157707 56.601954 
L 86.343784 57.160493 
L 86.529861 58.167535 
L 86.715938 58.330784 
L 87.088092 59.4284 
L 87.460246 60.507243 
L 87.646323 60.762952 
L 88.390631 63.051735 
L 88.576708 63.739669 
L 88.762785 63.927359 
L 88.948862 64.519649 
L 89.134939 65.605631 
L 89.321016 65.575937 
L 89.69317 67.360769 
L 89.879247 67.176827 
L 90.065324 68.058261 
L 90.437477 68.663955 
L 91.553939 72.611715 
L 91.740016 72.711186 
L 91.926093 74.043227 
L 92.484324 75.22564 
L 92.670401 75.557071 
L 93.042555 77.248891 
L 93.414709 78.560027 
L 93.600786 78.821742 
L 94.159017 81.734365 
L 94.345094 81.56892 
L 94.717248 82.796574 
L 94.903325 82.624525 
L 95.275479 84.791529 
L 95.461556 84.804777 
L 95.647633 84.590332 
L 95.83371 85.725239 
L 96.019787 85.859641 
L 96.205864 86.340503 
L 96.764095 88.658146 
L 96.950172 88.659635 
L 97.136249 89.596501 
L 97.322326 89.700611 
L 97.880557 91.988728 
L 98.066634 91.863465 
L 98.438788 92.893372 
L 98.997019 95.172567 
L 99.741327 97.250755 
L 99.927404 97.377685 
L 100.299558 98.499171 
L 100.485635 99.457 
L 100.857789 100.017855 
L 101.043866 100.262747 
L 101.229943 100.037903 
L 101.602097 101.315604 
L 101.788174 102.551679 
L 101.974251 101.980903 
L 102.160328 102.300718 
L 102.346405 102.104182 
L 102.718559 103.625591 
L 102.904636 103.832593 
L 103.090713 105.102574 
L 103.462867 105.858355 
L 103.83502 106.787968 
L 104.207174 106.958109 
L 104.951482 108.853839 
L 105.137559 109.824835 
L 105.323636 109.83021 
L 105.509713 110.536956 
L 105.69579 110.690492 
L 106.067944 112.323925 
L 106.254021 112.489072 
L 106.440098 113.323069 
L 106.626175 113.281323 
L 106.812252 114.553224 
L 106.998329 114.296682 
L 107.184406 115.182409 
L 107.370483 115.340857 
L 107.55656 116.13806 
L 107.742637 116.293535 
L 107.928714 117.083987 
L 108.114791 117.115974 
L 108.486945 116.205872 
L 108.673022 114.627431 
L 108.859099 116.629685 
L 109.231253 117.47671 
L 109.41733 118.029728 
L 109.603407 117.076665 
L 109.975561 119.356613 
L 110.161638 118.235707 
L 110.533792 118.999705 
L 110.719869 118.864965 
L 110.905946 119.492184 
L 111.092023 119.67183 
L 111.2781 121.207036 
L 111.464177 121.190818 
L 111.650254 122.49024 
L 111.836331 122.533573 
L 112.022408 122.000974 
L 112.208485 123.23258 
L 112.394562 122.858488 
L 112.580639 123.895582 
L 112.766716 123.109493 
L 112.952793 123.762201 
L 113.13887 125.165176 
L 113.324947 125.271918 
L 113.511024 126.408872 
L 113.697101 125.577769 
L 114.069255 127.341304 
L 114.255332 127.759895 
L 114.441409 127.289212 
L 114.627486 128.371038 
L 114.813563 128.739715 
L 114.99964 128.668146 
L 115.185717 128.790046 
L 115.371794 129.431126 
L 115.557871 129.555814 
L 115.743948 129.529687 
L 115.930025 129.952548 
L 116.116102 129.866929 
L 116.302179 130.012507 
L 116.488256 129.827591 
L 116.674333 130.516131 
L 117.046486 131.122544 
L 117.232563 130.6509 
L 117.41864 130.666198 
L 117.604717 130.246259 
L 117.976871 130.493809 
L 118.162948 131.078955 
L 118.535102 131.412708 
L 118.721179 131.369838 
L 118.907256 131.513582 
L 119.093333 132.081956 
L 119.27941 131.959501 
L 119.465487 132.352256 
L 119.651564 132.453156 
L 120.023718 133.197283 
L 120.395872 132.965971 
L 120.581949 133.118535 
L 120.768026 133.581143 
L 120.954103 133.729968 
L 121.14018 135.052479 
L 121.326257 135.113538 
L 121.512334 134.633296 
L 121.698411 135.88089 
L 121.884488 136.068355 
L 122.070565 135.966331 
L 122.256642 136.96895 
L 122.442719 137.173224 
L 122.628796 138.16707 
L 123.00095 138.502589 
L 123.187027 138.276242 
L 123.559181 139.375987 
L 123.745258 139.673457 
L 123.931335 139.332462 
L 124.117412 139.440549 
L 124.303489 140.054217 
L 124.489566 139.929284 
L 124.675643 140.227692 
L 124.86172 140.753963 
L 125.047797 140.80182 
L 125.419951 141.099829 
L 125.606028 141.576306 
L 125.792105 141.6501 
L 125.978182 141.899976 
L 126.164259 141.904813 
L 126.350336 142.177437 
L 126.72249 143.093592 
L 126.908567 142.934138 
L 127.094644 143.6552 
L 127.652875 143.674611 
L 127.838952 144.161526 
L 128.211106 144.370868 
L 128.397183 144.058621 
L 128.58326 144.341779 
L 128.955414 144.289805 
L 129.327568 144.954414 
L 129.699722 144.639373 
L 129.885799 145.227241 
L 130.071876 145.220521 
L 130.257952 145.754449 
L 130.444029 145.855704 
L 130.630106 146.4022 
L 131.00226 146.036868 
L 131.560491 146.732662 
L 131.746568 146.730179 
L 131.932645 147.214892 
L 132.118722 147.165042 
L 132.304799 148.057041 
L 132.676953 147.547315 
L 132.86303 147.639207 
L 133.049107 147.954595 
L 133.235184 148.534978 
L 133.421261 148.631665 
L 133.793415 148.066581 
L 133.979492 148.024515 
L 134.165569 148.635066 
L 134.351646 148.739855 
L 134.537723 149.007817 
L 134.7238 148.667329 
L 134.909877 148.95253 
L 135.282031 148.943972 
L 135.468108 149.252483 
L 135.654185 149.098158 
L 135.840262 149.376635 
L 136.026339 149.3453 
L 136.212416 149.869329 
L 136.398493 149.459101 
L 136.956724 149.820504 
L 137.142801 149.75243 
L 137.328878 150.169983 
L 137.514955 149.823 
L 137.701032 149.719834 
L 137.887109 148.67919 
L 138.259263 150.074362 
L 138.44534 150.414224 
L 138.631417 149.882597 
L 139.003571 150.891154 
L 139.561802 151.236848 
L 139.747879 150.76936 
L 139.933956 151.123448 
L 140.30611 150.421895 
L 140.492187 150.699667 
L 140.678264 150.490138 
L 140.864341 150.457261 
L 141.050418 150.842438 
L 141.422572 150.90889 
L 141.794726 151.650975 
L 142.352957 152.481854 
L 142.539034 152.283913 
L 142.725111 152.751424 
L 143.097265 152.441405 
L 143.655495 153.104998 
L 143.841572 152.811188 
L 144.027649 152.935452 
L 144.58588 152.600123 
L 144.771957 152.595376 
L 144.958034 152.750682 
L 145.144111 153.217687 
L 145.330188 152.624399 
L 145.702342 153.172567 
L 146.074496 153.289011 
L 146.260573 153.537332 
L 146.44665 153.454628 
L 146.632727 153.539371 
L 146.818804 153.974254 
L 147.004881 153.963018 
L 147.377035 154.585827 
L 147.563112 154.485448 
L 147.749189 154.802026 
L 148.121343 154.404201 
L 148.30742 154.518869 
L 148.493497 154.26628 
L 148.865651 154.614417 
L 149.237805 154.689702 
L 149.423882 154.650125 
L 149.609959 154.903613 
L 149.796036 154.814276 
L 151.098575 155.12045 
L 151.284652 155.134277 
L 151.656806 155.57712 
L 151.842883 154.889882 
L 152.02896 155.39167 
L 152.215037 155.391402 
L 152.773268 155.934653 
L 153.145422 155.613805 
L 153.331499 155.786757 
L 153.517576 155.737479 
L 153.703653 155.478614 
L 154.075807 155.582413 
L 154.447961 155.537351 
L 154.634038 155.766762 
L 154.820115 155.707132 
L 155.006192 155.999046 
L 155.192269 155.603315 
L 155.378346 155.787289 
L 155.564423 155.805146 
L 155.7505 156.265992 
L 155.936577 155.740753 
L 156.308731 155.67568 
L 156.494808 155.515098 
L 157.053038 155.528357 
L 157.425192 156.065803 
L 157.797346 155.771063 
L 157.983423 156.008278 
L 158.1695 155.803334 
L 158.541654 156.063341 
L 158.913808 156.747722 
L 159.099885 156.902948 
L 159.285962 156.590099 
L 159.472039 156.720155 
L 159.658116 156.323829 
L 159.844193 156.291781 
L 160.03027 156.475808 
L 160.216347 156.469284 
L 160.774578 156.670243 
L 161.332809 156.626733 
L 161.518886 156.880347 
L 161.704963 156.857588 
L 161.89104 156.468503 
L 162.077117 156.94373 
L 162.449271 157.140375 
L 162.635348 157.156202 
L 162.821425 157.399816 
L 163.007502 157.377964 
L 163.379656 157.55594 
L 163.565733 157.490526 
L 163.937887 157.900062 
L 164.310041 157.60982 
L 164.496118 157.63239 
L 164.682195 157.263111 
L 164.868272 157.658447 
L 165.240426 157.655386 
L 165.798657 158.157244 
L 166.356888 157.990645 
L 166.729042 157.758948 
L 166.915119 157.936516 
L 167.101196 157.752019 
L 167.287273 158.077514 
L 167.659427 157.838943 
L 168.031581 157.908627 
L 168.217658 157.853766 
L 168.403735 158.213573 
L 168.589812 158.103661 
L 168.775889 158.150837 
L 168.961966 158.048616 
L 169.33412 158.358155 
L 169.892351 158.374208 
L 170.078428 158.214779 
L 171.194889 158.493417 
L 171.567043 158.465237 
L 171.75312 158.615105 
L 171.939197 158.598236 
L 172.125274 158.872399 
L 172.311351 158.408377 
L 172.683505 158.786669 
L 173.427813 158.79218 
L 173.986044 159.054223 
L 174.172121 159.086408 
L 174.358198 158.998796 
L 174.730352 159.149342 
L 175.102506 159.047337 
L 175.288583 158.86421 
L 175.47466 158.923325 
L 175.660737 158.719944 
L 175.846814 158.927053 
L 176.405045 158.857104 
L 176.591122 159.023475 
L 176.777199 158.933691 
L 176.963276 159.094891 
L 177.149353 158.980497 
L 177.33543 159.272769 
L 177.707584 159.168277 
L 177.893661 159.318779 
L 178.079738 159.125592 
L 178.451892 159.257386 
L 179.010123 159.029728 
L 179.1962 159.014921 
L 179.382277 158.837044 
L 179.568354 159.097771 
L 180.126585 159.110227 
L 180.312662 158.840534 
L 180.498739 159.248374 
L 180.684816 158.959467 
L 180.870893 159.136652 
L 181.05697 159.074491 
L 181.243047 159.492912 
L 181.801278 159.164288 
L 181.987355 159.175578 
L 182.173432 159.073402 
L 182.545586 159.396664 
L 182.731663 159.371837 
L 183.103817 159.210906 
L 183.475971 159.440544 
L 183.662048 159.341292 
L 183.848124 159.09705 
L 184.220278 159.469062 
L 184.592432 159.423133 
L 184.778509 159.421964 
L 184.964586 159.297695 
L 185.150663 159.366329 
L 185.33674 159.570823 
L 185.894971 159.369339 
L 186.081048 159.385392 
L 186.267125 159.27305 
L 186.453202 159.511423 
L 186.639279 159.377452 
L 186.825356 159.4505 
L 187.19751 159.2107 
L 187.569664 159.561286 
L 187.755741 159.574988 
L 187.941818 159.264825 
L 188.313972 159.609934 
L 188.872203 159.498367 
L 189.05828 159.616226 
L 189.244357 159.335721 
L 189.616511 159.470484 
L 189.802588 159.152604 
L 189.988665 159.191467 
L 190.360819 159.364449 
L 190.732973 159.076463 
L 191.105127 159.392571 
L 191.477281 159.482625 
L 191.663358 159.447217 
L 192.035512 159.716472 
L 192.221589 159.795877 
L 192.407666 159.651156 
L 192.77982 159.830024 
L 192.965897 159.641233 
L 193.151974 159.906384 
L 194.268436 159.653929 
L 194.454513 159.493068 
L 194.64059 159.710638 
L 194.826667 159.589887 
L 196.129206 159.653582 
L 196.315283 159.617275 
L 196.687437 159.854592 
L 196.873514 159.719826 
L 197.05959 159.7559 
L 197.245667 159.473018 
L 198.176052 159.842398 
L 198.362129 160.036198 
L 198.734283 159.935263 
L 198.92036 159.993604 
L 199.106437 159.927906 
L 199.478591 160.184762 
L 200.036822 160.015013 
L 200.222899 160.045741 
L 200.595053 159.857003 
L 201.153284 159.966434 
L 201.339361 159.972224 
L 201.525438 159.662368 
L 201.711515 159.860259 
L 202.269746 159.917434 
L 202.455823 160.234805 
L 202.6419 160.039549 
L 202.827977 160.193318 
L 203.014054 160.01417 
L 203.200131 160.285857 
L 203.386208 160.115606 
L 203.572285 160.143505 
L 203.758362 159.989804 
L 204.130516 160.369265 
L 204.50267 160.244488 
L 204.688747 160.382801 
L 204.874824 160.328704 
L 205.060901 160.151607 
L 205.433055 160.442927 
L 205.619132 160.431998 
L 205.805209 160.538486 
L 206.177363 160.518132 
L 206.36344 160.595604 
L 206.735594 160.551054 
L 208.782441 160.671519 
L 209.526749 160.734091 
L 209.712826 160.788766 
L 210.08498 160.72048 
L 210.271057 160.800432 
L 210.64321 160.775162 
L 211.573595 160.730928 
L 211.945749 160.797911 
L 212.317903 160.736817 
L 212.690057 160.751236 
L 213.806519 160.853117 
L 214.550827 160.837768 
L 215.109058 160.860836 
L 215.295135 160.772368 
L 216.039443 160.831687 
L 216.22552 160.748804 
L 216.411597 160.887517 
L 216.783751 160.719717 
L 216.969828 160.887494 
L 217.528059 160.866919 
L 218.08629 160.902792 
L 218.458444 160.719361 
L 218.830598 160.853848 
L 219.388829 160.877542 
L 220.133137 160.918819 
L 222.366061 161.015829 
L 222.738215 161.014981 
L 224.040753 160.988012 
L 224.412907 161.017703 
L 227.390139 161.038509 
L 227.762293 161.013781 
L 228.320524 161.002612 
L 228.692678 161.034201 
L 229.250909 161.052351 
L 229.436986 160.987145 
L 229.80914 161.068643 
L 230.925602 160.965509 
L 231.483833 161.078679 
L 233.902834 161.233426 
L 234.274988 161.154101 
L 235.205373 161.22945 
L 235.763604 161.225107 
L 238.740835 161.124906 
L 238.926912 161.022863 
L 239.485143 161.195045 
L 242.090221 161.198622 
L 242.276298 160.978589 
L 242.462375 161.278607 
L 243.39276 161.242395 
L 244.323145 161.346893 
L 246.369992 161.320066 
L 247.1143 161.318581 
L 247.858608 161.303393 
L 248.230762 161.349217 
L 248.602916 161.247304 
L 248.97507 161.365747 
L 249.905455 161.346442 
L 249.905455 161.346442 
" clip-path="url(#pbec15dd816)" style="fill: none; stroke: #1f77b4; stroke-width: 1.5; stroke-linecap: square"/>
   </g>
   <g id="line2d_11">
    <path d="M 64.014545 28.276364 
L 64.386699 28.351177 
L 65.689238 29.260057 
L 66.991777 29.257643 
L 67.736085 29.517882 
L 69.224701 30.044716 
L 70.713317 30.945652 
L 76.10955 36.614569 
L 76.667781 37.31755 
L 76.853857 37.409343 
L 80.38932 42.868648 
L 80.761474 43.596035 
L 81.133628 44.411754 
L 83.552629 49.514809 
L 83.924783 50.517965 
L 84.483014 51.588198 
L 85.041245 53.284323 
L 86.157707 56.468053 
L 86.343784 56.763215 
L 86.715938 58.218357 
L 86.902015 58.555501 
L 87.274169 59.818125 
L 87.460246 60.207356 
L 88.390631 63.528023 
L 88.762785 64.438305 
L 89.134939 65.866202 
L 89.321016 66.331701 
L 90.065324 69.087673 
L 91.367862 73.081743 
L 91.740016 74.916965 
L 92.856478 79.298973 
L 93.042555 79.437099 
L 93.414709 81.059749 
L 95.83371 90.110098 
L 96.391941 92.475574 
L 96.764095 93.67054 
L 97.136249 94.915645 
L 97.508403 95.939401 
L 99.927404 105.311151 
L 100.113481 105.678678 
L 101.043866 109.185034 
L 101.229943 109.543255 
L 101.41602 110.415395 
L 101.602097 110.632278 
L 102.346405 113.236714 
L 102.718559 114.043272 
L 102.904636 115.070425 
L 103.27679 115.882885 
L 104.393251 118.944598 
L 104.579328 119.792859 
L 104.765405 120.085282 
L 105.137559 121.252693 
L 107.928714 128.670175 
L 109.603407 132.390358 
L 109.789484 132.644504 
L 110.161638 133.633391 
L 110.347715 133.805802 
L 111.464177 136.165289 
L 112.022408 136.993706 
L 112.208485 137.602889 
L 112.394562 137.737296 
L 114.069255 140.809755 
L 117.976871 146.594776 
L 118.162948 146.416059 
L 118.349025 146.777258 
L 118.535102 146.893805 
L 118.907256 147.430886 
L 119.651564 148.197475 
L 120.395872 148.818722 
L 120.768026 149.294988 
L 120.954103 149.449912 
L 121.512334 150.154977 
L 122.070565 150.584593 
L 123.559181 151.665699 
L 123.931335 151.686133 
L 124.303489 151.926448 
L 125.233874 152.493768 
L 125.606028 152.902614 
L 126.164259 153.445846 
L 126.536413 153.555892 
L 126.72249 153.508419 
L 127.094644 153.789423 
L 127.280721 153.793201 
L 127.466798 154.025409 
L 127.652875 154.065495 
L 128.025029 154.418904 
L 128.397183 154.488787 
L 128.58326 154.770085 
L 130.257952 155.498668 
L 130.630106 155.710507 
L 131.932645 156.347474 
L 132.118722 156.302895 
L 132.490876 156.450567 
L 135.282031 157.48362 
L 135.468108 157.44014 
L 136.212416 157.741816 
L 138.631417 158.42486 
L 139.375725 158.522202 
L 139.561802 158.624635 
L 139.933956 158.634674 
L 140.678264 158.927113 
L 142.16688 159.026611 
L 143.655495 159.26759 
L 144.399803 159.33516 
L 144.958034 159.475716 
L 145.330188 159.509865 
L 145.516265 159.595754 
L 146.074496 159.556422 
L 146.632727 159.670316 
L 155.006192 160.499369 
L 168.031581 161.157068 
L 170.264505 161.221885 
L 172.125274 161.283543 
L 173.241736 161.315243 
L 174.358198 161.33428 
L 176.963276 161.345782 
L 178.079738 161.37981 
L 182.731663 161.486325 
L 191.849435 161.628836 
L 196.687437 161.673248 
L 203.386208 161.694909 
L 205.991286 161.720713 
L 207.665979 161.72527 
L 217.714136 161.761762 
L 219.760983 161.777642 
L 222.366061 161.774548 
L 228.320524 161.796251 
L 249.905455 161.785074 
L 249.905455 161.785074 
" clip-path="url(#pbec15dd816)" style="fill: none; stroke: #ff7f0e; stroke-width: 1.5; stroke-linecap: square"/>
   </g>
   <g id="patch_3">
    <path d="M 54.72 168.48 
L 54.72 21.6 
" style="fill: none; stroke: #000000; stroke-width: 0.8; stroke-linejoin: miter; stroke-linecap: square"/>
   </g>
   <g id="patch_4">
    <path d="M 259.2 168.48 
L 259.2 21.6 
" style="fill: none; stroke: #000000; stroke-width: 0.8; stroke-linejoin: miter; stroke-linecap: square"/>
   </g>
   <g id="patch_5">
    <path d="M 54.72 168.48 
L 259.2 168.48 
" style="fill: none; stroke: #000000; stroke-width: 0.8; stroke-linejoin: miter; stroke-linecap: square"/>
   </g>
   <g id="patch_6">
    <path d="M 54.72 21.6 
L 259.2 21.6 
" style="fill: none; stroke: #000000; stroke-width: 0.8; stroke-linejoin: miter; stroke-linecap: square"/>
   </g>
   <g id="legend_1">
    <g id="patch_7">
     <path d="M 154.996875 86.900625 
L 246.6 86.900625 
Q 250.2 86.900625 250.2 83.300625 
L 250.2 34.2 
Q 250.2 30.6 246.6 30.6 
L 154.996875 30.6 
Q 151.396875 30.6 151.396875 34.2 
L 151.396875 83.300625 
Q 151.396875 86.900625 154.996875 86.900625 
z
" style="fill: #ffffff; opacity: 0.8; stroke: #cccccc; stroke-linejoin: miter"/>
    </g>
    <g id="line2d_12">
     <path d="M 158.596875 44.1 
L 176.596875 44.1 
L 194.596875 44.1 
" style="fill: none; stroke: #1f77b4; stroke-width: 1.5; stroke-linecap: square"/>
    </g>
    <g id="text_12">
     <!-- SDT -->
     <g transform="translate(208.996875 50.4)scale(0.18 -0.18)">
      <defs>
       <path id="TimesNewRomanPSMT-53" d="M 2934 4334 
L 2934 2869 
L 2819 2869 
Q 2763 3291 2617 3541 
Q 2472 3791 2203 3937 
Q 1934 4084 1647 4084 
Q 1322 4084 1109 3886 
Q 897 3688 897 3434 
Q 897 3241 1031 3081 
Q 1225 2847 1953 2456 
Q 2547 2138 2764 1967 
Q 2981 1797 3098 1565 
Q 3216 1334 3216 1081 
Q 3216 600 2842 251 
Q 2469 -97 1881 -97 
Q 1697 -97 1534 -69 
Q 1438 -53 1133 45 
Q 828 144 747 144 
Q 669 144 623 97 
Q 578 50 556 -97 
L 441 -97 
L 441 1356 
L 556 1356 
Q 638 900 775 673 
Q 913 447 1195 297 
Q 1478 147 1816 147 
Q 2206 147 2432 353 
Q 2659 559 2659 841 
Q 2659 997 2573 1156 
Q 2488 1316 2306 1453 
Q 2184 1547 1640 1851 
Q 1097 2156 867 2337 
Q 638 2519 519 2737 
Q 400 2956 400 3219 
Q 400 3675 750 4004 
Q 1100 4334 1641 4334 
Q 1978 4334 2356 4169 
Q 2531 4091 2603 4091 
Q 2684 4091 2736 4139 
Q 2788 4188 2819 4334 
L 2934 4334 
z
" transform="scale(0.015625)"/>
       <path id="TimesNewRomanPSMT-44" d="M 109 0 
L 109 116 
L 269 116 
Q 538 116 650 288 
Q 719 391 719 750 
L 719 3488 
Q 719 3884 631 3984 
Q 509 4122 269 4122 
L 109 4122 
L 109 4238 
L 1834 4238 
Q 2784 4238 3279 4022 
Q 3775 3806 4076 3303 
Q 4378 2800 4378 2141 
Q 4378 1256 3841 663 
Q 3238 0 2003 0 
L 109 0 
z
M 1319 306 
Q 1716 219 1984 219 
Q 2709 219 3187 728 
Q 3666 1238 3666 2109 
Q 3666 2988 3187 3494 
Q 2709 4000 1959 4000 
Q 1678 4000 1319 3909 
L 1319 306 
z
" transform="scale(0.015625)"/>
       <path id="TimesNewRomanPSMT-54" d="M 3703 4238 
L 3750 3244 
L 3631 3244 
Q 3597 3506 3538 3619 
Q 3441 3800 3280 3886 
Q 3119 3972 2856 3972 
L 2259 3972 
L 2259 734 
Q 2259 344 2344 247 
Q 2463 116 2709 116 
L 2856 116 
L 2856 0 
L 1059 0 
L 1059 116 
L 1209 116 
Q 1478 116 1591 278 
Q 1659 378 1659 734 
L 1659 3972 
L 1150 3972 
Q 853 3972 728 3928 
Q 566 3869 450 3700 
Q 334 3531 313 3244 
L 194 3244 
L 244 4238 
L 3703 4238 
z
" transform="scale(0.015625)"/>
      </defs>
      <use xlink:href="#TimesNewRomanPSMT-53"/>
      <use xlink:href="#TimesNewRomanPSMT-44" x="55.615234"/>
      <use xlink:href="#TimesNewRomanPSMT-54" x="127.832031"/>
     </g>
    </g>
    <g id="line2d_13">
     <path d="M 158.596875 69.550312 
L 176.596875 69.550312 
L 194.596875 69.550312 
" style="fill: none; stroke: #ff7f0e; stroke-width: 1.5; stroke-linecap: square"/>
    </g>
    <g id="text_13">
     <!-- TET -->
     <g transform="translate(208.996875 75.850312)scale(0.18 -0.18)">
      <use xlink:href="#TimesNewRomanPSMT-54"/>
      <use xlink:href="#TimesNewRomanPSMT-45" x="61.083984"/>
      <use xlink:href="#TimesNewRomanPSMT-54" x="122.167969"/>
     </g>
    </g>
   </g>
  </g>
 </g>
 <defs>
  <clipPath id="pbec15dd816">
   <rect x="54.72" y="21.6" width="204.48" height="146.88"/>
  </clipPath>
 </defs>
</svg>
