<?xml version="1.0" encoding="utf-8" standalone="no"?>
<!DOCTYPE svg PUBLIC "-//W3C//DTD SVG 1.1//EN"
  "http://www.w3.org/Graphics/SVG/1.1/DTD/svg11.dtd">
<svg xmlns:xlink="http://www.w3.org/1999/xlink" width="288pt" height="216pt" viewBox="0 0 288 216" xmlns="http://www.w3.org/2000/svg" version="1.1">
 <metadata>
  <rdf:RDF xmlns:dc="http://purl.org/dc/elements/1.1/" xmlns:cc="http://creativecommons.org/ns#" xmlns:rdf="http://www.w3.org/1999/02/22-rdf-syntax-ns#">
   <cc:Work>
    <dc:type rdf:resource="http://purl.org/dc/dcmitype/StillImage"/>
    <dc:date>2024-05-19T21:08:56.637780</dc:date>
    <dc:format>image/svg+xml</dc:format>
    <dc:creator>
     <cc:Agent>
      <dc:title>Matplotlib v3.5.0, https://matplotlib.org/</dc:title>
     </cc:Agent>
    </dc:creator>
   </cc:Work>
  </rdf:RDF>
 </metadata>
 <defs>
  <style type="text/css">*{stroke-linejoin: round; stroke-linecap: butt}</style>
 </defs>
 <g id="figure_1">
  <g id="patch_1">
   <path d="M 0 216 
L 288 216 
L 288 0 
L 0 0 
z
" style="fill: #ffffff"/>
  </g>
  <g id="axes_1">
   <g id="patch_2">
    <path d="M 54.72 168.48 
L 259.2 168.48 
L 259.2 21.6 
L 54.72 21.6 
z
" style="fill: #ffffff"/>
   </g>
   <g id="matplotlib.axis_1">
    <g id="xtick_1">
     <g id="line2d_1">
      <defs>
       <path id="m98040431fd" d="M 0 0 
L 0 3.5 
" style="stroke: #000000; stroke-width: 0.8"/>
      </defs>
      <g>
       <use xlink:href="#m98040431fd" x="64.014545" y="168.48" style="stroke: #000000; stroke-width: 0.8"/>
      </g>
     </g>
     <g id="text_1">
      <!-- 0 -->
      <g transform="translate(59.514545 187.97875)scale(0.18 -0.18)">
       <defs>
        <path id="TimesNewRomanPSMT-30" d="M 231 2094 
Q 231 2819 450 3342 
Q 669 3866 1031 4122 
Q 1313 4325 1613 4325 
Q 2100 4325 2488 3828 
Q 2972 3213 2972 2159 
Q 2972 1422 2759 906 
Q 2547 391 2217 158 
Q 1888 -75 1581 -75 
Q 975 -75 572 641 
Q 231 1244 231 2094 
z
M 844 2016 
Q 844 1141 1059 588 
Q 1238 122 1591 122 
Q 1759 122 1940 273 
Q 2122 425 2216 781 
Q 2359 1319 2359 2297 
Q 2359 3022 2209 3506 
Q 2097 3866 1919 4016 
Q 1791 4119 1609 4119 
Q 1397 4119 1231 3928 
Q 1006 3669 925 3112 
Q 844 2556 844 2016 
z
" transform="scale(0.015625)"/>
       </defs>
       <use xlink:href="#TimesNewRomanPSMT-30"/>
      </g>
     </g>
    </g>
    <g id="xtick_2">
     <g id="line2d_2">
      <g>
       <use xlink:href="#m98040431fd" x="157.053038" y="168.48" style="stroke: #000000; stroke-width: 0.8"/>
      </g>
     </g>
     <g id="text_2">
      <!-- 500 -->
      <g transform="translate(143.553038 187.97875)scale(0.18 -0.18)">
       <defs>
        <path id="TimesNewRomanPSMT-35" d="M 2778 4238 
L 2534 3706 
L 1259 3706 
L 981 3138 
Q 1809 3016 2294 2522 
Q 2709 2097 2709 1522 
Q 2709 1188 2573 903 
Q 2438 619 2231 419 
Q 2025 219 1772 97 
Q 1413 -75 1034 -75 
Q 653 -75 479 54 
Q 306 184 306 341 
Q 306 428 378 495 
Q 450 563 559 563 
Q 641 563 702 538 
Q 763 513 909 409 
Q 1144 247 1384 247 
Q 1750 247 2026 523 
Q 2303 800 2303 1197 
Q 2303 1581 2056 1914 
Q 1809 2247 1375 2428 
Q 1034 2569 447 2591 
L 1259 4238 
L 2778 4238 
z
" transform="scale(0.015625)"/>
       </defs>
       <use xlink:href="#TimesNewRomanPSMT-35"/>
       <use xlink:href="#TimesNewRomanPSMT-30" x="50"/>
       <use xlink:href="#TimesNewRomanPSMT-30" x="100"/>
      </g>
     </g>
    </g>
    <g id="xtick_3">
     <g id="line2d_3">
      <g>
       <use xlink:href="#m98040431fd" x="250.091532" y="168.48" style="stroke: #000000; stroke-width: 0.8"/>
      </g>
     </g>
     <g id="text_3">
      <!-- 1000 -->
      <g transform="translate(232.091532 187.97875)scale(0.18 -0.18)">
       <defs>
        <path id="TimesNewRomanPSMT-31" d="M 750 3822 
L 1781 4325 
L 1884 4325 
L 1884 747 
Q 1884 391 1914 303 
Q 1944 216 2037 169 
Q 2131 122 2419 116 
L 2419 0 
L 825 0 
L 825 116 
Q 1125 122 1212 167 
Q 1300 213 1334 289 
Q 1369 366 1369 747 
L 1369 3034 
Q 1369 3497 1338 3628 
Q 1316 3728 1258 3775 
Q 1200 3822 1119 3822 
Q 1003 3822 797 3725 
L 750 3822 
z
" transform="scale(0.015625)"/>
       </defs>
       <use xlink:href="#TimesNewRomanPSMT-31"/>
       <use xlink:href="#TimesNewRomanPSMT-30" x="50"/>
       <use xlink:href="#TimesNewRomanPSMT-30" x="100"/>
       <use xlink:href="#TimesNewRomanPSMT-30" x="150"/>
      </g>
     </g>
    </g>
    <g id="text_4">
     <!-- Epoch -->
     <g transform="translate(133.967812 208.327812)scale(0.18 -0.18)">
      <defs>
       <path id="TimesNewRomanPSMT-45" d="M 1338 4006 
L 1338 2331 
L 2269 2331 
Q 2631 2331 2753 2441 
Q 2916 2584 2934 2947 
L 3050 2947 
L 3050 1472 
L 2934 1472 
Q 2891 1781 2847 1869 
Q 2791 1978 2662 2040 
Q 2534 2103 2269 2103 
L 1338 2103 
L 1338 706 
Q 1338 425 1363 364 
Q 1388 303 1450 267 
Q 1513 231 1688 231 
L 2406 231 
Q 2766 231 2928 281 
Q 3091 331 3241 478 
Q 3434 672 3638 1063 
L 3763 1063 
L 3397 0 
L 131 0 
L 131 116 
L 281 116 
Q 431 116 566 188 
Q 666 238 702 338 
Q 738 438 738 747 
L 738 3500 
Q 738 3903 656 3997 
Q 544 4122 281 4122 
L 131 4122 
L 131 4238 
L 3397 4238 
L 3444 3309 
L 3322 3309 
Q 3256 3644 3176 3769 
Q 3097 3894 2941 3959 
Q 2816 4006 2500 4006 
L 1338 4006 
z
" transform="scale(0.015625)"/>
       <path id="TimesNewRomanPSMT-70" d="M -6 2578 
L 875 2934 
L 994 2934 
L 994 2266 
Q 1216 2644 1439 2795 
Q 1663 2947 1909 2947 
Q 2341 2947 2628 2609 
Q 2981 2197 2981 1534 
Q 2981 794 2556 309 
Q 2206 -88 1675 -88 
Q 1444 -88 1275 -22 
Q 1150 25 994 166 
L 994 -706 
Q 994 -1000 1030 -1079 
Q 1066 -1159 1155 -1206 
Q 1244 -1253 1478 -1253 
L 1478 -1369 
L -22 -1369 
L -22 -1253 
L 56 -1253 
Q 228 -1256 350 -1188 
Q 409 -1153 442 -1076 
Q 475 -1000 475 -688 
L 475 2019 
Q 475 2297 450 2372 
Q 425 2447 370 2484 
Q 316 2522 222 2522 
Q 147 2522 31 2478 
L -6 2578 
z
M 994 2081 
L 994 1013 
Q 994 666 1022 556 
Q 1066 375 1236 237 
Q 1406 100 1666 100 
Q 1978 100 2172 344 
Q 2425 663 2425 1241 
Q 2425 1897 2138 2250 
Q 1938 2494 1663 2494 
Q 1513 2494 1366 2419 
Q 1253 2363 994 2081 
z
" transform="scale(0.015625)"/>
       <path id="TimesNewRomanPSMT-6f" d="M 1600 2947 
Q 2250 2947 2644 2453 
Q 2978 2031 2978 1484 
Q 2978 1100 2793 706 
Q 2609 313 2286 112 
Q 1963 -88 1566 -88 
Q 919 -88 538 428 
Q 216 863 216 1403 
Q 216 1797 411 2186 
Q 606 2575 925 2761 
Q 1244 2947 1600 2947 
z
M 1503 2744 
Q 1338 2744 1170 2645 
Q 1003 2547 900 2300 
Q 797 2053 797 1666 
Q 797 1041 1045 587 
Q 1294 134 1700 134 
Q 2003 134 2200 384 
Q 2397 634 2397 1244 
Q 2397 2006 2069 2444 
Q 1847 2744 1503 2744 
z
" transform="scale(0.015625)"/>
       <path id="TimesNewRomanPSMT-63" d="M 2631 1088 
Q 2516 522 2178 217 
Q 1841 -88 1431 -88 
Q 944 -88 581 321 
Q 219 731 219 1428 
Q 219 2103 620 2525 
Q 1022 2947 1584 2947 
Q 2006 2947 2278 2723 
Q 2550 2500 2550 2259 
Q 2550 2141 2473 2067 
Q 2397 1994 2259 1994 
Q 2075 1994 1981 2113 
Q 1928 2178 1911 2362 
Q 1894 2547 1784 2644 
Q 1675 2738 1481 2738 
Q 1169 2738 978 2506 
Q 725 2200 725 1697 
Q 725 1184 976 792 
Q 1228 400 1656 400 
Q 1963 400 2206 609 
Q 2378 753 2541 1131 
L 2631 1088 
z
" transform="scale(0.015625)"/>
       <path id="TimesNewRomanPSMT-68" d="M 1041 4444 
L 1041 2350 
Q 1388 2731 1591 2839 
Q 1794 2947 1997 2947 
Q 2241 2947 2416 2812 
Q 2591 2678 2675 2391 
Q 2734 2191 2734 1659 
L 2734 647 
Q 2734 375 2778 275 
Q 2809 200 2884 156 
Q 2959 113 3159 113 
L 3159 0 
L 1753 0 
L 1753 113 
L 1819 113 
Q 2019 113 2097 173 
Q 2175 234 2206 353 
Q 2216 403 2216 647 
L 2216 1659 
Q 2216 2128 2167 2275 
Q 2119 2422 2012 2495 
Q 1906 2569 1756 2569 
Q 1603 2569 1437 2487 
Q 1272 2406 1041 2159 
L 1041 647 
Q 1041 353 1073 281 
Q 1106 209 1195 161 
Q 1284 113 1503 113 
L 1503 0 
L 84 0 
L 84 113 
Q 275 113 384 172 
Q 447 203 484 290 
Q 522 378 522 647 
L 522 3238 
Q 522 3728 498 3840 
Q 475 3953 426 3993 
Q 378 4034 297 4034 
Q 231 4034 84 3984 
L 41 4094 
L 897 4444 
L 1041 4444 
z
" transform="scale(0.015625)"/>
      </defs>
      <use xlink:href="#TimesNewRomanPSMT-45"/>
      <use xlink:href="#TimesNewRomanPSMT-70" x="61.083984"/>
      <use xlink:href="#TimesNewRomanPSMT-6f" x="111.083984"/>
      <use xlink:href="#TimesNewRomanPSMT-63" x="161.083984"/>
      <use xlink:href="#TimesNewRomanPSMT-68" x="205.46875"/>
     </g>
    </g>
   </g>
   <g id="matplotlib.axis_2">
    <g id="ytick_1">
     <g id="line2d_4">
      <defs>
       <path id="m296ab9e061" d="M 0 0 
L -3.5 0 
" style="stroke: #000000; stroke-width: 0.8"/>
      </defs>
      <g>
       <use xlink:href="#m296ab9e061" x="54.72" y="161.485714" style="stroke: #000000; stroke-width: 0.8"/>
      </g>
     </g>
     <g id="text_5">
      <!-- 0.0 -->
      <g transform="translate(25.22 167.735089)scale(0.18 -0.18)">
       <defs>
        <path id="TimesNewRomanPSMT-2e" d="M 800 606 
Q 947 606 1047 504 
Q 1147 403 1147 259 
Q 1147 116 1045 14 
Q 944 -88 800 -88 
Q 656 -88 554 14 
Q 453 116 453 259 
Q 453 406 554 506 
Q 656 606 800 606 
z
" transform="scale(0.015625)"/>
       </defs>
       <use xlink:href="#TimesNewRomanPSMT-30"/>
       <use xlink:href="#TimesNewRomanPSMT-2e" x="50"/>
       <use xlink:href="#TimesNewRomanPSMT-30" x="75"/>
      </g>
     </g>
    </g>
    <g id="ytick_2">
     <g id="line2d_5">
      <g>
       <use xlink:href="#m296ab9e061" x="54.72" y="138.171429" style="stroke: #000000; stroke-width: 0.8"/>
      </g>
     </g>
     <g id="text_6">
      <!-- 0.5 -->
      <g transform="translate(25.22 144.420804)scale(0.18 -0.18)">
       <use xlink:href="#TimesNewRomanPSMT-30"/>
       <use xlink:href="#TimesNewRomanPSMT-2e" x="50"/>
       <use xlink:href="#TimesNewRomanPSMT-35" x="75"/>
      </g>
     </g>
    </g>
    <g id="ytick_3">
     <g id="line2d_6">
      <g>
       <use xlink:href="#m296ab9e061" x="54.72" y="114.857143" style="stroke: #000000; stroke-width: 0.8"/>
      </g>
     </g>
     <g id="text_7">
      <!-- 1.0 -->
      <g transform="translate(25.22 121.106518)scale(0.18 -0.18)">
       <use xlink:href="#TimesNewRomanPSMT-31"/>
       <use xlink:href="#TimesNewRomanPSMT-2e" x="50"/>
       <use xlink:href="#TimesNewRomanPSMT-30" x="75"/>
      </g>
     </g>
    </g>
    <g id="ytick_4">
     <g id="line2d_7">
      <g>
       <use xlink:href="#m296ab9e061" x="54.72" y="91.542857" style="stroke: #000000; stroke-width: 0.8"/>
      </g>
     </g>
     <g id="text_8">
      <!-- 1.5 -->
      <g transform="translate(25.22 97.792232)scale(0.18 -0.18)">
       <use xlink:href="#TimesNewRomanPSMT-31"/>
       <use xlink:href="#TimesNewRomanPSMT-2e" x="50"/>
       <use xlink:href="#TimesNewRomanPSMT-35" x="75"/>
      </g>
     </g>
    </g>
    <g id="ytick_5">
     <g id="line2d_8">
      <g>
       <use xlink:href="#m296ab9e061" x="54.72" y="68.228571" style="stroke: #000000; stroke-width: 0.8"/>
      </g>
     </g>
     <g id="text_9">
      <!-- 2.0 -->
      <g transform="translate(25.22 74.477946)scale(0.18 -0.18)">
       <defs>
        <path id="TimesNewRomanPSMT-32" d="M 2934 816 
L 2638 0 
L 138 0 
L 138 116 
Q 1241 1122 1691 1759 
Q 2141 2397 2141 2925 
Q 2141 3328 1894 3587 
Q 1647 3847 1303 3847 
Q 991 3847 742 3664 
Q 494 3481 375 3128 
L 259 3128 
Q 338 3706 661 4015 
Q 984 4325 1469 4325 
Q 1984 4325 2329 3994 
Q 2675 3663 2675 3213 
Q 2675 2891 2525 2569 
Q 2294 2063 1775 1497 
Q 997 647 803 472 
L 1909 472 
Q 2247 472 2383 497 
Q 2519 522 2628 598 
Q 2738 675 2819 816 
L 2934 816 
z
" transform="scale(0.015625)"/>
       </defs>
       <use xlink:href="#TimesNewRomanPSMT-32"/>
       <use xlink:href="#TimesNewRomanPSMT-2e" x="50"/>
       <use xlink:href="#TimesNewRomanPSMT-30" x="75"/>
      </g>
     </g>
    </g>
    <g id="ytick_6">
     <g id="line2d_9">
      <g>
       <use xlink:href="#m296ab9e061" x="54.72" y="44.914286" style="stroke: #000000; stroke-width: 0.8"/>
      </g>
     </g>
     <g id="text_10">
      <!-- 2.5 -->
      <g transform="translate(25.22 51.163661)scale(0.18 -0.18)">
       <use xlink:href="#TimesNewRomanPSMT-32"/>
       <use xlink:href="#TimesNewRomanPSMT-2e" x="50"/>
       <use xlink:href="#TimesNewRomanPSMT-35" x="75"/>
      </g>
     </g>
    </g>
    <g id="text_11">
     <!-- Loss -->
     <g transform="translate(17.369687 112.042969)rotate(-90)scale(0.18 -0.18)">
      <defs>
       <path id="TimesNewRomanPSMT-4c" d="M 3669 1172 
L 3772 1150 
L 3409 0 
L 128 0 
L 128 116 
L 288 116 
Q 556 116 672 291 
Q 738 391 738 753 
L 738 3488 
Q 738 3884 650 3984 
Q 528 4122 288 4122 
L 128 4122 
L 128 4238 
L 2047 4238 
L 2047 4122 
Q 1709 4125 1573 4059 
Q 1438 3994 1388 3894 
Q 1338 3794 1338 3416 
L 1338 753 
Q 1338 494 1388 397 
Q 1425 331 1503 300 
Q 1581 269 1991 269 
L 2300 269 
Q 2788 269 2984 341 
Q 3181 413 3343 595 
Q 3506 778 3669 1172 
z
" transform="scale(0.015625)"/>
       <path id="TimesNewRomanPSMT-73" d="M 2050 2947 
L 2050 1972 
L 1947 1972 
Q 1828 2431 1642 2597 
Q 1456 2763 1169 2763 
Q 950 2763 815 2647 
Q 681 2531 681 2391 
Q 681 2216 781 2091 
Q 878 1963 1175 1819 
L 1631 1597 
Q 2266 1288 2266 781 
Q 2266 391 1970 151 
Q 1675 -88 1309 -88 
Q 1047 -88 709 6 
Q 606 38 541 38 
Q 469 38 428 -44 
L 325 -44 
L 325 978 
L 428 978 
Q 516 541 762 319 
Q 1009 97 1316 97 
Q 1531 97 1667 223 
Q 1803 350 1803 528 
Q 1803 744 1651 891 
Q 1500 1038 1047 1263 
Q 594 1488 453 1669 
Q 313 1847 313 2119 
Q 313 2472 555 2709 
Q 797 2947 1181 2947 
Q 1350 2947 1591 2875 
Q 1750 2828 1803 2828 
Q 1853 2828 1881 2850 
Q 1909 2872 1947 2947 
L 2050 2947 
z
" transform="scale(0.015625)"/>
      </defs>
      <use xlink:href="#TimesNewRomanPSMT-4c"/>
      <use xlink:href="#TimesNewRomanPSMT-6f" x="61.083984"/>
      <use xlink:href="#TimesNewRomanPSMT-73" x="111.083984"/>
      <use xlink:href="#TimesNewRomanPSMT-73" x="150"/>
     </g>
    </g>
   </g>
   <g id="line2d_10">
    <path d="M 64.014545 32.203785 
L 65.131007 32.267964 
L 65.503161 32.489617 
L 65.875315 32.814648 
L 66.619623 33.252174 
L 67.550008 34.245066 
L 68.852547 36.391381 
L 70.155086 39.608074 
L 72.201933 44.47934 
L 72.760164 46.327516 
L 73.318395 48.099195 
L 74.062703 51.323871 
L 76.10955 61.962853 
L 77.598165 71.051313 
L 78.52855 76.319549 
L 84.11086 106.78989 
L 84.296937 107.630027 
L 84.669091 109.741256 
L 86.529861 119.420589 
L 87.088092 121.619902 
L 87.646323 123.813337 
L 88.390631 127.954083 
L 89.507093 131.724601 
L 90.2514 134.273573 
L 91.553939 138.255995 
L 91.740016 138.509221 
L 92.11217 139.590566 
L 92.298247 139.771005 
L 93.414709 142.704943 
L 93.786863 143.889931 
L 94.159017 144.588935 
L 96.019787 148.555306 
L 96.205864 148.661317 
L 96.391941 149.195435 
L 96.950172 149.656667 
L 97.322326 150.301123 
L 97.69448 150.613234 
L 98.252711 151.460078 
L 98.438788 151.558105 
L 99.183096 152.54491 
L 99.369173 152.563546 
L 99.741327 153.005691 
L 100.113481 153.436599 
L 100.299558 153.453202 
L 102.160328 155.185658 
L 102.532482 155.34621 
L 103.27679 155.888358 
L 103.462867 155.899528 
L 104.021097 156.281588 
L 105.137559 156.824572 
L 105.323636 156.842866 
L 106.067944 157.315248 
L 106.626175 157.430516 
L 107.184406 157.618689 
L 107.928714 157.921 
L 109.603407 158.548057 
L 111.2781 158.793812 
L 112.022408 158.98979 
L 112.394562 159.020587 
L 113.883178 159.26662 
L 116.116102 159.648079 
L 119.465487 159.948953 
L 121.512334 160.160178 
L 122.628796 160.129915 
L 125.606028 160.347765 
L 126.908567 160.408416 
L 128.58326 160.534475 
L 130.071876 160.567788 
L 132.490876 160.65997 
L 143.097265 160.89671 
L 145.330188 160.929112 
L 147.749189 160.966606 
L 154.447961 161.056319 
L 157.611269 161.08209 
L 161.518886 161.131949 
L 179.940508 161.245303 
L 193.338051 161.293064 
L 198.176052 161.309508 
L 208.596364 161.330735 
L 230.739525 161.373862 
L 243.950991 161.385697 
L 249.905455 161.394045 
L 249.905455 161.394045 
" clip-path="url(#p0d63a9d795)" style="fill: none; stroke: #1f77b4; stroke-width: 1.5; stroke-linecap: square"/>
   </g>
   <g id="line2d_11">
    <path d="M 64.014545 32.204074 
L 65.317084 32.305295 
L 66.8057 32.981716 
L 67.736085 33.658026 
L 68.108239 33.952063 
L 68.480393 34.262653 
L 69.969009 36.195897 
L 70.52724 37.061543 
L 71.271548 38.074435 
L 72.015856 39.327078 
L 72.201933 39.467976 
L 74.434857 44.441764 
L 75.179165 46.673147 
L 78.156396 56.470207 
L 78.714627 58.62058 
L 79.645012 61.687004 
L 81.133628 67.537987 
L 82.436167 72.254636 
L 82.808321 73.664069 
L 83.366552 75.887888 
L 83.924783 78.179437 
L 85.041245 82.697033 
L 85.413399 84.108885 
L 85.97163 86.212583 
L 89.879247 100.833138 
L 90.809631 103.895381 
L 91.740016 107.080813 
L 94.717248 116.179835 
L 95.089402 117.008994 
L 96.764095 121.149873 
L 96.950172 121.402791 
L 97.508403 122.672466 
L 98.066634 123.288723 
L 98.252711 123.706424 
L 98.438788 123.804563 
L 99.183096 125.336747 
L 99.741327 126.109867 
L 100.299558 127.062707 
L 100.485635 127.071478 
L 101.043866 127.947407 
L 101.229943 127.879179 
L 101.41602 128.323919 
L 101.602097 128.365094 
L 101.788174 128.781622 
L 101.974251 128.730719 
L 102.346405 129.459577 
L 102.532482 129.489916 
L 102.904636 130.035021 
L 106.067944 133.038052 
L 106.254021 133.102026 
L 106.626175 133.646092 
L 107.184406 133.726274 
L 108.300868 134.604162 
L 108.673022 134.673689 
L 109.045176 134.931336 
L 109.231253 135.117882 
L 109.41733 135.002975 
L 109.789484 135.121645 
L 109.975561 135.281626 
L 110.161638 135.266795 
L 111.092023 135.805431 
L 111.2781 135.739267 
L 111.650254 136.071144 
L 111.836331 136.071969 
L 112.208485 136.300404 
L 112.952793 136.378527 
L 113.13887 136.577239 
L 113.697101 136.6227 
L 113.883178 136.831532 
L 114.255332 136.747304 
L 114.813563 136.862813 
L 115.185717 136.916937 
L 116.116102 137.296381 
L 116.488256 137.195637 
L 116.86041 137.345418 
L 117.604717 137.543064 
L 117.790794 137.397635 
L 118.162948 137.49973 
L 118.721179 137.503751 
L 119.093333 137.542403 
L 120.768026 137.594736 
L 121.14018 137.753264 
L 121.698411 137.902486 
L 122.070565 137.829474 
L 122.256642 137.970023 
L 122.442719 137.797635 
L 124.86172 138.295344 
L 125.233874 138.329564 
L 125.792105 138.413102 
L 125.978182 138.328263 
L 126.72249 138.416521 
L 126.908567 138.328954 
L 127.094644 138.380496 
L 127.280721 138.214111 
L 127.652875 138.387046 
L 128.397183 138.769853 
L 128.769337 138.664544 
L 129.141491 138.663467 
L 129.513645 138.798316 
L 129.699722 138.75932 
L 130.257952 139.022516 
L 130.444029 138.909393 
L 131.188337 139.202359 
L 132.304799 139.444871 
L 132.490876 139.348925 
L 132.86303 139.67942 
L 133.235184 139.738302 
L 133.979492 139.697798 
L 134.165569 139.960684 
L 134.537723 139.95899 
L 135.095954 140.101195 
L 135.282031 140.038094 
L 136.026339 140.352057 
L 136.212416 140.323992 
L 136.58457 140.435252 
L 136.770647 140.296966 
L 137.514955 140.621634 
L 137.701032 140.518273 
L 137.887109 140.567594 
L 138.073186 140.739934 
L 138.631417 140.778561 
L 138.817494 140.658021 
L 139.189648 140.935001 
L 139.561802 141.268034 
L 140.120033 141.543184 
L 140.492187 141.499717 
L 140.678264 141.613272 
L 141.050418 141.514125 
L 141.236495 141.631972 
L 141.608649 141.302658 
L 142.352957 141.657411 
L 143.283342 141.834306 
L 144.027649 142.469907 
L 144.213726 142.454836 
L 144.58588 142.740293 
L 145.144111 143.139598 
L 145.516265 143.016913 
L 145.888419 143.185955 
L 146.074496 143.311621 
L 146.44665 143.175789 
L 147.004881 143.648448 
L 147.190958 143.654165 
L 147.377035 143.776228 
L 147.563112 144.043529 
L 147.749189 143.954168 
L 148.121343 144.077075 
L 148.30742 144.041026 
L 148.493497 144.173534 
L 148.679574 144.500147 
L 149.051728 144.543706 
L 149.796036 144.937662 
L 149.982113 144.780901 
L 150.16819 145.093951 
L 150.354267 145.077966 
L 150.540344 145.400696 
L 151.470729 145.907364 
L 152.215037 146.237621 
L 152.587191 146.316518 
L 152.773268 146.743649 
L 152.959345 146.73943 
L 153.145422 146.873459 
L 153.331499 147.262329 
L 153.517576 147.144235 
L 153.703653 147.190342 
L 154.261884 147.833459 
L 154.634038 147.967698 
L 155.192269 148.081626 
L 155.378346 148.108007 
L 156.122654 148.659172 
L 156.494808 148.657473 
L 156.866962 148.991159 
L 157.053038 149.070982 
L 157.239115 149.283834 
L 157.797346 149.396267 
L 158.541654 150.143098 
L 159.099885 150.131779 
L 159.285962 150.477927 
L 159.472039 150.369106 
L 160.03027 150.862474 
L 160.402424 150.683658 
L 160.588501 150.890886 
L 160.774578 150.889873 
L 161.332809 151.324496 
L 161.518886 151.328701 
L 161.704963 151.613528 
L 162.077117 151.679741 
L 162.449271 151.672051 
L 163.007502 151.752122 
L 163.75181 152.511865 
L 164.123964 152.567409 
L 164.682195 153.024399 
L 165.240426 153.290706 
L 165.426503 153.272224 
L 165.61258 153.480606 
L 165.984734 153.386555 
L 166.356888 153.627293 
L 166.542965 153.954909 
L 166.915119 154.01428 
L 167.101196 153.845042 
L 167.47335 153.996898 
L 167.845504 154.142096 
L 168.217658 154.182403 
L 168.403735 154.161699 
L 168.589812 154.325216 
L 168.775889 154.330184 
L 169.148043 154.674909 
L 169.33412 154.870963 
L 169.706274 154.839503 
L 170.078428 155.038475 
L 170.822735 155.233217 
L 171.008812 155.217222 
L 171.75312 155.791561 
L 172.869582 155.863242 
L 173.055659 155.685509 
L 173.427813 156.012728 
L 173.799967 156.208545 
L 173.986044 156.078759 
L 174.916429 156.413449 
L 175.102506 156.314541 
L 175.288583 156.385599 
L 175.47466 156.258015 
L 176.405045 156.586509 
L 176.963276 156.864112 
L 177.33543 156.983872 
L 178.451892 157.344024 
L 179.010123 157.370267 
L 179.754431 157.65686 
L 180.312662 157.650379 
L 180.684816 157.726676 
L 181.243047 157.857388 
L 181.429124 157.978204 
L 181.987355 157.989533 
L 184.220278 158.602018 
L 186.453202 158.803598 
L 186.825356 158.92671 
L 187.755741 159.000523 
L 188.127895 159.098599 
L 188.313972 159.069914 
L 188.500049 159.188519 
L 188.872203 159.151373 
L 189.244357 159.239988 
L 189.988665 159.155776 
L 190.732973 159.329127 
L 191.291204 159.33025 
L 192.407666 159.611411 
L 193.710205 159.672389 
L 194.082359 159.726562 
L 194.64059 159.642672 
L 195.198821 159.765707 
L 195.570975 159.833073 
L 195.757052 159.903916 
L 196.315283 159.82238 
L 201.525438 160.256007 
L 202.269746 160.143296 
L 203.386208 160.247077 
L 203.572285 160.296017 
L 203.758362 160.194678 
L 204.130516 160.239955 
L 204.316593 160.19253 
L 204.50267 160.273806 
L 204.688747 160.226882 
L 205.060901 160.309214 
L 207.479902 160.376366 
L 208.038133 160.422672 
L 211.945749 160.591368 
L 212.317903 160.571822 
L 216.783751 160.694948 
L 217.528059 160.707258 
L 218.458444 160.791452 
L 218.830598 160.725572 
L 219.760983 160.732912 
L 220.319214 160.811438 
L 220.877445 160.847473 
L 222.366061 160.795119 
L 223.296446 160.875054 
L 224.598984 160.925699 
L 225.529369 160.916852 
L 226.273677 160.866182 
L 227.017985 160.918647 
L 229.623063 160.830297 
L 231.111679 160.893293 
L 231.66991 160.865595 
L 232.600295 160.862016 
L 235.019296 160.965826 
L 235.577527 160.96706 
L 238.368681 160.94615 
L 240.601605 160.978852 
L 240.973759 160.976942 
L 241.718067 160.9316 
L 242.276298 160.94938 
L 243.206683 160.997914 
L 246.556069 161.041568 
L 248.230762 161.037439 
L 249.905455 160.990771 
L 249.905455 160.990771 
" clip-path="url(#p0d63a9d795)" style="fill: none; stroke: #ff7f0e; stroke-width: 1.5; stroke-linecap: square"/>
   </g>
   <g id="patch_3">
    <path d="M 54.72 168.48 
L 54.72 21.6 
" style="fill: none; stroke: #000000; stroke-width: 0.8; stroke-linejoin: miter; stroke-linecap: square"/>
   </g>
   <g id="patch_4">
    <path d="M 259.2 168.48 
L 259.2 21.6 
" style="fill: none; stroke: #000000; stroke-width: 0.8; stroke-linejoin: miter; stroke-linecap: square"/>
   </g>
   <g id="patch_5">
    <path d="M 54.72 168.48 
L 259.2 168.48 
" style="fill: none; stroke: #000000; stroke-width: 0.8; stroke-linejoin: miter; stroke-linecap: square"/>
   </g>
   <g id="patch_6">
    <path d="M 54.72 21.6 
L 259.2 21.6 
" style="fill: none; stroke: #000000; stroke-width: 0.8; stroke-linejoin: miter; stroke-linecap: square"/>
   </g>
   <g id="legend_1">
    <g id="patch_7">
     <path d="M 154.996875 86.900625 
L 246.6 86.900625 
Q 250.2 86.900625 250.2 83.300625 
L 250.2 34.2 
Q 250.2 30.6 246.6 30.6 
L 154.996875 30.6 
Q 151.396875 30.6 151.396875 34.2 
L 151.396875 83.300625 
Q 151.396875 86.900625 154.996875 86.900625 
z
" style="fill: #ffffff; opacity: 0.8; stroke: #cccccc; stroke-linejoin: miter"/>
    </g>
    <g id="line2d_12">
     <path d="M 158.596875 44.1 
L 176.596875 44.1 
L 194.596875 44.1 
" style="fill: none; stroke: #1f77b4; stroke-width: 1.5; stroke-linecap: square"/>
    </g>
    <g id="text_12">
     <!-- SDT -->
     <g transform="translate(208.996875 50.4)scale(0.18 -0.18)">
      <defs>
       <path id="TimesNewRomanPSMT-53" d="M 2934 4334 
L 2934 2869 
L 2819 2869 
Q 2763 3291 2617 3541 
Q 2472 3791 2203 3937 
Q 1934 4084 1647 4084 
Q 1322 4084 1109 3886 
Q 897 3688 897 3434 
Q 897 3241 1031 3081 
Q 1225 2847 1953 2456 
Q 2547 2138 2764 1967 
Q 2981 1797 3098 1565 
Q 3216 1334 3216 1081 
Q 3216 600 2842 251 
Q 2469 -97 1881 -97 
Q 1697 -97 1534 -69 
Q 1438 -53 1133 45 
Q 828 144 747 144 
Q 669 144 623 97 
Q 578 50 556 -97 
L 441 -97 
L 441 1356 
L 556 1356 
Q 638 900 775 673 
Q 913 447 1195 297 
Q 1478 147 1816 147 
Q 2206 147 2432 353 
Q 2659 559 2659 841 
Q 2659 997 2573 1156 
Q 2488 1316 2306 1453 
Q 2184 1547 1640 1851 
Q 1097 2156 867 2337 
Q 638 2519 519 2737 
Q 400 2956 400 3219 
Q 400 3675 750 4004 
Q 1100 4334 1641 4334 
Q 1978 4334 2356 4169 
Q 2531 4091 2603 4091 
Q 2684 4091 2736 4139 
Q 2788 4188 2819 4334 
L 2934 4334 
z
" transform="scale(0.015625)"/>
       <path id="TimesNewRomanPSMT-44" d="M 109 0 
L 109 116 
L 269 116 
Q 538 116 650 288 
Q 719 391 719 750 
L 719 3488 
Q 719 3884 631 3984 
Q 509 4122 269 4122 
L 109 4122 
L 109 4238 
L 1834 4238 
Q 2784 4238 3279 4022 
Q 3775 3806 4076 3303 
Q 4378 2800 4378 2141 
Q 4378 1256 3841 663 
Q 3238 0 2003 0 
L 109 0 
z
M 1319 306 
Q 1716 219 1984 219 
Q 2709 219 3187 728 
Q 3666 1238 3666 2109 
Q 3666 2988 3187 3494 
Q 2709 4000 1959 4000 
Q 1678 4000 1319 3909 
L 1319 306 
z
" transform="scale(0.015625)"/>
       <path id="TimesNewRomanPSMT-54" d="M 3703 4238 
L 3750 3244 
L 3631 3244 
Q 3597 3506 3538 3619 
Q 3441 3800 3280 3886 
Q 3119 3972 2856 3972 
L 2259 3972 
L 2259 734 
Q 2259 344 2344 247 
Q 2463 116 2709 116 
L 2856 116 
L 2856 0 
L 1059 0 
L 1059 116 
L 1209 116 
Q 1478 116 1591 278 
Q 1659 378 1659 734 
L 1659 3972 
L 1150 3972 
Q 853 3972 728 3928 
Q 566 3869 450 3700 
Q 334 3531 313 3244 
L 194 3244 
L 244 4238 
L 3703 4238 
z
" transform="scale(0.015625)"/>
      </defs>
      <use xlink:href="#TimesNewRomanPSMT-53"/>
      <use xlink:href="#TimesNewRomanPSMT-44" x="55.615234"/>
      <use xlink:href="#TimesNewRomanPSMT-54" x="127.832031"/>
     </g>
    </g>
    <g id="line2d_13">
     <path d="M 158.596875 69.550312 
L 176.596875 69.550312 
L 194.596875 69.550312 
" style="fill: none; stroke: #ff7f0e; stroke-width: 1.5; stroke-linecap: square"/>
    </g>
    <g id="text_13">
     <!-- TET -->
     <g transform="translate(208.996875 75.850312)scale(0.18 -0.18)">
      <use xlink:href="#TimesNewRomanPSMT-54"/>
      <use xlink:href="#TimesNewRomanPSMT-45" x="61.083984"/>
      <use xlink:href="#TimesNewRomanPSMT-54" x="122.167969"/>
     </g>
    </g>
   </g>
  </g>
 </g>
 <defs>
  <clipPath id="p0d63a9d795">
   <rect x="54.72" y="21.6" width="204.48" height="146.88"/>
  </clipPath>
 </defs>
</svg>
