<?xml version="1.0" encoding="utf-8" standalone="no"?>
<!DOCTYPE svg PUBLIC "-//W3C//DTD SVG 1.1//EN"
  "http://www.w3.org/Graphics/SVG/1.1/DTD/svg11.dtd">
<svg xmlns:xlink="http://www.w3.org/1999/xlink" width="288pt" height="216pt" viewBox="0 0 288 216" xmlns="http://www.w3.org/2000/svg" version="1.1">
 <metadata>
  <rdf:RDF xmlns:dc="http://purl.org/dc/elements/1.1/" xmlns:cc="http://creativecommons.org/ns#" xmlns:rdf="http://www.w3.org/1999/02/22-rdf-syntax-ns#">
   <cc:Work>
    <dc:type rdf:resource="http://purl.org/dc/dcmitype/StillImage"/>
    <dc:date>2024-05-19T21:08:35.006997</dc:date>
    <dc:format>image/svg+xml</dc:format>
    <dc:creator>
     <cc:Agent>
      <dc:title>Matplotlib v3.5.0, https://matplotlib.org/</dc:title>
     </cc:Agent>
    </dc:creator>
   </cc:Work>
  </rdf:RDF>
 </metadata>
 <defs>
  <style type="text/css">*{stroke-linejoin: round; stroke-linecap: butt}</style>
 </defs>
 <g id="figure_1">
  <g id="patch_1">
   <path d="M 0 216 
L 288 216 
L 288 0 
L 0 0 
z
" style="fill: #ffffff"/>
  </g>
  <g id="axes_1">
   <g id="patch_2">
    <path d="M 54.72 168.48 
L 259.2 168.48 
L 259.2 21.6 
L 54.72 21.6 
z
" style="fill: #ffffff"/>
   </g>
   <g id="matplotlib.axis_1">
    <g id="xtick_1">
     <g id="line2d_1">
      <defs>
       <path id="md3c8d3934c" d="M 0 0 
L 0 3.5 
" style="stroke: #000000; stroke-width: 0.8"/>
      </defs>
      <g>
       <use xlink:href="#md3c8d3934c" x="64.014545" y="168.48" style="stroke: #000000; stroke-width: 0.8"/>
      </g>
     </g>
     <g id="text_1">
      <!-- 0 -->
      <g transform="translate(59.514545 187.97875)scale(0.18 -0.18)">
       <defs>
        <path id="TimesNewRomanPSMT-30" d="M 231 2094 
Q 231 2819 450 3342 
Q 669 3866 1031 4122 
Q 1313 4325 1613 4325 
Q 2100 4325 2488 3828 
Q 2972 3213 2972 2159 
Q 2972 1422 2759 906 
Q 2547 391 2217 158 
Q 1888 -75 1581 -75 
Q 975 -75 572 641 
Q 231 1244 231 2094 
z
M 844 2016 
Q 844 1141 1059 588 
Q 1238 122 1591 122 
Q 1759 122 1940 273 
Q 2122 425 2216 781 
Q 2359 1319 2359 2297 
Q 2359 3022 2209 3506 
Q 2097 3866 1919 4016 
Q 1791 4119 1609 4119 
Q 1397 4119 1231 3928 
Q 1006 3669 925 3112 
Q 844 2556 844 2016 
z
" transform="scale(0.015625)"/>
       </defs>
       <use xlink:href="#TimesNewRomanPSMT-30"/>
      </g>
     </g>
    </g>
    <g id="xtick_2">
     <g id="line2d_2">
      <g>
       <use xlink:href="#md3c8d3934c" x="157.053038" y="168.48" style="stroke: #000000; stroke-width: 0.8"/>
      </g>
     </g>
     <g id="text_2">
      <!-- 500 -->
      <g transform="translate(143.553038 187.97875)scale(0.18 -0.18)">
       <defs>
        <path id="TimesNewRomanPSMT-35" d="M 2778 4238 
L 2534 3706 
L 1259 3706 
L 981 3138 
Q 1809 3016 2294 2522 
Q 2709 2097 2709 1522 
Q 2709 1188 2573 903 
Q 2438 619 2231 419 
Q 2025 219 1772 97 
Q 1413 -75 1034 -75 
Q 653 -75 479 54 
Q 306 184 306 341 
Q 306 428 378 495 
Q 450 563 559 563 
Q 641 563 702 538 
Q 763 513 909 409 
Q 1144 247 1384 247 
Q 1750 247 2026 523 
Q 2303 800 2303 1197 
Q 2303 1581 2056 1914 
Q 1809 2247 1375 2428 
Q 1034 2569 447 2591 
L 1259 4238 
L 2778 4238 
z
" transform="scale(0.015625)"/>
       </defs>
       <use xlink:href="#TimesNewRomanPSMT-35"/>
       <use xlink:href="#TimesNewRomanPSMT-30" x="50"/>
       <use xlink:href="#TimesNewRomanPSMT-30" x="100"/>
      </g>
     </g>
    </g>
    <g id="xtick_3">
     <g id="line2d_3">
      <g>
       <use xlink:href="#md3c8d3934c" x="250.091532" y="168.48" style="stroke: #000000; stroke-width: 0.8"/>
      </g>
     </g>
     <g id="text_3">
      <!-- 1000 -->
      <g transform="translate(232.091532 187.97875)scale(0.18 -0.18)">
       <defs>
        <path id="TimesNewRomanPSMT-31" d="M 750 3822 
L 1781 4325 
L 1884 4325 
L 1884 747 
Q 1884 391 1914 303 
Q 1944 216 2037 169 
Q 2131 122 2419 116 
L 2419 0 
L 825 0 
L 825 116 
Q 1125 122 1212 167 
Q 1300 213 1334 289 
Q 1369 366 1369 747 
L 1369 3034 
Q 1369 3497 1338 3628 
Q 1316 3728 1258 3775 
Q 1200 3822 1119 3822 
Q 1003 3822 797 3725 
L 750 3822 
z
" transform="scale(0.015625)"/>
       </defs>
       <use xlink:href="#TimesNewRomanPSMT-31"/>
       <use xlink:href="#TimesNewRomanPSMT-30" x="50"/>
       <use xlink:href="#TimesNewRomanPSMT-30" x="100"/>
       <use xlink:href="#TimesNewRomanPSMT-30" x="150"/>
      </g>
     </g>
    </g>
    <g id="text_4">
     <!-- Epoch -->
     <g transform="translate(133.967812 208.327812)scale(0.18 -0.18)">
      <defs>
       <path id="TimesNewRomanPSMT-45" d="M 1338 4006 
L 1338 2331 
L 2269 2331 
Q 2631 2331 2753 2441 
Q 2916 2584 2934 2947 
L 3050 2947 
L 3050 1472 
L 2934 1472 
Q 2891 1781 2847 1869 
Q 2791 1978 2662 2040 
Q 2534 2103 2269 2103 
L 1338 2103 
L 1338 706 
Q 1338 425 1363 364 
Q 1388 303 1450 267 
Q 1513 231 1688 231 
L 2406 231 
Q 2766 231 2928 281 
Q 3091 331 3241 478 
Q 3434 672 3638 1063 
L 3763 1063 
L 3397 0 
L 131 0 
L 131 116 
L 281 116 
Q 431 116 566 188 
Q 666 238 702 338 
Q 738 438 738 747 
L 738 3500 
Q 738 3903 656 3997 
Q 544 4122 281 4122 
L 131 4122 
L 131 4238 
L 3397 4238 
L 3444 3309 
L 3322 3309 
Q 3256 3644 3176 3769 
Q 3097 3894 2941 3959 
Q 2816 4006 2500 4006 
L 1338 4006 
z
" transform="scale(0.015625)"/>
       <path id="TimesNewRomanPSMT-70" d="M -6 2578 
L 875 2934 
L 994 2934 
L 994 2266 
Q 1216 2644 1439 2795 
Q 1663 2947 1909 2947 
Q 2341 2947 2628 2609 
Q 2981 2197 2981 1534 
Q 2981 794 2556 309 
Q 2206 -88 1675 -88 
Q 1444 -88 1275 -22 
Q 1150 25 994 166 
L 994 -706 
Q 994 -1000 1030 -1079 
Q 1066 -1159 1155 -1206 
Q 1244 -1253 1478 -1253 
L 1478 -1369 
L -22 -1369 
L -22 -1253 
L 56 -1253 
Q 228 -1256 350 -1188 
Q 409 -1153 442 -1076 
Q 475 -1000 475 -688 
L 475 2019 
Q 475 2297 450 2372 
Q 425 2447 370 2484 
Q 316 2522 222 2522 
Q 147 2522 31 2478 
L -6 2578 
z
M 994 2081 
L 994 1013 
Q 994 666 1022 556 
Q 1066 375 1236 237 
Q 1406 100 1666 100 
Q 1978 100 2172 344 
Q 2425 663 2425 1241 
Q 2425 1897 2138 2250 
Q 1938 2494 1663 2494 
Q 1513 2494 1366 2419 
Q 1253 2363 994 2081 
z
" transform="scale(0.015625)"/>
       <path id="TimesNewRomanPSMT-6f" d="M 1600 2947 
Q 2250 2947 2644 2453 
Q 2978 2031 2978 1484 
Q 2978 1100 2793 706 
Q 2609 313 2286 112 
Q 1963 -88 1566 -88 
Q 919 -88 538 428 
Q 216 863 216 1403 
Q 216 1797 411 2186 
Q 606 2575 925 2761 
Q 1244 2947 1600 2947 
z
M 1503 2744 
Q 1338 2744 1170 2645 
Q 1003 2547 900 2300 
Q 797 2053 797 1666 
Q 797 1041 1045 587 
Q 1294 134 1700 134 
Q 2003 134 2200 384 
Q 2397 634 2397 1244 
Q 2397 2006 2069 2444 
Q 1847 2744 1503 2744 
z
" transform="scale(0.015625)"/>
       <path id="TimesNewRomanPSMT-63" d="M 2631 1088 
Q 2516 522 2178 217 
Q 1841 -88 1431 -88 
Q 944 -88 581 321 
Q 219 731 219 1428 
Q 219 2103 620 2525 
Q 1022 2947 1584 2947 
Q 2006 2947 2278 2723 
Q 2550 2500 2550 2259 
Q 2550 2141 2473 2067 
Q 2397 1994 2259 1994 
Q 2075 1994 1981 2113 
Q 1928 2178 1911 2362 
Q 1894 2547 1784 2644 
Q 1675 2738 1481 2738 
Q 1169 2738 978 2506 
Q 725 2200 725 1697 
Q 725 1184 976 792 
Q 1228 400 1656 400 
Q 1963 400 2206 609 
Q 2378 753 2541 1131 
L 2631 1088 
z
" transform="scale(0.015625)"/>
       <path id="TimesNewRomanPSMT-68" d="M 1041 4444 
L 1041 2350 
Q 1388 2731 1591 2839 
Q 1794 2947 1997 2947 
Q 2241 2947 2416 2812 
Q 2591 2678 2675 2391 
Q 2734 2191 2734 1659 
L 2734 647 
Q 2734 375 2778 275 
Q 2809 200 2884 156 
Q 2959 113 3159 113 
L 3159 0 
L 1753 0 
L 1753 113 
L 1819 113 
Q 2019 113 2097 173 
Q 2175 234 2206 353 
Q 2216 403 2216 647 
L 2216 1659 
Q 2216 2128 2167 2275 
Q 2119 2422 2012 2495 
Q 1906 2569 1756 2569 
Q 1603 2569 1437 2487 
Q 1272 2406 1041 2159 
L 1041 647 
Q 1041 353 1073 281 
Q 1106 209 1195 161 
Q 1284 113 1503 113 
L 1503 0 
L 84 0 
L 84 113 
Q 275 113 384 172 
Q 447 203 484 290 
Q 522 378 522 647 
L 522 3238 
Q 522 3728 498 3840 
Q 475 3953 426 3993 
Q 378 4034 297 4034 
Q 231 4034 84 3984 
L 41 4094 
L 897 4444 
L 1041 4444 
z
" transform="scale(0.015625)"/>
      </defs>
      <use xlink:href="#TimesNewRomanPSMT-45"/>
      <use xlink:href="#TimesNewRomanPSMT-70" x="61.083984"/>
      <use xlink:href="#TimesNewRomanPSMT-6f" x="111.083984"/>
      <use xlink:href="#TimesNewRomanPSMT-63" x="161.083984"/>
      <use xlink:href="#TimesNewRomanPSMT-68" x="205.46875"/>
     </g>
    </g>
   </g>
   <g id="matplotlib.axis_2">
    <g id="ytick_1">
     <g id="line2d_4">
      <defs>
       <path id="m6602cb972c" d="M 0 0 
L -3.5 0 
" style="stroke: #000000; stroke-width: 0.8"/>
      </defs>
      <g>
       <use xlink:href="#m6602cb972c" x="54.72" y="161.485714" style="stroke: #000000; stroke-width: 0.8"/>
      </g>
     </g>
     <g id="text_5">
      <!-- 0.0 -->
      <g transform="translate(25.22 167.735089)scale(0.18 -0.18)">
       <defs>
        <path id="TimesNewRomanPSMT-2e" d="M 800 606 
Q 947 606 1047 504 
Q 1147 403 1147 259 
Q 1147 116 1045 14 
Q 944 -88 800 -88 
Q 656 -88 554 14 
Q 453 116 453 259 
Q 453 406 554 506 
Q 656 606 800 606 
z
" transform="scale(0.015625)"/>
       </defs>
       <use xlink:href="#TimesNewRomanPSMT-30"/>
       <use xlink:href="#TimesNewRomanPSMT-2e" x="50"/>
       <use xlink:href="#TimesNewRomanPSMT-30" x="75"/>
      </g>
     </g>
    </g>
    <g id="ytick_2">
     <g id="line2d_5">
      <g>
       <use xlink:href="#m6602cb972c" x="54.72" y="138.171429" style="stroke: #000000; stroke-width: 0.8"/>
      </g>
     </g>
     <g id="text_6">
      <!-- 0.5 -->
      <g transform="translate(25.22 144.420804)scale(0.18 -0.18)">
       <use xlink:href="#TimesNewRomanPSMT-30"/>
       <use xlink:href="#TimesNewRomanPSMT-2e" x="50"/>
       <use xlink:href="#TimesNewRomanPSMT-35" x="75"/>
      </g>
     </g>
    </g>
    <g id="ytick_3">
     <g id="line2d_6">
      <g>
       <use xlink:href="#m6602cb972c" x="54.72" y="114.857143" style="stroke: #000000; stroke-width: 0.8"/>
      </g>
     </g>
     <g id="text_7">
      <!-- 1.0 -->
      <g transform="translate(25.22 121.106518)scale(0.18 -0.18)">
       <use xlink:href="#TimesNewRomanPSMT-31"/>
       <use xlink:href="#TimesNewRomanPSMT-2e" x="50"/>
       <use xlink:href="#TimesNewRomanPSMT-30" x="75"/>
      </g>
     </g>
    </g>
    <g id="ytick_4">
     <g id="line2d_7">
      <g>
       <use xlink:href="#m6602cb972c" x="54.72" y="91.542857" style="stroke: #000000; stroke-width: 0.8"/>
      </g>
     </g>
     <g id="text_8">
      <!-- 1.5 -->
      <g transform="translate(25.22 97.792232)scale(0.18 -0.18)">
       <use xlink:href="#TimesNewRomanPSMT-31"/>
       <use xlink:href="#TimesNewRomanPSMT-2e" x="50"/>
       <use xlink:href="#TimesNewRomanPSMT-35" x="75"/>
      </g>
     </g>
    </g>
    <g id="ytick_5">
     <g id="line2d_8">
      <g>
       <use xlink:href="#m6602cb972c" x="54.72" y="68.228571" style="stroke: #000000; stroke-width: 0.8"/>
      </g>
     </g>
     <g id="text_9">
      <!-- 2.0 -->
      <g transform="translate(25.22 74.477946)scale(0.18 -0.18)">
       <defs>
        <path id="TimesNewRomanPSMT-32" d="M 2934 816 
L 2638 0 
L 138 0 
L 138 116 
Q 1241 1122 1691 1759 
Q 2141 2397 2141 2925 
Q 2141 3328 1894 3587 
Q 1647 3847 1303 3847 
Q 991 3847 742 3664 
Q 494 3481 375 3128 
L 259 3128 
Q 338 3706 661 4015 
Q 984 4325 1469 4325 
Q 1984 4325 2329 3994 
Q 2675 3663 2675 3213 
Q 2675 2891 2525 2569 
Q 2294 2063 1775 1497 
Q 997 647 803 472 
L 1909 472 
Q 2247 472 2383 497 
Q 2519 522 2628 598 
Q 2738 675 2819 816 
L 2934 816 
z
" transform="scale(0.015625)"/>
       </defs>
       <use xlink:href="#TimesNewRomanPSMT-32"/>
       <use xlink:href="#TimesNewRomanPSMT-2e" x="50"/>
       <use xlink:href="#TimesNewRomanPSMT-30" x="75"/>
      </g>
     </g>
    </g>
    <g id="ytick_6">
     <g id="line2d_9">
      <g>
       <use xlink:href="#m6602cb972c" x="54.72" y="44.914286" style="stroke: #000000; stroke-width: 0.8"/>
      </g>
     </g>
     <g id="text_10">
      <!-- 2.5 -->
      <g transform="translate(25.22 51.163661)scale(0.18 -0.18)">
       <use xlink:href="#TimesNewRomanPSMT-32"/>
       <use xlink:href="#TimesNewRomanPSMT-2e" x="50"/>
       <use xlink:href="#TimesNewRomanPSMT-35" x="75"/>
      </g>
     </g>
    </g>
    <g id="text_11">
     <!-- Loss -->
     <g transform="translate(17.369687 112.042969)rotate(-90)scale(0.18 -0.18)">
      <defs>
       <path id="TimesNewRomanPSMT-4c" d="M 3669 1172 
L 3772 1150 
L 3409 0 
L 128 0 
L 128 116 
L 288 116 
Q 556 116 672 291 
Q 738 391 738 753 
L 738 3488 
Q 738 3884 650 3984 
Q 528 4122 288 4122 
L 128 4122 
L 128 4238 
L 2047 4238 
L 2047 4122 
Q 1709 4125 1573 4059 
Q 1438 3994 1388 3894 
Q 1338 3794 1338 3416 
L 1338 753 
Q 1338 494 1388 397 
Q 1425 331 1503 300 
Q 1581 269 1991 269 
L 2300 269 
Q 2788 269 2984 341 
Q 3181 413 3343 595 
Q 3506 778 3669 1172 
z
" transform="scale(0.015625)"/>
       <path id="TimesNewRomanPSMT-73" d="M 2050 2947 
L 2050 1972 
L 1947 1972 
Q 1828 2431 1642 2597 
Q 1456 2763 1169 2763 
Q 950 2763 815 2647 
Q 681 2531 681 2391 
Q 681 2216 781 2091 
Q 878 1963 1175 1819 
L 1631 1597 
Q 2266 1288 2266 781 
Q 2266 391 1970 151 
Q 1675 -88 1309 -88 
Q 1047 -88 709 6 
Q 606 38 541 38 
Q 469 38 428 -44 
L 325 -44 
L 325 978 
L 428 978 
Q 516 541 762 319 
Q 1009 97 1316 97 
Q 1531 97 1667 223 
Q 1803 350 1803 528 
Q 1803 744 1651 891 
Q 1500 1038 1047 1263 
Q 594 1488 453 1669 
Q 313 1847 313 2119 
Q 313 2472 555 2709 
Q 797 2947 1181 2947 
Q 1350 2947 1591 2875 
Q 1750 2828 1803 2828 
Q 1853 2828 1881 2850 
Q 1909 2872 1947 2947 
L 2050 2947 
z
" transform="scale(0.015625)"/>
      </defs>
      <use xlink:href="#TimesNewRomanPSMT-4c"/>
      <use xlink:href="#TimesNewRomanPSMT-6f" x="61.083984"/>
      <use xlink:href="#TimesNewRomanPSMT-73" x="111.083984"/>
      <use xlink:href="#TimesNewRomanPSMT-73" x="150"/>
     </g>
    </g>
   </g>
   <g id="line2d_10">
    <path d="M 64.014545 32.203785 
L 66.061392 32.274078 
L 66.433546 32.452519 
L 67.736085 33.347369 
L 68.108239 33.811064 
L 69.410778 35.495141 
L 69.969009 36.614179 
L 70.341163 37.222541 
L 72.201933 42.160576 
L 72.760164 44.001137 
L 73.504472 46.378232 
L 73.876626 47.701825 
L 74.434857 49.586177 
L 75.179165 52.744327 
L 76.10955 57.192486 
L 77.970319 67.220505 
L 78.52855 70.668951 
L 81.133628 86.644133 
L 81.319705 87.178427 
L 83.924783 103.135615 
L 84.669091 107.11422 
L 85.785553 113.122722 
L 88.018477 123.478184 
L 88.204554 124.088497 
L 88.762785 127.292209 
L 88.948862 128.323483 
L 89.134939 128.476396 
L 90.2514 132.671034 
L 93.042555 141.638613 
L 93.228632 141.955669 
L 93.600786 143.072004 
L 93.97294 144.266433 
L 94.345094 144.558987 
L 94.531171 145.186045 
L 94.717248 145.382341 
L 95.647633 147.700841 
L 96.019787 147.998647 
L 96.205864 148.71556 
L 96.391941 148.708127 
L 96.950172 149.401452 
L 97.136249 149.254945 
L 98.624865 151.910707 
L 98.810942 151.980911 
L 99.55525 152.861736 
L 99.741327 152.94589 
L 99.927404 152.880447 
L 100.485635 153.667931 
L 100.857789 153.762936 
L 101.043866 154.141097 
L 101.788174 154.492396 
L 101.974251 154.875981 
L 102.160328 154.924803 
L 102.532482 155.181981 
L 103.83502 156.049729 
L 104.021097 156.020814 
L 104.765405 156.47674 
L 109.045176 158.040013 
L 109.41733 158.163336 
L 110.347715 158.341867 
L 110.533792 158.521612 
L 110.719869 158.490473 
L 111.092023 158.55957 
L 111.2781 158.564133 
L 111.650254 158.72025 
L 114.069255 159.068864 
L 114.441409 159.083132 
L 114.813563 159.224649 
L 115.930025 159.283637 
L 116.86041 159.544874 
L 117.790794 159.658684 
L 118.349025 159.778703 
L 118.907256 159.813341 
L 122.070565 160.064008 
L 132.304799 160.625402 
L 133.049107 160.623038 
L 134.909877 160.642469 
L 137.328878 160.727667 
L 139.003571 160.784375 
L 139.933956 160.803277 
L 141.608649 160.809361 
L 144.027649 160.895034 
L 146.260573 160.922675 
L 157.611269 161.090789 
L 158.913808 161.103994 
L 163.75181 161.125846 
L 168.589812 161.171485 
L 218.644521 161.356812 
L 221.621753 161.351641 
L 225.715446 161.361422 
L 233.53068 161.376342 
L 248.97507 161.394941 
L 249.905455 161.395741 
L 249.905455 161.395741 
" clip-path="url(#p54fe274d74)" style="fill: none; stroke: #1f77b4; stroke-width: 1.5; stroke-linecap: square"/>
   </g>
   <g id="line2d_11">
    <path d="M 64.014545 32.204029 
L 66.247469 32.300104 
L 67.363931 32.679586 
L 70.155086 34.869069 
L 71.271548 36.595825 
L 72.015856 38.002662 
L 72.946241 39.447076 
L 73.504472 40.377779 
L 74.24878 41.896611 
L 74.620934 42.826913 
L 75.737396 45.767302 
L 75.923473 46.510504 
L 76.10955 46.725286 
L 77.412088 50.666427 
L 77.598165 51.087065 
L 78.156396 53.302707 
L 80.38932 61.122866 
L 80.761474 62.151132 
L 81.319705 64.289721 
L 81.877936 66.292903 
L 86.902015 84.171986 
L 87.088092 84.645508 
L 87.274169 85.759949 
L 87.460246 86.025565 
L 89.69317 93.493778 
L 89.879247 93.885445 
L 90.623554 96.418881 
L 90.995708 97.558519 
L 91.181785 98.257719 
L 91.553939 98.558448 
L 92.856478 102.076543 
L 93.042555 102.513801 
L 93.414709 103.539839 
L 93.786863 104.458024 
L 93.97294 104.761121 
L 94.717248 106.83368 
L 94.903325 106.885869 
L 95.275479 107.497739 
L 95.461556 108.060765 
L 95.647633 108.086401 
L 95.83371 108.350711 
L 96.391941 109.563988 
L 97.322326 110.798066 
L 97.880557 112.48047 
L 98.438788 113.498487 
L 98.624865 113.440388 
L 99.183096 114.15791 
L 99.55525 114.477504 
L 100.113481 115.585525 
L 100.485635 115.794419 
L 101.229943 116.827266 
L 101.41602 116.527084 
L 101.602097 116.905922 
L 101.788174 117.012202 
L 101.974251 117.497164 
L 102.160328 117.414205 
L 102.532482 118.265643 
L 102.718559 118.058745 
L 103.648943 119.633763 
L 104.021097 119.980189 
L 105.137559 120.856329 
L 105.509713 121.351385 
L 105.69579 121.48506 
L 105.881867 121.376921 
L 106.626175 122.128902 
L 107.184406 122.150433 
L 107.370483 122.396339 
L 107.55656 122.344772 
L 107.742637 122.626582 
L 108.300868 122.417197 
L 108.486945 122.804693 
L 108.673022 122.714205 
L 109.231253 122.856779 
L 109.41733 123.430172 
L 109.603407 123.363672 
L 110.533792 123.986509 
L 110.719869 123.922027 
L 111.2781 124.249409 
L 111.464177 124.129111 
L 111.650254 124.314303 
L 111.836331 124.293366 
L 112.394562 124.691259 
L 112.952793 124.992183 
L 113.13887 124.997458 
L 113.324947 125.191207 
L 113.697101 125.209842 
L 114.255332 125.522075 
L 114.441409 125.431003 
L 114.813563 125.747046 
L 115.185717 125.567677 
L 115.743948 125.787615 
L 115.930025 125.513214 
L 116.302179 125.628549 
L 116.674333 125.952257 
L 116.86041 125.841556 
L 117.232563 126.080159 
L 117.41864 126.184082 
L 117.790794 125.944292 
L 118.162948 126.189824 
L 118.349025 126.040538 
L 118.721179 126.36242 
L 119.27941 126.317113 
L 119.465487 126.468453 
L 119.651564 126.206172 
L 119.837641 126.235613 
L 120.023718 126.447483 
L 120.209795 126.357117 
L 120.395872 126.507982 
L 120.581949 126.477249 
L 120.768026 126.272124 
L 120.954103 126.42611 
L 121.512334 126.271182 
L 121.884488 126.30487 
L 122.256642 126.553607 
L 122.442719 126.578406 
L 122.628796 126.45696 
L 123.00095 126.666343 
L 123.373104 126.50589 
L 123.745258 126.662577 
L 123.931335 126.533154 
L 124.303489 126.884447 
L 124.675643 126.640985 
L 125.047797 126.834542 
L 125.606028 126.888015 
L 125.978182 127.029008 
L 126.908567 126.799103 
L 127.466798 127.079288 
L 127.652875 127.243502 
L 128.58326 126.86771 
L 128.955414 126.996065 
L 129.141491 126.898718 
L 129.513645 127.05734 
L 129.885799 127.341552 
L 130.071876 127.14499 
L 130.630106 127.080631 
L 130.816183 127.289035 
L 131.560491 127.348464 
L 131.746568 127.284933 
L 132.118722 127.461628 
L 132.676953 127.463376 
L 132.86303 127.363047 
L 133.049107 127.432596 
L 133.235184 127.310683 
L 133.793415 127.458874 
L 133.979492 127.33432 
L 134.351646 127.684621 
L 134.909877 127.400353 
L 135.282031 127.770456 
L 135.468108 127.847592 
L 135.840262 127.700635 
L 137.328878 127.668126 
L 137.701032 127.481586 
L 137.887109 127.450794 
L 138.073186 127.740293 
L 138.44534 127.556774 
L 139.189648 127.682917 
L 139.747879 127.487414 
L 139.933956 127.543347 
L 140.120033 127.435378 
L 140.864341 127.729223 
L 141.422572 128.00053 
L 141.794726 128.023687 
L 141.980803 127.813282 
L 142.16688 128.012695 
L 142.539034 128.125562 
L 142.911188 128.396906 
L 143.283342 128.222714 
L 143.469419 128.208226 
L 143.841572 128.424232 
L 144.027649 128.304939 
L 144.399803 128.509822 
L 144.771957 128.247164 
L 144.958034 128.47895 
L 145.144111 128.483144 
L 145.330188 128.354216 
L 145.702342 128.444879 
L 145.888419 128.060927 
L 146.074496 128.38958 
L 146.260573 128.466616 
L 146.632727 128.837074 
L 146.818804 128.627583 
L 147.190958 128.831327 
L 147.935266 128.918688 
L 148.679574 129.134949 
L 148.865651 129.048266 
L 149.051728 129.135602 
L 149.609959 128.968289 
L 149.796036 129.0652 
L 150.16819 128.821866 
L 150.354267 128.820637 
L 150.540344 129.092434 
L 150.726421 128.801277 
L 151.098575 128.983209 
L 151.284652 128.704077 
L 151.842883 129.141088 
L 152.02896 129.135769 
L 152.215037 129.399139 
L 152.587191 129.331433 
L 152.959345 129.822857 
L 153.145422 129.517189 
L 153.331499 129.577608 
L 153.517576 129.502667 
L 153.703653 129.76052 
L 153.88973 129.80824 
L 154.075807 129.738917 
L 154.261884 129.842214 
L 154.634038 129.627537 
L 154.820115 129.346066 
L 155.192269 129.869076 
L 155.378346 129.86775 
L 155.7505 130.09375 
L 155.936577 129.954728 
L 156.494808 130.099086 
L 156.866962 129.874596 
L 157.239115 130.48507 
L 157.611269 130.319711 
L 157.983423 130.369307 
L 158.1695 130.463186 
L 158.355577 130.695959 
L 158.727731 130.651666 
L 158.913808 130.630057 
L 159.285962 130.991335 
L 159.472039 130.783481 
L 159.658116 131.083449 
L 159.844193 130.953256 
L 160.216347 131.390943 
L 160.774578 131.425261 
L 160.960655 131.363011 
L 161.146732 131.437821 
L 161.518886 130.915341 
L 161.704963 130.876982 
L 162.263194 131.698181 
L 162.449271 131.607918 
L 162.821425 131.789739 
L 163.007502 131.666139 
L 163.193579 132.0982 
L 163.75181 132.290415 
L 163.937887 132.023034 
L 164.310041 132.490384 
L 164.496118 132.193968 
L 164.682195 132.481349 
L 164.868272 132.369816 
L 165.054349 132.4692 
L 165.240426 132.955024 
L 166.915119 133.358789 
L 167.101196 133.185676 
L 167.287273 133.336097 
L 167.47335 133.179754 
L 167.659427 133.714004 
L 167.845504 133.468357 
L 168.217658 133.773714 
L 168.403735 134.190872 
L 168.589812 134.100365 
L 168.775889 134.262497 
L 168.961966 134.805307 
L 169.148043 134.46417 
L 169.706274 135.466689 
L 169.892351 135.202058 
L 170.264505 135.619172 
L 170.450581 135.382169 
L 170.636658 135.619555 
L 170.822735 135.318823 
L 171.008812 135.49934 
L 171.380966 136.254118 
L 171.567043 136.174238 
L 171.939197 136.75642 
L 172.125274 136.603212 
L 172.311351 137.042482 
L 172.497428 136.884986 
L 172.683505 137.098588 
L 172.869582 137.564426 
L 173.241736 137.206913 
L 173.427813 137.600017 
L 173.61389 137.247727 
L 174.172121 137.665138 
L 174.358198 137.499365 
L 174.730352 137.514688 
L 174.916429 137.870761 
L 175.288583 137.757955 
L 175.47466 138.185964 
L 175.660737 138.168341 
L 175.846814 137.992126 
L 176.032891 138.273221 
L 176.218968 137.726202 
L 176.405045 137.880218 
L 176.777199 137.809678 
L 177.149353 138.287351 
L 177.33543 138.211427 
L 177.521507 138.679625 
L 177.707584 138.78904 
L 177.893661 138.679325 
L 178.265815 139.39078 
L 179.010123 139.664977 
L 179.754431 140.59562 
L 179.940508 140.564687 
L 180.312662 141.004784 
L 181.05697 142.343148 
L 181.243047 142.284795 
L 181.429124 142.031481 
L 181.615201 142.489595 
L 181.987355 142.286319 
L 182.173432 141.977875 
L 182.359509 142.051854 
L 182.545586 141.998751 
L 182.731663 142.279398 
L 182.91774 142.181196 
L 183.103817 142.318705 
L 183.475971 142.976012 
L 183.848124 142.844822 
L 184.034201 143.082743 
L 184.220278 142.776305 
L 184.778509 143.430337 
L 185.150663 144.26255 
L 185.33674 144.337156 
L 185.894971 145.15561 
L 186.081048 144.973297 
L 186.453202 145.196981 
L 187.011433 145.366763 
L 187.383587 146.094279 
L 187.755741 145.987414 
L 188.127895 146.253144 
L 188.500049 146.463872 
L 188.686126 146.417263 
L 189.05828 146.812193 
L 189.244357 147.188032 
L 189.430434 147.283013 
L 189.616511 147.241859 
L 189.988665 147.556095 
L 190.174742 147.58578 
L 190.360819 147.745445 
L 190.546896 147.732229 
L 190.732973 147.578003 
L 190.91905 147.894656 
L 191.105127 147.710053 
L 191.291204 148.023983 
L 191.477281 147.755304 
L 191.663358 147.791339 
L 191.849435 147.620773 
L 192.035512 148.137044 
L 192.593743 148.789285 
L 192.77982 148.591609 
L 192.965897 148.576077 
L 193.338051 148.864644 
L 193.524128 148.708846 
L 193.710205 148.758597 
L 193.896282 148.978398 
L 194.082359 148.860397 
L 194.268436 149.192148 
L 194.64059 148.997932 
L 194.826667 149.564468 
L 195.012744 149.741623 
L 195.198821 149.682388 
L 195.943129 150.071772 
L 196.129206 150.096138 
L 196.50136 150.773555 
L 196.687437 150.937639 
L 196.873514 150.676186 
L 197.431744 151.020957 
L 197.617821 151.444413 
L 197.989975 151.672857 
L 198.362129 151.28267 
L 198.734283 151.431576 
L 198.92036 151.336483 
L 199.106437 151.727848 
L 199.478591 151.915244 
L 199.664668 151.80663 
L 200.036822 152.031991 
L 200.222899 151.920599 
L 200.408976 151.947104 
L 200.595053 152.177413 
L 200.967207 152.128914 
L 201.711515 152.401722 
L 201.897592 152.617128 
L 202.455823 152.384502 
L 202.827977 152.743285 
L 203.200131 152.787165 
L 203.386208 152.949239 
L 203.572285 152.945588 
L 203.944439 152.748694 
L 204.130516 153.082824 
L 204.50267 153.059132 
L 205.060901 153.450977 
L 205.246978 153.518375 
L 205.805209 153.979409 
L 205.991286 153.935191 
L 206.177363 153.738833 
L 206.36344 153.774786 
L 206.549517 153.941037 
L 206.735594 153.923118 
L 206.921671 154.066274 
L 207.107748 153.937798 
L 207.479902 154.46793 
L 208.22421 154.979798 
L 208.596364 155.18885 
L 209.154595 155.643688 
L 209.340672 155.583597 
L 209.526749 155.672938 
L 209.712826 155.575852 
L 210.08498 155.834705 
L 210.271057 155.851102 
L 210.457133 156.012432 
L 210.829287 155.858491 
L 211.015364 155.889789 
L 211.387518 156.147412 
L 211.759672 155.960662 
L 211.945749 155.956761 
L 212.131826 155.805592 
L 212.690057 156.15496 
L 212.876134 156.275778 
L 213.248288 156.141007 
L 213.434365 155.992627 
L 213.620442 156.288454 
L 214.36475 156.124966 
L 214.922981 156.791979 
L 215.667289 156.748473 
L 216.22552 157.146723 
L 216.411597 157.096071 
L 216.597674 157.19362 
L 216.783751 157.021106 
L 216.969828 157.173652 
L 217.155905 156.876907 
L 217.341982 157.083708 
L 217.714136 157.092942 
L 218.272367 157.268945 
L 218.644521 156.988376 
L 218.830598 157.197235 
L 219.202752 157.141615 
L 219.388829 157.02349 
L 219.574906 157.042642 
L 219.760983 157.265769 
L 220.505291 156.933976 
L 222.179984 157.777584 
L 222.738215 157.774159 
L 222.924292 157.669487 
L 223.854676 157.852785 
L 224.040753 157.793249 
L 224.22683 157.89786 
L 224.785061 157.747609 
L 226.831908 158.242102 
L 227.576216 157.868265 
L 227.94837 158.076617 
L 228.134447 158.382975 
L 228.320524 158.423432 
L 228.506601 158.320173 
L 228.692678 158.451637 
L 229.064832 158.313427 
L 229.250909 158.337758 
L 229.623063 158.678054 
L 229.80914 158.547104 
L 230.181294 158.797202 
L 230.367371 158.634831 
L 230.925602 158.681129 
L 231.111679 158.411629 
L 231.855987 158.730888 
L 232.042064 158.778512 
L 232.228141 158.989321 
L 232.600295 158.900286 
L 233.344603 158.928626 
L 233.53068 159.100526 
L 234.088911 159.136521 
L 234.461065 158.791966 
L 234.833219 158.84182 
L 235.019296 158.971167 
L 235.39145 158.960999 
L 235.949681 159.013033 
L 236.321835 159.167332 
L 236.693989 159.124944 
L 236.880066 159.38348 
L 237.066143 159.412348 
L 237.438296 159.313121 
L 237.624373 159.373203 
L 237.996527 159.290682 
L 238.182604 159.381861 
L 238.554758 159.219052 
L 238.740835 159.301842 
L 239.112989 159.188682 
L 240.043374 159.134183 
L 240.601605 159.517421 
L 240.973759 159.357958 
L 241.159836 159.52249 
L 241.53199 159.353737 
L 242.462375 159.812865 
L 242.648452 159.660071 
L 242.834529 159.811451 
L 244.137068 159.772814 
L 244.323145 159.654335 
L 245.25353 160.034037 
L 245.625684 160.007024 
L 246.183915 159.923264 
L 246.742146 160.014866 
L 247.1143 160.162493 
L 248.602916 160.00061 
L 249.161147 159.820359 
L 249.719378 159.962005 
L 249.905455 159.910901 
L 249.905455 159.910901 
" clip-path="url(#p54fe274d74)" style="fill: none; stroke: #ff7f0e; stroke-width: 1.5; stroke-linecap: square"/>
   </g>
   <g id="patch_3">
    <path d="M 54.72 168.48 
L 54.72 21.6 
" style="fill: none; stroke: #000000; stroke-width: 0.8; stroke-linejoin: miter; stroke-linecap: square"/>
   </g>
   <g id="patch_4">
    <path d="M 259.2 168.48 
L 259.2 21.6 
" style="fill: none; stroke: #000000; stroke-width: 0.8; stroke-linejoin: miter; stroke-linecap: square"/>
   </g>
   <g id="patch_5">
    <path d="M 54.72 168.48 
L 259.2 168.48 
" style="fill: none; stroke: #000000; stroke-width: 0.8; stroke-linejoin: miter; stroke-linecap: square"/>
   </g>
   <g id="patch_6">
    <path d="M 54.72 21.6 
L 259.2 21.6 
" style="fill: none; stroke: #000000; stroke-width: 0.8; stroke-linejoin: miter; stroke-linecap: square"/>
   </g>
   <g id="legend_1">
    <g id="patch_7">
     <path d="M 154.996875 86.900625 
L 246.6 86.900625 
Q 250.2 86.900625 250.2 83.300625 
L 250.2 34.2 
Q 250.2 30.6 246.6 30.6 
L 154.996875 30.6 
Q 151.396875 30.6 151.396875 34.2 
L 151.396875 83.300625 
Q 151.396875 86.900625 154.996875 86.900625 
z
" style="fill: #ffffff; opacity: 0.8; stroke: #cccccc; stroke-linejoin: miter"/>
    </g>
    <g id="line2d_12">
     <path d="M 158.596875 44.1 
L 176.596875 44.1 
L 194.596875 44.1 
" style="fill: none; stroke: #1f77b4; stroke-width: 1.5; stroke-linecap: square"/>
    </g>
    <g id="text_12">
     <!-- SDT -->
     <g transform="translate(208.996875 50.4)scale(0.18 -0.18)">
      <defs>
       <path id="TimesNewRomanPSMT-53" d="M 2934 4334 
L 2934 2869 
L 2819 2869 
Q 2763 3291 2617 3541 
Q 2472 3791 2203 3937 
Q 1934 4084 1647 4084 
Q 1322 4084 1109 3886 
Q 897 3688 897 3434 
Q 897 3241 1031 3081 
Q 1225 2847 1953 2456 
Q 2547 2138 2764 1967 
Q 2981 1797 3098 1565 
Q 3216 1334 3216 1081 
Q 3216 600 2842 251 
Q 2469 -97 1881 -97 
Q 1697 -97 1534 -69 
Q 1438 -53 1133 45 
Q 828 144 747 144 
Q 669 144 623 97 
Q 578 50 556 -97 
L 441 -97 
L 441 1356 
L 556 1356 
Q 638 900 775 673 
Q 913 447 1195 297 
Q 1478 147 1816 147 
Q 2206 147 2432 353 
Q 2659 559 2659 841 
Q 2659 997 2573 1156 
Q 2488 1316 2306 1453 
Q 2184 1547 1640 1851 
Q 1097 2156 867 2337 
Q 638 2519 519 2737 
Q 400 2956 400 3219 
Q 400 3675 750 4004 
Q 1100 4334 1641 4334 
Q 1978 4334 2356 4169 
Q 2531 4091 2603 4091 
Q 2684 4091 2736 4139 
Q 2788 4188 2819 4334 
L 2934 4334 
z
" transform="scale(0.015625)"/>
       <path id="TimesNewRomanPSMT-44" d="M 109 0 
L 109 116 
L 269 116 
Q 538 116 650 288 
Q 719 391 719 750 
L 719 3488 
Q 719 3884 631 3984 
Q 509 4122 269 4122 
L 109 4122 
L 109 4238 
L 1834 4238 
Q 2784 4238 3279 4022 
Q 3775 3806 4076 3303 
Q 4378 2800 4378 2141 
Q 4378 1256 3841 663 
Q 3238 0 2003 0 
L 109 0 
z
M 1319 306 
Q 1716 219 1984 219 
Q 2709 219 3187 728 
Q 3666 1238 3666 2109 
Q 3666 2988 3187 3494 
Q 2709 4000 1959 4000 
Q 1678 4000 1319 3909 
L 1319 306 
z
" transform="scale(0.015625)"/>
       <path id="TimesNewRomanPSMT-54" d="M 3703 4238 
L 3750 3244 
L 3631 3244 
Q 3597 3506 3538 3619 
Q 3441 3800 3280 3886 
Q 3119 3972 2856 3972 
L 2259 3972 
L 2259 734 
Q 2259 344 2344 247 
Q 2463 116 2709 116 
L 2856 116 
L 2856 0 
L 1059 0 
L 1059 116 
L 1209 116 
Q 1478 116 1591 278 
Q 1659 378 1659 734 
L 1659 3972 
L 1150 3972 
Q 853 3972 728 3928 
Q 566 3869 450 3700 
Q 334 3531 313 3244 
L 194 3244 
L 244 4238 
L 3703 4238 
z
" transform="scale(0.015625)"/>
      </defs>
      <use xlink:href="#TimesNewRomanPSMT-53"/>
      <use xlink:href="#TimesNewRomanPSMT-44" x="55.615234"/>
      <use xlink:href="#TimesNewRomanPSMT-54" x="127.832031"/>
     </g>
    </g>
    <g id="line2d_13">
     <path d="M 158.596875 69.550312 
L 176.596875 69.550312 
L 194.596875 69.550312 
" style="fill: none; stroke: #ff7f0e; stroke-width: 1.5; stroke-linecap: square"/>
    </g>
    <g id="text_13">
     <!-- TET -->
     <g transform="translate(208.996875 75.850312)scale(0.18 -0.18)">
      <use xlink:href="#TimesNewRomanPSMT-54"/>
      <use xlink:href="#TimesNewRomanPSMT-45" x="61.083984"/>
      <use xlink:href="#TimesNewRomanPSMT-54" x="122.167969"/>
     </g>
    </g>
   </g>
  </g>
 </g>
 <defs>
  <clipPath id="p54fe274d74">
   <rect x="54.72" y="21.6" width="204.48" height="146.88"/>
  </clipPath>
 </defs>
</svg>
