<?xml version="1.0" encoding="utf-8" standalone="no"?>
<!DOCTYPE svg PUBLIC "-//W3C//DTD SVG 1.1//EN"
  "http://www.w3.org/Graphics/SVG/1.1/DTD/svg11.dtd">
<svg xmlns:xlink="http://www.w3.org/1999/xlink" width="288pt" height="216pt" viewBox="0 0 288 216" xmlns="http://www.w3.org/2000/svg" version="1.1">
 <metadata>
  <rdf:RDF xmlns:dc="http://purl.org/dc/elements/1.1/" xmlns:cc="http://creativecommons.org/ns#" xmlns:rdf="http://www.w3.org/1999/02/22-rdf-syntax-ns#">
   <cc:Work>
    <dc:type rdf:resource="http://purl.org/dc/dcmitype/StillImage"/>
    <dc:date>2024-05-19T21:08:10.790226</dc:date>
    <dc:format>image/svg+xml</dc:format>
    <dc:creator>
     <cc:Agent>
      <dc:title>Matplotlib v3.5.0, https://matplotlib.org/</dc:title>
     </cc:Agent>
    </dc:creator>
   </cc:Work>
  </rdf:RDF>
 </metadata>
 <defs>
  <style type="text/css">*{stroke-linejoin: round; stroke-linecap: butt}</style>
 </defs>
 <g id="figure_1">
  <g id="patch_1">
   <path d="M 0 216 
L 288 216 
L 288 0 
L 0 0 
z
" style="fill: #ffffff"/>
  </g>
  <g id="axes_1">
   <g id="patch_2">
    <path d="M 54.72 168.48 
L 259.2 168.48 
L 259.2 21.6 
L 54.72 21.6 
z
" style="fill: #ffffff"/>
   </g>
   <g id="matplotlib.axis_1">
    <g id="xtick_1">
     <g id="line2d_1">
      <defs>
       <path id="ma42b6957e8" d="M 0 0 
L 0 3.5 
" style="stroke: #000000; stroke-width: 0.8"/>
      </defs>
      <g>
       <use xlink:href="#ma42b6957e8" x="64.014545" y="168.48" style="stroke: #000000; stroke-width: 0.8"/>
      </g>
     </g>
     <g id="text_1">
      <!-- 0 -->
      <g transform="translate(59.514545 187.97875)scale(0.18 -0.18)">
       <defs>
        <path id="TimesNewRomanPSMT-30" d="M 231 2094 
Q 231 2819 450 3342 
Q 669 3866 1031 4122 
Q 1313 4325 1613 4325 
Q 2100 4325 2488 3828 
Q 2972 3213 2972 2159 
Q 2972 1422 2759 906 
Q 2547 391 2217 158 
Q 1888 -75 1581 -75 
Q 975 -75 572 641 
Q 231 1244 231 2094 
z
M 844 2016 
Q 844 1141 1059 588 
Q 1238 122 1591 122 
Q 1759 122 1940 273 
Q 2122 425 2216 781 
Q 2359 1319 2359 2297 
Q 2359 3022 2209 3506 
Q 2097 3866 1919 4016 
Q 1791 4119 1609 4119 
Q 1397 4119 1231 3928 
Q 1006 3669 925 3112 
Q 844 2556 844 2016 
z
" transform="scale(0.015625)"/>
       </defs>
       <use xlink:href="#TimesNewRomanPSMT-30"/>
      </g>
     </g>
    </g>
    <g id="xtick_2">
     <g id="line2d_2">
      <g>
       <use xlink:href="#ma42b6957e8" x="157.053038" y="168.48" style="stroke: #000000; stroke-width: 0.8"/>
      </g>
     </g>
     <g id="text_2">
      <!-- 500 -->
      <g transform="translate(143.553038 187.97875)scale(0.18 -0.18)">
       <defs>
        <path id="TimesNewRomanPSMT-35" d="M 2778 4238 
L 2534 3706 
L 1259 3706 
L 981 3138 
Q 1809 3016 2294 2522 
Q 2709 2097 2709 1522 
Q 2709 1188 2573 903 
Q 2438 619 2231 419 
Q 2025 219 1772 97 
Q 1413 -75 1034 -75 
Q 653 -75 479 54 
Q 306 184 306 341 
Q 306 428 378 495 
Q 450 563 559 563 
Q 641 563 702 538 
Q 763 513 909 409 
Q 1144 247 1384 247 
Q 1750 247 2026 523 
Q 2303 800 2303 1197 
Q 2303 1581 2056 1914 
Q 1809 2247 1375 2428 
Q 1034 2569 447 2591 
L 1259 4238 
L 2778 4238 
z
" transform="scale(0.015625)"/>
       </defs>
       <use xlink:href="#TimesNewRomanPSMT-35"/>
       <use xlink:href="#TimesNewRomanPSMT-30" x="50"/>
       <use xlink:href="#TimesNewRomanPSMT-30" x="100"/>
      </g>
     </g>
    </g>
    <g id="xtick_3">
     <g id="line2d_3">
      <g>
       <use xlink:href="#ma42b6957e8" x="250.091532" y="168.48" style="stroke: #000000; stroke-width: 0.8"/>
      </g>
     </g>
     <g id="text_3">
      <!-- 1000 -->
      <g transform="translate(232.091532 187.97875)scale(0.18 -0.18)">
       <defs>
        <path id="TimesNewRomanPSMT-31" d="M 750 3822 
L 1781 4325 
L 1884 4325 
L 1884 747 
Q 1884 391 1914 303 
Q 1944 216 2037 169 
Q 2131 122 2419 116 
L 2419 0 
L 825 0 
L 825 116 
Q 1125 122 1212 167 
Q 1300 213 1334 289 
Q 1369 366 1369 747 
L 1369 3034 
Q 1369 3497 1338 3628 
Q 1316 3728 1258 3775 
Q 1200 3822 1119 3822 
Q 1003 3822 797 3725 
L 750 3822 
z
" transform="scale(0.015625)"/>
       </defs>
       <use xlink:href="#TimesNewRomanPSMT-31"/>
       <use xlink:href="#TimesNewRomanPSMT-30" x="50"/>
       <use xlink:href="#TimesNewRomanPSMT-30" x="100"/>
       <use xlink:href="#TimesNewRomanPSMT-30" x="150"/>
      </g>
     </g>
    </g>
    <g id="text_4">
     <!-- Epoch -->
     <g transform="translate(133.967812 208.327812)scale(0.18 -0.18)">
      <defs>
       <path id="TimesNewRomanPSMT-45" d="M 1338 4006 
L 1338 2331 
L 2269 2331 
Q 2631 2331 2753 2441 
Q 2916 2584 2934 2947 
L 3050 2947 
L 3050 1472 
L 2934 1472 
Q 2891 1781 2847 1869 
Q 2791 1978 2662 2040 
Q 2534 2103 2269 2103 
L 1338 2103 
L 1338 706 
Q 1338 425 1363 364 
Q 1388 303 1450 267 
Q 1513 231 1688 231 
L 2406 231 
Q 2766 231 2928 281 
Q 3091 331 3241 478 
Q 3434 672 3638 1063 
L 3763 1063 
L 3397 0 
L 131 0 
L 131 116 
L 281 116 
Q 431 116 566 188 
Q 666 238 702 338 
Q 738 438 738 747 
L 738 3500 
Q 738 3903 656 3997 
Q 544 4122 281 4122 
L 131 4122 
L 131 4238 
L 3397 4238 
L 3444 3309 
L 3322 3309 
Q 3256 3644 3176 3769 
Q 3097 3894 2941 3959 
Q 2816 4006 2500 4006 
L 1338 4006 
z
" transform="scale(0.015625)"/>
       <path id="TimesNewRomanPSMT-70" d="M -6 2578 
L 875 2934 
L 994 2934 
L 994 2266 
Q 1216 2644 1439 2795 
Q 1663 2947 1909 2947 
Q 2341 2947 2628 2609 
Q 2981 2197 2981 1534 
Q 2981 794 2556 309 
Q 2206 -88 1675 -88 
Q 1444 -88 1275 -22 
Q 1150 25 994 166 
L 994 -706 
Q 994 -1000 1030 -1079 
Q 1066 -1159 1155 -1206 
Q 1244 -1253 1478 -1253 
L 1478 -1369 
L -22 -1369 
L -22 -1253 
L 56 -1253 
Q 228 -1256 350 -1188 
Q 409 -1153 442 -1076 
Q 475 -1000 475 -688 
L 475 2019 
Q 475 2297 450 2372 
Q 425 2447 370 2484 
Q 316 2522 222 2522 
Q 147 2522 31 2478 
L -6 2578 
z
M 994 2081 
L 994 1013 
Q 994 666 1022 556 
Q 1066 375 1236 237 
Q 1406 100 1666 100 
Q 1978 100 2172 344 
Q 2425 663 2425 1241 
Q 2425 1897 2138 2250 
Q 1938 2494 1663 2494 
Q 1513 2494 1366 2419 
Q 1253 2363 994 2081 
z
" transform="scale(0.015625)"/>
       <path id="TimesNewRomanPSMT-6f" d="M 1600 2947 
Q 2250 2947 2644 2453 
Q 2978 2031 2978 1484 
Q 2978 1100 2793 706 
Q 2609 313 2286 112 
Q 1963 -88 1566 -88 
Q 919 -88 538 428 
Q 216 863 216 1403 
Q 216 1797 411 2186 
Q 606 2575 925 2761 
Q 1244 2947 1600 2947 
z
M 1503 2744 
Q 1338 2744 1170 2645 
Q 1003 2547 900 2300 
Q 797 2053 797 1666 
Q 797 1041 1045 587 
Q 1294 134 1700 134 
Q 2003 134 2200 384 
Q 2397 634 2397 1244 
Q 2397 2006 2069 2444 
Q 1847 2744 1503 2744 
z
" transform="scale(0.015625)"/>
       <path id="TimesNewRomanPSMT-63" d="M 2631 1088 
Q 2516 522 2178 217 
Q 1841 -88 1431 -88 
Q 944 -88 581 321 
Q 219 731 219 1428 
Q 219 2103 620 2525 
Q 1022 2947 1584 2947 
Q 2006 2947 2278 2723 
Q 2550 2500 2550 2259 
Q 2550 2141 2473 2067 
Q 2397 1994 2259 1994 
Q 2075 1994 1981 2113 
Q 1928 2178 1911 2362 
Q 1894 2547 1784 2644 
Q 1675 2738 1481 2738 
Q 1169 2738 978 2506 
Q 725 2200 725 1697 
Q 725 1184 976 792 
Q 1228 400 1656 400 
Q 1963 400 2206 609 
Q 2378 753 2541 1131 
L 2631 1088 
z
" transform="scale(0.015625)"/>
       <path id="TimesNewRomanPSMT-68" d="M 1041 4444 
L 1041 2350 
Q 1388 2731 1591 2839 
Q 1794 2947 1997 2947 
Q 2241 2947 2416 2812 
Q 2591 2678 2675 2391 
Q 2734 2191 2734 1659 
L 2734 647 
Q 2734 375 2778 275 
Q 2809 200 2884 156 
Q 2959 113 3159 113 
L 3159 0 
L 1753 0 
L 1753 113 
L 1819 113 
Q 2019 113 2097 173 
Q 2175 234 2206 353 
Q 2216 403 2216 647 
L 2216 1659 
Q 2216 2128 2167 2275 
Q 2119 2422 2012 2495 
Q 1906 2569 1756 2569 
Q 1603 2569 1437 2487 
Q 1272 2406 1041 2159 
L 1041 647 
Q 1041 353 1073 281 
Q 1106 209 1195 161 
Q 1284 113 1503 113 
L 1503 0 
L 84 0 
L 84 113 
Q 275 113 384 172 
Q 447 203 484 290 
Q 522 378 522 647 
L 522 3238 
Q 522 3728 498 3840 
Q 475 3953 426 3993 
Q 378 4034 297 4034 
Q 231 4034 84 3984 
L 41 4094 
L 897 4444 
L 1041 4444 
z
" transform="scale(0.015625)"/>
      </defs>
      <use xlink:href="#TimesNewRomanPSMT-45"/>
      <use xlink:href="#TimesNewRomanPSMT-70" x="61.083984"/>
      <use xlink:href="#TimesNewRomanPSMT-6f" x="111.083984"/>
      <use xlink:href="#TimesNewRomanPSMT-63" x="161.083984"/>
      <use xlink:href="#TimesNewRomanPSMT-68" x="205.46875"/>
     </g>
    </g>
   </g>
   <g id="matplotlib.axis_2">
    <g id="ytick_1">
     <g id="line2d_4">
      <defs>
       <path id="md57bb97e3f" d="M 0 0 
L -3.5 0 
" style="stroke: #000000; stroke-width: 0.8"/>
      </defs>
      <g>
       <use xlink:href="#md57bb97e3f" x="54.72" y="161.485714" style="stroke: #000000; stroke-width: 0.8"/>
      </g>
     </g>
     <g id="text_5">
      <!-- 0.0 -->
      <g transform="translate(25.22 167.735089)scale(0.18 -0.18)">
       <defs>
        <path id="TimesNewRomanPSMT-2e" d="M 800 606 
Q 947 606 1047 504 
Q 1147 403 1147 259 
Q 1147 116 1045 14 
Q 944 -88 800 -88 
Q 656 -88 554 14 
Q 453 116 453 259 
Q 453 406 554 506 
Q 656 606 800 606 
z
" transform="scale(0.015625)"/>
       </defs>
       <use xlink:href="#TimesNewRomanPSMT-30"/>
       <use xlink:href="#TimesNewRomanPSMT-2e" x="50"/>
       <use xlink:href="#TimesNewRomanPSMT-30" x="75"/>
      </g>
     </g>
    </g>
    <g id="ytick_2">
     <g id="line2d_5">
      <g>
       <use xlink:href="#md57bb97e3f" x="54.72" y="138.171429" style="stroke: #000000; stroke-width: 0.8"/>
      </g>
     </g>
     <g id="text_6">
      <!-- 0.5 -->
      <g transform="translate(25.22 144.420804)scale(0.18 -0.18)">
       <use xlink:href="#TimesNewRomanPSMT-30"/>
       <use xlink:href="#TimesNewRomanPSMT-2e" x="50"/>
       <use xlink:href="#TimesNewRomanPSMT-35" x="75"/>
      </g>
     </g>
    </g>
    <g id="ytick_3">
     <g id="line2d_6">
      <g>
       <use xlink:href="#md57bb97e3f" x="54.72" y="114.857143" style="stroke: #000000; stroke-width: 0.8"/>
      </g>
     </g>
     <g id="text_7">
      <!-- 1.0 -->
      <g transform="translate(25.22 121.106518)scale(0.18 -0.18)">
       <use xlink:href="#TimesNewRomanPSMT-31"/>
       <use xlink:href="#TimesNewRomanPSMT-2e" x="50"/>
       <use xlink:href="#TimesNewRomanPSMT-30" x="75"/>
      </g>
     </g>
    </g>
    <g id="ytick_4">
     <g id="line2d_7">
      <g>
       <use xlink:href="#md57bb97e3f" x="54.72" y="91.542857" style="stroke: #000000; stroke-width: 0.8"/>
      </g>
     </g>
     <g id="text_8">
      <!-- 1.5 -->
      <g transform="translate(25.22 97.792232)scale(0.18 -0.18)">
       <use xlink:href="#TimesNewRomanPSMT-31"/>
       <use xlink:href="#TimesNewRomanPSMT-2e" x="50"/>
       <use xlink:href="#TimesNewRomanPSMT-35" x="75"/>
      </g>
     </g>
    </g>
    <g id="ytick_5">
     <g id="line2d_8">
      <g>
       <use xlink:href="#md57bb97e3f" x="54.72" y="68.228571" style="stroke: #000000; stroke-width: 0.8"/>
      </g>
     </g>
     <g id="text_9">
      <!-- 2.0 -->
      <g transform="translate(25.22 74.477946)scale(0.18 -0.18)">
       <defs>
        <path id="TimesNewRomanPSMT-32" d="M 2934 816 
L 2638 0 
L 138 0 
L 138 116 
Q 1241 1122 1691 1759 
Q 2141 2397 2141 2925 
Q 2141 3328 1894 3587 
Q 1647 3847 1303 3847 
Q 991 3847 742 3664 
Q 494 3481 375 3128 
L 259 3128 
Q 338 3706 661 4015 
Q 984 4325 1469 4325 
Q 1984 4325 2329 3994 
Q 2675 3663 2675 3213 
Q 2675 2891 2525 2569 
Q 2294 2063 1775 1497 
Q 997 647 803 472 
L 1909 472 
Q 2247 472 2383 497 
Q 2519 522 2628 598 
Q 2738 675 2819 816 
L 2934 816 
z
" transform="scale(0.015625)"/>
       </defs>
       <use xlink:href="#TimesNewRomanPSMT-32"/>
       <use xlink:href="#TimesNewRomanPSMT-2e" x="50"/>
       <use xlink:href="#TimesNewRomanPSMT-30" x="75"/>
      </g>
     </g>
    </g>
    <g id="ytick_6">
     <g id="line2d_9">
      <g>
       <use xlink:href="#md57bb97e3f" x="54.72" y="44.914286" style="stroke: #000000; stroke-width: 0.8"/>
      </g>
     </g>
     <g id="text_10">
      <!-- 2.5 -->
      <g transform="translate(25.22 51.163661)scale(0.18 -0.18)">
       <use xlink:href="#TimesNewRomanPSMT-32"/>
       <use xlink:href="#TimesNewRomanPSMT-2e" x="50"/>
       <use xlink:href="#TimesNewRomanPSMT-35" x="75"/>
      </g>
     </g>
    </g>
    <g id="text_11">
     <!-- Loss -->
     <g transform="translate(17.369687 112.042969)rotate(-90)scale(0.18 -0.18)">
      <defs>
       <path id="TimesNewRomanPSMT-4c" d="M 3669 1172 
L 3772 1150 
L 3409 0 
L 128 0 
L 128 116 
L 288 116 
Q 556 116 672 291 
Q 738 391 738 753 
L 738 3488 
Q 738 3884 650 3984 
Q 528 4122 288 4122 
L 128 4122 
L 128 4238 
L 2047 4238 
L 2047 4122 
Q 1709 4125 1573 4059 
Q 1438 3994 1388 3894 
Q 1338 3794 1338 3416 
L 1338 753 
Q 1338 494 1388 397 
Q 1425 331 1503 300 
Q 1581 269 1991 269 
L 2300 269 
Q 2788 269 2984 341 
Q 3181 413 3343 595 
Q 3506 778 3669 1172 
z
" transform="scale(0.015625)"/>
       <path id="TimesNewRomanPSMT-73" d="M 2050 2947 
L 2050 1972 
L 1947 1972 
Q 1828 2431 1642 2597 
Q 1456 2763 1169 2763 
Q 950 2763 815 2647 
Q 681 2531 681 2391 
Q 681 2216 781 2091 
Q 878 1963 1175 1819 
L 1631 1597 
Q 2266 1288 2266 781 
Q 2266 391 1970 151 
Q 1675 -88 1309 -88 
Q 1047 -88 709 6 
Q 606 38 541 38 
Q 469 38 428 -44 
L 325 -44 
L 325 978 
L 428 978 
Q 516 541 762 319 
Q 1009 97 1316 97 
Q 1531 97 1667 223 
Q 1803 350 1803 528 
Q 1803 744 1651 891 
Q 1500 1038 1047 1263 
Q 594 1488 453 1669 
Q 313 1847 313 2119 
Q 313 2472 555 2709 
Q 797 2947 1181 2947 
Q 1350 2947 1591 2875 
Q 1750 2828 1803 2828 
Q 1853 2828 1881 2850 
Q 1909 2872 1947 2947 
L 2050 2947 
z
" transform="scale(0.015625)"/>
      </defs>
      <use xlink:href="#TimesNewRomanPSMT-4c"/>
      <use xlink:href="#TimesNewRomanPSMT-6f" x="61.083984"/>
      <use xlink:href="#TimesNewRomanPSMT-73" x="111.083984"/>
      <use xlink:href="#TimesNewRomanPSMT-73" x="150"/>
     </g>
    </g>
   </g>
   <g id="line2d_10">
    <path d="M 64.014545 32.203785 
L 76.667781 32.266886 
L 78.342473 33.202102 
L 79.458935 34.427709 
L 80.017166 35.580409 
L 80.203243 35.677851 
L 80.761474 36.807561 
L 81.133628 37.624291 
L 81.505782 38.553905 
L 82.25009 40.948665 
L 82.622244 42.287422 
L 82.994398 43.127354 
L 83.924783 46.559786 
L 84.11086 47.530066 
L 84.296937 47.634789 
L 84.669091 48.305651 
L 85.413399 52.587176 
L 85.599476 52.464865 
L 85.97163 54.560887 
L 86.343784 56.007357 
L 88.018477 64.130891 
L 88.204554 64.86024 
L 88.948862 69.059126 
L 89.321016 71.429001 
L 89.507093 71.627969 
L 89.69317 73.16789 
L 90.2514 75.345144 
L 90.623554 76.809808 
L 90.995708 78.4406 
L 91.367862 80.613191 
L 91.553939 80.283752 
L 92.11217 81.634026 
L 92.484324 83.506409 
L 92.670401 83.733554 
L 93.042555 85.564972 
L 93.228632 85.502416 
L 93.414709 85.858452 
L 94.159017 90.287507 
L 94.345094 89.626038 
L 94.903325 91.597375 
L 95.089402 91.42416 
L 95.461556 92.220823 
L 95.83371 94.103863 
L 96.019787 94.413825 
L 96.205864 95.013716 
L 96.391941 95.203724 
L 96.950172 98.39258 
L 97.136249 98.714732 
L 97.880557 101.72965 
L 98.066634 102.012292 
L 98.252711 101.953071 
L 98.438788 101.686454 
L 98.810942 102.918748 
L 98.997019 103.054193 
L 99.369173 104.856161 
L 99.55525 106.280314 
L 99.741327 106.11647 
L 100.113481 108.382533 
L 101.043866 111.450625 
L 101.41602 111.606859 
L 101.602097 113.400951 
L 101.974251 113.813762 
L 102.346405 113.879048 
L 102.718559 116.064295 
L 102.904636 115.084488 
L 103.83502 117.452078 
L 104.579328 118.373593 
L 104.765405 118.821368 
L 104.951482 118.970763 
L 105.137559 118.713802 
L 105.323636 119.376921 
L 105.509713 120.686373 
L 105.69579 121.100725 
L 106.067944 123.014812 
L 106.254021 123.083212 
L 106.440098 123.773155 
L 106.626175 123.840688 
L 106.812252 123.72029 
L 107.184406 126.043245 
L 107.370483 126.342109 
L 107.55656 127.083671 
L 107.742637 127.160543 
L 108.114791 129.114846 
L 108.300868 129.365271 
L 108.486945 130.094367 
L 108.673022 130.131918 
L 109.045176 131.032644 
L 109.41733 130.73097 
L 109.789484 132.568059 
L 109.975561 131.680032 
L 110.347715 133.162569 
L 110.533792 133.148373 
L 110.719869 133.002725 
L 110.905946 134.622194 
L 111.092023 135.187889 
L 111.2781 135.263794 
L 111.464177 136.043957 
L 111.650254 134.999012 
L 111.836331 135.056626 
L 112.208485 134.181086 
L 112.394562 134.583929 
L 112.580639 134.309625 
L 113.13887 134.810354 
L 113.324947 135.430298 
L 113.511024 135.127403 
L 113.697101 135.499971 
L 113.883178 136.71861 
L 114.069255 136.951517 
L 114.255332 136.605902 
L 114.441409 136.880959 
L 114.627486 136.031745 
L 114.813563 136.938018 
L 114.99964 137.254141 
L 115.185717 136.404235 
L 115.371794 136.906509 
L 115.557871 135.94634 
L 115.743948 136.11512 
L 116.116102 137.846183 
L 116.302179 138.167693 
L 116.488256 138.968776 
L 116.86041 138.935636 
L 117.41864 140.348862 
L 117.604717 139.490554 
L 117.790794 139.656356 
L 117.976871 140.504207 
L 118.162948 140.062637 
L 118.349025 140.491071 
L 118.721179 140.832779 
L 118.907256 140.494802 
L 119.093333 140.875774 
L 119.27941 140.560454 
L 119.651564 139.507395 
L 119.837641 139.468791 
L 120.209795 140.343966 
L 120.395872 140.09352 
L 120.581949 139.421016 
L 120.768026 139.923902 
L 121.326257 142.436576 
L 121.512334 142.185739 
L 121.698411 141.463286 
L 121.884488 142.004034 
L 122.070565 142.106124 
L 122.814873 144.06245 
L 123.00095 143.878625 
L 123.187027 143.905193 
L 123.373104 144.497684 
L 123.559181 143.488037 
L 123.931335 143.06042 
L 124.303489 144.017008 
L 124.675643 144.59952 
L 124.86172 144.570328 
L 125.233874 147.217693 
L 125.419951 146.834362 
L 125.606028 146.863783 
L 125.792105 147.508082 
L 125.978182 147.365582 
L 126.164259 146.776814 
L 126.350336 146.602363 
L 126.536413 146.609736 
L 126.72249 146.249717 
L 127.094644 145.962002 
L 127.466798 146.66712 
L 127.652875 147.079775 
L 128.025029 149.064228 
L 128.211106 149.671787 
L 128.769337 148.540349 
L 128.955414 149.797179 
L 129.141491 150.170712 
L 129.327568 149.98145 
L 129.513645 149.513272 
L 129.699722 150.425641 
L 129.885799 150.16863 
L 130.071876 150.250795 
L 130.257952 150.203116 
L 130.444029 149.886305 
L 130.816183 148.557479 
L 131.00226 149.390551 
L 131.188337 149.18237 
L 131.560491 149.708511 
L 131.746568 149.399326 
L 131.932645 149.395143 
L 132.118722 150.132816 
L 132.304799 151.348135 
L 132.490876 151.390529 
L 132.676953 151.615086 
L 132.86303 152.329803 
L 133.235184 151.870609 
L 133.421261 150.977612 
L 133.607338 152.154072 
L 133.979492 150.947068 
L 134.165569 150.909695 
L 134.351646 150.321781 
L 134.537723 150.284074 
L 135.095954 152.190694 
L 135.282031 152.124883 
L 135.654185 153.059626 
L 136.026339 152.341214 
L 136.212416 152.027288 
L 136.58457 152.728636 
L 136.770647 152.597855 
L 136.956724 152.95209 
L 137.328878 151.95642 
L 137.514955 152.50415 
L 137.701032 152.271222 
L 137.887109 152.252558 
L 138.073186 152.763552 
L 138.259263 152.69744 
L 138.44534 152.133634 
L 138.817494 153.679533 
L 139.003571 153.586113 
L 139.189648 153.195204 
L 139.561802 153.250411 
L 139.747879 153.834555 
L 139.933956 152.997263 
L 140.30611 153.875104 
L 140.492187 153.666977 
L 140.678264 152.862321 
L 140.864341 153.087052 
L 141.422572 154.561606 
L 141.608649 154.190821 
L 141.794726 153.206929 
L 142.16688 152.911723 
L 142.539034 153.049358 
L 142.725111 154.76798 
L 142.911188 154.704637 
L 143.283342 154.300925 
L 143.469419 154.668641 
L 143.841572 154.602507 
L 144.027649 154.643699 
L 144.213726 154.537755 
L 144.399803 155.220702 
L 144.771957 155.006238 
L 144.958034 155.411567 
L 145.144111 155.319993 
L 145.330188 154.695145 
L 145.516265 154.916739 
L 145.702342 155.654384 
L 145.888419 155.677943 
L 146.074496 155.474794 
L 146.818804 155.489197 
L 147.004881 155.736923 
L 147.190958 155.53244 
L 147.377035 155.595432 
L 147.563112 156.088072 
L 147.749189 155.736992 
L 147.935266 155.741481 
L 148.121343 156.458996 
L 148.30742 156.56918 
L 148.493497 156.869134 
L 148.679574 156.560688 
L 148.865651 156.702439 
L 149.051728 156.624974 
L 149.237805 157.011581 
L 149.423882 157.035111 
L 149.609959 156.382638 
L 149.982113 156.329331 
L 150.16819 156.69074 
L 150.354267 156.540928 
L 150.540344 156.005295 
L 151.098575 156.620326 
L 151.470729 156.220756 
L 151.656806 156.263654 
L 152.02896 155.413976 
L 152.215037 155.966025 
L 152.401114 155.752609 
L 152.587191 156.183327 
L 152.773268 156.312584 
L 153.145422 156.781887 
L 153.331499 156.261073 
L 153.517576 156.627837 
L 153.88973 156.731401 
L 154.261884 157.29856 
L 154.447961 156.749738 
L 154.634038 156.554459 
L 154.820115 155.717334 
L 155.006192 156.314507 
L 155.378346 156.236571 
L 155.564423 156.42635 
L 155.936577 157.094876 
L 156.122654 157.207514 
L 156.308731 156.689478 
L 156.680885 157.249213 
L 156.866962 157.301492 
L 157.053038 157.761746 
L 157.239115 157.600941 
L 157.425192 157.289461 
L 157.611269 157.402502 
L 157.797346 157.85599 
L 157.983423 157.788661 
L 158.1695 157.561947 
L 158.541654 157.530137 
L 158.727731 157.879185 
L 158.913808 157.813087 
L 159.099885 156.997901 
L 159.285962 156.873073 
L 159.472039 155.928201 
L 159.844193 157.181136 
L 160.216347 157.552887 
L 160.774578 157.172332 
L 161.146732 156.378567 
L 161.518886 157.615234 
L 161.704963 157.136343 
L 162.263194 157.330375 
L 162.449271 156.541749 
L 162.635348 157.09582 
L 162.821425 156.90598 
L 163.193579 156.253533 
L 163.379656 156.512634 
L 163.75181 157.996231 
L 163.937887 158.002453 
L 164.123964 157.612261 
L 164.310041 157.553908 
L 164.496118 156.262816 
L 164.682195 156.799509 
L 164.868272 156.825393 
L 165.426503 157.543804 
L 165.798657 157.884634 
L 166.170811 157.040257 
L 166.356888 157.252033 
L 166.542965 157.776365 
L 166.729042 157.819637 
L 166.915119 157.41121 
L 167.101196 157.467889 
L 167.287273 157.960695 
L 167.47335 157.157932 
L 167.845504 158.071899 
L 168.031581 157.806949 
L 168.217658 157.746287 
L 168.775889 158.202112 
L 168.961966 158.2053 
L 169.33412 157.451175 
L 169.520197 157.621258 
L 169.706274 157.570242 
L 169.892351 157.400909 
L 170.078428 158.030762 
L 170.264505 158.264254 
L 170.450581 158.017826 
L 170.822735 158.016978 
L 171.008812 157.700044 
L 171.194889 157.74421 
L 171.380966 158.445598 
L 171.567043 158.421905 
L 171.939197 158.22823 
L 172.125274 157.352534 
L 172.311351 158.440424 
L 173.241736 157.828035 
L 173.427813 157.254258 
L 173.61389 157.433539 
L 173.986044 158.177218 
L 174.172121 158.257551 
L 174.544275 157.488506 
L 174.730352 157.937961 
L 174.916429 157.97062 
L 175.102506 158.160058 
L 175.47466 158.011329 
L 175.660737 157.355388 
L 175.846814 157.405733 
L 176.032891 157.626068 
L 176.405045 158.65811 
L 176.777199 158.523924 
L 176.963276 158.776407 
L 177.521507 157.843736 
L 177.707584 157.568614 
L 177.893661 157.723572 
L 178.079738 158.796432 
L 178.265815 158.865792 
L 178.451892 158.735259 
L 178.637969 158.067267 
L 178.824046 157.931232 
L 179.010123 158.256625 
L 179.1962 158.179409 
L 179.382277 157.702662 
L 179.568354 157.611138 
L 179.754431 158.397362 
L 179.940508 158.555985 
L 180.126585 159.047937 
L 180.312662 158.837553 
L 180.870893 159.345073 
L 181.243047 158.687614 
L 181.615201 159.049825 
L 181.801278 158.751883 
L 182.545586 159.895168 
L 182.731663 159.790143 
L 182.91774 158.917758 
L 183.103817 158.939334 
L 183.475971 159.194616 
L 183.662048 158.630399 
L 183.848124 158.603161 
L 184.034201 158.719535 
L 184.220278 159.452932 
L 184.406355 159.38056 
L 184.964586 158.401553 
L 185.150663 158.939742 
L 185.33674 158.931827 
L 185.894971 159.633656 
L 186.081048 159.563558 
L 186.453202 160.075413 
L 186.639279 159.887647 
L 187.011433 159.910154 
L 187.383587 159.694739 
L 187.569664 160.005704 
L 187.755741 159.771226 
L 187.941818 159.894755 
L 188.127895 160.304722 
L 188.872203 160.066485 
L 189.430434 160.360464 
L 189.616511 160.150508 
L 189.988665 160.345053 
L 190.174742 160.449386 
L 190.360819 160.149439 
L 190.546896 160.385481 
L 190.732973 160.404009 
L 190.91905 160.041532 
L 191.291204 160.453863 
L 191.477281 160.350135 
L 191.663358 160.474926 
L 191.849435 160.308856 
L 192.035512 160.486984 
L 192.221589 160.234988 
L 192.593743 160.393496 
L 192.77982 160.005308 
L 193.338051 160.456818 
L 193.524128 160.235479 
L 193.896282 160.234957 
L 194.268436 160.574112 
L 194.454513 160.423165 
L 195.012744 160.636228 
L 195.198821 160.375064 
L 195.570975 160.709471 
L 195.757052 160.578077 
L 195.943129 160.77788 
L 196.315283 160.366893 
L 196.50136 160.563734 
L 196.687437 160.415968 
L 196.873514 160.739042 
L 197.989975 160.577621 
L 198.362129 160.869187 
L 199.292514 160.936003 
L 199.664668 160.541774 
L 199.850745 160.5146 
L 200.408976 160.993703 
L 200.78113 160.769501 
L 201.153284 161.000923 
L 202.6419 161.038684 
L 203.014054 160.928463 
L 203.572285 161.068881 
L 205.060901 160.805582 
L 205.246978 161.06415 
L 205.433055 161.077039 
L 205.619132 160.804038 
L 206.549517 161.089193 
L 206.735594 160.814754 
L 206.921671 160.870262 
L 207.107748 160.780859 
L 207.293825 160.830487 
L 207.479902 161.007565 
L 207.665979 160.833928 
L 209.340672 161.109891 
L 209.526749 161.046567 
L 209.898903 161.100399 
L 210.08498 161.074293 
L 210.271057 160.879296 
L 210.64321 161.101433 
L 211.201441 161.060211 
L 211.387518 161.185418 
L 211.573595 160.82995 
L 211.759672 160.718806 
L 212.317903 160.857678 
L 212.50398 161.150749 
L 212.690057 160.808861 
L 213.062211 160.869545 
L 213.248288 161.093282 
L 213.434365 161.115361 
L 213.620442 160.932698 
L 213.806519 161.155806 
L 214.178673 161.014864 
L 214.36475 160.882707 
L 214.550827 161.134654 
L 214.736904 160.784295 
L 215.109058 161.127868 
L 215.295135 160.838939 
L 215.481212 161.149441 
L 216.039443 161.177601 
L 216.22552 161.211945 
L 216.411597 161.003698 
L 216.597674 161.195976 
L 216.969828 161.200423 
L 217.155905 161.001568 
L 217.528059 161.179974 
L 218.458444 161.183829 
L 218.644521 160.858122 
L 219.016675 161.157994 
L 219.388829 161.187044 
L 219.574906 160.805109 
L 219.760983 161.122502 
L 220.133137 161.060574 
L 220.505291 161.190409 
L 220.691368 161.080859 
L 222.179984 161.193456 
L 222.738215 161.19942 
L 223.296446 161.21876 
L 223.482523 161.063565 
L 223.6686 161.125541 
L 223.854676 161.016065 
L 224.22683 161.194983 
L 225.157215 161.178444 
L 225.529369 160.969894 
L 225.715446 161.192307 
L 226.273677 161.242698 
L 226.459754 161.041173 
L 226.645831 161.217711 
L 227.204062 161.202005 
L 227.390139 160.94784 
L 227.576216 161.18707 
L 228.134447 161.276831 
L 228.320524 161.105595 
L 228.506601 161.118735 
L 228.692678 161.279556 
L 228.878755 161.120892 
L 229.250909 161.261308 
L 229.995217 161.127515 
L 230.367371 161.232405 
L 230.553448 161.251771 
L 230.739525 161.083252 
L 231.111679 161.18239 
L 231.297756 161.197136 
L 231.483833 161.090324 
L 231.66991 161.231412 
L 233.158526 161.147079 
L 235.577527 161.298112 
L 236.693989 161.176685 
L 237.066143 161.266915 
L 237.252219 161.125105 
L 237.438296 161.293663 
L 239.299066 161.272176 
L 240.229451 161.228405 
L 240.415528 161.068463 
L 240.601605 161.30851 
L 241.53199 161.169342 
L 241.904144 161.301033 
L 242.648452 161.291008 
L 242.834529 160.973626 
L 243.764914 161.205773 
L 243.950991 160.671739 
L 244.137068 161.079636 
L 244.323145 161.0337 
L 244.695299 161.240842 
L 244.881376 161.244373 
L 245.067453 160.980508 
L 245.25353 160.942047 
L 245.439607 161.196986 
L 245.811761 161.172654 
L 245.997838 161.13488 
L 246.369992 161.223274 
L 246.556069 161.166899 
L 246.742146 161.250599 
L 246.928223 161.070793 
L 247.1143 161.273175 
L 247.300377 161.229569 
L 247.486454 160.838016 
L 247.858608 160.878173 
L 248.044685 160.718088 
L 248.230762 161.237133 
L 248.97507 161.22591 
L 249.161147 161.073955 
L 249.533301 161.236269 
L 249.719378 161.088114 
L 249.905455 161.141952 
L 249.905455 161.141952 
" clip-path="url(#pb5ede3cf9b)" style="fill: none; stroke: #1f77b4; stroke-width: 1.5; stroke-linecap: square"/>
   </g>
   <g id="line2d_11">
    <path d="M 64.014545 32.203785 
L 76.667781 32.266886 
L 78.342473 33.202102 
L 79.458935 34.427709 
L 80.017166 35.580409 
L 80.203243 35.677851 
L 80.761474 36.807561 
L 81.133628 37.624291 
L 81.505782 38.553905 
L 82.25009 40.948665 
L 82.622244 42.287422 
L 82.994398 43.127354 
L 83.924783 46.559786 
L 84.11086 47.530066 
L 84.296937 47.634789 
L 84.669091 48.305651 
L 85.413399 52.587176 
L 85.599476 52.464865 
L 85.97163 54.560887 
L 86.343784 56.007357 
L 88.018477 64.130891 
L 88.204554 64.86024 
L 88.948862 69.059126 
L 89.321016 71.429001 
L 89.507093 71.627969 
L 89.69317 73.16789 
L 90.2514 75.345144 
L 90.623554 76.809808 
L 90.995708 78.4406 
L 91.367862 80.613191 
L 91.553939 80.283752 
L 92.11217 81.634026 
L 92.484324 83.506409 
L 92.670401 83.733554 
L 93.042555 85.564972 
L 93.228632 85.502416 
L 93.414709 85.858452 
L 94.159017 90.287507 
L 94.345094 89.626038 
L 94.903325 91.597375 
L 95.089402 91.42416 
L 95.461556 92.220823 
L 95.83371 94.103863 
L 96.019787 94.413825 
L 96.205864 95.013716 
L 96.391941 95.203724 
L 96.950172 98.39258 
L 97.136249 98.714732 
L 97.880557 101.72965 
L 98.066634 102.012292 
L 98.252711 101.953071 
L 98.438788 101.686454 
L 98.810942 102.918748 
L 98.997019 103.054193 
L 99.369173 104.856161 
L 99.55525 106.280314 
L 99.741327 106.11647 
L 100.113481 108.382533 
L 101.043866 111.450625 
L 101.41602 111.606859 
L 101.602097 113.400951 
L 101.974251 113.813762 
L 102.346405 113.879048 
L 102.718559 116.064295 
L 102.904636 115.084488 
L 103.83502 117.452078 
L 104.579328 118.373593 
L 104.765405 118.821368 
L 104.951482 118.970763 
L 105.137559 118.713802 
L 105.323636 119.376921 
L 105.509713 120.686373 
L 105.69579 121.100725 
L 106.067944 123.014812 
L 106.254021 123.083212 
L 106.440098 123.773155 
L 106.626175 123.840688 
L 106.812252 123.72029 
L 107.184406 126.043245 
L 107.370483 126.342109 
L 107.55656 127.083671 
L 107.742637 127.160543 
L 108.114791 129.114846 
L 108.300868 129.365271 
L 108.486945 130.094367 
L 108.673022 130.131918 
L 109.045176 131.032644 
L 109.41733 130.73097 
L 109.789484 132.568059 
L 109.975561 131.680032 
L 110.347715 133.162569 
L 110.533792 133.148373 
L 110.719869 133.002725 
L 110.905946 134.622194 
L 111.092023 135.187889 
L 111.2781 135.263794 
L 111.464177 136.043957 
L 111.650254 134.999012 
L 111.836331 135.056626 
L 112.208485 134.181086 
L 112.394562 134.583929 
L 112.580639 134.309625 
L 113.13887 134.810354 
L 113.324947 135.430298 
L 113.511024 135.127403 
L 113.697101 135.499971 
L 113.883178 136.71861 
L 114.069255 136.951517 
L 114.255332 136.605902 
L 114.441409 136.880959 
L 114.627486 136.031745 
L 114.813563 136.938018 
L 114.99964 137.254141 
L 115.185717 136.404235 
L 115.371794 136.906509 
L 115.557871 135.94634 
L 115.743948 136.11512 
L 116.116102 137.846183 
L 116.302179 138.167693 
L 116.488256 138.968776 
L 116.86041 138.935636 
L 117.41864 140.348862 
L 117.604717 139.490554 
L 117.790794 139.656356 
L 117.976871 140.504207 
L 118.162948 140.062637 
L 118.349025 140.491071 
L 118.721179 140.832779 
L 118.907256 140.494802 
L 119.093333 140.875774 
L 119.27941 140.560454 
L 119.651564 139.507395 
L 119.837641 139.468791 
L 120.209795 140.343966 
L 120.395872 140.09352 
L 120.581949 139.421016 
L 120.768026 139.923902 
L 121.326257 142.436576 
L 121.512334 142.185739 
L 121.698411 141.463286 
L 121.884488 142.004034 
L 122.070565 142.106124 
L 122.814873 144.06245 
L 123.00095 143.878625 
L 123.187027 143.905193 
L 123.373104 144.497684 
L 123.559181 143.488037 
L 123.931335 143.06042 
L 124.303489 144.017008 
L 124.675643 144.59952 
L 124.86172 144.570328 
L 125.233874 147.217693 
L 125.419951 146.834362 
L 125.606028 146.863783 
L 125.792105 147.508082 
L 125.978182 147.365582 
L 126.164259 146.776814 
L 126.350336 146.602363 
L 126.536413 146.609736 
L 126.72249 146.249717 
L 127.094644 145.962002 
L 127.466798 146.66712 
L 127.652875 147.079775 
L 128.025029 149.064228 
L 128.211106 149.671787 
L 128.769337 148.540349 
L 128.955414 149.797179 
L 129.141491 150.170712 
L 129.327568 149.98145 
L 129.513645 149.513272 
L 129.699722 150.425641 
L 129.885799 150.16863 
L 130.071876 150.250795 
L 130.257952 150.203116 
L 130.444029 149.886305 
L 130.816183 148.557479 
L 131.00226 149.390551 
L 131.188337 149.18237 
L 131.560491 149.708511 
L 131.746568 149.399326 
L 131.932645 149.395143 
L 132.118722 150.132816 
L 132.304799 151.348135 
L 132.490876 151.390529 
L 132.676953 151.615086 
L 132.86303 152.329803 
L 133.235184 151.870609 
L 133.421261 150.977612 
L 133.607338 152.154072 
L 133.979492 150.947068 
L 134.165569 150.909695 
L 134.351646 150.321781 
L 134.537723 150.284074 
L 135.095954 152.190694 
L 135.282031 152.124883 
L 135.654185 153.059626 
L 136.026339 152.341214 
L 136.212416 152.027288 
L 136.58457 152.728636 
L 136.770647 152.597855 
L 136.956724 152.95209 
L 137.328878 151.95642 
L 137.514955 152.50415 
L 137.701032 152.271222 
L 137.887109 152.252558 
L 138.073186 152.763552 
L 138.259263 152.69744 
L 138.44534 152.133634 
L 138.817494 153.679533 
L 139.003571 153.586113 
L 139.189648 153.195204 
L 139.561802 153.250411 
L 139.747879 153.834555 
L 139.933956 152.997263 
L 140.30611 153.875104 
L 140.492187 153.666977 
L 140.678264 152.862321 
L 140.864341 153.087052 
L 141.422572 154.561606 
L 141.608649 154.190821 
L 141.794726 153.206929 
L 142.16688 152.911723 
L 142.539034 153.049358 
L 142.725111 154.76798 
L 142.911188 154.704637 
L 143.283342 154.300925 
L 143.469419 154.668641 
L 143.841572 154.602507 
L 144.027649 154.643699 
L 144.213726 154.537755 
L 144.399803 155.220702 
L 144.771957 155.006238 
L 144.958034 155.411567 
L 145.144111 155.319993 
L 145.330188 154.695145 
L 145.516265 154.916739 
L 145.702342 155.654384 
L 145.888419 155.677943 
L 146.074496 155.474794 
L 146.818804 155.489197 
L 147.004881 155.736923 
L 147.190958 155.53244 
L 147.377035 155.595432 
L 147.563112 156.088072 
L 147.749189 155.736992 
L 147.935266 155.741481 
L 148.121343 156.458996 
L 148.30742 156.56918 
L 148.493497 156.869134 
L 148.679574 156.560688 
L 148.865651 156.702439 
L 149.051728 156.624974 
L 149.237805 157.011581 
L 149.423882 157.035111 
L 149.609959 156.382638 
L 149.982113 156.329331 
L 150.16819 156.69074 
L 150.354267 156.540928 
L 150.540344 156.005295 
L 151.098575 156.620326 
L 151.470729 156.220756 
L 151.656806 156.263654 
L 152.02896 155.413976 
L 152.215037 155.966025 
L 152.401114 155.752609 
L 152.587191 156.183327 
L 152.773268 156.312584 
L 153.145422 156.781887 
L 153.331499 156.261073 
L 153.517576 156.627837 
L 153.88973 156.731401 
L 154.261884 157.29856 
L 154.447961 156.749738 
L 154.634038 156.554459 
L 154.820115 155.717334 
L 155.006192 156.314507 
L 155.378346 156.236571 
L 155.564423 156.42635 
L 155.936577 157.094876 
L 156.122654 157.207514 
L 156.308731 156.689478 
L 156.680885 157.249213 
L 156.866962 157.301492 
L 157.053038 157.761746 
L 157.239115 157.600941 
L 157.425192 157.289461 
L 157.611269 157.402502 
L 157.797346 157.85599 
L 157.983423 157.788661 
L 158.1695 157.561947 
L 158.541654 157.530137 
L 158.727731 157.879185 
L 158.913808 157.813087 
L 159.099885 156.997901 
L 159.285962 156.873073 
L 159.472039 155.928201 
L 159.844193 157.181136 
L 160.216347 157.552887 
L 160.774578 157.172332 
L 161.146732 156.378567 
L 161.518886 157.615234 
L 161.704963 157.136343 
L 162.263194 157.330375 
L 162.449271 156.541749 
L 162.635348 157.09582 
L 162.821425 156.90598 
L 163.193579 156.253533 
L 163.379656 156.512634 
L 163.75181 157.996231 
L 163.937887 158.002453 
L 164.123964 157.612261 
L 164.310041 157.553908 
L 164.496118 156.262816 
L 164.682195 156.799509 
L 164.868272 156.825393 
L 165.426503 157.543804 
L 165.798657 157.884634 
L 166.170811 157.040257 
L 166.356888 157.252033 
L 166.542965 157.776365 
L 166.729042 157.819637 
L 166.915119 157.41121 
L 167.101196 157.467889 
L 167.287273 157.960695 
L 167.47335 157.157932 
L 167.845504 158.071899 
L 168.031581 157.806949 
L 168.217658 157.746287 
L 168.775889 158.202112 
L 168.961966 158.2053 
L 169.33412 157.451175 
L 169.520197 157.621258 
L 169.706274 157.570242 
L 169.892351 157.400909 
L 170.078428 158.030762 
L 170.264505 158.264254 
L 170.450581 158.017826 
L 170.822735 158.016978 
L 171.008812 157.700044 
L 171.194889 157.74421 
L 171.380966 158.445598 
L 171.567043 158.421905 
L 171.939197 158.22823 
L 172.125274 157.352534 
L 172.311351 158.440424 
L 173.241736 157.828035 
L 173.427813 157.254258 
L 173.61389 157.433539 
L 173.986044 158.177218 
L 174.172121 158.257551 
L 174.544275 157.488506 
L 174.730352 157.937961 
L 174.916429 157.97062 
L 175.102506 158.160058 
L 175.47466 158.011329 
L 175.660737 157.355388 
L 175.846814 157.405733 
L 176.032891 157.626068 
L 176.405045 158.65811 
L 176.777199 158.523924 
L 176.963276 158.776407 
L 177.521507 157.843736 
L 177.707584 157.568614 
L 177.893661 157.723572 
L 178.079738 158.796432 
L 178.265815 158.865792 
L 178.451892 158.735259 
L 178.637969 158.067267 
L 178.824046 157.931232 
L 179.010123 158.256625 
L 179.1962 158.179409 
L 179.382277 157.702662 
L 179.568354 157.611138 
L 179.754431 158.397362 
L 179.940508 158.555985 
L 180.126585 159.047937 
L 180.312662 158.837553 
L 180.870893 159.345073 
L 181.243047 158.687614 
L 181.615201 159.049825 
L 181.801278 158.751883 
L 182.545586 159.895168 
L 182.731663 159.790143 
L 182.91774 158.917758 
L 183.103817 158.939334 
L 183.475971 159.194616 
L 183.662048 158.630399 
L 183.848124 158.603161 
L 184.034201 158.719535 
L 184.220278 159.452932 
L 184.406355 159.38056 
L 184.964586 158.401553 
L 185.150663 158.939742 
L 185.33674 158.931827 
L 185.894971 159.633656 
L 186.081048 159.563558 
L 186.453202 160.075413 
L 186.639279 159.887647 
L 187.011433 159.910154 
L 187.383587 159.694739 
L 187.569664 160.005704 
L 187.755741 159.771226 
L 187.941818 159.894755 
L 188.127895 160.304722 
L 188.872203 160.066485 
L 189.430434 160.360464 
L 189.616511 160.150508 
L 189.988665 160.345053 
L 190.174742 160.449386 
L 190.360819 160.149439 
L 190.546896 160.385481 
L 190.732973 160.404009 
L 190.91905 160.041532 
L 191.291204 160.453863 
L 191.477281 160.350135 
L 191.663358 160.474926 
L 191.849435 160.308856 
L 192.035512 160.486984 
L 192.221589 160.234988 
L 192.593743 160.393496 
L 192.77982 160.005308 
L 193.338051 160.456818 
L 193.524128 160.235479 
L 193.896282 160.234957 
L 194.268436 160.574112 
L 194.454513 160.423165 
L 195.012744 160.636228 
L 195.198821 160.375064 
L 195.570975 160.709471 
L 195.757052 160.578077 
L 195.943129 160.77788 
L 196.315283 160.366893 
L 196.50136 160.563734 
L 196.687437 160.415968 
L 196.873514 160.739042 
L 197.989975 160.577621 
L 198.362129 160.869187 
L 199.292514 160.936003 
L 199.664668 160.541774 
L 199.850745 160.5146 
L 200.408976 160.993703 
L 200.78113 160.769501 
L 201.153284 161.000923 
L 202.6419 161.038684 
L 203.014054 160.928463 
L 203.572285 161.068881 
L 205.060901 160.805582 
L 205.246978 161.06415 
L 205.433055 161.077039 
L 205.619132 160.804038 
L 206.549517 161.089193 
L 206.735594 160.814754 
L 206.921671 160.870262 
L 207.107748 160.780859 
L 207.293825 160.830487 
L 207.479902 161.007565 
L 207.665979 160.833928 
L 209.340672 161.109891 
L 209.526749 161.046567 
L 209.898903 161.100399 
L 210.08498 161.074293 
L 210.271057 160.879296 
L 210.64321 161.101433 
L 211.201441 161.060211 
L 211.387518 161.185418 
L 211.573595 160.82995 
L 211.759672 160.718806 
L 212.317903 160.857678 
L 212.50398 161.150749 
L 212.690057 160.808861 
L 213.062211 160.869545 
L 213.248288 161.093282 
L 213.434365 161.115361 
L 213.620442 160.932698 
L 213.806519 161.155806 
L 214.178673 161.014864 
L 214.36475 160.882707 
L 214.550827 161.134654 
L 214.736904 160.784295 
L 215.109058 161.127868 
L 215.295135 160.838939 
L 215.481212 161.149441 
L 216.039443 161.177601 
L 216.22552 161.211945 
L 216.411597 161.003698 
L 216.597674 161.195976 
L 216.969828 161.200423 
L 217.155905 161.001568 
L 217.528059 161.179974 
L 218.458444 161.183829 
L 218.644521 160.858122 
L 219.016675 161.157994 
L 219.388829 161.187044 
L 219.574906 160.805109 
L 219.760983 161.122502 
L 220.133137 161.060574 
L 220.505291 161.190409 
L 220.691368 161.080859 
L 222.179984 161.193456 
L 222.738215 161.19942 
L 223.296446 161.21876 
L 223.482523 161.063565 
L 223.6686 161.125541 
L 223.854676 161.016065 
L 224.22683 161.194983 
L 225.157215 161.178444 
L 225.529369 160.969894 
L 225.715446 161.192307 
L 226.273677 161.242698 
L 226.459754 161.041173 
L 226.645831 161.217711 
L 227.204062 161.202005 
L 227.390139 160.94784 
L 227.576216 161.18707 
L 228.134447 161.276831 
L 228.320524 161.105595 
L 228.506601 161.118735 
L 228.692678 161.279556 
L 228.878755 161.120892 
L 229.250909 161.261308 
L 229.995217 161.127515 
L 230.367371 161.232405 
L 230.553448 161.251771 
L 230.739525 161.083252 
L 231.111679 161.18239 
L 231.297756 161.197136 
L 231.483833 161.090324 
L 231.66991 161.231412 
L 233.158526 161.147079 
L 235.577527 161.298112 
L 236.693989 161.176685 
L 237.066143 161.266915 
L 237.252219 161.125105 
L 237.438296 161.293663 
L 239.299066 161.272176 
L 240.229451 161.228405 
L 240.415528 161.068463 
L 240.601605 161.30851 
L 241.53199 161.169342 
L 241.904144 161.301033 
L 242.648452 161.291008 
L 242.834529 160.973626 
L 243.764914 161.205773 
L 243.950991 160.671739 
L 244.137068 161.079636 
L 244.323145 161.0337 
L 244.695299 161.240842 
L 244.881376 161.244373 
L 245.067453 160.980508 
L 245.25353 160.942047 
L 245.439607 161.196986 
L 245.811761 161.172654 
L 245.997838 161.13488 
L 246.369992 161.223274 
L 246.556069 161.166899 
L 246.742146 161.250599 
L 246.928223 161.070793 
L 247.1143 161.273175 
L 247.300377 161.229569 
L 247.486454 160.838016 
L 247.858608 160.878173 
L 248.044685 160.718088 
L 248.230762 161.237133 
L 248.97507 161.22591 
L 249.161147 161.073955 
L 249.533301 161.236269 
L 249.719378 161.088114 
L 249.905455 161.141952 
L 249.905455 161.141952 
" clip-path="url(#pb5ede3cf9b)" style="fill: none; stroke: #ff7f0e; stroke-width: 1.5; stroke-linecap: square"/>
   </g>
   <g id="patch_3">
    <path d="M 54.72 168.48 
L 54.72 21.6 
" style="fill: none; stroke: #000000; stroke-width: 0.8; stroke-linejoin: miter; stroke-linecap: square"/>
   </g>
   <g id="patch_4">
    <path d="M 259.2 168.48 
L 259.2 21.6 
" style="fill: none; stroke: #000000; stroke-width: 0.8; stroke-linejoin: miter; stroke-linecap: square"/>
   </g>
   <g id="patch_5">
    <path d="M 54.72 168.48 
L 259.2 168.48 
" style="fill: none; stroke: #000000; stroke-width: 0.8; stroke-linejoin: miter; stroke-linecap: square"/>
   </g>
   <g id="patch_6">
    <path d="M 54.72 21.6 
L 259.2 21.6 
" style="fill: none; stroke: #000000; stroke-width: 0.8; stroke-linejoin: miter; stroke-linecap: square"/>
   </g>
   <g id="legend_1">
    <g id="patch_7">
     <path d="M 154.996875 86.900625 
L 246.6 86.900625 
Q 250.2 86.900625 250.2 83.300625 
L 250.2 34.2 
Q 250.2 30.6 246.6 30.6 
L 154.996875 30.6 
Q 151.396875 30.6 151.396875 34.2 
L 151.396875 83.300625 
Q 151.396875 86.900625 154.996875 86.900625 
z
" style="fill: #ffffff; opacity: 0.8; stroke: #cccccc; stroke-linejoin: miter"/>
    </g>
    <g id="line2d_12">
     <path d="M 158.596875 44.1 
L 176.596875 44.1 
L 194.596875 44.1 
" style="fill: none; stroke: #1f77b4; stroke-width: 1.5; stroke-linecap: square"/>
    </g>
    <g id="text_12">
     <!-- SDT -->
     <g transform="translate(208.996875 50.4)scale(0.18 -0.18)">
      <defs>
       <path id="TimesNewRomanPSMT-53" d="M 2934 4334 
L 2934 2869 
L 2819 2869 
Q 2763 3291 2617 3541 
Q 2472 3791 2203 3937 
Q 1934 4084 1647 4084 
Q 1322 4084 1109 3886 
Q 897 3688 897 3434 
Q 897 3241 1031 3081 
Q 1225 2847 1953 2456 
Q 2547 2138 2764 1967 
Q 2981 1797 3098 1565 
Q 3216 1334 3216 1081 
Q 3216 600 2842 251 
Q 2469 -97 1881 -97 
Q 1697 -97 1534 -69 
Q 1438 -53 1133 45 
Q 828 144 747 144 
Q 669 144 623 97 
Q 578 50 556 -97 
L 441 -97 
L 441 1356 
L 556 1356 
Q 638 900 775 673 
Q 913 447 1195 297 
Q 1478 147 1816 147 
Q 2206 147 2432 353 
Q 2659 559 2659 841 
Q 2659 997 2573 1156 
Q 2488 1316 2306 1453 
Q 2184 1547 1640 1851 
Q 1097 2156 867 2337 
Q 638 2519 519 2737 
Q 400 2956 400 3219 
Q 400 3675 750 4004 
Q 1100 4334 1641 4334 
Q 1978 4334 2356 4169 
Q 2531 4091 2603 4091 
Q 2684 4091 2736 4139 
Q 2788 4188 2819 4334 
L 2934 4334 
z
" transform="scale(0.015625)"/>
       <path id="TimesNewRomanPSMT-44" d="M 109 0 
L 109 116 
L 269 116 
Q 538 116 650 288 
Q 719 391 719 750 
L 719 3488 
Q 719 3884 631 3984 
Q 509 4122 269 4122 
L 109 4122 
L 109 4238 
L 1834 4238 
Q 2784 4238 3279 4022 
Q 3775 3806 4076 3303 
Q 4378 2800 4378 2141 
Q 4378 1256 3841 663 
Q 3238 0 2003 0 
L 109 0 
z
M 1319 306 
Q 1716 219 1984 219 
Q 2709 219 3187 728 
Q 3666 1238 3666 2109 
Q 3666 2988 3187 3494 
Q 2709 4000 1959 4000 
Q 1678 4000 1319 3909 
L 1319 306 
z
" transform="scale(0.015625)"/>
       <path id="TimesNewRomanPSMT-54" d="M 3703 4238 
L 3750 3244 
L 3631 3244 
Q 3597 3506 3538 3619 
Q 3441 3800 3280 3886 
Q 3119 3972 2856 3972 
L 2259 3972 
L 2259 734 
Q 2259 344 2344 247 
Q 2463 116 2709 116 
L 2856 116 
L 2856 0 
L 1059 0 
L 1059 116 
L 1209 116 
Q 1478 116 1591 278 
Q 1659 378 1659 734 
L 1659 3972 
L 1150 3972 
Q 853 3972 728 3928 
Q 566 3869 450 3700 
Q 334 3531 313 3244 
L 194 3244 
L 244 4238 
L 3703 4238 
z
" transform="scale(0.015625)"/>
      </defs>
      <use xlink:href="#TimesNewRomanPSMT-53"/>
      <use xlink:href="#TimesNewRomanPSMT-44" x="55.615234"/>
      <use xlink:href="#TimesNewRomanPSMT-54" x="127.832031"/>
     </g>
    </g>
    <g id="line2d_13">
     <path d="M 158.596875 69.550312 
L 176.596875 69.550312 
L 194.596875 69.550312 
" style="fill: none; stroke: #ff7f0e; stroke-width: 1.5; stroke-linecap: square"/>
    </g>
    <g id="text_13">
     <!-- TET -->
     <g transform="translate(208.996875 75.850312)scale(0.18 -0.18)">
      <use xlink:href="#TimesNewRomanPSMT-54"/>
      <use xlink:href="#TimesNewRomanPSMT-45" x="61.083984"/>
      <use xlink:href="#TimesNewRomanPSMT-54" x="122.167969"/>
     </g>
    </g>
   </g>
  </g>
 </g>
 <defs>
  <clipPath id="pb5ede3cf9b">
   <rect x="54.72" y="21.6" width="204.48" height="146.88"/>
  </clipPath>
 </defs>
</svg>
