<?xml version="1.0" encoding="utf-8" standalone="no"?>
<!DOCTYPE svg PUBLIC "-//W3C//DTD SVG 1.1//EN"
  "http://www.w3.org/Graphics/SVG/1.1/DTD/svg11.dtd">
<svg xmlns:xlink="http://www.w3.org/1999/xlink" width="288pt" height="216pt" viewBox="0 0 288 216" xmlns="http://www.w3.org/2000/svg" version="1.1">
 <metadata>
  <rdf:RDF xmlns:dc="http://purl.org/dc/elements/1.1/" xmlns:cc="http://creativecommons.org/ns#" xmlns:rdf="http://www.w3.org/1999/02/22-rdf-syntax-ns#">
   <cc:Work>
    <dc:type rdf:resource="http://purl.org/dc/dcmitype/StillImage"/>
    <dc:date>2024-05-19T21:07:47.456381</dc:date>
    <dc:format>image/svg+xml</dc:format>
    <dc:creator>
     <cc:Agent>
      <dc:title>Matplotlib v3.5.0, https://matplotlib.org/</dc:title>
     </cc:Agent>
    </dc:creator>
   </cc:Work>
  </rdf:RDF>
 </metadata>
 <defs>
  <style type="text/css">*{stroke-linejoin: round; stroke-linecap: butt}</style>
 </defs>
 <g id="figure_1">
  <g id="patch_1">
   <path d="M 0 216 
L 288 216 
L 288 0 
L 0 0 
z
" style="fill: #ffffff"/>
  </g>
  <g id="axes_1">
   <g id="patch_2">
    <path d="M 54.72 168.48 
L 259.2 168.48 
L 259.2 21.6 
L 54.72 21.6 
z
" style="fill: #ffffff"/>
   </g>
   <g id="matplotlib.axis_1">
    <g id="xtick_1">
     <g id="line2d_1">
      <defs>
       <path id="m78cc7f7372" d="M 0 0 
L 0 3.5 
" style="stroke: #000000; stroke-width: 0.8"/>
      </defs>
      <g>
       <use xlink:href="#m78cc7f7372" x="64.014545" y="168.48" style="stroke: #000000; stroke-width: 0.8"/>
      </g>
     </g>
     <g id="text_1">
      <!-- 0 -->
      <g transform="translate(59.514545 187.97875)scale(0.18 -0.18)">
       <defs>
        <path id="TimesNewRomanPSMT-30" d="M 231 2094 
Q 231 2819 450 3342 
Q 669 3866 1031 4122 
Q 1313 4325 1613 4325 
Q 2100 4325 2488 3828 
Q 2972 3213 2972 2159 
Q 2972 1422 2759 906 
Q 2547 391 2217 158 
Q 1888 -75 1581 -75 
Q 975 -75 572 641 
Q 231 1244 231 2094 
z
M 844 2016 
Q 844 1141 1059 588 
Q 1238 122 1591 122 
Q 1759 122 1940 273 
Q 2122 425 2216 781 
Q 2359 1319 2359 2297 
Q 2359 3022 2209 3506 
Q 2097 3866 1919 4016 
Q 1791 4119 1609 4119 
Q 1397 4119 1231 3928 
Q 1006 3669 925 3112 
Q 844 2556 844 2016 
z
" transform="scale(0.015625)"/>
       </defs>
       <use xlink:href="#TimesNewRomanPSMT-30"/>
      </g>
     </g>
    </g>
    <g id="xtick_2">
     <g id="line2d_2">
      <g>
       <use xlink:href="#m78cc7f7372" x="157.053038" y="168.48" style="stroke: #000000; stroke-width: 0.8"/>
      </g>
     </g>
     <g id="text_2">
      <!-- 500 -->
      <g transform="translate(143.553038 187.97875)scale(0.18 -0.18)">
       <defs>
        <path id="TimesNewRomanPSMT-35" d="M 2778 4238 
L 2534 3706 
L 1259 3706 
L 981 3138 
Q 1809 3016 2294 2522 
Q 2709 2097 2709 1522 
Q 2709 1188 2573 903 
Q 2438 619 2231 419 
Q 2025 219 1772 97 
Q 1413 -75 1034 -75 
Q 653 -75 479 54 
Q 306 184 306 341 
Q 306 428 378 495 
Q 450 563 559 563 
Q 641 563 702 538 
Q 763 513 909 409 
Q 1144 247 1384 247 
Q 1750 247 2026 523 
Q 2303 800 2303 1197 
Q 2303 1581 2056 1914 
Q 1809 2247 1375 2428 
Q 1034 2569 447 2591 
L 1259 4238 
L 2778 4238 
z
" transform="scale(0.015625)"/>
       </defs>
       <use xlink:href="#TimesNewRomanPSMT-35"/>
       <use xlink:href="#TimesNewRomanPSMT-30" x="50"/>
       <use xlink:href="#TimesNewRomanPSMT-30" x="100"/>
      </g>
     </g>
    </g>
    <g id="xtick_3">
     <g id="line2d_3">
      <g>
       <use xlink:href="#m78cc7f7372" x="250.091532" y="168.48" style="stroke: #000000; stroke-width: 0.8"/>
      </g>
     </g>
     <g id="text_3">
      <!-- 1000 -->
      <g transform="translate(232.091532 187.97875)scale(0.18 -0.18)">
       <defs>
        <path id="TimesNewRomanPSMT-31" d="M 750 3822 
L 1781 4325 
L 1884 4325 
L 1884 747 
Q 1884 391 1914 303 
Q 1944 216 2037 169 
Q 2131 122 2419 116 
L 2419 0 
L 825 0 
L 825 116 
Q 1125 122 1212 167 
Q 1300 213 1334 289 
Q 1369 366 1369 747 
L 1369 3034 
Q 1369 3497 1338 3628 
Q 1316 3728 1258 3775 
Q 1200 3822 1119 3822 
Q 1003 3822 797 3725 
L 750 3822 
z
" transform="scale(0.015625)"/>
       </defs>
       <use xlink:href="#TimesNewRomanPSMT-31"/>
       <use xlink:href="#TimesNewRomanPSMT-30" x="50"/>
       <use xlink:href="#TimesNewRomanPSMT-30" x="100"/>
       <use xlink:href="#TimesNewRomanPSMT-30" x="150"/>
      </g>
     </g>
    </g>
    <g id="text_4">
     <!-- Epoch -->
     <g transform="translate(133.967812 208.327812)scale(0.18 -0.18)">
      <defs>
       <path id="TimesNewRomanPSMT-45" d="M 1338 4006 
L 1338 2331 
L 2269 2331 
Q 2631 2331 2753 2441 
Q 2916 2584 2934 2947 
L 3050 2947 
L 3050 1472 
L 2934 1472 
Q 2891 1781 2847 1869 
Q 2791 1978 2662 2040 
Q 2534 2103 2269 2103 
L 1338 2103 
L 1338 706 
Q 1338 425 1363 364 
Q 1388 303 1450 267 
Q 1513 231 1688 231 
L 2406 231 
Q 2766 231 2928 281 
Q 3091 331 3241 478 
Q 3434 672 3638 1063 
L 3763 1063 
L 3397 0 
L 131 0 
L 131 116 
L 281 116 
Q 431 116 566 188 
Q 666 238 702 338 
Q 738 438 738 747 
L 738 3500 
Q 738 3903 656 3997 
Q 544 4122 281 4122 
L 131 4122 
L 131 4238 
L 3397 4238 
L 3444 3309 
L 3322 3309 
Q 3256 3644 3176 3769 
Q 3097 3894 2941 3959 
Q 2816 4006 2500 4006 
L 1338 4006 
z
" transform="scale(0.015625)"/>
       <path id="TimesNewRomanPSMT-70" d="M -6 2578 
L 875 2934 
L 994 2934 
L 994 2266 
Q 1216 2644 1439 2795 
Q 1663 2947 1909 2947 
Q 2341 2947 2628 2609 
Q 2981 2197 2981 1534 
Q 2981 794 2556 309 
Q 2206 -88 1675 -88 
Q 1444 -88 1275 -22 
Q 1150 25 994 166 
L 994 -706 
Q 994 -1000 1030 -1079 
Q 1066 -1159 1155 -1206 
Q 1244 -1253 1478 -1253 
L 1478 -1369 
L -22 -1369 
L -22 -1253 
L 56 -1253 
Q 228 -1256 350 -1188 
Q 409 -1153 442 -1076 
Q 475 -1000 475 -688 
L 475 2019 
Q 475 2297 450 2372 
Q 425 2447 370 2484 
Q 316 2522 222 2522 
Q 147 2522 31 2478 
L -6 2578 
z
M 994 2081 
L 994 1013 
Q 994 666 1022 556 
Q 1066 375 1236 237 
Q 1406 100 1666 100 
Q 1978 100 2172 344 
Q 2425 663 2425 1241 
Q 2425 1897 2138 2250 
Q 1938 2494 1663 2494 
Q 1513 2494 1366 2419 
Q 1253 2363 994 2081 
z
" transform="scale(0.015625)"/>
       <path id="TimesNewRomanPSMT-6f" d="M 1600 2947 
Q 2250 2947 2644 2453 
Q 2978 2031 2978 1484 
Q 2978 1100 2793 706 
Q 2609 313 2286 112 
Q 1963 -88 1566 -88 
Q 919 -88 538 428 
Q 216 863 216 1403 
Q 216 1797 411 2186 
Q 606 2575 925 2761 
Q 1244 2947 1600 2947 
z
M 1503 2744 
Q 1338 2744 1170 2645 
Q 1003 2547 900 2300 
Q 797 2053 797 1666 
Q 797 1041 1045 587 
Q 1294 134 1700 134 
Q 2003 134 2200 384 
Q 2397 634 2397 1244 
Q 2397 2006 2069 2444 
Q 1847 2744 1503 2744 
z
" transform="scale(0.015625)"/>
       <path id="TimesNewRomanPSMT-63" d="M 2631 1088 
Q 2516 522 2178 217 
Q 1841 -88 1431 -88 
Q 944 -88 581 321 
Q 219 731 219 1428 
Q 219 2103 620 2525 
Q 1022 2947 1584 2947 
Q 2006 2947 2278 2723 
Q 2550 2500 2550 2259 
Q 2550 2141 2473 2067 
Q 2397 1994 2259 1994 
Q 2075 1994 1981 2113 
Q 1928 2178 1911 2362 
Q 1894 2547 1784 2644 
Q 1675 2738 1481 2738 
Q 1169 2738 978 2506 
Q 725 2200 725 1697 
Q 725 1184 976 792 
Q 1228 400 1656 400 
Q 1963 400 2206 609 
Q 2378 753 2541 1131 
L 2631 1088 
z
" transform="scale(0.015625)"/>
       <path id="TimesNewRomanPSMT-68" d="M 1041 4444 
L 1041 2350 
Q 1388 2731 1591 2839 
Q 1794 2947 1997 2947 
Q 2241 2947 2416 2812 
Q 2591 2678 2675 2391 
Q 2734 2191 2734 1659 
L 2734 647 
Q 2734 375 2778 275 
Q 2809 200 2884 156 
Q 2959 113 3159 113 
L 3159 0 
L 1753 0 
L 1753 113 
L 1819 113 
Q 2019 113 2097 173 
Q 2175 234 2206 353 
Q 2216 403 2216 647 
L 2216 1659 
Q 2216 2128 2167 2275 
Q 2119 2422 2012 2495 
Q 1906 2569 1756 2569 
Q 1603 2569 1437 2487 
Q 1272 2406 1041 2159 
L 1041 647 
Q 1041 353 1073 281 
Q 1106 209 1195 161 
Q 1284 113 1503 113 
L 1503 0 
L 84 0 
L 84 113 
Q 275 113 384 172 
Q 447 203 484 290 
Q 522 378 522 647 
L 522 3238 
Q 522 3728 498 3840 
Q 475 3953 426 3993 
Q 378 4034 297 4034 
Q 231 4034 84 3984 
L 41 4094 
L 897 4444 
L 1041 4444 
z
" transform="scale(0.015625)"/>
      </defs>
      <use xlink:href="#TimesNewRomanPSMT-45"/>
      <use xlink:href="#TimesNewRomanPSMT-70" x="61.083984"/>
      <use xlink:href="#TimesNewRomanPSMT-6f" x="111.083984"/>
      <use xlink:href="#TimesNewRomanPSMT-63" x="161.083984"/>
      <use xlink:href="#TimesNewRomanPSMT-68" x="205.46875"/>
     </g>
    </g>
   </g>
   <g id="matplotlib.axis_2">
    <g id="ytick_1">
     <g id="line2d_4">
      <defs>
       <path id="m641049846d" d="M 0 0 
L -3.5 0 
" style="stroke: #000000; stroke-width: 0.8"/>
      </defs>
      <g>
       <use xlink:href="#m641049846d" x="54.72" y="161.485714" style="stroke: #000000; stroke-width: 0.8"/>
      </g>
     </g>
     <g id="text_5">
      <!-- 0.0 -->
      <g transform="translate(25.22 167.735089)scale(0.18 -0.18)">
       <defs>
        <path id="TimesNewRomanPSMT-2e" d="M 800 606 
Q 947 606 1047 504 
Q 1147 403 1147 259 
Q 1147 116 1045 14 
Q 944 -88 800 -88 
Q 656 -88 554 14 
Q 453 116 453 259 
Q 453 406 554 506 
Q 656 606 800 606 
z
" transform="scale(0.015625)"/>
       </defs>
       <use xlink:href="#TimesNewRomanPSMT-30"/>
       <use xlink:href="#TimesNewRomanPSMT-2e" x="50"/>
       <use xlink:href="#TimesNewRomanPSMT-30" x="75"/>
      </g>
     </g>
    </g>
    <g id="ytick_2">
     <g id="line2d_5">
      <g>
       <use xlink:href="#m641049846d" x="54.72" y="138.171429" style="stroke: #000000; stroke-width: 0.8"/>
      </g>
     </g>
     <g id="text_6">
      <!-- 0.5 -->
      <g transform="translate(25.22 144.420804)scale(0.18 -0.18)">
       <use xlink:href="#TimesNewRomanPSMT-30"/>
       <use xlink:href="#TimesNewRomanPSMT-2e" x="50"/>
       <use xlink:href="#TimesNewRomanPSMT-35" x="75"/>
      </g>
     </g>
    </g>
    <g id="ytick_3">
     <g id="line2d_6">
      <g>
       <use xlink:href="#m641049846d" x="54.72" y="114.857143" style="stroke: #000000; stroke-width: 0.8"/>
      </g>
     </g>
     <g id="text_7">
      <!-- 1.0 -->
      <g transform="translate(25.22 121.106518)scale(0.18 -0.18)">
       <use xlink:href="#TimesNewRomanPSMT-31"/>
       <use xlink:href="#TimesNewRomanPSMT-2e" x="50"/>
       <use xlink:href="#TimesNewRomanPSMT-30" x="75"/>
      </g>
     </g>
    </g>
    <g id="ytick_4">
     <g id="line2d_7">
      <g>
       <use xlink:href="#m641049846d" x="54.72" y="91.542857" style="stroke: #000000; stroke-width: 0.8"/>
      </g>
     </g>
     <g id="text_8">
      <!-- 1.5 -->
      <g transform="translate(25.22 97.792232)scale(0.18 -0.18)">
       <use xlink:href="#TimesNewRomanPSMT-31"/>
       <use xlink:href="#TimesNewRomanPSMT-2e" x="50"/>
       <use xlink:href="#TimesNewRomanPSMT-35" x="75"/>
      </g>
     </g>
    </g>
    <g id="ytick_5">
     <g id="line2d_8">
      <g>
       <use xlink:href="#m641049846d" x="54.72" y="68.228571" style="stroke: #000000; stroke-width: 0.8"/>
      </g>
     </g>
     <g id="text_9">
      <!-- 2.0 -->
      <g transform="translate(25.22 74.477946)scale(0.18 -0.18)">
       <defs>
        <path id="TimesNewRomanPSMT-32" d="M 2934 816 
L 2638 0 
L 138 0 
L 138 116 
Q 1241 1122 1691 1759 
Q 2141 2397 2141 2925 
Q 2141 3328 1894 3587 
Q 1647 3847 1303 3847 
Q 991 3847 742 3664 
Q 494 3481 375 3128 
L 259 3128 
Q 338 3706 661 4015 
Q 984 4325 1469 4325 
Q 1984 4325 2329 3994 
Q 2675 3663 2675 3213 
Q 2675 2891 2525 2569 
Q 2294 2063 1775 1497 
Q 997 647 803 472 
L 1909 472 
Q 2247 472 2383 497 
Q 2519 522 2628 598 
Q 2738 675 2819 816 
L 2934 816 
z
" transform="scale(0.015625)"/>
       </defs>
       <use xlink:href="#TimesNewRomanPSMT-32"/>
       <use xlink:href="#TimesNewRomanPSMT-2e" x="50"/>
       <use xlink:href="#TimesNewRomanPSMT-30" x="75"/>
      </g>
     </g>
    </g>
    <g id="ytick_6">
     <g id="line2d_9">
      <g>
       <use xlink:href="#m641049846d" x="54.72" y="44.914286" style="stroke: #000000; stroke-width: 0.8"/>
      </g>
     </g>
     <g id="text_10">
      <!-- 2.5 -->
      <g transform="translate(25.22 51.163661)scale(0.18 -0.18)">
       <use xlink:href="#TimesNewRomanPSMT-32"/>
       <use xlink:href="#TimesNewRomanPSMT-2e" x="50"/>
       <use xlink:href="#TimesNewRomanPSMT-35" x="75"/>
      </g>
     </g>
    </g>
    <g id="text_11">
     <!-- Loss -->
     <g transform="translate(17.369687 112.042969)rotate(-90)scale(0.18 -0.18)">
      <defs>
       <path id="TimesNewRomanPSMT-4c" d="M 3669 1172 
L 3772 1150 
L 3409 0 
L 128 0 
L 128 116 
L 288 116 
Q 556 116 672 291 
Q 738 391 738 753 
L 738 3488 
Q 738 3884 650 3984 
Q 528 4122 288 4122 
L 128 4122 
L 128 4238 
L 2047 4238 
L 2047 4122 
Q 1709 4125 1573 4059 
Q 1438 3994 1388 3894 
Q 1338 3794 1338 3416 
L 1338 753 
Q 1338 494 1388 397 
Q 1425 331 1503 300 
Q 1581 269 1991 269 
L 2300 269 
Q 2788 269 2984 341 
Q 3181 413 3343 595 
Q 3506 778 3669 1172 
z
" transform="scale(0.015625)"/>
       <path id="TimesNewRomanPSMT-73" d="M 2050 2947 
L 2050 1972 
L 1947 1972 
Q 1828 2431 1642 2597 
Q 1456 2763 1169 2763 
Q 950 2763 815 2647 
Q 681 2531 681 2391 
Q 681 2216 781 2091 
Q 878 1963 1175 1819 
L 1631 1597 
Q 2266 1288 2266 781 
Q 2266 391 1970 151 
Q 1675 -88 1309 -88 
Q 1047 -88 709 6 
Q 606 38 541 38 
Q 469 38 428 -44 
L 325 -44 
L 325 978 
L 428 978 
Q 516 541 762 319 
Q 1009 97 1316 97 
Q 1531 97 1667 223 
Q 1803 350 1803 528 
Q 1803 744 1651 891 
Q 1500 1038 1047 1263 
Q 594 1488 453 1669 
Q 313 1847 313 2119 
Q 313 2472 555 2709 
Q 797 2947 1181 2947 
Q 1350 2947 1591 2875 
Q 1750 2828 1803 2828 
Q 1853 2828 1881 2850 
Q 1909 2872 1947 2947 
L 2050 2947 
z
" transform="scale(0.015625)"/>
      </defs>
      <use xlink:href="#TimesNewRomanPSMT-4c"/>
      <use xlink:href="#TimesNewRomanPSMT-6f" x="61.083984"/>
      <use xlink:href="#TimesNewRomanPSMT-73" x="111.083984"/>
      <use xlink:href="#TimesNewRomanPSMT-73" x="150"/>
     </g>
    </g>
   </g>
   <g id="line2d_10">
    <path d="M 64.014545 32.203785 
L 69.038624 32.268698 
L 69.969009 32.615819 
L 70.341163 32.882985 
L 70.52724 32.966819 
L 72.015856 35.26037 
L 72.760164 37.055362 
L 73.318395 38.722852 
L 75.737396 48.756762 
L 76.481704 52.822258 
L 76.853857 55.115842 
L 77.039934 55.874708 
L 78.714627 67.669025 
L 79.086781 71.031202 
L 79.645012 75.344116 
L 80.761474 84.990484 
L 80.947551 85.95705 
L 81.133628 87.963907 
L 81.319705 88.753856 
L 81.877936 94.35337 
L 82.436167 98.751274 
L 83.180475 103.982823 
L 83.366552 105.053051 
L 83.552629 106.939587 
L 83.924783 108.627855 
L 84.483014 112.140831 
L 84.669091 113.432384 
L 84.855168 113.816075 
L 85.041245 114.72909 
L 85.413399 118.256888 
L 85.599476 118.733804 
L 85.97163 121.331994 
L 86.343784 122.86229 
L 87.274169 128.915958 
L 87.460246 129.804283 
L 87.8324 132.230702 
L 88.018477 132.616975 
L 88.576708 134.439357 
L 88.762785 135.04828 
L 88.948862 136.109584 
L 89.134939 136.453767 
L 89.879247 139.768198 
L 90.2514 141.855036 
L 90.623554 142.262942 
L 90.809631 143.086499 
L 90.995708 143.276729 
L 91.553939 145.481207 
L 91.740016 145.425199 
L 91.926093 146.115799 
L 92.298247 146.519586 
L 92.670401 147.503039 
L 92.856478 147.286353 
L 93.042555 148.069727 
L 93.228632 148.067439 
L 93.414709 147.897133 
L 94.345094 149.241602 
L 94.531171 149.89082 
L 94.717248 149.615076 
L 95.089402 150.888161 
L 95.647633 152.214924 
L 96.019787 152.309219 
L 96.391941 153.218913 
L 96.578018 153.25871 
L 96.764095 153.421422 
L 96.950172 153.153662 
L 97.322326 153.531366 
L 97.508403 154.33456 
L 97.69448 154.534568 
L 98.066634 155.22827 
L 98.438788 155.404003 
L 98.624865 155.312909 
L 98.997019 155.83314 
L 99.183096 155.891259 
L 99.369173 156.253921 
L 99.55525 156.197721 
L 99.741327 155.994683 
L 100.113481 156.356787 
L 100.857789 156.651755 
L 101.043866 157.06785 
L 101.229943 157.063232 
L 101.41602 157.424041 
L 101.602097 157.258127 
L 101.974251 157.51014 
L 102.160328 157.885338 
L 102.346405 157.624051 
L 102.532482 157.589108 
L 102.718559 157.803098 
L 103.090713 157.887495 
L 103.27679 158.063898 
L 103.462867 157.84881 
L 103.83502 158.051407 
L 104.021097 157.871198 
L 104.207174 157.848365 
L 104.393251 158.133794 
L 104.579328 158.215056 
L 104.765405 158.523606 
L 104.951482 158.36197 
L 105.137559 157.886391 
L 105.323636 158.183834 
L 105.509713 158.207802 
L 105.881867 158.657843 
L 106.067944 158.495769 
L 106.440098 158.589784 
L 106.626175 158.820741 
L 106.998329 158.43379 
L 107.184406 158.857488 
L 108.114791 159.163878 
L 108.486945 158.900297 
L 108.673022 159.203042 
L 108.859099 159.281068 
L 109.231253 158.991645 
L 109.789484 159.253484 
L 110.533792 159.420704 
L 110.905946 159.327814 
L 111.092023 159.174002 
L 111.2781 159.488005 
L 112.022408 159.350311 
L 112.394562 159.664498 
L 112.766716 159.566745 
L 113.13887 159.858529 
L 113.324947 159.73751 
L 114.255332 159.884827 
L 114.441409 159.846236 
L 114.627486 160.050486 
L 114.99964 159.898664 
L 115.743948 160.019873 
L 116.302179 160.192965 
L 116.674333 160.172191 
L 117.046486 160.069391 
L 117.41864 160.226335 
L 117.790794 160.107223 
L 118.721179 160.254276 
L 118.907256 160.263175 
L 119.093333 160.135927 
L 119.27941 160.217372 
L 119.837641 160.184362 
L 120.581949 160.386433 
L 120.954103 160.293171 
L 122.442719 160.479096 
L 124.303489 160.631957 
L 124.675643 160.610461 
L 125.047797 160.63531 
L 125.606028 160.69114 
L 125.978182 160.498809 
L 126.350336 160.686238 
L 126.72249 160.688444 
L 127.094644 160.542674 
L 127.466798 160.682638 
L 127.838952 160.609626 
L 128.025029 160.775995 
L 128.397183 160.783502 
L 129.513645 160.781052 
L 129.699722 160.673172 
L 130.071876 160.803213 
L 134.165569 160.854675 
L 134.351646 160.793539 
L 134.7238 160.913559 
L 135.095954 160.894998 
L 135.282031 160.727852 
L 135.840262 160.851754 
L 136.026339 160.762848 
L 136.398493 160.884632 
L 137.514955 160.888283 
L 137.701032 160.946717 
L 137.887109 160.849111 
L 138.259263 160.92939 
L 139.933956 160.970581 
L 141.980803 160.96567 
L 142.539034 160.961562 
L 143.097265 160.940209 
L 143.283342 160.963496 
L 143.469419 160.871122 
L 143.655495 161.005489 
L 144.399803 160.897804 
L 144.958034 160.946976 
L 147.563112 160.947399 
L 148.121343 160.90044 
L 148.865651 160.914415 
L 149.237805 160.937076 
L 149.423882 160.861623 
L 149.796036 160.977506 
L 151.842883 160.95868 
L 152.215037 160.948058 
L 152.401114 160.852065 
L 152.773268 160.912244 
L 153.331499 160.773587 
L 153.517576 160.621648 
L 154.261884 160.852078 
L 154.447961 160.63869 
L 154.634038 160.743203 
L 155.192269 160.620184 
L 155.378346 160.79311 
L 155.564423 160.642864 
L 155.936577 160.798028 
L 156.308731 160.793636 
L 156.680885 160.858025 
L 157.611269 160.912689 
L 157.797346 160.854597 
L 158.1695 160.968428 
L 159.099885 160.957183 
L 159.472039 161.026821 
L 159.844193 160.925722 
L 162.077117 161.017169 
L 162.263194 160.908431 
L 163.007502 161.029806 
L 164.123964 161.006133 
L 164.310041 161.12683 
L 164.868272 161.088272 
L 165.61258 161.132041 
L 168.589812 161.216657 
L 171.008812 161.271811 
L 174.358198 161.310893 
L 174.730352 161.263326 
L 176.591122 161.312084 
L 178.451892 161.331186 
L 189.802588 161.367077 
L 190.360819 161.371478 
L 193.338051 161.377783 
L 199.850745 161.388938 
L 204.874824 161.376696 
L 206.36344 161.391004 
L 210.64321 161.393637 
L 214.36475 161.40238 
L 224.971138 161.416975 
L 225.157215 161.202381 
L 225.343292 161.412833 
L 231.66991 161.415238 
L 249.905455 161.438244 
L 249.905455 161.438244 
" clip-path="url(#pf2d5633e37)" style="fill: none; stroke: #1f77b4; stroke-width: 1.5; stroke-linecap: square"/>
   </g>
   <g id="line2d_11">
    <path d="M 64.014545 32.203874 
L 69.782932 32.296957 
L 70.899394 33.091453 
L 71.643702 34.015397 
L 72.760164 35.9949 
L 72.946241 36.706318 
L 73.132318 36.881512 
L 73.876626 38.667677 
L 74.24878 39.870094 
L 74.434857 40.221172 
L 75.737396 44.783815 
L 76.481704 47.645472 
L 76.853857 49.037302 
L 77.226011 50.78966 
L 77.970319 54.387382 
L 79.086781 59.882562 
L 80.38932 65.776736 
L 80.575397 65.982291 
L 81.505782 69.659389 
L 81.691859 69.953381 
L 82.622244 73.914944 
L 82.808321 74.187341 
L 82.994398 75.2229 
L 83.552629 76.17994 
L 83.738706 76.651739 
L 84.11086 78.085842 
L 84.483014 78.70715 
L 84.669091 78.955728 
L 85.97163 83.18428 
L 86.157707 83.283584 
L 86.715938 84.511569 
L 86.902015 84.790525 
L 87.274169 85.735286 
L 87.460246 85.630346 
L 87.8324 86.417171 
L 88.018477 86.468427 
L 88.576708 88.110019 
L 88.762785 88.158295 
L 88.948862 88.440548 
L 89.134939 88.41709 
L 89.321016 88.77151 
L 89.507093 88.72225 
L 89.69317 89.262225 
L 89.879247 89.292108 
L 90.2514 89.824395 
L 90.623554 89.739577 
L 90.809631 89.560108 
L 91.367862 90.00233 
L 91.553939 89.886707 
L 91.740016 90.277785 
L 92.856478 90.384376 
L 93.042555 90.731802 
L 93.228632 90.749957 
L 93.600786 91.133586 
L 94.159017 92.299761 
L 94.531171 92.636593 
L 94.903325 92.310655 
L 95.089402 92.226048 
L 95.275479 92.288227 
L 95.647633 92.610567 
L 96.205864 92.830336 
L 96.578018 93.497341 
L 96.764095 93.673342 
L 97.136249 93.047948 
L 97.508403 94.038506 
L 98.066634 93.790094 
L 98.252711 93.855546 
L 98.438788 94.105347 
L 98.624865 94.106331 
L 99.183096 94.924796 
L 99.369173 95.023921 
L 99.55525 94.932305 
L 99.741327 94.535696 
L 99.927404 94.682954 
L 100.113481 94.447754 
L 100.299558 94.450022 
L 100.671712 95.438662 
L 101.043866 95.902107 
L 101.41602 95.590022 
L 102.160328 96.077896 
L 102.532482 96.08107 
L 102.718559 96.1663 
L 102.904636 96.021171 
L 103.090713 96.138257 
L 103.462867 95.801197 
L 103.648943 95.564213 
L 104.021097 96.269878 
L 104.393251 96.877628 
L 104.579328 96.582714 
L 104.765405 96.651 
L 104.951482 96.988644 
L 105.323636 96.991529 
L 105.509713 96.680605 
L 105.881867 97.027659 
L 106.067944 97.084151 
L 106.998329 98.262616 
L 107.184406 98.157086 
L 107.370483 97.918602 
L 107.742637 97.180553 
L 107.928714 97.127636 
L 108.114791 97.891276 
L 108.300868 97.95411 
L 108.486945 97.408771 
L 108.859099 98.223967 
L 109.045176 97.974138 
L 109.231253 98.075748 
L 109.41733 97.99526 
L 109.789484 98.659547 
L 109.975561 98.663527 
L 110.161638 98.545635 
L 110.347715 98.797555 
L 110.533792 99.258693 
L 110.719869 99.087767 
L 110.905946 99.261789 
L 111.650254 98.832062 
L 111.836331 98.908515 
L 112.022408 98.853891 
L 112.394562 99.828795 
L 112.580639 99.623051 
L 112.952793 99.774043 
L 113.13887 99.660399 
L 113.324947 99.881979 
L 113.511024 99.804048 
L 113.697101 100.134911 
L 114.255332 99.218093 
L 114.627486 99.257475 
L 114.813563 98.690002 
L 115.185717 99.549472 
L 115.371794 99.283523 
L 115.557871 98.779717 
L 115.743948 99.252439 
L 116.116102 100.575221 
L 116.302179 100.269522 
L 116.488256 100.572225 
L 116.674333 100.516328 
L 116.86041 99.96175 
L 117.41864 100.429992 
L 117.604717 100.95711 
L 118.162948 100.366236 
L 118.349025 100.392455 
L 118.721179 100.915049 
L 118.907256 101.334025 
L 119.093333 101.300385 
L 119.465487 100.56347 
L 120.209795 101.612715 
L 120.395872 101.198174 
L 120.581949 101.798365 
L 120.768026 101.946217 
L 121.14018 101.484679 
L 121.326257 101.599313 
L 121.512334 101.328772 
L 121.884488 102.380891 
L 122.070565 102.146731 
L 122.256642 102.131684 
L 122.442719 101.842622 
L 122.814873 102.141428 
L 123.187027 101.354909 
L 123.373104 101.273081 
L 123.559181 101.545878 
L 123.745258 102.059156 
L 123.931335 103.013466 
L 124.117412 102.844808 
L 124.303489 103.020714 
L 124.489566 103.005673 
L 125.047797 104.002445 
L 125.419951 104.904071 
L 125.792105 103.910434 
L 126.72249 105.188958 
L 126.908567 105.161365 
L 127.094644 105.616378 
L 127.280721 105.604366 
L 127.652875 104.970312 
L 127.838952 104.803116 
L 128.025029 105.240608 
L 128.397183 104.242975 
L 128.58326 105.003925 
L 128.769337 104.947355 
L 128.955414 105.165284 
L 129.141491 104.491804 
L 129.513645 104.661267 
L 130.071876 105.920881 
L 130.257952 105.598935 
L 130.444029 106.178087 
L 130.630106 105.498848 
L 130.816183 105.781195 
L 131.188337 105.198102 
L 131.560491 106.42069 
L 131.746568 106.842568 
L 131.932645 106.482629 
L 132.118722 107.227059 
L 132.304799 107.342933 
L 132.490876 107.812787 
L 132.676953 107.573018 
L 132.86303 107.596253 
L 133.607338 108.546789 
L 133.793415 108.349994 
L 133.979492 108.595298 
L 134.351646 108.470198 
L 134.537723 108.992546 
L 134.7238 108.944854 
L 134.909877 109.718377 
L 135.095954 109.351279 
L 135.468108 109.645188 
L 135.840262 109.858492 
L 136.026339 110.388795 
L 136.398493 109.353325 
L 136.956724 110.094014 
L 137.142801 110.013854 
L 137.328878 110.108066 
L 137.514955 109.956951 
L 137.701032 110.6233 
L 137.887109 110.016616 
L 138.073186 110.536909 
L 138.259263 109.855335 
L 138.44534 110.004137 
L 138.631417 109.428626 
L 139.003571 110.770218 
L 139.375725 109.869659 
L 139.561802 109.619435 
L 140.120033 111.104421 
L 140.30611 111.279265 
L 140.492187 111.234847 
L 140.678264 111.064816 
L 141.050418 111.827067 
L 141.236495 112.583748 
L 141.422572 112.356764 
L 141.608649 111.948966 
L 141.794726 112.290656 
L 141.980803 111.902558 
L 142.352957 113.257656 
L 142.539034 113.043096 
L 142.725111 113.417315 
L 142.911188 113.399583 
L 143.097265 113.210731 
L 143.283342 113.621898 
L 143.469419 113.369172 
L 143.841572 114.032797 
L 144.027649 113.721346 
L 144.213726 113.825586 
L 144.399803 114.202022 
L 144.58588 115.044272 
L 144.771957 114.634762 
L 144.958034 114.972266 
L 145.144111 113.884423 
L 145.330188 114.11806 
L 145.516265 114.105759 
L 145.702342 114.254728 
L 145.888419 115.387193 
L 146.260573 115.342291 
L 146.44665 115.591798 
L 146.632727 115.503273 
L 146.818804 115.739364 
L 147.004881 115.485196 
L 147.377035 114.49199 
L 147.563112 115.415597 
L 147.749189 115.111147 
L 147.935266 115.585931 
L 148.121343 116.399079 
L 148.493497 115.435216 
L 148.865651 116.245957 
L 149.051728 116.671676 
L 149.237805 116.498438 
L 149.609959 118.116415 
L 149.796036 118.075718 
L 149.982113 118.430368 
L 150.16819 118.132888 
L 150.354267 118.354141 
L 150.540344 119.053969 
L 150.726421 119.043719 
L 150.912498 119.449171 
L 151.098575 119.578208 
L 151.284652 119.274896 
L 151.656806 119.546351 
L 151.842883 119.218919 
L 152.02896 119.694887 
L 152.215037 119.585317 
L 152.401114 120.439559 
L 152.587191 120.293394 
L 152.959345 120.427316 
L 153.145422 120.058731 
L 153.331499 120.04606 
L 153.517576 120.956413 
L 153.703653 121.145921 
L 153.88973 120.540936 
L 154.261884 121.055803 
L 154.447961 120.909024 
L 154.820115 122.225316 
L 155.006192 122.537737 
L 155.192269 122.347832 
L 155.564423 123.379964 
L 155.7505 123.419475 
L 155.936577 123.289532 
L 156.122654 123.612863 
L 156.494808 122.731178 
L 156.680885 122.742362 
L 156.866962 123.192749 
L 157.053038 123.076259 
L 157.425192 123.708734 
L 157.797346 122.087666 
L 157.983423 122.25479 
L 158.541654 124.085257 
L 158.727731 123.780397 
L 158.913808 123.694871 
L 159.099885 124.491988 
L 159.285962 124.234226 
L 159.472039 124.357796 
L 159.658116 125.179184 
L 159.844193 125.325855 
L 160.03027 125.198489 
L 160.216347 124.863841 
L 160.774578 126.85644 
L 160.960655 126.739065 
L 161.146732 126.859795 
L 161.332809 126.177031 
L 161.89104 125.618193 
L 162.077117 125.904931 
L 162.263194 126.939818 
L 162.449271 126.540614 
L 162.635348 126.826235 
L 162.821425 128.067294 
L 163.193579 127.803127 
L 163.565733 128.68547 
L 163.75181 128.376553 
L 163.937887 128.324978 
L 164.123964 128.427792 
L 164.310041 128.686437 
L 164.682195 129.894901 
L 164.868272 129.485285 
L 165.054349 129.408447 
L 165.240426 129.618249 
L 165.426503 130.405085 
L 165.61258 130.099175 
L 165.798657 130.837466 
L 166.170811 131.349065 
L 166.542965 130.981416 
L 166.729042 131.560193 
L 166.915119 131.126105 
L 167.287273 131.489363 
L 167.47335 131.080472 
L 167.845504 132.100568 
L 168.217658 131.739281 
L 168.775889 133.615517 
L 169.148043 134.420507 
L 169.33412 134.058679 
L 169.520197 133.356366 
L 169.706274 133.578578 
L 169.892351 133.593641 
L 170.078428 134.28293 
L 170.450581 133.80435 
L 170.636658 133.750215 
L 170.822735 134.171762 
L 171.008812 134.285737 
L 171.194889 134.061661 
L 171.380966 134.682535 
L 171.567043 134.874661 
L 171.75312 134.743107 
L 172.311351 136.08745 
L 172.497428 136.087347 
L 172.683505 136.381981 
L 172.869582 136.061964 
L 173.055659 136.070266 
L 173.241736 135.63841 
L 173.427813 135.824677 
L 173.61389 135.462879 
L 174.172121 135.648304 
L 174.358198 135.365943 
L 174.730352 136.248993 
L 174.916429 136.826766 
L 175.102506 136.538824 
L 175.288583 137.39345 
L 175.47466 136.63539 
L 175.846814 136.138911 
L 176.032891 136.617795 
L 176.218968 136.517518 
L 176.777199 137.474991 
L 176.963276 137.324382 
L 177.149353 137.617524 
L 177.33543 137.274274 
L 177.521507 137.308407 
L 177.707584 137.078738 
L 178.451892 138.593375 
L 178.824046 138.321511 
L 179.1962 138.674463 
L 179.382277 138.472825 
L 179.754431 138.880476 
L 179.940508 139.573196 
L 180.126585 139.516329 
L 180.498739 140.216474 
L 180.870893 141.29711 
L 181.05697 140.963343 
L 181.243047 141.313736 
L 181.429124 141.163159 
L 181.615201 141.777338 
L 181.801278 141.982129 
L 182.359509 140.74033 
L 182.545586 140.647522 
L 182.731663 140.982885 
L 182.91774 140.37602 
L 183.103817 140.995332 
L 183.289894 140.664125 
L 183.848124 141.735401 
L 184.034201 141.633751 
L 184.220278 141.800691 
L 184.406355 142.227685 
L 184.592432 142.252331 
L 184.778509 141.757241 
L 184.964586 141.822212 
L 185.150663 141.292277 
L 185.522817 141.662074 
L 185.708894 143.147127 
L 185.894971 143.498043 
L 186.267125 144.427366 
L 186.453202 144.346425 
L 186.639279 144.533351 
L 186.825356 143.995423 
L 187.011433 144.089847 
L 187.19751 143.940441 
L 187.569664 144.764403 
L 187.755741 143.993294 
L 187.941818 143.871354 
L 188.127895 143.477545 
L 188.313972 144.874999 
L 188.500049 144.228423 
L 188.686126 144.527182 
L 189.05828 145.41781 
L 189.430434 144.285859 
L 189.616511 144.671807 
L 190.174742 144.181234 
L 190.546896 143.441612 
L 190.732973 143.97945 
L 190.91905 143.914839 
L 191.291204 143.041142 
L 191.477281 143.286473 
L 191.849435 144.718164 
L 192.035512 144.562066 
L 192.221589 144.717866 
L 192.593743 143.877491 
L 192.77982 143.792272 
L 193.151974 144.778803 
L 193.338051 144.642019 
L 193.896282 146.057692 
L 194.082359 145.79758 
L 194.268436 145.086915 
L 194.454513 145.594721 
L 194.64059 145.626872 
L 194.826667 145.398164 
L 195.012744 145.360429 
L 195.384898 146.205747 
L 195.757052 145.168498 
L 195.943129 144.954188 
L 196.129206 145.398514 
L 196.687437 145.534283 
L 196.873514 146.005535 
L 197.05959 146.880868 
L 197.245667 146.202829 
L 197.617821 146.043942 
L 197.989975 147.286927 
L 198.176052 147.250616 
L 198.548206 147.732372 
L 199.478591 147.505213 
L 199.664668 147.796385 
L 199.850745 147.877874 
L 200.222899 148.501674 
L 200.408976 148.338636 
L 200.595053 148.61325 
L 200.78113 147.98679 
L 200.967207 148.377072 
L 201.153284 148.393485 
L 201.339361 148.858577 
L 201.525438 148.671849 
L 201.711515 148.684135 
L 201.897592 149.251979 
L 202.455823 149.264208 
L 202.6419 149.677644 
L 202.827977 149.416005 
L 203.200131 150.143742 
L 203.572285 149.944802 
L 203.758362 150.137351 
L 203.944439 149.77683 
L 204.130516 148.835219 
L 204.50267 149.885244 
L 204.874824 149.207115 
L 205.060901 149.478759 
L 205.433055 150.743633 
L 205.805209 150.713481 
L 205.991286 150.294956 
L 206.549517 150.211027 
L 206.735594 149.876604 
L 206.921671 150.113673 
L 207.107748 150.718889 
L 207.479902 150.410853 
L 207.665979 150.357918 
L 207.852056 150.838503 
L 208.410287 151.199807 
L 208.596364 151.452826 
L 208.782441 150.719198 
L 208.968518 150.900259 
L 209.340672 151.510324 
L 209.712826 151.431216 
L 209.898903 151.161972 
L 210.271057 151.454663 
L 210.457133 151.133249 
L 211.015364 151.899026 
L 211.201441 151.748762 
L 211.387518 151.963203 
L 211.759672 152.558414 
L 212.131826 152.375555 
L 212.317903 152.318462 
L 212.690057 151.13631 
L 212.876134 151.278883 
L 213.248288 152.190634 
L 213.620442 151.353213 
L 213.992596 152.010808 
L 214.178673 151.901553 
L 214.36475 152.233027 
L 214.550827 152.079772 
L 214.736904 151.584891 
L 214.922981 151.700507 
L 215.109058 152.04966 
L 215.295135 151.859033 
L 215.481212 152.149698 
L 215.667289 151.542941 
L 216.039443 151.890639 
L 216.22552 152.976802 
L 216.597674 152.603874 
L 216.969828 153.550315 
L 217.155905 152.729383 
L 217.341982 152.92012 
L 217.528059 153.419192 
L 218.272367 153.852446 
L 218.458444 153.671517 
L 218.830598 154.111508 
L 219.016675 154.20373 
L 219.388829 153.719306 
L 219.574906 153.836489 
L 219.760983 153.362752 
L 219.94706 153.462151 
L 220.319214 154.357682 
L 220.505291 154.240065 
L 220.691368 154.863622 
L 220.877445 154.641933 
L 221.063522 154.924013 
L 221.435676 154.271867 
L 221.80783 154.024624 
L 221.993907 154.13296 
L 222.366061 154.719797 
L 222.552138 154.727551 
L 222.738215 154.387463 
L 222.924292 154.617287 
L 223.110369 154.604554 
L 223.296446 154.322507 
L 223.482523 153.833289 
L 223.6686 154.361761 
L 223.854676 154.242283 
L 224.040753 153.866747 
L 224.22683 154.112285 
L 224.598984 153.672719 
L 224.785061 153.811797 
L 224.971138 153.773959 
L 225.157215 153.989864 
L 225.343292 153.841668 
L 226.0876 153.873033 
L 226.273677 153.516958 
L 226.831908 155.024343 
L 227.204062 155.196722 
L 227.390139 154.980023 
L 227.576216 154.933885 
L 227.94837 155.210978 
L 228.134447 155.891776 
L 228.506601 155.952592 
L 228.692678 155.696417 
L 228.878755 155.816942 
L 229.064832 155.591129 
L 229.250909 155.713449 
L 229.436986 155.701305 
L 229.623063 155.53711 
L 229.80914 155.9712 
L 229.995217 155.920967 
L 230.367371 156.283642 
L 230.739525 156.467375 
L 230.925602 156.103443 
L 231.111679 156.006919 
L 231.483833 156.532664 
L 231.66991 156.225183 
L 231.855987 156.293923 
L 232.042064 156.652223 
L 232.228141 156.417181 
L 232.414218 155.97044 
L 232.600295 156.458379 
L 232.786372 156.194254 
L 232.972449 156.369066 
L 233.158526 156.308537 
L 233.53068 155.581918 
L 234.088911 155.942126 
L 234.274988 155.67923 
L 234.647142 155.983085 
L 234.833219 155.397246 
L 235.205373 155.777986 
L 235.577527 156.413391 
L 235.763604 156.392361 
L 235.949681 156.614167 
L 237.252219 156.68386 
L 237.438296 156.482949 
L 237.624373 156.096104 
L 237.81045 156.361234 
L 237.996527 156.195167 
L 238.368681 156.277711 
L 238.554758 155.904715 
L 239.485143 157.144767 
L 239.67122 156.432772 
L 240.043374 156.577428 
L 240.415528 156.717033 
L 240.787682 156.923062 
L 240.973759 157.162715 
L 241.159836 157.108458 
L 241.345913 157.378177 
L 241.53199 157.127854 
L 241.904144 157.066771 
L 242.276298 157.368603 
L 242.462375 157.629769 
L 242.648452 157.578419 
L 243.020606 156.951314 
L 243.206683 157.311811 
L 243.39276 157.16615 
L 243.578837 157.626498 
L 243.764914 157.61608 
L 243.950991 157.786487 
L 244.323145 157.715094 
L 244.509222 157.46811 
L 244.881376 157.635241 
L 245.25353 157.62692 
L 245.625684 158.034872 
L 245.811761 157.946129 
L 245.997838 158.0467 
L 246.369992 157.92503 
L 246.742146 158.108056 
L 246.928223 157.916601 
L 247.1143 157.908616 
L 247.300377 158.03463 
L 247.486454 157.866217 
L 247.858608 158.222029 
L 248.416839 158.113069 
L 248.602916 158.228165 
L 248.788993 158.147743 
L 248.97507 158.455487 
L 249.533301 158.049799 
L 249.719378 157.731337 
L 249.905455 157.814414 
L 249.905455 157.814414 
" clip-path="url(#pf2d5633e37)" style="fill: none; stroke: #ff7f0e; stroke-width: 1.5; stroke-linecap: square"/>
   </g>
   <g id="patch_3">
    <path d="M 54.72 168.48 
L 54.72 21.6 
" style="fill: none; stroke: #000000; stroke-width: 0.8; stroke-linejoin: miter; stroke-linecap: square"/>
   </g>
   <g id="patch_4">
    <path d="M 259.2 168.48 
L 259.2 21.6 
" style="fill: none; stroke: #000000; stroke-width: 0.8; stroke-linejoin: miter; stroke-linecap: square"/>
   </g>
   <g id="patch_5">
    <path d="M 54.72 168.48 
L 259.2 168.48 
" style="fill: none; stroke: #000000; stroke-width: 0.8; stroke-linejoin: miter; stroke-linecap: square"/>
   </g>
   <g id="patch_6">
    <path d="M 54.72 21.6 
L 259.2 21.6 
" style="fill: none; stroke: #000000; stroke-width: 0.8; stroke-linejoin: miter; stroke-linecap: square"/>
   </g>
   <g id="legend_1">
    <g id="patch_7">
     <path d="M 154.996875 86.900625 
L 246.6 86.900625 
Q 250.2 86.900625 250.2 83.300625 
L 250.2 34.2 
Q 250.2 30.6 246.6 30.6 
L 154.996875 30.6 
Q 151.396875 30.6 151.396875 34.2 
L 151.396875 83.300625 
Q 151.396875 86.900625 154.996875 86.900625 
z
" style="fill: #ffffff; opacity: 0.8; stroke: #cccccc; stroke-linejoin: miter"/>
    </g>
    <g id="line2d_12">
     <path d="M 158.596875 44.1 
L 176.596875 44.1 
L 194.596875 44.1 
" style="fill: none; stroke: #1f77b4; stroke-width: 1.5; stroke-linecap: square"/>
    </g>
    <g id="text_12">
     <!-- SDT -->
     <g transform="translate(208.996875 50.4)scale(0.18 -0.18)">
      <defs>
       <path id="TimesNewRomanPSMT-53" d="M 2934 4334 
L 2934 2869 
L 2819 2869 
Q 2763 3291 2617 3541 
Q 2472 3791 2203 3937 
Q 1934 4084 1647 4084 
Q 1322 4084 1109 3886 
Q 897 3688 897 3434 
Q 897 3241 1031 3081 
Q 1225 2847 1953 2456 
Q 2547 2138 2764 1967 
Q 2981 1797 3098 1565 
Q 3216 1334 3216 1081 
Q 3216 600 2842 251 
Q 2469 -97 1881 -97 
Q 1697 -97 1534 -69 
Q 1438 -53 1133 45 
Q 828 144 747 144 
Q 669 144 623 97 
Q 578 50 556 -97 
L 441 -97 
L 441 1356 
L 556 1356 
Q 638 900 775 673 
Q 913 447 1195 297 
Q 1478 147 1816 147 
Q 2206 147 2432 353 
Q 2659 559 2659 841 
Q 2659 997 2573 1156 
Q 2488 1316 2306 1453 
Q 2184 1547 1640 1851 
Q 1097 2156 867 2337 
Q 638 2519 519 2737 
Q 400 2956 400 3219 
Q 400 3675 750 4004 
Q 1100 4334 1641 4334 
Q 1978 4334 2356 4169 
Q 2531 4091 2603 4091 
Q 2684 4091 2736 4139 
Q 2788 4188 2819 4334 
L 2934 4334 
z
" transform="scale(0.015625)"/>
       <path id="TimesNewRomanPSMT-44" d="M 109 0 
L 109 116 
L 269 116 
Q 538 116 650 288 
Q 719 391 719 750 
L 719 3488 
Q 719 3884 631 3984 
Q 509 4122 269 4122 
L 109 4122 
L 109 4238 
L 1834 4238 
Q 2784 4238 3279 4022 
Q 3775 3806 4076 3303 
Q 4378 2800 4378 2141 
Q 4378 1256 3841 663 
Q 3238 0 2003 0 
L 109 0 
z
M 1319 306 
Q 1716 219 1984 219 
Q 2709 219 3187 728 
Q 3666 1238 3666 2109 
Q 3666 2988 3187 3494 
Q 2709 4000 1959 4000 
Q 1678 4000 1319 3909 
L 1319 306 
z
" transform="scale(0.015625)"/>
       <path id="TimesNewRomanPSMT-54" d="M 3703 4238 
L 3750 3244 
L 3631 3244 
Q 3597 3506 3538 3619 
Q 3441 3800 3280 3886 
Q 3119 3972 2856 3972 
L 2259 3972 
L 2259 734 
Q 2259 344 2344 247 
Q 2463 116 2709 116 
L 2856 116 
L 2856 0 
L 1059 0 
L 1059 116 
L 1209 116 
Q 1478 116 1591 278 
Q 1659 378 1659 734 
L 1659 3972 
L 1150 3972 
Q 853 3972 728 3928 
Q 566 3869 450 3700 
Q 334 3531 313 3244 
L 194 3244 
L 244 4238 
L 3703 4238 
z
" transform="scale(0.015625)"/>
      </defs>
      <use xlink:href="#TimesNewRomanPSMT-53"/>
      <use xlink:href="#TimesNewRomanPSMT-44" x="55.615234"/>
      <use xlink:href="#TimesNewRomanPSMT-54" x="127.832031"/>
     </g>
    </g>
    <g id="line2d_13">
     <path d="M 158.596875 69.550312 
L 176.596875 69.550312 
L 194.596875 69.550312 
" style="fill: none; stroke: #ff7f0e; stroke-width: 1.5; stroke-linecap: square"/>
    </g>
    <g id="text_13">
     <!-- TET -->
     <g transform="translate(208.996875 75.850312)scale(0.18 -0.18)">
      <use xlink:href="#TimesNewRomanPSMT-54"/>
      <use xlink:href="#TimesNewRomanPSMT-45" x="61.083984"/>
      <use xlink:href="#TimesNewRomanPSMT-54" x="122.167969"/>
     </g>
    </g>
   </g>
  </g>
 </g>
 <defs>
  <clipPath id="pf2d5633e37">
   <rect x="54.72" y="21.6" width="204.48" height="146.88"/>
  </clipPath>
 </defs>
</svg>
